G04 #@! TF.GenerationSoftware,KiCad,Pcbnew,8.0.8*
G04 #@! TF.CreationDate,2025-01-21T11:13:05-05:00*
G04 #@! TF.ProjectId,_HW_ESP32-IsoLink,5f48575f-4553-4503-9332-2d49736f4c69,rev?*
G04 #@! TF.SameCoordinates,Original*
G04 #@! TF.FileFunction,Copper,L1,Top*
G04 #@! TF.FilePolarity,Positive*
%FSLAX46Y46*%
G04 Gerber Fmt 4.6, Leading zero omitted, Abs format (unit mm)*
G04 Created by KiCad (PCBNEW 8.0.8) date 2025-01-21 11:13:05*
%MOMM*%
%LPD*%
G01*
G04 APERTURE LIST*
G04 Aperture macros list*
%AMRoundRect*
0 Rectangle with rounded corners*
0 $1 Rounding radius*
0 $2 $3 $4 $5 $6 $7 $8 $9 X,Y pos of 4 corners*
0 Add a 4 corners polygon primitive as box body*
4,1,4,$2,$3,$4,$5,$6,$7,$8,$9,$2,$3,0*
0 Add four circle primitives for the rounded corners*
1,1,$1+$1,$2,$3*
1,1,$1+$1,$4,$5*
1,1,$1+$1,$6,$7*
1,1,$1+$1,$8,$9*
0 Add four rect primitives between the rounded corners*
20,1,$1+$1,$2,$3,$4,$5,0*
20,1,$1+$1,$4,$5,$6,$7,0*
20,1,$1+$1,$6,$7,$8,$9,0*
20,1,$1+$1,$8,$9,$2,$3,0*%
G04 Aperture macros list end*
G04 #@! TA.AperFunction,SMDPad,CuDef*
%ADD10RoundRect,0.200000X-0.200000X-0.275000X0.200000X-0.275000X0.200000X0.275000X-0.200000X0.275000X0*%
G04 #@! TD*
G04 #@! TA.AperFunction,SMDPad,CuDef*
%ADD11RoundRect,0.150000X-0.825000X-0.150000X0.825000X-0.150000X0.825000X0.150000X-0.825000X0.150000X0*%
G04 #@! TD*
G04 #@! TA.AperFunction,SMDPad,CuDef*
%ADD12RoundRect,0.218750X-0.218750X-0.256250X0.218750X-0.256250X0.218750X0.256250X-0.218750X0.256250X0*%
G04 #@! TD*
G04 #@! TA.AperFunction,SMDPad,CuDef*
%ADD13RoundRect,0.225000X0.225000X0.250000X-0.225000X0.250000X-0.225000X-0.250000X0.225000X-0.250000X0*%
G04 #@! TD*
G04 #@! TA.AperFunction,SMDPad,CuDef*
%ADD14RoundRect,0.150000X0.150000X-0.512500X0.150000X0.512500X-0.150000X0.512500X-0.150000X-0.512500X0*%
G04 #@! TD*
G04 #@! TA.AperFunction,SMDPad,CuDef*
%ADD15RoundRect,0.225000X-0.225000X-0.250000X0.225000X-0.250000X0.225000X0.250000X-0.225000X0.250000X0*%
G04 #@! TD*
G04 #@! TA.AperFunction,SMDPad,CuDef*
%ADD16RoundRect,0.250000X-0.300000X-0.300000X0.300000X-0.300000X0.300000X0.300000X-0.300000X0.300000X0*%
G04 #@! TD*
G04 #@! TA.AperFunction,SMDPad,CuDef*
%ADD17RoundRect,0.100000X-0.225000X-0.100000X0.225000X-0.100000X0.225000X0.100000X-0.225000X0.100000X0*%
G04 #@! TD*
G04 #@! TA.AperFunction,SMDPad,CuDef*
%ADD18RoundRect,0.100000X0.225000X0.100000X-0.225000X0.100000X-0.225000X-0.100000X0.225000X-0.100000X0*%
G04 #@! TD*
G04 #@! TA.AperFunction,SMDPad,CuDef*
%ADD19R,1.600000X3.200000*%
G04 #@! TD*
G04 #@! TA.AperFunction,ComponentPad*
%ADD20R,2.000000X2.000000*%
G04 #@! TD*
G04 #@! TA.AperFunction,ComponentPad*
%ADD21C,2.000000*%
G04 #@! TD*
G04 #@! TA.AperFunction,SMDPad,CuDef*
%ADD22RoundRect,0.200000X0.200000X0.275000X-0.200000X0.275000X-0.200000X-0.275000X0.200000X-0.275000X0*%
G04 #@! TD*
G04 #@! TA.AperFunction,SMDPad,CuDef*
%ADD23R,1.250000X1.000000*%
G04 #@! TD*
G04 #@! TA.AperFunction,SMDPad,CuDef*
%ADD24R,2.100000X1.000000*%
G04 #@! TD*
G04 #@! TA.AperFunction,SMDPad,CuDef*
%ADD25RoundRect,0.150000X-0.150000X0.512500X-0.150000X-0.512500X0.150000X-0.512500X0.150000X0.512500X0*%
G04 #@! TD*
G04 #@! TA.AperFunction,SMDPad,CuDef*
%ADD26RoundRect,0.100000X-0.575000X0.100000X-0.575000X-0.100000X0.575000X-0.100000X0.575000X0.100000X0*%
G04 #@! TD*
G04 #@! TA.AperFunction,ComponentPad*
%ADD27O,1.550000X0.890000*%
G04 #@! TD*
G04 #@! TA.AperFunction,SMDPad,CuDef*
%ADD28RoundRect,0.250000X-0.525000X0.475000X-0.525000X-0.475000X0.525000X-0.475000X0.525000X0.475000X0*%
G04 #@! TD*
G04 #@! TA.AperFunction,ComponentPad*
%ADD29O,0.950000X1.250000*%
G04 #@! TD*
G04 #@! TA.AperFunction,SMDPad,CuDef*
%ADD30RoundRect,0.250000X-0.525000X0.500000X-0.525000X-0.500000X0.525000X-0.500000X0.525000X0.500000X0*%
G04 #@! TD*
G04 #@! TA.AperFunction,SMDPad,CuDef*
%ADD31RoundRect,0.112500X0.112500X0.237500X-0.112500X0.237500X-0.112500X-0.237500X0.112500X-0.237500X0*%
G04 #@! TD*
G04 #@! TA.AperFunction,SMDPad,CuDef*
%ADD32C,1.000000*%
G04 #@! TD*
G04 #@! TA.AperFunction,SMDPad,CuDef*
%ADD33R,3.800000X1.100000*%
G04 #@! TD*
G04 #@! TA.AperFunction,SMDPad,CuDef*
%ADD34R,5.300000X2.300000*%
G04 #@! TD*
G04 #@! TA.AperFunction,SMDPad,CuDef*
%ADD35R,1.500000X0.900000*%
G04 #@! TD*
G04 #@! TA.AperFunction,SMDPad,CuDef*
%ADD36R,0.900000X1.500000*%
G04 #@! TD*
G04 #@! TA.AperFunction,SMDPad,CuDef*
%ADD37R,0.900000X0.900000*%
G04 #@! TD*
G04 #@! TA.AperFunction,ComponentPad*
%ADD38C,0.400000*%
G04 #@! TD*
G04 #@! TA.AperFunction,SMDPad,CuDef*
%ADD39RoundRect,0.062500X-0.062500X0.337500X-0.062500X-0.337500X0.062500X-0.337500X0.062500X0.337500X0*%
G04 #@! TD*
G04 #@! TA.AperFunction,SMDPad,CuDef*
%ADD40RoundRect,0.062500X-0.337500X0.062500X-0.337500X-0.062500X0.337500X-0.062500X0.337500X0.062500X0*%
G04 #@! TD*
G04 #@! TA.AperFunction,HeatsinkPad*
%ADD41C,0.500000*%
G04 #@! TD*
G04 #@! TA.AperFunction,HeatsinkPad*
%ADD42R,2.750000X2.750000*%
G04 #@! TD*
G04 #@! TA.AperFunction,SMDPad,CuDef*
%ADD43RoundRect,0.375000X-0.375000X0.625000X-0.375000X-0.625000X0.375000X-0.625000X0.375000X0.625000X0*%
G04 #@! TD*
G04 #@! TA.AperFunction,SMDPad,CuDef*
%ADD44RoundRect,0.500000X-1.400000X0.500000X-1.400000X-0.500000X1.400000X-0.500000X1.400000X0.500000X0*%
G04 #@! TD*
G04 #@! TA.AperFunction,SMDPad,CuDef*
%ADD45R,1.000000X0.599999*%
G04 #@! TD*
G04 #@! TA.AperFunction,SMDPad,CuDef*
%ADD46RoundRect,0.100000X0.100000X-0.225000X0.100000X0.225000X-0.100000X0.225000X-0.100000X-0.225000X0*%
G04 #@! TD*
G04 #@! TA.AperFunction,SMDPad,CuDef*
%ADD47R,0.599999X1.000000*%
G04 #@! TD*
G04 #@! TA.AperFunction,SMDPad,CuDef*
%ADD48RoundRect,0.218750X0.218750X0.256250X-0.218750X0.256250X-0.218750X-0.256250X0.218750X-0.256250X0*%
G04 #@! TD*
G04 #@! TA.AperFunction,SMDPad,CuDef*
%ADD49R,1.550000X4.699000*%
G04 #@! TD*
G04 #@! TA.AperFunction,ViaPad*
%ADD50C,0.500000*%
G04 #@! TD*
G04 #@! TA.AperFunction,ViaPad*
%ADD51C,0.600000*%
G04 #@! TD*
G04 #@! TA.AperFunction,Conductor*
%ADD52C,0.254000*%
G04 #@! TD*
G04 #@! TA.AperFunction,Conductor*
%ADD53C,0.635000*%
G04 #@! TD*
G04 #@! TA.AperFunction,Conductor*
%ADD54C,0.381000*%
G04 #@! TD*
G04 #@! TA.AperFunction,Conductor*
%ADD55C,0.200000*%
G04 #@! TD*
G04 #@! TA.AperFunction,Conductor*
%ADD56C,0.508000*%
G04 #@! TD*
G04 APERTURE END LIST*
D10*
X185611000Y-238226600D03*
X187261000Y-238226600D03*
D11*
X168975000Y-236601000D03*
X168975000Y-237871000D03*
X168975000Y-239141000D03*
X168975000Y-240411000D03*
X173925000Y-240411000D03*
X173925000Y-239141000D03*
X173925000Y-237871000D03*
X173925000Y-236601000D03*
D12*
X193268500Y-229616000D03*
X194843500Y-229616000D03*
X159587999Y-289712400D03*
X161162999Y-289712400D03*
D13*
X183528000Y-224282000D03*
X181978000Y-224282000D03*
D14*
X182565000Y-221228500D03*
X183515000Y-221228500D03*
X184465000Y-221228500D03*
X184465000Y-218953500D03*
X183515000Y-218953500D03*
X182565000Y-218953500D03*
D10*
X193228600Y-260858000D03*
X194878600Y-260858000D03*
D15*
X189979000Y-288036000D03*
X191529000Y-288036000D03*
D16*
X188084000Y-232029000D03*
X190884000Y-232029000D03*
D10*
X193231000Y-272034000D03*
X194881000Y-272034000D03*
D17*
X189169000Y-258430000D03*
X189169000Y-259080000D03*
X189169000Y-259730000D03*
X191069000Y-259730000D03*
X191069000Y-258430000D03*
D12*
X159587999Y-288036000D03*
X161162999Y-288036000D03*
D10*
X193231000Y-231394000D03*
X194881000Y-231394000D03*
D12*
X193268500Y-247904000D03*
X194843500Y-247904000D03*
D18*
X166050000Y-276494000D03*
X166050000Y-275844000D03*
X166050000Y-275194000D03*
X164150000Y-275194000D03*
X164150000Y-275844000D03*
X164150000Y-276494000D03*
D19*
X192659000Y-223988000D03*
X192659000Y-218988000D03*
D20*
X200764000Y-254767000D03*
D21*
X200764000Y-252227000D03*
D13*
X166002000Y-238506000D03*
X164452000Y-238506000D03*
D20*
X200764000Y-272034000D03*
D21*
X200764000Y-269494000D03*
X200764000Y-266954000D03*
D11*
X193740000Y-277495000D03*
X193740000Y-278765000D03*
X193740000Y-280035000D03*
X193740000Y-281305000D03*
X198690000Y-281305000D03*
X198690000Y-280035000D03*
X198690000Y-278765000D03*
X198690000Y-277495000D03*
D15*
X193281000Y-275590000D03*
X194831000Y-275590000D03*
X181851000Y-249809000D03*
X183401000Y-249809000D03*
D12*
X193268500Y-236728000D03*
X194843500Y-236728000D03*
D22*
X161200499Y-272237200D03*
X159550499Y-272237200D03*
D15*
X189979000Y-286512000D03*
X191529000Y-286512000D03*
D13*
X169939000Y-249809000D03*
X168389000Y-249809000D03*
D10*
X164402000Y-257175000D03*
X166052000Y-257175000D03*
D15*
X185661000Y-255778000D03*
X187211000Y-255778000D03*
D10*
X164402000Y-255143000D03*
X166052000Y-255143000D03*
D17*
X189169000Y-262036800D03*
X189169000Y-262686800D03*
X189169000Y-263336800D03*
X191069000Y-263336800D03*
X191069000Y-262036800D03*
D22*
X187997600Y-218719400D03*
X186347600Y-218719400D03*
D20*
X200764000Y-262133000D03*
D21*
X200764000Y-259593000D03*
D13*
X187922200Y-220167200D03*
X186372200Y-220167200D03*
D23*
X161609000Y-268732000D03*
X153859000Y-268732000D03*
D24*
X154843000Y-225806000D03*
X154843000Y-228346000D03*
X154843000Y-233426000D03*
X164943000Y-233426000D03*
X164943000Y-225806000D03*
D13*
X183350200Y-242341400D03*
X181800200Y-242341400D03*
D10*
X193231000Y-253492000D03*
X194881000Y-253492000D03*
X175832000Y-224282000D03*
X177482000Y-224282000D03*
D13*
X165986799Y-271170400D03*
X164436799Y-271170400D03*
D25*
X187132000Y-246004500D03*
X185232000Y-246004500D03*
X186182000Y-248279500D03*
D15*
X164325000Y-278765000D03*
X165875000Y-278765000D03*
D20*
X200764000Y-231780000D03*
D21*
X200764000Y-229240000D03*
D26*
X156594000Y-278100000D03*
X156594000Y-278750000D03*
X156594000Y-279400000D03*
X156594000Y-280050000D03*
X156594000Y-280700000D03*
D27*
X153894000Y-275900000D03*
D28*
X153894000Y-276375000D03*
D29*
X156594000Y-276900000D03*
D30*
X153894000Y-278400000D03*
X153894000Y-280400000D03*
D29*
X156594000Y-281900000D03*
D28*
X153894000Y-282425000D03*
D27*
X153894000Y-282900000D03*
D10*
X193231000Y-246126000D03*
X194881000Y-246126000D03*
D14*
X193360000Y-285617500D03*
X195260000Y-285617500D03*
X194310000Y-283342500D03*
D13*
X166002000Y-220472000D03*
X164452000Y-220472000D03*
D31*
X187213000Y-251984000D03*
X185913000Y-251984000D03*
X186563000Y-253984000D03*
D13*
X174511000Y-249809000D03*
X172961000Y-249809000D03*
D22*
X191579000Y-281178000D03*
X189929000Y-281178000D03*
D12*
X193268500Y-262685999D03*
X194843500Y-262685999D03*
D13*
X174511000Y-227573154D03*
X172961000Y-227573154D03*
X194803350Y-288036000D03*
X193253350Y-288036000D03*
D23*
X153859000Y-243459000D03*
X161609000Y-243459000D03*
D15*
X189979000Y-289712400D03*
X191529000Y-289712400D03*
D11*
X177865000Y-236601000D03*
X177865000Y-237871000D03*
X177865000Y-239141000D03*
X177865000Y-240411000D03*
X182815000Y-240411000D03*
X182815000Y-239141000D03*
X182815000Y-237871000D03*
X182815000Y-236601000D03*
D10*
X159550499Y-281813000D03*
X161200499Y-281813000D03*
X159576000Y-238506000D03*
X161226000Y-238506000D03*
X193231000Y-289712400D03*
X194881000Y-289712400D03*
X154115000Y-240284000D03*
X155765000Y-240284000D03*
D12*
X193268500Y-251714000D03*
X194843500Y-251714000D03*
D22*
X186626000Y-224282000D03*
X184976000Y-224282000D03*
D32*
X200914000Y-283718000D03*
D13*
X166002000Y-247142000D03*
X164452000Y-247142000D03*
D11*
X177865000Y-258953000D03*
X177865000Y-260223000D03*
X177865000Y-261493000D03*
X177865000Y-262763000D03*
X182815000Y-262763000D03*
X182815000Y-261493000D03*
X182815000Y-260223000D03*
X182815000Y-258953000D03*
D22*
X191579000Y-277368000D03*
X189929000Y-277368000D03*
D17*
X189174518Y-239671500D03*
X189174518Y-240321500D03*
X189174518Y-240971500D03*
X191074518Y-240971500D03*
X191074518Y-239671500D03*
D10*
X159550499Y-277241000D03*
X161200499Y-277241000D03*
X185611000Y-240538000D03*
X187261000Y-240538000D03*
D31*
X187213000Y-259858000D03*
X185913000Y-259858000D03*
X186563000Y-261858000D03*
D20*
X200764000Y-239781000D03*
D21*
X200764000Y-237241000D03*
D33*
X159275000Y-252699000D03*
X159275000Y-255199000D03*
X159275000Y-257199000D03*
X159275000Y-259699000D03*
D34*
X156875000Y-248799000D03*
X156875000Y-263599000D03*
D16*
X188084000Y-229616000D03*
X190884000Y-229616000D03*
D22*
X187261000Y-267970000D03*
X185611000Y-267970000D03*
D11*
X168975000Y-258953000D03*
X168975000Y-260223000D03*
X168975000Y-261493000D03*
X168975000Y-262763000D03*
X173925000Y-262763000D03*
X173925000Y-261493000D03*
X173925000Y-260223000D03*
X173925000Y-258953000D03*
D35*
X187059600Y-289507600D03*
X187059600Y-288237600D03*
X187059600Y-286967600D03*
X187059600Y-285697600D03*
X187059600Y-284427600D03*
X187059600Y-283157600D03*
X187059600Y-281887600D03*
X187059600Y-280617600D03*
X187059600Y-279347600D03*
X187059600Y-278077600D03*
X187059600Y-276807600D03*
X187059600Y-275537600D03*
X187059600Y-274267600D03*
X187059600Y-272997600D03*
D36*
X185294600Y-271747600D03*
X184024600Y-271747600D03*
X182754600Y-271747600D03*
X181484600Y-271747600D03*
X180214600Y-271747600D03*
X178944600Y-271747600D03*
X177674600Y-271747600D03*
X176404600Y-271747600D03*
X175134600Y-271747600D03*
X173864600Y-271747600D03*
X172594600Y-271747600D03*
X171324600Y-271747600D03*
D35*
X169559600Y-272997600D03*
X169559600Y-274267600D03*
X169559600Y-275537600D03*
X169559600Y-276807600D03*
X169559600Y-278077600D03*
X169559600Y-279347600D03*
X169559600Y-280617600D03*
X169559600Y-281887600D03*
X169559600Y-283157600D03*
X169559600Y-284427600D03*
X169559600Y-285697600D03*
X169559600Y-286967600D03*
X169559600Y-288237600D03*
X169559600Y-289507600D03*
D37*
X181209600Y-283187600D03*
D38*
X181209600Y-282487600D03*
D37*
X181209600Y-281787600D03*
D38*
X181209600Y-281087600D03*
D37*
X181209600Y-280387600D03*
D38*
X180509600Y-283187600D03*
X180509600Y-281787600D03*
X180509600Y-280387600D03*
D37*
X179809600Y-283187600D03*
D38*
X179809600Y-282487600D03*
D37*
X179809600Y-281787600D03*
D38*
X179809600Y-281087600D03*
D37*
X179809600Y-280387600D03*
D38*
X179109600Y-283187600D03*
X179109600Y-281787600D03*
X179109600Y-280387600D03*
D37*
X178409600Y-283187600D03*
D38*
X178409600Y-282487600D03*
D37*
X178409600Y-281787600D03*
D38*
X178409600Y-281087600D03*
D37*
X178409600Y-280387600D03*
D10*
X178880000Y-224282000D03*
X180530000Y-224282000D03*
D17*
X189169000Y-247254000D03*
X189169000Y-247904000D03*
X189169000Y-248554000D03*
X191069000Y-248554000D03*
X191069000Y-247254000D03*
D10*
X193231000Y-270357600D03*
X194881000Y-270357600D03*
D12*
X164439500Y-288036000D03*
X166014500Y-288036000D03*
D10*
X177279800Y-257175000D03*
X178929800Y-257175000D03*
D39*
X166223000Y-282251000D03*
X165723000Y-282251000D03*
X165223000Y-282251000D03*
X164723000Y-282251000D03*
X164223000Y-282251000D03*
X163723000Y-282251000D03*
D40*
X162998000Y-282976000D03*
X162998000Y-283476000D03*
X162998000Y-283976000D03*
X162998000Y-284476000D03*
X162998000Y-284976000D03*
X162998000Y-285476000D03*
D39*
X163723000Y-286201000D03*
X164223000Y-286201000D03*
X164723000Y-286201000D03*
X165223000Y-286201000D03*
X165723000Y-286201000D03*
X166223000Y-286201000D03*
D40*
X166948000Y-285476000D03*
X166948000Y-284976000D03*
X166948000Y-284476000D03*
X166948000Y-283976000D03*
X166948000Y-283476000D03*
X166948000Y-282976000D03*
D41*
X166098000Y-283101000D03*
X164973000Y-283101000D03*
X163848000Y-283101000D03*
X166098000Y-284226000D03*
X164973000Y-284226000D03*
D42*
X164973000Y-284226000D03*
D41*
X163848000Y-284226000D03*
X166098000Y-285351000D03*
X164973000Y-285351000D03*
X163848000Y-285351000D03*
D13*
X174511000Y-257175176D03*
X172961000Y-257175176D03*
D15*
X168389000Y-227561650D03*
X169939000Y-227561650D03*
D43*
X182767000Y-228117000D03*
X180467000Y-228117000D03*
D44*
X180467000Y-234417000D03*
D43*
X178167000Y-228117000D03*
D10*
X185611000Y-258318000D03*
X187261000Y-258318000D03*
D13*
X161150499Y-278765000D03*
X159600499Y-278765000D03*
D12*
X159587999Y-274193000D03*
X161162999Y-274193000D03*
D22*
X161200499Y-283337000D03*
X159550499Y-283337000D03*
X178929800Y-264871200D03*
X177279800Y-264871200D03*
D17*
X189169000Y-251064000D03*
X189169000Y-251714000D03*
X189169000Y-252364000D03*
X191069000Y-252364000D03*
X191069000Y-251064000D03*
D12*
X193268500Y-244348000D03*
X194843500Y-244348000D03*
D10*
X189929000Y-284988000D03*
X191579000Y-284988000D03*
D12*
X193268500Y-259080000D03*
X194843500Y-259080000D03*
D10*
X159550499Y-275717000D03*
X161200499Y-275717000D03*
D17*
X189169000Y-254620000D03*
X189169000Y-255270000D03*
X189169000Y-255920000D03*
X191069000Y-255920000D03*
X191069000Y-254620000D03*
D10*
X159550499Y-286385000D03*
X161200499Y-286385000D03*
D13*
X161150499Y-280289000D03*
X159600499Y-280289000D03*
X161176000Y-240284000D03*
X159626000Y-240284000D03*
D12*
X193268500Y-255270000D03*
X194843500Y-255270000D03*
D10*
X159550499Y-284861000D03*
X161200499Y-284861000D03*
D13*
X199403000Y-275590000D03*
X197853000Y-275590000D03*
D15*
X168389000Y-257175000D03*
X169939000Y-257175000D03*
D13*
X187211000Y-263398000D03*
X185661000Y-263398000D03*
D19*
X171069000Y-223988000D03*
X171069000Y-218988000D03*
D16*
X154175000Y-273177000D03*
X156975000Y-273177000D03*
D10*
X164402000Y-289712400D03*
X166052000Y-289712400D03*
D13*
X169939000Y-234823000D03*
X168389000Y-234823000D03*
D45*
X189480599Y-266054799D03*
X189480599Y-267004800D03*
X189480599Y-267954798D03*
X192230599Y-267954798D03*
X192230599Y-266054799D03*
D13*
X166002000Y-218694000D03*
X164452000Y-218694000D03*
D46*
X164577000Y-261808000D03*
X165227000Y-261808000D03*
X165877000Y-261808000D03*
X165877000Y-259908000D03*
X165227000Y-259908000D03*
X164577000Y-259908000D03*
D11*
X177865000Y-244221000D03*
X177865000Y-245491000D03*
X177865000Y-246761000D03*
X177865000Y-248031000D03*
X182815000Y-248031000D03*
X182815000Y-246761000D03*
X182815000Y-245491000D03*
X182815000Y-244221000D03*
X177865000Y-251587000D03*
X177865000Y-252857000D03*
X177865000Y-254127000D03*
X177865000Y-255397000D03*
X182815000Y-255397000D03*
X182815000Y-254127000D03*
X182815000Y-252857000D03*
X182815000Y-251587000D03*
D12*
X154152500Y-238506000D03*
X155727500Y-238506000D03*
D11*
X168975000Y-244221000D03*
X168975000Y-245491000D03*
X168975000Y-246761000D03*
X168975000Y-248031000D03*
X173925000Y-248031000D03*
X173925000Y-246761000D03*
X173925000Y-245491000D03*
X173925000Y-244221000D03*
D32*
X160147000Y-217932000D03*
D13*
X169939000Y-242316000D03*
X168389000Y-242316000D03*
D11*
X168975000Y-251587000D03*
X168975000Y-252857000D03*
X168975000Y-254127000D03*
X168975000Y-255397000D03*
X173925000Y-255397000D03*
X173925000Y-254127000D03*
X173925000Y-252857000D03*
X173925000Y-251587000D03*
D13*
X174511000Y-234823000D03*
X172961000Y-234823000D03*
D14*
X164337999Y-268980500D03*
X166237999Y-268980500D03*
X165287999Y-266705500D03*
D15*
X181851000Y-257175176D03*
X183401000Y-257175176D03*
D13*
X166002000Y-240284000D03*
X164452000Y-240284000D03*
X174511000Y-242317668D03*
X172961000Y-242317668D03*
D47*
X165923001Y-242083999D03*
X164973000Y-242083999D03*
X164023002Y-242083999D03*
X164023002Y-244833999D03*
X165923001Y-244833999D03*
D11*
X168975000Y-229362000D03*
X168975000Y-230632000D03*
X168975000Y-231902000D03*
X168975000Y-233172000D03*
X173925000Y-233172000D03*
X173925000Y-231902000D03*
X173925000Y-230632000D03*
X173925000Y-229362000D03*
D17*
X189169000Y-236078000D03*
X189169000Y-236728000D03*
X189169000Y-237378000D03*
X191069000Y-237378000D03*
X191069000Y-236078000D03*
D10*
X164386799Y-272948400D03*
X166036799Y-272948400D03*
D48*
X166014500Y-252730000D03*
X164439500Y-252730000D03*
D49*
X179879000Y-220091000D03*
X176229000Y-220091000D03*
D22*
X178918205Y-249802327D03*
X177268205Y-249802327D03*
D12*
X193268500Y-240284000D03*
X194843500Y-240284000D03*
D13*
X187211000Y-265938000D03*
X185661000Y-265938000D03*
D20*
X200764000Y-247401000D03*
D21*
X200764000Y-244861000D03*
D17*
X189169000Y-243698000D03*
X189169000Y-244348000D03*
X189169000Y-244998000D03*
X191069000Y-244998000D03*
X191069000Y-243698000D03*
D22*
X183425600Y-264845800D03*
X181775600Y-264845800D03*
D10*
X193231000Y-238506000D03*
X194881000Y-238506000D03*
D50*
X184581800Y-258318000D03*
D51*
X184480200Y-263906000D03*
X188084000Y-232029000D03*
X180771800Y-257175000D03*
X157937200Y-280695400D03*
X167386000Y-241376200D03*
X158750000Y-259664200D03*
X164134800Y-262788400D03*
X155397200Y-233426000D03*
X193268600Y-286969200D03*
X194843400Y-274497800D03*
X165887400Y-277545800D03*
X167208200Y-233172000D03*
X166268400Y-262788400D03*
X155041600Y-268732000D03*
X159842200Y-259664200D03*
X158496000Y-240284000D03*
X163347400Y-240258600D03*
X167055800Y-276860000D03*
X158419800Y-283337000D03*
X167055800Y-275844000D03*
X167030400Y-274878800D03*
X167246300Y-248500900D03*
X168338500Y-264223500D03*
X167208200Y-234823000D03*
X154305000Y-233426000D03*
X165252400Y-262788400D03*
X164465000Y-237363000D03*
X192405000Y-285673800D03*
X192481200Y-282702000D03*
X156845000Y-240284000D03*
X192405000Y-287324800D03*
X163195000Y-247142000D03*
X169164000Y-256286000D03*
X164973000Y-243255800D03*
X168148000Y-226314000D03*
X163322000Y-271170400D03*
X190906400Y-282448000D03*
X188823600Y-288137600D03*
X158470600Y-284835600D03*
X167132000Y-227558600D03*
X188823600Y-289212400D03*
X170256200Y-241249200D03*
X166002000Y-249084800D03*
X162356800Y-280289000D03*
X170332400Y-233807000D03*
X170281600Y-248767600D03*
X192481200Y-276758400D03*
X163296600Y-289712400D03*
X158470600Y-286385000D03*
X163296600Y-272948400D03*
X162356800Y-278206200D03*
X185597800Y-288213800D03*
X163372800Y-278739600D03*
X166002000Y-248234200D03*
X164414200Y-233426000D03*
X166014501Y-251561499D03*
X154178000Y-271856200D03*
X166014400Y-239395000D03*
X166014400Y-237337600D03*
X166624000Y-259908000D03*
X158419800Y-281813000D03*
X159576000Y-237477800D03*
X165506400Y-233426000D03*
X155727501Y-237464701D03*
X192659000Y-219532200D03*
X189179200Y-245872000D03*
X172262800Y-241223800D03*
X171069000Y-219532200D03*
X188163200Y-248564400D03*
X189179200Y-264210800D03*
X200380600Y-281279600D03*
X192659000Y-218440000D03*
X179527200Y-252831600D03*
X189179200Y-238252000D03*
X193268600Y-228142800D03*
X187731400Y-253949200D03*
X184480200Y-249809000D03*
X172262800Y-248031000D03*
X172288200Y-240411000D03*
X184404000Y-257175000D03*
X186182000Y-249631200D03*
X189179200Y-260604000D03*
X184886600Y-259842000D03*
X174625000Y-263982200D03*
X179527200Y-240436400D03*
X180695600Y-242366800D03*
X163347400Y-220472000D03*
X184480200Y-262763000D03*
X184505600Y-266344400D03*
X163347400Y-218694000D03*
X172948600Y-226415600D03*
X172262800Y-233172000D03*
X189179200Y-241858800D03*
X184962800Y-223189800D03*
X188061600Y-252907800D03*
X154305000Y-225780600D03*
X171069000Y-218440000D03*
X171983400Y-257124200D03*
X171831000Y-249834400D03*
X175754156Y-254953644D03*
X197866000Y-274421600D03*
X187248800Y-241706400D03*
X183515000Y-222580200D03*
X190881000Y-228168200D03*
X184480200Y-247980200D03*
X172364400Y-235915200D03*
X155397200Y-225780600D03*
X176428400Y-248970800D03*
X186372200Y-221272400D03*
X167119000Y-218668600D03*
X191074518Y-238547118D03*
D50*
X175641000Y-227558600D03*
D51*
X191058800Y-235204000D03*
X200431400Y-275590000D03*
X171043600Y-224536000D03*
X191058800Y-242824000D03*
X191084200Y-253517400D03*
X176225200Y-221615000D03*
X184480200Y-236601000D03*
X192252600Y-231394000D03*
D50*
X180746400Y-249783600D03*
D51*
X154305000Y-228346000D03*
D50*
X175615600Y-249809000D03*
D51*
X194233800Y-268630400D03*
X167119000Y-220446600D03*
X176225200Y-220522800D03*
X178917600Y-263804400D03*
X191084200Y-257556000D03*
X191058800Y-250215400D03*
D50*
X185623200Y-254787400D03*
D51*
X192227200Y-265099800D03*
X191084200Y-260807200D03*
X175844200Y-257175000D03*
D50*
X184429400Y-242341400D03*
X175590200Y-242316000D03*
D51*
X171043600Y-223443800D03*
X176225200Y-219430600D03*
X176225200Y-218338400D03*
D50*
X175641000Y-234797600D03*
D51*
X191084200Y-246126000D03*
X155397200Y-228346000D03*
D50*
X164800000Y-280916571D03*
D51*
X165023800Y-277545800D03*
X164150000Y-277535600D03*
D50*
X164800000Y-280136600D03*
D51*
X162128200Y-289661600D03*
X162116644Y-286373444D03*
X162128200Y-288061400D03*
D50*
X187223400Y-264414000D03*
D51*
X197434200Y-272034000D03*
D50*
X186131200Y-236956600D03*
X184581800Y-239725200D03*
X188163200Y-245973600D03*
X185242200Y-247243600D03*
X184835800Y-252806200D03*
X184835800Y-254127000D03*
D51*
X167487600Y-286512000D03*
X161213800Y-271145000D03*
D50*
X196418200Y-285623000D03*
X168037600Y-283514800D03*
X192405000Y-288950400D03*
X180035200Y-248945400D03*
X176174400Y-230632000D03*
D51*
X188772800Y-286258000D03*
X195224400Y-283311600D03*
X191579500Y-283375100D03*
X175615600Y-245491000D03*
D50*
X188036200Y-243687600D03*
D51*
X188671200Y-283210000D03*
X167233600Y-231902000D03*
X167208200Y-230632000D03*
X189026800Y-275539200D03*
X189179200Y-253771400D03*
D50*
X179705000Y-251561600D03*
D51*
X175641000Y-246761000D03*
D50*
X188036200Y-247243600D03*
X180060600Y-255016000D03*
D51*
X189179200Y-250164600D03*
D50*
X184505600Y-251180600D03*
X176174400Y-231902000D03*
D51*
X188722000Y-279425400D03*
X167259000Y-246761000D03*
X188739865Y-277807335D03*
X167233600Y-245516400D03*
X167411400Y-252399800D03*
X188780510Y-284002500D03*
X167436800Y-254076200D03*
X188772800Y-285038800D03*
X165259935Y-258874076D03*
X188925200Y-274269200D03*
X164592000Y-258274076D03*
X188925200Y-272999200D03*
X167182800Y-261061200D03*
X167995600Y-281863800D03*
D50*
X167335200Y-239141000D03*
D51*
X167944800Y-278079200D03*
X167995600Y-280619200D03*
X167208200Y-262737600D03*
X167944800Y-279349200D03*
D50*
X167335200Y-237871000D03*
D52*
X187261000Y-238226600D02*
X189153800Y-238226600D01*
X189153800Y-238226600D02*
X189179200Y-238252000D01*
X187858400Y-239318800D02*
X188211100Y-239671500D01*
X185953400Y-239318800D02*
X187858400Y-239318800D01*
X185611000Y-239661200D02*
X185953400Y-239318800D01*
X188211100Y-239671500D02*
X189174518Y-239671500D01*
X185611000Y-240538000D02*
X185611000Y-239661200D01*
X186131200Y-237706400D02*
X184696600Y-239141000D01*
X186131200Y-236956600D02*
X186131200Y-237706400D01*
X184696600Y-239141000D02*
X182815000Y-239141000D01*
D53*
X181851000Y-257175176D02*
X180771976Y-257175176D01*
D52*
X184200800Y-264845800D02*
X183425600Y-264845800D01*
X182815000Y-260223000D02*
X181432200Y-260223000D01*
X180771976Y-257175176D02*
X180771800Y-257175000D01*
X181000400Y-259791200D02*
X181000400Y-258724400D01*
X181851000Y-257873800D02*
X181851000Y-257175176D01*
X181432200Y-260223000D02*
X181000400Y-259791200D01*
X184480200Y-263906000D02*
X184480200Y-264566400D01*
X184480200Y-264566400D02*
X184200800Y-264845800D01*
D53*
X184581800Y-258318000D02*
X185611000Y-258318000D01*
D52*
X181000400Y-258724400D02*
X181851000Y-257873800D01*
X193253350Y-288036000D02*
X193253350Y-286984450D01*
X167246300Y-249288300D02*
X167246300Y-248500900D01*
X159600499Y-280289000D02*
X158343600Y-280289000D01*
X167055800Y-276860000D02*
X166689800Y-276494000D01*
X166049999Y-275844000D02*
X167055800Y-275844000D01*
X168389000Y-234823000D02*
X167208200Y-234823000D01*
X168338500Y-264223500D02*
X168975000Y-263587000D01*
X193090800Y-281305000D02*
X193740000Y-281305000D01*
X194831000Y-275590000D02*
X194831000Y-274510200D01*
X191693800Y-288036000D02*
X191529000Y-288036000D01*
X167767000Y-249809000D02*
X167246300Y-249288300D01*
X192405000Y-287324800D02*
X191693800Y-288036000D01*
X166715200Y-275194000D02*
X166050000Y-275194000D01*
X169164000Y-256400000D02*
X169939000Y-257175000D01*
X165227000Y-261807999D02*
X165227000Y-262763000D01*
D53*
X159626000Y-240284000D02*
X158496000Y-240284000D01*
D52*
X167030400Y-274878800D02*
X166715200Y-275194000D01*
X192481200Y-281914600D02*
X193090800Y-281305000D01*
X165227000Y-262763000D02*
X165252400Y-262788400D01*
X164577000Y-262346200D02*
X164577000Y-261808000D01*
X168389000Y-249809000D02*
X167767000Y-249809000D01*
X167449200Y-241376200D02*
X168389000Y-242316000D01*
X157932600Y-280700000D02*
X157937200Y-280695400D01*
X168975000Y-263587000D02*
X168975000Y-262763000D01*
X164452000Y-237376000D02*
X164465000Y-237363000D01*
X192367200Y-285673800D02*
X191529000Y-286512000D01*
X167386000Y-241376200D02*
X167386000Y-240766600D01*
X192405000Y-285673800D02*
X192367200Y-285673800D01*
X166689800Y-276494000D02*
X166050000Y-276494000D01*
X165723000Y-282251000D02*
X165723000Y-283476000D01*
X163322000Y-271170400D02*
X164436799Y-271170400D01*
X156594000Y-280700000D02*
X157932600Y-280700000D01*
X169164000Y-256286000D02*
X169164000Y-256400000D01*
X167741600Y-240411000D02*
X168975000Y-240411000D01*
X153859000Y-268732000D02*
X155041600Y-268732000D01*
X168691350Y-226314000D02*
X169939000Y-227561650D01*
X165875000Y-277558200D02*
X165887400Y-277545800D01*
X159600499Y-278765000D02*
X159600499Y-280289000D01*
X165877000Y-262397000D02*
X165877000Y-261808000D01*
X164134800Y-262788400D02*
X164577000Y-262346200D01*
X159550499Y-283337000D02*
X158419800Y-283337000D01*
X167386000Y-241376200D02*
X167449200Y-241376200D01*
D53*
X165875000Y-278765000D02*
X165875000Y-277558200D01*
D52*
X168975000Y-233172000D02*
X167208200Y-233172000D01*
X194831000Y-274510200D02*
X194843400Y-274497800D01*
D53*
X155765000Y-240284000D02*
X156845000Y-240284000D01*
D52*
X191529000Y-289712400D02*
X191529000Y-288036000D01*
X166268400Y-262788400D02*
X165877000Y-262397000D01*
X167386000Y-240766600D02*
X167741600Y-240411000D01*
X169164000Y-255586000D02*
X168975000Y-255397000D01*
X158343600Y-280289000D02*
X157937200Y-280695400D01*
X167246300Y-248500900D02*
X167716200Y-248031000D01*
X169164000Y-256286000D02*
X169164000Y-255586000D01*
X166050000Y-278590000D02*
X165875000Y-278765000D01*
X193253350Y-286984450D02*
X193268600Y-286969200D01*
X163372800Y-240284000D02*
X163347400Y-240258600D01*
X165723000Y-283476000D02*
X164973000Y-284226000D01*
X192481200Y-282702000D02*
X192481200Y-281914600D01*
X167716200Y-248031000D02*
X168975000Y-248031000D01*
X168148000Y-226314000D02*
X168691350Y-226314000D01*
X168975000Y-258953000D02*
X168975000Y-257761000D01*
X168975000Y-235787000D02*
X168975000Y-236601000D01*
X192074800Y-275590000D02*
X191579000Y-276085800D01*
X193281000Y-276389800D02*
X193740000Y-276848800D01*
X167135050Y-227561650D02*
X167132000Y-227558600D01*
X163296600Y-272948400D02*
X164386799Y-272948400D01*
X168975000Y-250773000D02*
X168975000Y-251587000D01*
X168975000Y-257761000D02*
X168389000Y-257175000D01*
X191579000Y-276085800D02*
X191579000Y-277368000D01*
X192481200Y-276758400D02*
X192481200Y-276389800D01*
X163723000Y-282251001D02*
X163723000Y-280512200D01*
X158496000Y-284861000D02*
X158470600Y-284835600D01*
X162453000Y-282976000D02*
X162998001Y-282976000D01*
X169939000Y-241566400D02*
X170256200Y-241249200D01*
X164402000Y-289712400D02*
X163296600Y-289712400D01*
D53*
X162356800Y-278206200D02*
X161709299Y-278206200D01*
D52*
X192481200Y-276389800D02*
X193281000Y-275590000D01*
X193281000Y-275590000D02*
X192074800Y-275590000D01*
X170332400Y-233807000D02*
X169939000Y-234200400D01*
D53*
X164325000Y-278765000D02*
X164299600Y-278739600D01*
X162356800Y-280289000D02*
X161150499Y-280289000D01*
D52*
X168389000Y-257175000D02*
X167360600Y-256146600D01*
X167360600Y-254990600D02*
X166784400Y-254414400D01*
X162153600Y-282676600D02*
X162453000Y-282976000D01*
X159550499Y-286385000D02*
X158470600Y-286385000D01*
X168389000Y-227561650D02*
X167135050Y-227561650D01*
X161810899Y-279425400D02*
X161150499Y-278765000D01*
D53*
X164299600Y-278739600D02*
X163423600Y-278739600D01*
D52*
X168975000Y-229362000D02*
X168975000Y-228147650D01*
X164223000Y-278867000D02*
X164325000Y-278765000D01*
X169939000Y-234823000D02*
X168975000Y-235787000D01*
X168975000Y-244221000D02*
X168975000Y-243280000D01*
X188698200Y-288237600D02*
X188798200Y-288137600D01*
X161150499Y-280289000D02*
X162153600Y-281292101D01*
X167360600Y-256146600D02*
X167360600Y-254990600D01*
X169939000Y-242316000D02*
X169939000Y-241566400D01*
X164223000Y-282251000D02*
X164223000Y-278867000D01*
X193740000Y-276848800D02*
X193740000Y-277495000D01*
X169939000Y-249110200D02*
X169939000Y-249809000D01*
X169939000Y-249809000D02*
X168975000Y-250773000D01*
X190906400Y-281850600D02*
X191579000Y-281178000D01*
X168975000Y-228147650D02*
X168389000Y-227561650D01*
X162153600Y-281292101D02*
X162153600Y-282676600D01*
X162636200Y-279425400D02*
X161810899Y-279425400D01*
X190906400Y-282448000D02*
X190906400Y-281850600D01*
X166784400Y-249867200D02*
X166002000Y-249084800D01*
X170281600Y-248767600D02*
X169939000Y-249110200D01*
X168975000Y-243280000D02*
X169939000Y-242316000D01*
D53*
X161709299Y-278206200D02*
X161150499Y-278765000D01*
D52*
X159550499Y-284861000D02*
X158496000Y-284861000D01*
X193281000Y-275590000D02*
X193281000Y-276389800D01*
X163723000Y-280512200D02*
X162636200Y-279425400D01*
X166784400Y-254414400D02*
X166784400Y-249867200D01*
X169939000Y-234200400D02*
X169939000Y-234823000D01*
X163398200Y-278765000D02*
X163372800Y-278739600D01*
X188798200Y-288137600D02*
X188823600Y-288137600D01*
X165287999Y-266705500D02*
X162656100Y-266705500D01*
X167614600Y-270484600D02*
X166928800Y-271170400D01*
X161609000Y-267752600D02*
X161609000Y-268732000D01*
X166324700Y-266705500D02*
X167614600Y-267995400D01*
X166036799Y-271220400D02*
X165986799Y-271170400D01*
X166928800Y-271170400D02*
X165986799Y-271170400D01*
X166085999Y-272997600D02*
X166036799Y-272948400D01*
X162656100Y-266705500D02*
X161609000Y-267752600D01*
X165287999Y-266705500D02*
X166324700Y-266705500D01*
X169559600Y-272997600D02*
X166085999Y-272997600D01*
X166036799Y-272948400D02*
X166036799Y-271220400D01*
X167614600Y-267995400D02*
X167614600Y-270484600D01*
D53*
X155727501Y-238506000D02*
X155727501Y-237464701D01*
X159576000Y-238506000D02*
X159576000Y-237477800D01*
D52*
X154175001Y-271859199D02*
X154178000Y-271856200D01*
D54*
X165877000Y-259908000D02*
X166624000Y-259908000D01*
D53*
X154175001Y-273177000D02*
X154175001Y-271859199D01*
X166014501Y-252730000D02*
X166014501Y-251561499D01*
D52*
X159550499Y-281813000D02*
X158419800Y-281813000D01*
X156365802Y-242083998D02*
X161188400Y-242083998D01*
X161176000Y-242071598D02*
X161188400Y-242083998D01*
X161226000Y-240234000D02*
X161176000Y-240284000D01*
X154990800Y-243459000D02*
X156365802Y-242083998D01*
X161176000Y-240284000D02*
X161176000Y-242071598D01*
X161188400Y-242083998D02*
X164023002Y-242083998D01*
X161226000Y-238506000D02*
X161226000Y-240234000D01*
X153859000Y-243459000D02*
X154990800Y-243459000D01*
X186563000Y-255130000D02*
X186563000Y-253984000D01*
X184403824Y-257175176D02*
X183401000Y-257175176D01*
X172364400Y-235915200D02*
X172364400Y-235419600D01*
D55*
X187261000Y-240538000D02*
X187261000Y-241694200D01*
D52*
X182815000Y-262763000D02*
X184480200Y-262763000D01*
X172961000Y-249809000D02*
X171856400Y-249809000D01*
X172961000Y-226428000D02*
X172948600Y-226415600D01*
X190540602Y-267954798D02*
X190728600Y-267766800D01*
X197853000Y-274434600D02*
X197866000Y-274421600D01*
D55*
X189169000Y-238241800D02*
X189179200Y-238252000D01*
D52*
X189169000Y-255920000D02*
X187353000Y-255920000D01*
X171856400Y-249809000D02*
X171831000Y-249834400D01*
X185661000Y-265938000D02*
X184912000Y-265938000D01*
X189169000Y-259730000D02*
X189169000Y-260593800D01*
X188061600Y-252907800D02*
X188625200Y-252907800D01*
X188173600Y-248554000D02*
X188163200Y-248564400D01*
X190728600Y-265760200D02*
X189179200Y-264210800D01*
X187731400Y-255257600D02*
X187211000Y-255778000D01*
X189169000Y-260593800D02*
X189179200Y-260604000D01*
D53*
X186372200Y-220167200D02*
X186372200Y-221272400D01*
D52*
X189169000Y-244998000D02*
X189169000Y-245861800D01*
X198690000Y-281305000D02*
X200355200Y-281305000D01*
X189169000Y-263336800D02*
X189169000Y-264200600D01*
X185661000Y-263398000D02*
X185026000Y-262763000D01*
X173925000Y-240411000D02*
X172288200Y-240411000D01*
D55*
X177865000Y-240411000D02*
X179501800Y-240411000D01*
D56*
X183515000Y-222580200D02*
X183515000Y-221228500D01*
D53*
X164452000Y-218694000D02*
X163347400Y-218694000D01*
D52*
X179501800Y-252857000D02*
X179527200Y-252831600D01*
X187211000Y-255778000D02*
X186563000Y-255130000D01*
X193268500Y-229616000D02*
X193268500Y-228142900D01*
X197853000Y-275590000D02*
X197853000Y-274434600D01*
D53*
X184976000Y-223203000D02*
X184976000Y-224282000D01*
D52*
X184962800Y-223189800D02*
X184976000Y-223203000D01*
X190728600Y-267766800D02*
X190728600Y-265760200D01*
X183401000Y-249809000D02*
X184480200Y-249809000D01*
X189169000Y-264200600D02*
X189179200Y-264210800D01*
X193268500Y-228142900D02*
X193268600Y-228142800D01*
D55*
X189169000Y-237378000D02*
X189169000Y-238241800D01*
D52*
X182815000Y-248031000D02*
X184429400Y-248031000D01*
X186182000Y-248279500D02*
X186182000Y-249631200D01*
X171983400Y-257124200D02*
X172910024Y-257124200D01*
X172961000Y-242317668D02*
X172961000Y-241922000D01*
X172961000Y-241922000D02*
X172262800Y-241223800D01*
X187731400Y-253949200D02*
X187731400Y-255257600D01*
X173925000Y-263282200D02*
X173925000Y-262763000D01*
D53*
X190884000Y-228171200D02*
X190884000Y-229616000D01*
D52*
X175310800Y-255397000D02*
X175754156Y-254953644D01*
X185026000Y-262763000D02*
X184480200Y-262763000D01*
X172364400Y-235419600D02*
X172961000Y-234823000D01*
X173925000Y-233172000D02*
X172262800Y-233172000D01*
X184886600Y-259842000D02*
X185897000Y-259842000D01*
X173925000Y-248031000D02*
X172262800Y-248031000D01*
X189480599Y-267954798D02*
X190540602Y-267954798D01*
X190881000Y-228168200D02*
X190884000Y-228171200D01*
D55*
X189174518Y-240971500D02*
X189174518Y-241854118D01*
X181800200Y-242341400D02*
X180721000Y-242341400D01*
X180721000Y-242341400D02*
X180695600Y-242366800D01*
D52*
X172910024Y-257124200D02*
X172961000Y-257175176D01*
X185897000Y-259842000D02*
X185913000Y-259858000D01*
X189169000Y-245861800D02*
X189179200Y-245872000D01*
X188625200Y-252907800D02*
X189169000Y-252364000D01*
X177259927Y-249802327D02*
X176428400Y-248970800D01*
D53*
X164452000Y-220472000D02*
X163347400Y-220472000D01*
D52*
X184429400Y-248031000D02*
X184480200Y-247980200D01*
D55*
X187261000Y-241694200D02*
X187248800Y-241706400D01*
D52*
X172961000Y-227573154D02*
X172961000Y-226428000D01*
X184912000Y-265938000D02*
X184505600Y-266344400D01*
X200355200Y-281305000D02*
X200380600Y-281279600D01*
X177865000Y-252857000D02*
X179501800Y-252857000D01*
X174625000Y-263982200D02*
X173925000Y-263282200D01*
X187353000Y-255920000D02*
X187211000Y-255778000D01*
D55*
X179501800Y-240411000D02*
X179527200Y-240436400D01*
D52*
X184404000Y-257175000D02*
X184403824Y-257175176D01*
X177268205Y-249802327D02*
X177259927Y-249802327D01*
X189169000Y-248554000D02*
X188173600Y-248554000D01*
X173925000Y-255397000D02*
X175310800Y-255397000D01*
D55*
X189174518Y-241854118D02*
X189179200Y-241858800D01*
D52*
X174511000Y-242317668D02*
X175588532Y-242317668D01*
X175588532Y-242317668D02*
X175590200Y-242316000D01*
D55*
X191074518Y-238547118D02*
X191074518Y-239671500D01*
D52*
X182815000Y-255397000D02*
X184429400Y-255397000D01*
X175626446Y-227573154D02*
X175641000Y-227558600D01*
X191069000Y-243698000D02*
X191069000Y-242834200D01*
X192230599Y-265103199D02*
X192230599Y-266054799D01*
X174511000Y-249809000D02*
X174511000Y-250431000D01*
D53*
X166027400Y-220446600D02*
X166002000Y-220472000D01*
D52*
X174511000Y-243014200D02*
X174511000Y-242317668D01*
X173925000Y-243600200D02*
X174511000Y-243014200D01*
X173925000Y-244221000D02*
X173925000Y-243600200D01*
X193177800Y-260807200D02*
X193228600Y-260858000D01*
X174511000Y-234823000D02*
X175615600Y-234823000D01*
X198690000Y-276950400D02*
X199403000Y-276237400D01*
X173925000Y-258953000D02*
X173925000Y-258433800D01*
X184429400Y-255397000D02*
X184810400Y-255778000D01*
X193231000Y-270357600D02*
X193231000Y-269023600D01*
X193624200Y-268630400D02*
X194233800Y-268630400D01*
X174511000Y-227573154D02*
X174511000Y-228256800D01*
X191069000Y-251064000D02*
X191069000Y-250225600D01*
X191069000Y-246141200D02*
X191069000Y-247254000D01*
X177865000Y-254127000D02*
X179806600Y-254127000D01*
X191069000Y-250225600D02*
X191058800Y-250215400D01*
X178929800Y-263816600D02*
X178917600Y-263804400D01*
X180517800Y-253415800D02*
X180517800Y-251841000D01*
X191084200Y-260807200D02*
X193177800Y-260807200D01*
X174511000Y-228256800D02*
X173925000Y-228842800D01*
X183350200Y-242341400D02*
X184429400Y-242341400D01*
X183350200Y-243141200D02*
X183350200Y-242341400D01*
X173925000Y-258433800D02*
X174511000Y-257847800D01*
X182815000Y-244221000D02*
X182815000Y-243676400D01*
X198690000Y-277495000D02*
X198690000Y-276950400D01*
X191084200Y-260807200D02*
X191084200Y-262021600D01*
X173925000Y-251017000D02*
X173925000Y-251587000D01*
X175844200Y-257175000D02*
X175844024Y-257175176D01*
D55*
X182815000Y-236601000D02*
X184480200Y-236601000D01*
D52*
X178929800Y-264871200D02*
X178929800Y-263816600D01*
X175844200Y-257175000D02*
X177279800Y-257175000D01*
X174511000Y-227573154D02*
X175626446Y-227573154D01*
D53*
X166027400Y-218668600D02*
X166002000Y-218694000D01*
D52*
X174511000Y-257847800D02*
X174511000Y-257175176D01*
X173925000Y-236601000D02*
X173925000Y-236107200D01*
X175844024Y-257175176D02*
X174511000Y-257175176D01*
X191069000Y-257571200D02*
X191084200Y-257556000D01*
X173925000Y-236107200D02*
X174511000Y-235521200D01*
X193231000Y-272034000D02*
X193231000Y-270357600D01*
X193231000Y-269023600D02*
X193624200Y-268630400D01*
X191084200Y-253517400D02*
X191069000Y-253532600D01*
X184810400Y-255778000D02*
X185661000Y-255778000D01*
X185623200Y-255740200D02*
X185661000Y-255778000D01*
X181851000Y-249809000D02*
X180771800Y-249809000D01*
X199403000Y-275590000D02*
X200431400Y-275590000D01*
D55*
X191074518Y-238547118D02*
X191115636Y-238506000D01*
D52*
X199403000Y-276237400D02*
X199403000Y-275590000D01*
X185623200Y-254787400D02*
X185623200Y-255740200D01*
X180517800Y-251841000D02*
X181851000Y-250507800D01*
X181851000Y-250507800D02*
X181851000Y-249809000D01*
X175615600Y-234823000D02*
X175641000Y-234797600D01*
X180771800Y-249809000D02*
X180746400Y-249783600D01*
X193231000Y-231394000D02*
X192252600Y-231394000D01*
X174511000Y-250431000D02*
X173925000Y-251017000D01*
X191069000Y-253532600D02*
X191069000Y-254620000D01*
X174511000Y-249809000D02*
X175615600Y-249809000D01*
X191084200Y-246126000D02*
X193231000Y-246126000D01*
X174511000Y-235521200D02*
X174511000Y-234823000D01*
X191069000Y-242834200D02*
X191058800Y-242824000D01*
X179806600Y-254127000D02*
X180517800Y-253415800D01*
X191084200Y-246126000D02*
X191069000Y-246141200D01*
D55*
X191069000Y-236078000D02*
X191069000Y-235214200D01*
D52*
X191109600Y-253492000D02*
X193231000Y-253492000D01*
X182815000Y-243676400D02*
X183350200Y-243141200D01*
X191084200Y-262021600D02*
X191069000Y-262036800D01*
X191069000Y-258430000D02*
X191069000Y-257571200D01*
X192227200Y-265099800D02*
X192230599Y-265103199D01*
D55*
X191115636Y-238506000D02*
X193231000Y-238506000D01*
D52*
X191084200Y-253517400D02*
X191109600Y-253492000D01*
X173925000Y-228842800D02*
X173925000Y-229362000D01*
D55*
X191069000Y-235214200D02*
X191058800Y-235204000D01*
D52*
X187211000Y-266687000D02*
X186994800Y-266903200D01*
X189480599Y-267004800D02*
X188722000Y-267004800D01*
X188061600Y-265938000D02*
X187211000Y-265938000D01*
X185877200Y-266903200D02*
X185611000Y-267169400D01*
X187211000Y-265938000D02*
X187211000Y-266687000D01*
X188417200Y-266293600D02*
X188061600Y-265938000D01*
X186994800Y-266903200D02*
X185877200Y-266903200D01*
X188722000Y-267004800D02*
X188417200Y-266700000D01*
X185611000Y-267169400D02*
X185611000Y-267970000D01*
X188417200Y-266700000D02*
X188417200Y-266293600D01*
X182565001Y-221228500D02*
X182565001Y-222620801D01*
X183528000Y-223583800D02*
X183528000Y-224282000D01*
X182565001Y-222620801D02*
X183528000Y-223583800D01*
X166014501Y-288036000D02*
X166014501Y-289674901D01*
X166014501Y-289674901D02*
X166052000Y-289712400D01*
X161200499Y-275717000D02*
X161327499Y-275844000D01*
X165023800Y-277545800D02*
X165023800Y-276148800D01*
X161327499Y-275844000D02*
X164150001Y-275844000D01*
X164719000Y-275844000D02*
X164150001Y-275844000D01*
X164800000Y-280916571D02*
X164723000Y-280993571D01*
X164723000Y-280993571D02*
X164723000Y-282251000D01*
X165023800Y-276148800D02*
X164719000Y-275844000D01*
X162306000Y-277241000D02*
X163053000Y-276494000D01*
X165377000Y-281155575D02*
X165223000Y-281309575D01*
X164836029Y-280136600D02*
X165377000Y-280677571D01*
X164150000Y-277535600D02*
X164150000Y-276494000D01*
X164800000Y-280136600D02*
X164836029Y-280136600D01*
X165377000Y-280677571D02*
X165377000Y-281155575D01*
X163053000Y-276494000D02*
X164150000Y-276494000D01*
X161200499Y-277241000D02*
X162306000Y-277241000D01*
X165223000Y-281309575D02*
X165223000Y-282251000D01*
X163042600Y-288544000D02*
X162712400Y-288874200D01*
X159587998Y-289636402D02*
X159587998Y-289712400D01*
X163423600Y-287223200D02*
X163042600Y-287604200D01*
X160350200Y-288874200D02*
X159587998Y-289636402D01*
X163880800Y-287223200D02*
X163423600Y-287223200D01*
X164223000Y-286881000D02*
X163880800Y-287223200D01*
X163042600Y-287604200D02*
X163042600Y-288544000D01*
X162712400Y-288874200D02*
X160350200Y-288874200D01*
X164223000Y-286201000D02*
X164223000Y-286881000D01*
X159587998Y-288036000D02*
X160389998Y-287234000D01*
X160389998Y-287234000D02*
X162142800Y-287234000D01*
X163175801Y-286200999D02*
X163723000Y-286200999D01*
X162142800Y-287234000D02*
X163175801Y-286200999D01*
X161213800Y-289661600D02*
X161163000Y-289712400D01*
X161163000Y-288036000D02*
X162102800Y-288036000D01*
X162128200Y-289661600D02*
X161213800Y-289661600D01*
X161200499Y-286385000D02*
X162105088Y-286385000D01*
X162116644Y-286373444D02*
X162128200Y-286385000D01*
X162105088Y-286385000D02*
X162116644Y-286373444D01*
X154152499Y-238506000D02*
X154152499Y-240246501D01*
X154152499Y-240246501D02*
X154115000Y-240284000D01*
X194843501Y-259080000D02*
X194843501Y-262685999D01*
X194843501Y-244348000D02*
X194843501Y-247904000D01*
X191069000Y-248554000D02*
X191729600Y-248554000D01*
X192379600Y-247904000D02*
X193268499Y-247904000D01*
X191729600Y-248554000D02*
X192379600Y-247904000D01*
X194843501Y-251714000D02*
X194843501Y-255270000D01*
X191678800Y-244998000D02*
X192328800Y-244348000D01*
X191069000Y-244998000D02*
X191678800Y-244998000D01*
X192328800Y-244348000D02*
X193268499Y-244348000D01*
X191742900Y-255982900D02*
X192455800Y-255270000D01*
X192455800Y-255270000D02*
X193268499Y-255270000D01*
X191069000Y-255982900D02*
X191742900Y-255982900D01*
X192481200Y-251714000D02*
X193268499Y-251714000D01*
X191831200Y-252364000D02*
X192481200Y-251714000D01*
X191069000Y-252364000D02*
X191831200Y-252364000D01*
X194843500Y-231356500D02*
X194881000Y-231394000D01*
X194843500Y-229616000D02*
X194843500Y-231356500D01*
X159587998Y-274193000D02*
X158445200Y-274193000D01*
X158445200Y-274193000D02*
X157762600Y-274875600D01*
X157762600Y-277796600D02*
X157459200Y-278100000D01*
X157762600Y-274875600D02*
X157762600Y-277796600D01*
X157459200Y-278100000D02*
X156594000Y-278100000D01*
X179879000Y-221636600D02*
X179879000Y-220091000D01*
X181978000Y-223735600D02*
X179879000Y-221636600D01*
X181978000Y-224282000D02*
X181978000Y-223735600D01*
X187211000Y-263398000D02*
X187211000Y-264401600D01*
X186563000Y-261858000D02*
X187198000Y-262493000D01*
X186064400Y-261858000D02*
X186563000Y-261858000D01*
X187198000Y-262493000D02*
X187198000Y-263385000D01*
X182815000Y-261493000D02*
X185699400Y-261493000D01*
X187198000Y-263385000D02*
X187211000Y-263398000D01*
X187211000Y-264401600D02*
X187223400Y-264414000D01*
X185699400Y-261493000D02*
X186064400Y-261858000D01*
X161163000Y-273481800D02*
X160858200Y-273177000D01*
X163256200Y-275194000D02*
X162255200Y-274193000D01*
X164150000Y-275194000D02*
X163256200Y-275194000D01*
X161163000Y-274193000D02*
X161163000Y-273481800D01*
X160858200Y-273177000D02*
X156974999Y-273177000D01*
X162255200Y-274193000D02*
X161163000Y-274193000D01*
X191069000Y-263336800D02*
X191882000Y-263336800D01*
X192532801Y-262685999D02*
X193268499Y-262685999D01*
X191882000Y-263336800D02*
X192532801Y-262685999D01*
X192506600Y-259080000D02*
X193268499Y-259080000D01*
X191069000Y-259730000D02*
X191856600Y-259730000D01*
X191856600Y-259730000D02*
X192506600Y-259080000D01*
X189169000Y-244348000D02*
X190119000Y-244348000D01*
X189814200Y-236728000D02*
X189169000Y-236728000D01*
X189169001Y-251714000D02*
X190119000Y-251714000D01*
X193903600Y-265379200D02*
X193903600Y-267284200D01*
X192887600Y-264363200D02*
X193903600Y-265379200D01*
X193903600Y-267284200D02*
X193233002Y-267954798D01*
X190119000Y-240309400D02*
X190119000Y-237032800D01*
X190119000Y-247904000D02*
X190119000Y-251714000D01*
X187261000Y-268795000D02*
X187261000Y-267970000D01*
X190119000Y-244348000D02*
X190119000Y-247650000D01*
X192230599Y-268754001D02*
X191871600Y-269113000D01*
X190105700Y-255332900D02*
X190119000Y-255346200D01*
X192230599Y-267954798D02*
X192230599Y-268754001D01*
X189169001Y-262686800D02*
X190119000Y-262686800D01*
X189169000Y-247904000D02*
X190119000Y-247904000D01*
X187579000Y-269113000D02*
X187261000Y-268795000D01*
X190119000Y-247650000D02*
X190119000Y-247904000D01*
X190119000Y-255346200D02*
X190119000Y-259080000D01*
X190119000Y-244348000D02*
X190119000Y-240309400D01*
X190119000Y-263906000D02*
X190576200Y-264363200D01*
X189169001Y-255270000D02*
X190119000Y-255270000D01*
X190119000Y-262686800D02*
X190119000Y-263906000D01*
X189174519Y-240321500D02*
X190106900Y-240321500D01*
X191871600Y-269113000D02*
X187579000Y-269113000D01*
X190106900Y-240321500D02*
X190119000Y-240309400D01*
X193233002Y-267954798D02*
X192230599Y-267954798D01*
X190119000Y-251714000D02*
X190119000Y-255319600D01*
X190119000Y-237032800D02*
X189814200Y-236728000D01*
X190119000Y-259080000D02*
X190119000Y-262686800D01*
X189169000Y-259080000D02*
X190119000Y-259080000D01*
X190576200Y-264363200D02*
X192887600Y-264363200D01*
X198690000Y-280035000D02*
X200525200Y-280035000D01*
X200525200Y-280035000D02*
X201795200Y-278765000D01*
X198221600Y-272745200D02*
X198221600Y-271221200D01*
X201795200Y-278765000D02*
X201795200Y-275150400D01*
X201795200Y-275150400D02*
X200329800Y-273685000D01*
X199161400Y-273685000D02*
X198221600Y-272745200D01*
X198221600Y-271221200D02*
X197358000Y-270357600D01*
X195744600Y-269494000D02*
X194881000Y-270357600D01*
X197358000Y-270357600D02*
X194881000Y-270357600D01*
X200764000Y-269494000D02*
X195744600Y-269494000D01*
X200329800Y-273685000D02*
X199161400Y-273685000D01*
X191742900Y-240971500D02*
X192430400Y-240284000D01*
X192430400Y-240284000D02*
X193268500Y-240284000D01*
X191074518Y-240971500D02*
X191742900Y-240971500D01*
D55*
X159331000Y-255143000D02*
X159275000Y-255199000D01*
X164402000Y-255143000D02*
X159331000Y-255143000D01*
X164402000Y-257175000D02*
X159299000Y-257175000D01*
X159299000Y-257175000D02*
X159275000Y-257199000D01*
D52*
X194843500Y-236728000D02*
X194843500Y-240284000D01*
D53*
X159306000Y-252730000D02*
X159275000Y-252699000D01*
X164439499Y-252730000D02*
X159306000Y-252730000D01*
D52*
X157749000Y-278750000D02*
X158216600Y-278282400D01*
X158597600Y-275717000D02*
X159550499Y-275717000D01*
X158216600Y-276098000D02*
X158597600Y-275717000D01*
X158216600Y-278282400D02*
X158216600Y-276098000D01*
X156594000Y-278750000D02*
X157749000Y-278750000D01*
X158699200Y-277495000D02*
X158953200Y-277241000D01*
X156593999Y-279400000D02*
X158216600Y-279400000D01*
X158699200Y-278917400D02*
X158699200Y-277495000D01*
X158216600Y-279400000D02*
X158699200Y-278917400D01*
X158953200Y-277241000D02*
X159550499Y-277241000D01*
X200152000Y-274243800D02*
X201295000Y-275386800D01*
X197434200Y-272034000D02*
X197434200Y-272796000D01*
X198882000Y-274243800D02*
X200152000Y-274243800D01*
X197434200Y-272796000D02*
X198882000Y-274243800D01*
X201295000Y-278155400D02*
X200685400Y-278765000D01*
X200685400Y-278765000D02*
X198690000Y-278765000D01*
X197434200Y-272034000D02*
X194881000Y-272034000D01*
X201295000Y-275386800D02*
X201295000Y-278155400D01*
X187059600Y-281887600D02*
X189219400Y-281887600D01*
X193740000Y-280035000D02*
X191072000Y-280035000D01*
X189219400Y-281887600D02*
X189929000Y-281178000D01*
X191072000Y-280035000D02*
X189929000Y-281178000D01*
D55*
X165353899Y-287121600D02*
X164439499Y-288036000D01*
X169559600Y-286967600D02*
X168505200Y-286967600D01*
X168505200Y-286967600D02*
X168046400Y-287426400D01*
X168046400Y-287426400D02*
X167386000Y-287426400D01*
X167386000Y-287426400D02*
X167081200Y-287121600D01*
X167081200Y-287121600D02*
X165353899Y-287121600D01*
D52*
X197485999Y-233962999D02*
X185347399Y-233962999D01*
X185347399Y-233962999D02*
X182767000Y-231382600D01*
X200764000Y-237241000D02*
X197485999Y-233962999D01*
X182767000Y-231382600D02*
X182767000Y-228117000D01*
X180467000Y-228117001D02*
X180467000Y-234416999D01*
X184581800Y-239725200D02*
X184581800Y-240233200D01*
X200764000Y-239781000D02*
X195399999Y-234416999D01*
X184581800Y-240233200D02*
X184404000Y-240411000D01*
X184404000Y-240411000D02*
X182815000Y-240411000D01*
X195399999Y-234416999D02*
X180467000Y-234416999D01*
X187131999Y-246004500D02*
X188132300Y-246004500D01*
X186664600Y-244652800D02*
X184886600Y-244652800D01*
X184048400Y-245491000D02*
X182815000Y-245491000D01*
X184886600Y-244652800D02*
X184048400Y-245491000D01*
X187131999Y-245120199D02*
X186664600Y-244652800D01*
X188132300Y-246004500D02*
X188163200Y-245973600D01*
X187131999Y-246004500D02*
X187131999Y-245120199D01*
X185232001Y-247233401D02*
X185242200Y-247243600D01*
X185232001Y-246004500D02*
X184779500Y-246004500D01*
X184779500Y-246004500D02*
X184023000Y-246761000D01*
X184023000Y-246761000D02*
X182815000Y-246761000D01*
X185232001Y-246004500D02*
X185232001Y-247233401D01*
X184785000Y-252857000D02*
X184835800Y-252806200D01*
X184327800Y-252857000D02*
X184785000Y-252857000D01*
X184835800Y-251764800D02*
X185674000Y-250926600D01*
X184835800Y-252806200D02*
X184835800Y-251764800D01*
X186715400Y-250926600D02*
X187213000Y-251424200D01*
X182815000Y-252857000D02*
X184327800Y-252857000D01*
X187213000Y-251424200D02*
X187213000Y-251984000D01*
X185674000Y-250926600D02*
X186715400Y-250926600D01*
X185913000Y-253049800D02*
X185913000Y-251984000D01*
X182815000Y-254127000D02*
X184835800Y-254127000D01*
X184835800Y-254127000D02*
X185913000Y-253049800D01*
X195259999Y-285617500D02*
X196412700Y-285617500D01*
D55*
X166947999Y-285476000D02*
X167569200Y-285476000D01*
D52*
X196412700Y-285617500D02*
X196418200Y-285623000D01*
D55*
X167817800Y-285724600D02*
X167817800Y-286181800D01*
X161213800Y-272223899D02*
X161200499Y-272237200D01*
X167817800Y-286181800D02*
X167487600Y-286512000D01*
X167569200Y-285476000D02*
X167817800Y-285724600D01*
X161213800Y-271145000D02*
X161213800Y-272223899D01*
D52*
X195834000Y-282168600D02*
X193751200Y-282168600D01*
X193370200Y-285607301D02*
X193360001Y-285617500D01*
X195554600Y-289712400D02*
X196164200Y-289102800D01*
X197307200Y-283641800D02*
X195834000Y-282168600D01*
X193751200Y-282168600D02*
X193370200Y-282549600D01*
X193370200Y-282549600D02*
X193370200Y-285607301D01*
X194881000Y-289712400D02*
X195554600Y-289712400D01*
X197307200Y-285877000D02*
X197307200Y-283641800D01*
X196164200Y-287020000D02*
X197307200Y-285877000D01*
X196164200Y-289102800D02*
X196164200Y-287020000D01*
X163454500Y-268980500D02*
X164338000Y-268980500D01*
X159550499Y-272237200D02*
X159550499Y-271208101D01*
X159550499Y-271208101D02*
X160477200Y-270281400D01*
X160477200Y-270281400D02*
X162153600Y-270281400D01*
X162153600Y-270281400D02*
X163454500Y-268980500D01*
X168037600Y-282794800D02*
X168037600Y-283514800D01*
X166237998Y-268980500D02*
X166237998Y-269829202D01*
X162382200Y-271094200D02*
X162382200Y-273126200D01*
X167970200Y-277063200D02*
X166954200Y-278079200D01*
X192405000Y-288950400D02*
X192469000Y-288950400D01*
X192469000Y-288950400D02*
X193231000Y-289712400D01*
X167970200Y-274701000D02*
X167970200Y-277063200D01*
X166948000Y-283476000D02*
X167998800Y-283476000D01*
X163118800Y-273862800D02*
X167132000Y-273862800D01*
X163322000Y-270154400D02*
X162382200Y-271094200D01*
X165912800Y-270154400D02*
X163322000Y-270154400D01*
X167998800Y-283476000D02*
X168037600Y-283514800D01*
X162382200Y-273126200D02*
X163118800Y-273862800D01*
X167132000Y-273862800D02*
X167970200Y-274701000D01*
X166954200Y-281711400D02*
X168037600Y-282794800D01*
X166237998Y-269829202D02*
X165912800Y-270154400D01*
X166954200Y-278079200D02*
X166954200Y-281711400D01*
X162998000Y-283476000D02*
X161339499Y-283476000D01*
X161200499Y-283337000D02*
X161200499Y-281813000D01*
X161339499Y-283476000D02*
X161200499Y-283337000D01*
X161200499Y-284861000D02*
X162085499Y-283976000D01*
X162085499Y-283976000D02*
X162998000Y-283976000D01*
X189929000Y-278765000D02*
X189929000Y-277368000D01*
X187059600Y-280617600D02*
X188672800Y-280617600D01*
X189929000Y-279361400D02*
X189929000Y-278765000D01*
X193740000Y-278765000D02*
X189929000Y-278765000D01*
X188672800Y-280617600D02*
X189929000Y-279361400D01*
X179799927Y-249802327D02*
X178918205Y-249802327D01*
X180035200Y-249567054D02*
X179799927Y-249802327D01*
X179832000Y-248107200D02*
X178918205Y-249020995D01*
X177865000Y-246761000D02*
X179349400Y-246761000D01*
X177865000Y-245491000D02*
X179324000Y-245491000D01*
X179349400Y-246761000D02*
X179832000Y-247243600D01*
X178918205Y-249020995D02*
X178918205Y-249802327D01*
X179832000Y-247243600D02*
X179832000Y-248107200D01*
X180035200Y-248945400D02*
X180035200Y-249567054D01*
X173925000Y-230632000D02*
X176174400Y-230632000D01*
X179324000Y-245491000D02*
X179832000Y-245999000D01*
X179832000Y-245999000D02*
X179832000Y-247243600D01*
X192430400Y-236728000D02*
X193268500Y-236728000D01*
X191069000Y-237378000D02*
X191780400Y-237378000D01*
X191780400Y-237378000D02*
X192430400Y-236728000D01*
X194310000Y-286588200D02*
X194310000Y-283342500D01*
X191579500Y-283375100D02*
X191612100Y-283342500D01*
X195193500Y-283342500D02*
X195224400Y-283311600D01*
X191579000Y-284988000D02*
X191579000Y-283375600D01*
X191579000Y-283375600D02*
X191579500Y-283375100D01*
D55*
X187059600Y-286967600D02*
X188063200Y-286967600D01*
D52*
X194310000Y-283342500D02*
X195193500Y-283342500D01*
D55*
X188063200Y-286967600D02*
X188772800Y-286258000D01*
D52*
X194803350Y-288036000D02*
X194803350Y-287081550D01*
X194803350Y-287081550D02*
X194310000Y-286588200D01*
D55*
X166948000Y-284976000D02*
X167729600Y-284976000D01*
X167729600Y-284976000D02*
X168451200Y-285697600D01*
X168451200Y-285697600D02*
X169559600Y-285697600D01*
D52*
X175691800Y-245491000D02*
X175971200Y-245211600D01*
X175971200Y-245211600D02*
X175971200Y-244449600D01*
X173925000Y-245491000D02*
X175615600Y-245491000D01*
X189169000Y-243698000D02*
X188046600Y-243698000D01*
X176199800Y-244221000D02*
X177865000Y-244221000D01*
X188046600Y-243698000D02*
X188036200Y-243687600D01*
X175971200Y-244449600D02*
X176199800Y-244221000D01*
X175615600Y-245491000D02*
X175691800Y-245491000D01*
D55*
X168975000Y-231902000D02*
X167233600Y-231902000D01*
X188671200Y-283210000D02*
X188618800Y-283157600D01*
X188618800Y-283157600D02*
X187059600Y-283157600D01*
D52*
X168975000Y-230632000D02*
X167208200Y-230632000D01*
D55*
X187059600Y-275537600D02*
X189025200Y-275537600D01*
X189025200Y-275537600D02*
X189026800Y-275539200D01*
D52*
X177865000Y-251587000D02*
X179679600Y-251587000D01*
X176047400Y-253568200D02*
X175488600Y-254127000D01*
X179679600Y-251587000D02*
X179705000Y-251561600D01*
X176555400Y-251587000D02*
X176047400Y-252095000D01*
X177865000Y-251587000D02*
X176555400Y-251587000D01*
X176047400Y-252095000D02*
X176047400Y-253568200D01*
X189169000Y-253781600D02*
X189169000Y-254620000D01*
X189179200Y-253771400D02*
X189169000Y-253781600D01*
X175488600Y-254127000D02*
X173925000Y-254127000D01*
D55*
X169511200Y-284476000D02*
X166948000Y-284476000D01*
X169559600Y-284427600D02*
X169511200Y-284476000D01*
D52*
X175971200Y-247065800D02*
X175971200Y-247751600D01*
X175971200Y-247751600D02*
X176250600Y-248031000D01*
X189169000Y-247254000D02*
X188046600Y-247254000D01*
X175641000Y-246761000D02*
X175666400Y-246761000D01*
X175666400Y-246761000D02*
X175971200Y-247065800D01*
X188046600Y-247254000D02*
X188036200Y-247243600D01*
X173925000Y-246761000D02*
X175641000Y-246761000D01*
X176250600Y-248031000D02*
X177865000Y-248031000D01*
X172034200Y-255676400D02*
X172034200Y-253263400D01*
X172440600Y-252857000D02*
X173925000Y-252857000D01*
X175691800Y-256209800D02*
X172567600Y-256209800D01*
X189169000Y-251064000D02*
X189169000Y-250174800D01*
X177865000Y-255397000D02*
X179679600Y-255397000D01*
X189169000Y-250174800D02*
X189179200Y-250164600D01*
X172034200Y-253263400D02*
X172440600Y-252857000D01*
X177865000Y-255397000D02*
X176504600Y-255397000D01*
X176504600Y-255397000D02*
X175691800Y-256209800D01*
X179679600Y-255397000D02*
X180060600Y-255016000D01*
X172567600Y-256209800D02*
X172034200Y-255676400D01*
X182815000Y-251587000D02*
X184099200Y-251587000D01*
X173925000Y-231902000D02*
X176174400Y-231902000D01*
X184099200Y-251587000D02*
X184505600Y-251180600D01*
D55*
X188161600Y-278077600D02*
X187059600Y-278077600D01*
D52*
X168975000Y-246761000D02*
X167259000Y-246761000D01*
D55*
X188722000Y-279425400D02*
X188722000Y-278638000D01*
X188722000Y-278638000D02*
X188161600Y-278077600D01*
X167233600Y-245516400D02*
X168949600Y-245516400D01*
X188263200Y-276807600D02*
X187059600Y-276807600D01*
X188739865Y-277284265D02*
X188263200Y-276807600D01*
X188739865Y-277807335D02*
X188739865Y-277284265D01*
X168949600Y-245516400D02*
X168975000Y-245491000D01*
X167868600Y-252857000D02*
X168975000Y-252857000D01*
X188355410Y-284427600D02*
X187059600Y-284427600D01*
X167411400Y-252399800D02*
X167868600Y-252857000D01*
X188780510Y-284002500D02*
X188355410Y-284427600D01*
X168924200Y-254076200D02*
X168975000Y-254127000D01*
X188772800Y-285038800D02*
X188114000Y-285697600D01*
X167436800Y-254076200D02*
X168924200Y-254076200D01*
X188114000Y-285697600D02*
X187059600Y-285697600D01*
D52*
X172491400Y-239141000D02*
X171704000Y-238353600D01*
X176022000Y-239725200D02*
X176022000Y-240842800D01*
X176022000Y-240842800D02*
X176555400Y-241376200D01*
X178167000Y-231966800D02*
X178167000Y-228117000D01*
X171704000Y-234569000D02*
X172415200Y-233857800D01*
X184772800Y-241376200D02*
X185611000Y-240538000D01*
X172415200Y-233857800D02*
X176276000Y-233857800D01*
X175437800Y-239141000D02*
X176022000Y-239725200D01*
X171704000Y-238353600D02*
X171704000Y-234569000D01*
X173925000Y-239141000D02*
X172491400Y-239141000D01*
X176276000Y-233857800D02*
X178167000Y-231966800D01*
X173925000Y-239141000D02*
X175437800Y-239141000D01*
X176555400Y-241376200D02*
X184772800Y-241376200D01*
X177482000Y-224282000D02*
X178880000Y-224282000D01*
D55*
X166928800Y-256019800D02*
X166052000Y-255143000D01*
X166928800Y-258165600D02*
X166928800Y-256019800D01*
X165259935Y-258874076D02*
X166220324Y-258874076D01*
X166220324Y-258874076D02*
X166928800Y-258165600D01*
X165259935Y-259875066D02*
X165227000Y-259908001D01*
X188925200Y-274269200D02*
X187591200Y-274269200D01*
X187589600Y-274267600D02*
X187059600Y-274267600D01*
X187591200Y-274269200D02*
X187589600Y-274267600D01*
X165259935Y-258874076D02*
X165259935Y-259875066D01*
X188923600Y-272997600D02*
X187059600Y-272997600D01*
X164592000Y-258274076D02*
X164577000Y-258289076D01*
X164577000Y-258289076D02*
X164577000Y-259908000D01*
X164592000Y-258274076D02*
X165753524Y-258274076D01*
X188925200Y-272999200D02*
X188923600Y-272997600D01*
X166052000Y-257975600D02*
X166052000Y-257175000D01*
X165753524Y-258274076D02*
X166052000Y-257975600D01*
D52*
X185039000Y-256819400D02*
X184454800Y-256235200D01*
X179654200Y-257175000D02*
X178929800Y-257175000D01*
X189169000Y-257444200D02*
X188544200Y-256819400D01*
X177865000Y-258953000D02*
X179324000Y-258953000D01*
X179933600Y-257454400D02*
X179654200Y-257175000D01*
X175209200Y-260223000D02*
X176479200Y-258953000D01*
X188544200Y-256819400D02*
X185039000Y-256819400D01*
X189169000Y-258430000D02*
X189169000Y-257444200D01*
X179171600Y-256235200D02*
X178929800Y-256477000D01*
X173925000Y-260223000D02*
X175209200Y-260223000D01*
X179324000Y-258953000D02*
X179933600Y-258343400D01*
X178929800Y-256477000D02*
X178929800Y-257175000D01*
X176479200Y-258953000D02*
X177865000Y-258953000D01*
X179933600Y-258343400D02*
X179933600Y-257454400D01*
X184454800Y-256235200D02*
X179171600Y-256235200D01*
X186347600Y-218719400D02*
X184699099Y-218719400D01*
X184699099Y-218719400D02*
X184464999Y-218953500D01*
X186626000Y-222643200D02*
X186626000Y-224282000D01*
X180530000Y-225310200D02*
X180949600Y-225729800D01*
X180530000Y-224282000D02*
X180530000Y-225310200D01*
X186258200Y-225729800D02*
X186626000Y-225362000D01*
X180949600Y-225729800D02*
X186258200Y-225729800D01*
X186626000Y-225362000D02*
X186626000Y-224282000D01*
X185211300Y-221228500D02*
X186626000Y-222643200D01*
X184464999Y-221228500D02*
X185211300Y-221228500D01*
X180619400Y-262737600D02*
X180619400Y-263689600D01*
X180619400Y-263689600D02*
X181775600Y-264845800D01*
X177865000Y-261493000D02*
X179374800Y-261493000D01*
X179374800Y-261493000D02*
X180619400Y-262737600D01*
X176606200Y-260223000D02*
X177865000Y-260223000D01*
X176225200Y-263816600D02*
X176225200Y-260604000D01*
X176225200Y-260604000D02*
X176606200Y-260223000D01*
X177279800Y-264871200D02*
X176225200Y-263816600D01*
X182815000Y-237871000D02*
X184251600Y-237871000D01*
X176479200Y-235839000D02*
X179298600Y-235839000D01*
X181330600Y-237871000D02*
X182815000Y-237871000D01*
X173925000Y-237871000D02*
X175514000Y-237871000D01*
X179298600Y-235839000D02*
X181330600Y-237871000D01*
X186044600Y-236078000D02*
X189048785Y-236078000D01*
X175971200Y-236347000D02*
X176479200Y-235839000D01*
X175971200Y-237413800D02*
X175971200Y-236347000D01*
X175514000Y-237871000D02*
X175971200Y-237413800D01*
X184251600Y-237871000D02*
X186044600Y-236078000D01*
D55*
X167513000Y-260223000D02*
X168975000Y-260223000D01*
X167995600Y-281863800D02*
X168019400Y-281887600D01*
X168019400Y-281887600D02*
X169559600Y-281887600D01*
X167182800Y-260553200D02*
X167513000Y-260223000D01*
X167182800Y-261061200D02*
X167182800Y-260553200D01*
D52*
X187261000Y-258318000D02*
X187261000Y-259810000D01*
X187261000Y-259810000D02*
X187213000Y-259858000D01*
X168975000Y-239141000D02*
X167335200Y-239141000D01*
D55*
X167946400Y-278077600D02*
X167944800Y-278079200D01*
X169559600Y-278077600D02*
X167946400Y-278077600D01*
X167208200Y-262737600D02*
X167208200Y-261975600D01*
X167997200Y-280617600D02*
X167995600Y-280619200D01*
X167690800Y-261493000D02*
X168975000Y-261493000D01*
X167208200Y-261975600D02*
X167690800Y-261493000D01*
X169559600Y-280617600D02*
X167997200Y-280617600D01*
X167946400Y-279347600D02*
X167944800Y-279349200D01*
X169559600Y-279347600D02*
X167946400Y-279347600D01*
D52*
X168975000Y-237871000D02*
X167335200Y-237871000D01*
X179933600Y-263405053D02*
X179933600Y-266417400D01*
X175615600Y-265176000D02*
X175615600Y-261743800D01*
X189169000Y-262036800D02*
X188546500Y-262036800D01*
X179708200Y-263179653D02*
X179933600Y-263405053D01*
X176857000Y-266417400D02*
X175615600Y-265176000D01*
X175615600Y-261743800D02*
X175364800Y-261493000D01*
X184810400Y-264998200D02*
X183391200Y-266417400D01*
X188264800Y-264414000D02*
X187680600Y-264998200D01*
X179708200Y-263172600D02*
X179708200Y-263179653D01*
X177865000Y-262763000D02*
X179298600Y-262763000D01*
X188264800Y-262318500D02*
X188264800Y-264414000D01*
X183391200Y-266417400D02*
X176857000Y-266417400D01*
X179298600Y-262763000D02*
X179708200Y-263172600D01*
X188546500Y-262036800D02*
X188264800Y-262318500D01*
X175364800Y-261493000D02*
X173925000Y-261493000D01*
X187680600Y-264998200D02*
X184810400Y-264998200D01*
G04 #@! TA.AperFunction,Conductor*
G36*
X182581115Y-217550008D02*
G01*
X182648085Y-217569914D01*
X182693665Y-217622869D01*
X182704700Y-217674006D01*
X182704700Y-217967166D01*
X182705194Y-217989539D01*
X182705679Y-218000503D01*
X182707162Y-218022819D01*
X182740147Y-218162868D01*
X182740945Y-218164901D01*
X182741009Y-218165631D01*
X182741466Y-218167092D01*
X182741148Y-218167191D01*
X182747123Y-218234497D01*
X182744600Y-218244813D01*
X182717402Y-218338430D01*
X182717401Y-218338436D01*
X182714500Y-218375298D01*
X182714500Y-219484400D01*
X182694815Y-219551439D01*
X182642011Y-219597194D01*
X182590500Y-219608400D01*
X180848000Y-219608400D01*
X180848000Y-222507874D01*
X180828315Y-222574913D01*
X180775511Y-222620668D01*
X180724877Y-222631871D01*
X179178078Y-222642816D01*
X179110901Y-222623606D01*
X179064774Y-222571127D01*
X179053201Y-222518819D01*
X179053201Y-217662711D01*
X179072886Y-217595672D01*
X179125690Y-217549917D01*
X179177608Y-217538712D01*
X182581115Y-217550008D01*
G37*
G04 #@! TD.AperFunction*
G04 #@! TA.AperFunction,Conductor*
G36*
X164865239Y-236976285D02*
G01*
X164910994Y-237029089D01*
X164922200Y-237080600D01*
X164922200Y-240715800D01*
X164983407Y-240715800D01*
X165050446Y-240735485D01*
X165096201Y-240788289D01*
X165101113Y-240800796D01*
X165114996Y-240842694D01*
X165115001Y-240842705D01*
X165204029Y-240987040D01*
X165204032Y-240987044D01*
X165216081Y-240999093D01*
X165249566Y-241060416D01*
X165252400Y-241086774D01*
X165252400Y-241202620D01*
X165232715Y-241269659D01*
X165227667Y-241276931D01*
X165179205Y-241341667D01*
X165179203Y-241341670D01*
X165128909Y-241476516D01*
X165123384Y-241527915D01*
X165122502Y-241536122D01*
X165122501Y-241536134D01*
X165122501Y-242631869D01*
X165122502Y-242631875D01*
X165128909Y-242691482D01*
X165179203Y-242826326D01*
X165179204Y-242826327D01*
X165179205Y-242826330D01*
X165227667Y-242891067D01*
X165252084Y-242956527D01*
X165252400Y-242965375D01*
X165252400Y-243952620D01*
X165232715Y-244019659D01*
X165227667Y-244026931D01*
X165179205Y-244091667D01*
X165179203Y-244091670D01*
X165128909Y-244226516D01*
X165122502Y-244286115D01*
X165122502Y-244286122D01*
X165122501Y-244286134D01*
X165122501Y-245381869D01*
X165122502Y-245381875D01*
X165128909Y-245441482D01*
X165179203Y-245576326D01*
X165179204Y-245576327D01*
X165179205Y-245576330D01*
X165227667Y-245641067D01*
X165252084Y-245706527D01*
X165252400Y-245715375D01*
X165252400Y-246230600D01*
X165232715Y-246297639D01*
X165179911Y-246343394D01*
X165128400Y-246354600D01*
X164896800Y-246354600D01*
X164896800Y-247881600D01*
X164877115Y-247948639D01*
X164824311Y-247994394D01*
X164772800Y-248005600D01*
X161109200Y-248005600D01*
X161042161Y-247985915D01*
X160996406Y-247933111D01*
X160985200Y-247881600D01*
X160985200Y-244286134D01*
X163222502Y-244286134D01*
X163222502Y-245381869D01*
X163222503Y-245381875D01*
X163228910Y-245441482D01*
X163279204Y-245576327D01*
X163279208Y-245576334D01*
X163365454Y-245691543D01*
X163365457Y-245691546D01*
X163480666Y-245777792D01*
X163480673Y-245777796D01*
X163525620Y-245794560D01*
X163615519Y-245828090D01*
X163675129Y-245834499D01*
X164370874Y-245834498D01*
X164430485Y-245828090D01*
X164565333Y-245777795D01*
X164680548Y-245691545D01*
X164766798Y-245576330D01*
X164817093Y-245441482D01*
X164823502Y-245381872D01*
X164823501Y-244286127D01*
X164817093Y-244226516D01*
X164766798Y-244091668D01*
X164766797Y-244091667D01*
X164766795Y-244091663D01*
X164680549Y-243976454D01*
X164680546Y-243976451D01*
X164565337Y-243890205D01*
X164565330Y-243890201D01*
X164430488Y-243839909D01*
X164430487Y-243839908D01*
X164430485Y-243839908D01*
X164370875Y-243833499D01*
X164370865Y-243833499D01*
X163675131Y-243833499D01*
X163675125Y-243833500D01*
X163615518Y-243839907D01*
X163480673Y-243890201D01*
X163480666Y-243890205D01*
X163365457Y-243976451D01*
X163365454Y-243976454D01*
X163279208Y-244091663D01*
X163279204Y-244091670D01*
X163228910Y-244226516D01*
X163222503Y-244286115D01*
X163222503Y-244286122D01*
X163222502Y-244286134D01*
X160985200Y-244286134D01*
X160985200Y-243075000D01*
X161004885Y-243007961D01*
X161057689Y-242962206D01*
X161109200Y-242951000D01*
X163336814Y-242951000D01*
X163403853Y-242970685D01*
X163411125Y-242975733D01*
X163480670Y-243027794D01*
X163480673Y-243027796D01*
X163525620Y-243044560D01*
X163615519Y-243078090D01*
X163675129Y-243084499D01*
X164370874Y-243084498D01*
X164430485Y-243078090D01*
X164565333Y-243027795D01*
X164680548Y-242941545D01*
X164766798Y-242826330D01*
X164817093Y-242691482D01*
X164823502Y-242631872D01*
X164823501Y-241536127D01*
X164817093Y-241476516D01*
X164766798Y-241341668D01*
X164766797Y-241341667D01*
X164766795Y-241341663D01*
X164680550Y-241226456D01*
X164680548Y-241226453D01*
X164680546Y-241226451D01*
X164680543Y-241226448D01*
X164667087Y-241216375D01*
X164625217Y-241160441D01*
X164617400Y-241117110D01*
X164617400Y-241096800D01*
X164471334Y-241096800D01*
X164438236Y-241090828D01*
X164438033Y-241091692D01*
X164430489Y-241089909D01*
X164430487Y-241089908D01*
X164430485Y-241089908D01*
X164370875Y-241083499D01*
X164370865Y-241083499D01*
X163675131Y-241083499D01*
X163675125Y-241083500D01*
X163615518Y-241089907D01*
X163607968Y-241091692D01*
X163607763Y-241090828D01*
X163574667Y-241096800D01*
X163014200Y-241096800D01*
X162947161Y-241077115D01*
X162901406Y-241024311D01*
X162890200Y-240972800D01*
X162890200Y-237080600D01*
X162909885Y-237013561D01*
X162962689Y-236967806D01*
X163014200Y-236956600D01*
X164798200Y-236956600D01*
X164865239Y-236976285D01*
G37*
G04 #@! TD.AperFunction*
G04 #@! TA.AperFunction,Conductor*
G36*
X166386233Y-244344006D02*
G01*
X166433477Y-244395481D01*
X166446200Y-244450193D01*
X166446200Y-245348218D01*
X166445420Y-245362102D01*
X166428035Y-245516397D01*
X166428035Y-245516402D01*
X166429552Y-245529862D01*
X166445392Y-245670452D01*
X166445420Y-245670696D01*
X166446200Y-245684580D01*
X166446200Y-248445435D01*
X166445420Y-248459319D01*
X166440735Y-248500897D01*
X166440735Y-248500901D01*
X166445420Y-248542479D01*
X166446200Y-248556364D01*
X166446200Y-250193000D01*
X166426515Y-250260039D01*
X166373711Y-250305794D01*
X166322200Y-250317000D01*
X165681200Y-250317000D01*
X165614161Y-250297315D01*
X165568406Y-250244511D01*
X165557200Y-250193000D01*
X165557200Y-246733475D01*
X165576885Y-246666436D01*
X165587483Y-246652277D01*
X165657967Y-246570936D01*
X165717738Y-246440059D01*
X165737423Y-246373020D01*
X165737424Y-246373016D01*
X165757900Y-246230600D01*
X165757900Y-245715375D01*
X165757578Y-245697333D01*
X165757262Y-245688485D01*
X165756295Y-245670454D01*
X165725708Y-245529862D01*
X165725706Y-245529858D01*
X165725705Y-245529851D01*
X165701292Y-245464406D01*
X165701291Y-245464402D01*
X165701288Y-245464397D01*
X165701285Y-245464389D01*
X165643170Y-245357963D01*
X165628001Y-245298535D01*
X165628001Y-244466484D01*
X165647686Y-244399445D01*
X165700490Y-244353690D01*
X165748457Y-244342535D01*
X166318659Y-244326244D01*
X166386233Y-244344006D01*
G37*
G04 #@! TD.AperFunction*
G04 #@! TA.AperFunction,Conductor*
G36*
X189909639Y-216681685D02*
G01*
X189955394Y-216734489D01*
X189966600Y-216786000D01*
X189966600Y-222377000D01*
X193373200Y-222377000D01*
X193440239Y-222396685D01*
X193485994Y-222449489D01*
X193497200Y-222501000D01*
X193497200Y-226698000D01*
X193477515Y-226765039D01*
X193424711Y-226810794D01*
X193373200Y-226822000D01*
X188645800Y-226822000D01*
X188645800Y-232390210D01*
X188626115Y-232457249D01*
X188573311Y-232503004D01*
X188524438Y-232514182D01*
X187578638Y-232534305D01*
X187511195Y-232516051D01*
X187464327Y-232464232D01*
X187452000Y-232410333D01*
X187452000Y-224910085D01*
X187467635Y-224854001D01*
X187466400Y-224853445D01*
X187469473Y-224846613D01*
X187469478Y-224846606D01*
X187520086Y-224684196D01*
X187526500Y-224613616D01*
X187526500Y-223950384D01*
X187520086Y-223879804D01*
X187469478Y-223717394D01*
X187469475Y-223717389D01*
X187469474Y-223717385D01*
X187466398Y-223710549D01*
X187467631Y-223709994D01*
X187452000Y-223653913D01*
X187452000Y-217678000D01*
X183819800Y-217678000D01*
X183819800Y-217967182D01*
X183800680Y-218032295D01*
X183800890Y-218032420D01*
X183800401Y-218033246D01*
X183800115Y-218034221D01*
X183798340Y-218036731D01*
X183713255Y-218180603D01*
X183713254Y-218180606D01*
X183667402Y-218338426D01*
X183667401Y-218338432D01*
X183664500Y-218375298D01*
X183664500Y-219484400D01*
X183644815Y-219551439D01*
X183592011Y-219597194D01*
X183540500Y-219608400D01*
X183489500Y-219608400D01*
X183422461Y-219588715D01*
X183376706Y-219535911D01*
X183365500Y-219484400D01*
X183365500Y-218375313D01*
X183365499Y-218375298D01*
X183362598Y-218338432D01*
X183362597Y-218338426D01*
X183316745Y-218180606D01*
X183316744Y-218180603D01*
X183316744Y-218180602D01*
X183233081Y-218039135D01*
X183229110Y-218032420D01*
X183231450Y-218031035D01*
X183210685Y-217978142D01*
X183210200Y-217967182D01*
X183210200Y-216786000D01*
X183229885Y-216718961D01*
X183282689Y-216673206D01*
X183334200Y-216662000D01*
X189842600Y-216662000D01*
X189909639Y-216681685D01*
G37*
G04 #@! TD.AperFunction*
G04 #@! TA.AperFunction,Conductor*
G36*
X184702927Y-272978938D02*
G01*
X184737117Y-272991691D01*
X184796727Y-272998100D01*
X185685100Y-272998099D01*
X185752139Y-273017783D01*
X185797894Y-273070587D01*
X185809100Y-273122099D01*
X185809100Y-273495469D01*
X185809101Y-273495476D01*
X185815508Y-273555081D01*
X185828259Y-273589269D01*
X185833242Y-273658961D01*
X185828259Y-273675931D01*
X185815508Y-273710118D01*
X185809101Y-273769716D01*
X185809101Y-273769723D01*
X185809100Y-273769735D01*
X185809100Y-274765470D01*
X185809101Y-274765476D01*
X185815508Y-274825081D01*
X185828259Y-274859269D01*
X185833242Y-274928961D01*
X185828259Y-274945931D01*
X185815508Y-274980118D01*
X185809101Y-275039716D01*
X185809101Y-275039723D01*
X185809100Y-275039735D01*
X185809100Y-276035470D01*
X185809101Y-276035476D01*
X185815508Y-276095081D01*
X185828259Y-276129269D01*
X185833242Y-276198961D01*
X185828259Y-276215931D01*
X185815508Y-276250118D01*
X185809101Y-276309716D01*
X185809101Y-276309723D01*
X185809100Y-276309735D01*
X185809100Y-277305470D01*
X185809101Y-277305476D01*
X185815508Y-277365081D01*
X185828259Y-277399269D01*
X185833242Y-277468961D01*
X185828259Y-277485931D01*
X185815508Y-277520118D01*
X185809101Y-277579716D01*
X185809101Y-277579723D01*
X185809100Y-277579735D01*
X185809100Y-278575470D01*
X185809101Y-278575476D01*
X185815508Y-278635081D01*
X185828259Y-278669269D01*
X185833242Y-278738961D01*
X185828259Y-278755931D01*
X185815508Y-278790118D01*
X185809101Y-278849716D01*
X185809101Y-278849723D01*
X185809100Y-278849735D01*
X185809100Y-279845470D01*
X185809101Y-279845476D01*
X185815508Y-279905081D01*
X185828259Y-279939269D01*
X185833242Y-280008961D01*
X185828259Y-280025931D01*
X185815508Y-280060118D01*
X185815358Y-280061517D01*
X185809101Y-280119723D01*
X185809100Y-280119735D01*
X185809100Y-281115470D01*
X185809101Y-281115476D01*
X185815508Y-281175081D01*
X185828259Y-281209269D01*
X185833242Y-281278961D01*
X185828259Y-281295931D01*
X185815508Y-281330118D01*
X185815358Y-281331517D01*
X185809101Y-281389723D01*
X185809100Y-281389735D01*
X185809100Y-282385470D01*
X185809101Y-282385476D01*
X185815508Y-282445081D01*
X185828259Y-282479269D01*
X185833242Y-282548961D01*
X185828259Y-282565931D01*
X185815508Y-282600118D01*
X185809101Y-282659716D01*
X185809100Y-282659727D01*
X185809100Y-283655470D01*
X185809101Y-283655476D01*
X185815508Y-283715081D01*
X185828259Y-283749269D01*
X185833242Y-283818961D01*
X185828259Y-283835931D01*
X185815508Y-283870118D01*
X185814479Y-283879693D01*
X185809101Y-283929723D01*
X185809100Y-283929735D01*
X185809100Y-284925470D01*
X185809101Y-284925476D01*
X185815508Y-284985081D01*
X185828259Y-285019269D01*
X185833242Y-285088961D01*
X185828259Y-285105931D01*
X185815508Y-285140118D01*
X185809101Y-285199716D01*
X185809101Y-285199723D01*
X185809100Y-285199735D01*
X185809100Y-286195470D01*
X185809101Y-286195476D01*
X185815508Y-286255081D01*
X185828259Y-286289269D01*
X185833242Y-286358961D01*
X185828259Y-286375931D01*
X185815508Y-286410118D01*
X185809101Y-286469716D01*
X185809101Y-286469723D01*
X185809100Y-286469735D01*
X185809101Y-287177900D01*
X185789417Y-287244939D01*
X185736613Y-287290694D01*
X185685101Y-287301900D01*
X185239200Y-287301900D01*
X185239191Y-287301900D01*
X185239190Y-287301901D01*
X185131749Y-287313452D01*
X185131737Y-287313454D01*
X185080227Y-287324660D01*
X184977702Y-287358783D01*
X184977696Y-287358786D01*
X184856662Y-287436571D01*
X184856651Y-287436579D01*
X184803859Y-287482323D01*
X184709633Y-287591064D01*
X184709630Y-287591068D01*
X184649864Y-287721934D01*
X184644641Y-287739723D01*
X184630177Y-287788980D01*
X184630176Y-287788984D01*
X184609700Y-287931400D01*
X184609700Y-288572400D01*
X184609701Y-288572409D01*
X184621252Y-288679850D01*
X184621254Y-288679862D01*
X184632460Y-288731372D01*
X184666583Y-288833897D01*
X184666586Y-288833903D01*
X184744371Y-288954937D01*
X184744379Y-288954948D01*
X184790123Y-289007740D01*
X184790126Y-289007743D01*
X184790130Y-289007747D01*
X184898864Y-289101967D01*
X184898867Y-289101968D01*
X184898868Y-289101969D01*
X185019092Y-289156875D01*
X185029741Y-289161738D01*
X185096780Y-289181423D01*
X185096784Y-289181424D01*
X185239200Y-289201900D01*
X185239203Y-289201900D01*
X185702538Y-289201900D01*
X185769577Y-289221585D01*
X185790219Y-289238219D01*
X185809600Y-289257600D01*
X186935600Y-289257600D01*
X187002639Y-289277285D01*
X187048394Y-289330089D01*
X187059600Y-289381600D01*
X187059600Y-289633600D01*
X187039915Y-289700639D01*
X186987111Y-289746394D01*
X186935600Y-289757600D01*
X185809600Y-289757600D01*
X185809600Y-289839562D01*
X185789915Y-289906601D01*
X185737111Y-289952356D01*
X185685434Y-289963562D01*
X170933434Y-289943840D01*
X170866421Y-289924066D01*
X170820737Y-289871201D01*
X170809600Y-289819840D01*
X170809600Y-289757600D01*
X169683600Y-289757600D01*
X169616561Y-289737915D01*
X169570806Y-289685111D01*
X169559600Y-289633600D01*
X169559600Y-289381600D01*
X169579285Y-289314561D01*
X169632089Y-289268806D01*
X169683600Y-289257600D01*
X170809600Y-289257600D01*
X170809600Y-289009772D01*
X170809599Y-289009755D01*
X170803197Y-288950222D01*
X170803197Y-288950220D01*
X170790675Y-288916648D01*
X170785689Y-288846956D01*
X170790671Y-288829990D01*
X170803691Y-288795083D01*
X170810100Y-288735473D01*
X170810099Y-287739728D01*
X170803691Y-287680117D01*
X170790940Y-287645932D01*
X170785957Y-287576242D01*
X170790938Y-287559272D01*
X170803691Y-287525083D01*
X170810100Y-287465473D01*
X170810099Y-286469728D01*
X170803691Y-286410117D01*
X170790940Y-286375932D01*
X170785957Y-286306242D01*
X170790940Y-286289269D01*
X170803691Y-286255083D01*
X170810100Y-286195473D01*
X170810099Y-285199728D01*
X170803691Y-285140117D01*
X170790940Y-285105932D01*
X170785957Y-285036242D01*
X170790940Y-285019269D01*
X170803691Y-284985083D01*
X170810100Y-284925473D01*
X170810099Y-283929728D01*
X170803691Y-283870117D01*
X170790940Y-283835932D01*
X170785957Y-283766242D01*
X170790940Y-283749269D01*
X170803691Y-283715083D01*
X170806878Y-283685444D01*
X177459600Y-283685444D01*
X177466001Y-283744972D01*
X177466003Y-283744979D01*
X177516245Y-283879686D01*
X177516249Y-283879693D01*
X177602409Y-283994787D01*
X177602412Y-283994790D01*
X177717506Y-284080950D01*
X177717513Y-284080954D01*
X177852220Y-284131196D01*
X177852227Y-284131198D01*
X177911755Y-284137599D01*
X177911772Y-284137600D01*
X178159600Y-284137600D01*
X178659600Y-284137600D01*
X178907428Y-284137600D01*
X178907444Y-284137599D01*
X178966972Y-284131198D01*
X178966976Y-284131197D01*
X179066266Y-284094164D01*
X179135958Y-284089180D01*
X179152934Y-284094164D01*
X179252223Y-284131197D01*
X179252227Y-284131198D01*
X179311755Y-284137599D01*
X179311772Y-284137600D01*
X179559600Y-284137600D01*
X180059600Y-284137600D01*
X180307428Y-284137600D01*
X180307444Y-284137599D01*
X180366972Y-284131198D01*
X180366976Y-284131197D01*
X180466266Y-284094164D01*
X180535958Y-284089180D01*
X180552934Y-284094164D01*
X180652223Y-284131197D01*
X180652227Y-284131198D01*
X180711755Y-284137599D01*
X180711772Y-284137600D01*
X180959600Y-284137600D01*
X181459600Y-284137600D01*
X181707428Y-284137600D01*
X181707444Y-284137599D01*
X181766972Y-284131198D01*
X181766979Y-284131196D01*
X181901686Y-284080954D01*
X181901693Y-284080950D01*
X182016787Y-283994790D01*
X182016790Y-283994787D01*
X182102950Y-283879693D01*
X182102954Y-283879686D01*
X182153196Y-283744979D01*
X182153198Y-283744972D01*
X182159599Y-283685444D01*
X182159600Y-283685427D01*
X182159600Y-283437600D01*
X181459600Y-283437600D01*
X181459600Y-284137600D01*
X180959600Y-284137600D01*
X180959600Y-283437600D01*
X180059600Y-283437600D01*
X180059600Y-284137600D01*
X179559600Y-284137600D01*
X179559600Y-283437600D01*
X178659600Y-283437600D01*
X178659600Y-284137600D01*
X178159600Y-284137600D01*
X178159600Y-283437600D01*
X177459600Y-283437600D01*
X177459600Y-283685444D01*
X170806878Y-283685444D01*
X170810100Y-283655473D01*
X170810100Y-283167709D01*
X179009600Y-283167709D01*
X179009600Y-283207491D01*
X179024824Y-283244245D01*
X179052955Y-283272376D01*
X179089709Y-283287600D01*
X179129491Y-283287600D01*
X179166245Y-283272376D01*
X179194376Y-283244245D01*
X179209600Y-283207491D01*
X179209600Y-283167709D01*
X180409600Y-283167709D01*
X180409600Y-283207491D01*
X180424824Y-283244245D01*
X180452955Y-283272376D01*
X180489709Y-283287600D01*
X180529491Y-283287600D01*
X180566245Y-283272376D01*
X180594376Y-283244245D01*
X180609600Y-283207491D01*
X180609600Y-283167709D01*
X180594376Y-283130955D01*
X180566245Y-283102824D01*
X180529491Y-283087600D01*
X180489709Y-283087600D01*
X180452955Y-283102824D01*
X180424824Y-283130955D01*
X180409600Y-283167709D01*
X179209600Y-283167709D01*
X179194376Y-283130955D01*
X179166245Y-283102824D01*
X179129491Y-283087600D01*
X179089709Y-283087600D01*
X179052955Y-283102824D01*
X179024824Y-283130955D01*
X179009600Y-283167709D01*
X170810100Y-283167709D01*
X170810099Y-282659728D01*
X170803691Y-282600117D01*
X170790940Y-282565932D01*
X170785957Y-282496242D01*
X170790940Y-282479269D01*
X170803691Y-282445083D01*
X170810100Y-282385473D01*
X170810100Y-282285444D01*
X177459600Y-282285444D01*
X177466001Y-282344972D01*
X177466003Y-282344983D01*
X177503034Y-282444268D01*
X177508018Y-282513960D01*
X177503034Y-282530932D01*
X177466003Y-282630216D01*
X177466001Y-282630227D01*
X177459600Y-282689755D01*
X177459600Y-282937600D01*
X178159600Y-282937600D01*
X181459600Y-282937600D01*
X182159600Y-282937600D01*
X182159600Y-282689772D01*
X182159599Y-282689755D01*
X182153198Y-282630227D01*
X182153197Y-282630223D01*
X182116164Y-282530934D01*
X182111180Y-282461242D01*
X182116164Y-282444266D01*
X182153197Y-282344976D01*
X182153198Y-282344972D01*
X182159599Y-282285444D01*
X182159600Y-282285427D01*
X182159600Y-282037600D01*
X181459600Y-282037600D01*
X181459600Y-282937600D01*
X178159600Y-282937600D01*
X178159600Y-282467709D01*
X178309600Y-282467709D01*
X178309600Y-282507491D01*
X178324824Y-282544245D01*
X178352955Y-282572376D01*
X178389709Y-282587600D01*
X178429491Y-282587600D01*
X178466245Y-282572376D01*
X178494376Y-282544245D01*
X178509600Y-282507491D01*
X178509600Y-282487599D01*
X178692442Y-282487599D01*
X178864570Y-282659726D01*
X178864570Y-282659727D01*
X179109600Y-282904757D01*
X179526757Y-282487600D01*
X179506866Y-282467709D01*
X179709600Y-282467709D01*
X179709600Y-282507491D01*
X179724824Y-282544245D01*
X179752955Y-282572376D01*
X179789709Y-282587600D01*
X179829491Y-282587600D01*
X179866245Y-282572376D01*
X179894376Y-282544245D01*
X179909600Y-282507491D01*
X179909600Y-282487599D01*
X180092442Y-282487599D01*
X180264570Y-282659726D01*
X180264570Y-282659727D01*
X180509600Y-282904757D01*
X180926757Y-282487600D01*
X180906866Y-282467709D01*
X181109600Y-282467709D01*
X181109600Y-282507491D01*
X181124824Y-282544245D01*
X181152955Y-282572376D01*
X181189709Y-282587600D01*
X181229491Y-282587600D01*
X181266245Y-282572376D01*
X181294376Y-282544245D01*
X181309600Y-282507491D01*
X181309600Y-282467709D01*
X181294376Y-282430955D01*
X181266245Y-282402824D01*
X181229491Y-282387600D01*
X181189709Y-282387600D01*
X181152955Y-282402824D01*
X181124824Y-282430955D01*
X181109600Y-282467709D01*
X180906866Y-282467709D01*
X180672234Y-282233077D01*
X180672232Y-282233074D01*
X180509601Y-282070442D01*
X180509599Y-282070442D01*
X180346965Y-282233077D01*
X180092442Y-282487599D01*
X179909600Y-282487599D01*
X179909600Y-282467709D01*
X179894376Y-282430955D01*
X179866245Y-282402824D01*
X179829491Y-282387600D01*
X179789709Y-282387600D01*
X179752955Y-282402824D01*
X179724824Y-282430955D01*
X179709600Y-282467709D01*
X179506866Y-282467709D01*
X179272234Y-282233077D01*
X179272232Y-282233074D01*
X179109601Y-282070442D01*
X179109599Y-282070442D01*
X178946965Y-282233077D01*
X178692442Y-282487599D01*
X178509600Y-282487599D01*
X178509600Y-282467709D01*
X178494376Y-282430955D01*
X178466245Y-282402824D01*
X178429491Y-282387600D01*
X178389709Y-282387600D01*
X178352955Y-282402824D01*
X178324824Y-282430955D01*
X178309600Y-282467709D01*
X178159600Y-282467709D01*
X178159600Y-282037600D01*
X177459600Y-282037600D01*
X177459600Y-282285444D01*
X170810100Y-282285444D01*
X170810099Y-281767709D01*
X179009600Y-281767709D01*
X179009600Y-281807491D01*
X179024824Y-281844245D01*
X179052955Y-281872376D01*
X179089709Y-281887600D01*
X179129491Y-281887600D01*
X179166245Y-281872376D01*
X179194376Y-281844245D01*
X179209600Y-281807491D01*
X179209600Y-281767709D01*
X180409600Y-281767709D01*
X180409600Y-281807491D01*
X180424824Y-281844245D01*
X180452955Y-281872376D01*
X180489709Y-281887600D01*
X180529491Y-281887600D01*
X180566245Y-281872376D01*
X180594376Y-281844245D01*
X180609600Y-281807491D01*
X180609600Y-281767709D01*
X180594376Y-281730955D01*
X180566245Y-281702824D01*
X180529491Y-281687600D01*
X180489709Y-281687600D01*
X180452955Y-281702824D01*
X180424824Y-281730955D01*
X180409600Y-281767709D01*
X179209600Y-281767709D01*
X179194376Y-281730955D01*
X179166245Y-281702824D01*
X179129491Y-281687600D01*
X179089709Y-281687600D01*
X179052955Y-281702824D01*
X179024824Y-281730955D01*
X179009600Y-281767709D01*
X170810099Y-281767709D01*
X170810099Y-281389728D01*
X170803691Y-281330117D01*
X170790940Y-281295932D01*
X170785957Y-281226242D01*
X170790940Y-281209269D01*
X170803691Y-281175083D01*
X170810100Y-281115473D01*
X170810100Y-280885444D01*
X177459600Y-280885444D01*
X177466001Y-280944972D01*
X177466003Y-280944983D01*
X177503034Y-281044268D01*
X177508018Y-281113960D01*
X177503034Y-281130932D01*
X177466003Y-281230216D01*
X177466001Y-281230227D01*
X177459600Y-281289755D01*
X177459600Y-281537600D01*
X178159600Y-281537600D01*
X181459600Y-281537600D01*
X182159600Y-281537600D01*
X182159600Y-281289772D01*
X182159599Y-281289755D01*
X182153198Y-281230227D01*
X182153197Y-281230223D01*
X182116164Y-281130934D01*
X182111180Y-281061242D01*
X182116164Y-281044266D01*
X182153197Y-280944976D01*
X182153198Y-280944972D01*
X182159599Y-280885444D01*
X182159600Y-280885427D01*
X182159600Y-280637600D01*
X181459600Y-280637600D01*
X181459600Y-281537600D01*
X178159600Y-281537600D01*
X178159600Y-281067709D01*
X178309600Y-281067709D01*
X178309600Y-281107491D01*
X178324824Y-281144245D01*
X178352955Y-281172376D01*
X178389709Y-281187600D01*
X178429491Y-281187600D01*
X178466245Y-281172376D01*
X178494376Y-281144245D01*
X178509600Y-281107491D01*
X178509600Y-281087599D01*
X178692442Y-281087599D01*
X178692442Y-281087600D01*
X178849928Y-281245086D01*
X178849943Y-281245100D01*
X179109600Y-281504757D01*
X179526757Y-281087600D01*
X179506866Y-281067709D01*
X179709600Y-281067709D01*
X179709600Y-281107491D01*
X179724824Y-281144245D01*
X179752955Y-281172376D01*
X179789709Y-281187600D01*
X179829491Y-281187600D01*
X179866245Y-281172376D01*
X179894376Y-281144245D01*
X179909600Y-281107491D01*
X179909600Y-281087599D01*
X180092442Y-281087599D01*
X180092442Y-281087600D01*
X180249928Y-281245086D01*
X180249943Y-281245100D01*
X180509600Y-281504757D01*
X180926757Y-281087600D01*
X180906866Y-281067709D01*
X181109600Y-281067709D01*
X181109600Y-281107491D01*
X181124824Y-281144245D01*
X181152955Y-281172376D01*
X181189709Y-281187600D01*
X181229491Y-281187600D01*
X181266245Y-281172376D01*
X181294376Y-281144245D01*
X181309600Y-281107491D01*
X181309600Y-281067709D01*
X181294376Y-281030955D01*
X181266245Y-281002824D01*
X181229491Y-280987600D01*
X181189709Y-280987600D01*
X181152955Y-281002824D01*
X181124824Y-281030955D01*
X181109600Y-281067709D01*
X180906866Y-281067709D01*
X180672234Y-280833077D01*
X180672232Y-280833074D01*
X180509601Y-280670442D01*
X180509599Y-280670442D01*
X180346965Y-280833077D01*
X180092442Y-281087599D01*
X179909600Y-281087599D01*
X179909600Y-281067709D01*
X179894376Y-281030955D01*
X179866245Y-281002824D01*
X179829491Y-280987600D01*
X179789709Y-280987600D01*
X179752955Y-281002824D01*
X179724824Y-281030955D01*
X179709600Y-281067709D01*
X179506866Y-281067709D01*
X179272234Y-280833077D01*
X179272232Y-280833074D01*
X179109601Y-280670442D01*
X179109599Y-280670442D01*
X178946965Y-280833077D01*
X178692442Y-281087599D01*
X178509600Y-281087599D01*
X178509600Y-281067709D01*
X178494376Y-281030955D01*
X178466245Y-281002824D01*
X178429491Y-280987600D01*
X178389709Y-280987600D01*
X178352955Y-281002824D01*
X178324824Y-281030955D01*
X178309600Y-281067709D01*
X178159600Y-281067709D01*
X178159600Y-280637600D01*
X177459600Y-280637600D01*
X177459600Y-280885444D01*
X170810100Y-280885444D01*
X170810099Y-280367709D01*
X179009600Y-280367709D01*
X179009600Y-280407491D01*
X179024824Y-280444245D01*
X179052955Y-280472376D01*
X179089709Y-280487600D01*
X179129491Y-280487600D01*
X179166245Y-280472376D01*
X179194376Y-280444245D01*
X179209600Y-280407491D01*
X179209600Y-280367709D01*
X180409600Y-280367709D01*
X180409600Y-280407491D01*
X180424824Y-280444245D01*
X180452955Y-280472376D01*
X180489709Y-280487600D01*
X180529491Y-280487600D01*
X180566245Y-280472376D01*
X180594376Y-280444245D01*
X180609600Y-280407491D01*
X180609600Y-280367709D01*
X180594376Y-280330955D01*
X180566245Y-280302824D01*
X180529491Y-280287600D01*
X180489709Y-280287600D01*
X180452955Y-280302824D01*
X180424824Y-280330955D01*
X180409600Y-280367709D01*
X179209600Y-280367709D01*
X179194376Y-280330955D01*
X179166245Y-280302824D01*
X179129491Y-280287600D01*
X179089709Y-280287600D01*
X179052955Y-280302824D01*
X179024824Y-280330955D01*
X179009600Y-280367709D01*
X170810099Y-280367709D01*
X170810099Y-280119728D01*
X170803691Y-280060117D01*
X170790940Y-280025932D01*
X170785957Y-279956242D01*
X170790940Y-279939269D01*
X170803691Y-279905083D01*
X170805339Y-279889755D01*
X177459600Y-279889755D01*
X177459600Y-280137600D01*
X178159600Y-280137600D01*
X178659600Y-280137600D01*
X179559600Y-280137600D01*
X180059600Y-280137600D01*
X180959600Y-280137600D01*
X181459600Y-280137600D01*
X182159600Y-280137600D01*
X182159600Y-279889772D01*
X182159599Y-279889755D01*
X182153198Y-279830227D01*
X182153196Y-279830220D01*
X182102954Y-279695513D01*
X182102950Y-279695506D01*
X182016790Y-279580412D01*
X182016787Y-279580409D01*
X181901693Y-279494249D01*
X181901686Y-279494245D01*
X181766979Y-279444003D01*
X181766972Y-279444001D01*
X181707444Y-279437600D01*
X181459600Y-279437600D01*
X181459600Y-280137600D01*
X180959600Y-280137600D01*
X180959600Y-279437600D01*
X180711755Y-279437600D01*
X180652227Y-279444001D01*
X180652216Y-279444003D01*
X180552932Y-279481034D01*
X180483240Y-279486018D01*
X180466268Y-279481034D01*
X180366983Y-279444003D01*
X180366972Y-279444001D01*
X180307444Y-279437600D01*
X180059600Y-279437600D01*
X180059600Y-280137600D01*
X179559600Y-280137600D01*
X179559600Y-279437600D01*
X179311755Y-279437600D01*
X179252227Y-279444001D01*
X179252216Y-279444003D01*
X179152932Y-279481034D01*
X179083240Y-279486018D01*
X179066268Y-279481034D01*
X178966983Y-279444003D01*
X178966972Y-279444001D01*
X178907444Y-279437600D01*
X178659600Y-279437600D01*
X178659600Y-280137600D01*
X178159600Y-280137600D01*
X178159600Y-279437600D01*
X177911755Y-279437600D01*
X177852227Y-279444001D01*
X177852220Y-279444003D01*
X177717513Y-279494245D01*
X177717506Y-279494249D01*
X177602412Y-279580409D01*
X177602409Y-279580412D01*
X177516249Y-279695506D01*
X177516245Y-279695513D01*
X177466003Y-279830220D01*
X177466001Y-279830227D01*
X177459600Y-279889755D01*
X170805339Y-279889755D01*
X170810100Y-279845473D01*
X170810099Y-278849728D01*
X170803691Y-278790117D01*
X170790940Y-278755932D01*
X170785957Y-278686242D01*
X170790940Y-278669269D01*
X170803691Y-278635083D01*
X170810100Y-278575473D01*
X170810099Y-277579728D01*
X170803691Y-277520117D01*
X170790940Y-277485932D01*
X170785957Y-277416242D01*
X170790940Y-277399269D01*
X170803691Y-277365083D01*
X170810100Y-277305473D01*
X170810099Y-276309728D01*
X170803691Y-276250117D01*
X170790940Y-276215932D01*
X170785957Y-276146242D01*
X170790940Y-276129269D01*
X170803691Y-276095083D01*
X170810100Y-276035473D01*
X170810099Y-275039728D01*
X170803691Y-274980117D01*
X170790940Y-274945932D01*
X170785957Y-274876242D01*
X170790940Y-274859269D01*
X170803691Y-274825083D01*
X170810100Y-274765473D01*
X170810099Y-273769728D01*
X170803691Y-273710117D01*
X170790940Y-273675932D01*
X170785957Y-273606242D01*
X170790940Y-273589269D01*
X170803691Y-273555083D01*
X170810100Y-273495473D01*
X170810099Y-273122098D01*
X170829783Y-273055060D01*
X170882587Y-273009305D01*
X170934094Y-272998099D01*
X171822472Y-272998099D01*
X171882083Y-272991691D01*
X171916267Y-272978940D01*
X171985958Y-272973957D01*
X172002927Y-272978938D01*
X172037117Y-272991691D01*
X172096727Y-272998100D01*
X173092472Y-272998099D01*
X173152083Y-272991691D01*
X173186267Y-272978940D01*
X173255958Y-272973957D01*
X173272927Y-272978938D01*
X173307117Y-272991691D01*
X173366727Y-272998100D01*
X174362472Y-272998099D01*
X174422083Y-272991691D01*
X174456267Y-272978940D01*
X174525958Y-272973957D01*
X174542927Y-272978938D01*
X174577117Y-272991691D01*
X174636727Y-272998100D01*
X175632472Y-272998099D01*
X175692083Y-272991691D01*
X175726267Y-272978940D01*
X175795958Y-272973957D01*
X175812927Y-272978938D01*
X175847117Y-272991691D01*
X175906727Y-272998100D01*
X176902472Y-272998099D01*
X176962083Y-272991691D01*
X176996267Y-272978940D01*
X177065958Y-272973957D01*
X177082927Y-272978938D01*
X177117117Y-272991691D01*
X177176727Y-272998100D01*
X178172472Y-272998099D01*
X178232083Y-272991691D01*
X178266267Y-272978940D01*
X178335958Y-272973957D01*
X178352927Y-272978938D01*
X178387117Y-272991691D01*
X178446727Y-272998100D01*
X179442472Y-272998099D01*
X179502083Y-272991691D01*
X179536267Y-272978940D01*
X179605958Y-272973957D01*
X179622927Y-272978938D01*
X179657117Y-272991691D01*
X179716727Y-272998100D01*
X180712472Y-272998099D01*
X180772083Y-272991691D01*
X180806267Y-272978940D01*
X180875958Y-272973957D01*
X180892927Y-272978938D01*
X180927117Y-272991691D01*
X180986727Y-272998100D01*
X181982472Y-272998099D01*
X182042083Y-272991691D01*
X182076267Y-272978940D01*
X182145958Y-272973957D01*
X182162927Y-272978938D01*
X182197117Y-272991691D01*
X182256727Y-272998100D01*
X183252472Y-272998099D01*
X183312083Y-272991691D01*
X183346267Y-272978940D01*
X183415958Y-272973957D01*
X183432927Y-272978938D01*
X183467117Y-272991691D01*
X183526727Y-272998100D01*
X184522472Y-272998099D01*
X184582083Y-272991691D01*
X184616267Y-272978940D01*
X184685958Y-272973957D01*
X184702927Y-272978938D01*
G37*
G04 #@! TD.AperFunction*
G04 #@! TA.AperFunction,Conductor*
G36*
X191532907Y-230804085D02*
G01*
X191578662Y-230856889D01*
X191588606Y-230926047D01*
X191570861Y-230974373D01*
X191526811Y-231044475D01*
X191467231Y-231214745D01*
X191467230Y-231214750D01*
X191447035Y-231393996D01*
X191447035Y-231394003D01*
X191467230Y-231573249D01*
X191467231Y-231573254D01*
X191526811Y-231743523D01*
X191559908Y-231796196D01*
X191622784Y-231896262D01*
X191750338Y-232023816D01*
X191903078Y-232119789D01*
X192073345Y-232179368D01*
X192073350Y-232179369D01*
X192252596Y-232199565D01*
X192252600Y-232199565D01*
X192252604Y-232199565D01*
X192431846Y-232179369D01*
X192431845Y-232179369D01*
X192431855Y-232179368D01*
X192446359Y-232174292D01*
X192516134Y-232170729D01*
X192574994Y-232203651D01*
X192595815Y-232224472D01*
X192741394Y-232312478D01*
X192903804Y-232363086D01*
X192974384Y-232369500D01*
X192974387Y-232369500D01*
X193487613Y-232369500D01*
X193487616Y-232369500D01*
X193558196Y-232363086D01*
X193720606Y-232312478D01*
X193866185Y-232224472D01*
X193916364Y-232174293D01*
X193968319Y-232122339D01*
X194029642Y-232088854D01*
X194099334Y-232093838D01*
X194143681Y-232122339D01*
X194245811Y-232224469D01*
X194245813Y-232224470D01*
X194245815Y-232224472D01*
X194391394Y-232312478D01*
X194553804Y-232363086D01*
X194624384Y-232369500D01*
X194624387Y-232369500D01*
X195137613Y-232369500D01*
X195137616Y-232369500D01*
X195208196Y-232363086D01*
X195370606Y-232312478D01*
X195516185Y-232224472D01*
X195636472Y-232104185D01*
X195724478Y-231958606D01*
X195775086Y-231796196D01*
X195781500Y-231725616D01*
X195781500Y-231062384D01*
X195775086Y-230991804D01*
X195760590Y-230945286D01*
X195759441Y-230875430D01*
X195796242Y-230816037D01*
X195859311Y-230785969D01*
X195878977Y-230784400D01*
X201628200Y-230784400D01*
X201695239Y-230804085D01*
X201740994Y-230856889D01*
X201752200Y-230908400D01*
X201752200Y-233225800D01*
X201732515Y-233292839D01*
X201679711Y-233338594D01*
X201628200Y-233349800D01*
X197631915Y-233349800D01*
X197607725Y-233347418D01*
X197581306Y-233342163D01*
X197547802Y-233335499D01*
X190446200Y-233335499D01*
X190379161Y-233315814D01*
X190333406Y-233263010D01*
X190322200Y-233211499D01*
X190322200Y-230908400D01*
X190341885Y-230841361D01*
X190394689Y-230795606D01*
X190446200Y-230784400D01*
X191465868Y-230784400D01*
X191532907Y-230804085D01*
G37*
G04 #@! TD.AperFunction*
G04 #@! TA.AperFunction,Conductor*
G36*
X176997406Y-217558222D02*
G01*
X177043379Y-217610836D01*
X177054799Y-217662814D01*
X177054799Y-222517787D01*
X177035114Y-222584826D01*
X176982310Y-222630581D01*
X176928901Y-222641772D01*
X176225201Y-222630999D01*
X176225200Y-222631000D01*
X176225200Y-225504200D01*
X176205515Y-225571239D01*
X176152711Y-225616994D01*
X176101200Y-225628200D01*
X173116780Y-225628200D01*
X173102899Y-225627420D01*
X173049721Y-225621428D01*
X172948603Y-225610035D01*
X172948597Y-225610035D01*
X172847478Y-225621428D01*
X172794300Y-225627420D01*
X172780420Y-225628200D01*
X170380200Y-225628200D01*
X170313161Y-225608515D01*
X170267406Y-225555711D01*
X170256200Y-225504200D01*
X170256200Y-224231200D01*
X165681200Y-224231200D01*
X165614161Y-224211515D01*
X165568406Y-224158711D01*
X165557200Y-224107200D01*
X165557200Y-218335400D01*
X165576885Y-218268361D01*
X165629689Y-218222606D01*
X165681200Y-218211400D01*
X167490600Y-218211400D01*
X167557639Y-218231085D01*
X167603394Y-218283889D01*
X167614600Y-218335400D01*
X167614600Y-221488000D01*
X173990000Y-221488000D01*
X173990000Y-217674487D01*
X174009685Y-217607448D01*
X174062489Y-217561693D01*
X174113484Y-217550488D01*
X176930288Y-217538815D01*
X176997406Y-217558222D01*
G37*
G04 #@! TD.AperFunction*
G04 #@! TA.AperFunction,Conductor*
G36*
X166668639Y-237001685D02*
G01*
X166714394Y-237054489D01*
X166725600Y-237106000D01*
X166725600Y-237394818D01*
X166706594Y-237460790D01*
X166654745Y-237543307D01*
X166598885Y-237702943D01*
X166579951Y-237870997D01*
X166579951Y-237871002D01*
X166598885Y-238039056D01*
X166654745Y-238198693D01*
X166706593Y-238281207D01*
X166725600Y-238347180D01*
X166725600Y-238664818D01*
X166706594Y-238730790D01*
X166654745Y-238813307D01*
X166598885Y-238972943D01*
X166579951Y-239140997D01*
X166579951Y-239141002D01*
X166598885Y-239309056D01*
X166654745Y-239468693D01*
X166706593Y-239551207D01*
X166725600Y-239617180D01*
X166725600Y-240886887D01*
X166706594Y-240952859D01*
X166660211Y-241026676D01*
X166600631Y-241196945D01*
X166600630Y-241196950D01*
X166580435Y-241376196D01*
X166580435Y-241376203D01*
X166600630Y-241555449D01*
X166600631Y-241555454D01*
X166660211Y-241725724D01*
X166706593Y-241799538D01*
X166725600Y-241865511D01*
X166725600Y-242446000D01*
X166705915Y-242513039D01*
X166653111Y-242558794D01*
X166601600Y-242570000D01*
X165897500Y-242570000D01*
X165830461Y-242550315D01*
X165784706Y-242497511D01*
X165773500Y-242446000D01*
X165773499Y-241536128D01*
X165773498Y-241536122D01*
X165767091Y-241476516D01*
X165742989Y-241411897D01*
X165737801Y-241348291D01*
X165736973Y-241348172D01*
X165737424Y-241345036D01*
X165757900Y-241202620D01*
X165757900Y-241086774D01*
X165755003Y-241032734D01*
X165752169Y-241006376D01*
X165743514Y-240952964D01*
X165693232Y-240818155D01*
X165659747Y-240756832D01*
X165658129Y-240754670D01*
X165657813Y-240753823D01*
X165657356Y-240753112D01*
X165657510Y-240753012D01*
X165633715Y-240689205D01*
X165633400Y-240680365D01*
X165633400Y-237106000D01*
X165653085Y-237038961D01*
X165705889Y-236993206D01*
X165757400Y-236982000D01*
X166601600Y-236982000D01*
X166668639Y-237001685D01*
G37*
G04 #@! TD.AperFunction*
G04 #@! TA.AperFunction,Conductor*
G36*
X190392239Y-284347285D02*
G01*
X190437994Y-284400089D01*
X190449200Y-284451600D01*
X190449200Y-290071000D01*
X190429515Y-290138039D01*
X190376711Y-290183794D01*
X190325200Y-290195000D01*
X188427769Y-290195000D01*
X188360730Y-290175315D01*
X188314975Y-290122511D01*
X188304480Y-290057744D01*
X188310099Y-290005481D01*
X188310100Y-290005473D01*
X188310099Y-289009728D01*
X188303691Y-288950117D01*
X188253396Y-288815269D01*
X188253227Y-288815043D01*
X188213333Y-288761750D01*
X188189171Y-288696971D01*
X188182390Y-288690190D01*
X188136498Y-288676715D01*
X188129226Y-288671667D01*
X188122511Y-288666640D01*
X188051931Y-288613804D01*
X188051929Y-288613803D01*
X188051928Y-288613802D01*
X187917082Y-288563508D01*
X187917083Y-288563508D01*
X187857483Y-288557101D01*
X187857481Y-288557100D01*
X187857473Y-288557100D01*
X187857464Y-288557100D01*
X186261729Y-288557100D01*
X186261723Y-288557101D01*
X186202116Y-288563508D01*
X186067271Y-288613802D01*
X186067269Y-288613804D01*
X185989974Y-288671667D01*
X185924510Y-288696084D01*
X185915663Y-288696400D01*
X185239200Y-288696400D01*
X185172161Y-288676715D01*
X185126406Y-288623911D01*
X185115200Y-288572400D01*
X185115200Y-287931400D01*
X185134885Y-287864361D01*
X185187689Y-287818606D01*
X185239200Y-287807400D01*
X185953868Y-287807400D01*
X186020907Y-287827085D01*
X186028179Y-287832134D01*
X186067264Y-287861393D01*
X186067271Y-287861397D01*
X186202117Y-287911691D01*
X186202116Y-287911691D01*
X186209044Y-287912435D01*
X186261727Y-287918100D01*
X187857472Y-287918099D01*
X187917083Y-287911691D01*
X188051931Y-287861396D01*
X188052209Y-287861187D01*
X188091021Y-287832134D01*
X188156485Y-287807716D01*
X188165332Y-287807400D01*
X188188600Y-287807400D01*
X188188600Y-287787759D01*
X188208285Y-287720720D01*
X188213333Y-287713448D01*
X188253396Y-287659931D01*
X188289508Y-287563110D01*
X188331379Y-287507176D01*
X188343720Y-287499038D01*
X188345081Y-287498252D01*
X188345104Y-287498239D01*
X188431916Y-287448120D01*
X188543720Y-287336316D01*
X188543720Y-287336314D01*
X188553928Y-287326107D01*
X188553930Y-287326104D01*
X188791335Y-287088698D01*
X188852656Y-287055215D01*
X188865111Y-287053163D01*
X188952055Y-287043368D01*
X189043299Y-287011440D01*
X189071542Y-287001558D01*
X189112496Y-286994600D01*
X189534800Y-286994600D01*
X189534800Y-286525103D01*
X189541759Y-286484148D01*
X189546806Y-286469727D01*
X189558168Y-286437255D01*
X189558168Y-286437253D01*
X189558169Y-286437251D01*
X189578365Y-286258003D01*
X189578365Y-286257996D01*
X189558169Y-286078750D01*
X189558167Y-286078742D01*
X189541758Y-286031846D01*
X189534800Y-285990892D01*
X189534800Y-285305903D01*
X189541759Y-285264948D01*
X189558169Y-285218051D01*
X189578365Y-285038803D01*
X189578365Y-285038796D01*
X189558169Y-284859550D01*
X189558167Y-284859542D01*
X189541758Y-284812646D01*
X189534800Y-284771692D01*
X189534800Y-284451600D01*
X189554485Y-284384561D01*
X189607289Y-284338806D01*
X189658800Y-284327600D01*
X190325200Y-284327600D01*
X190392239Y-284347285D01*
G37*
G04 #@! TD.AperFunction*
M02*
