G04 #@! TF.GenerationSoftware,KiCad,Pcbnew,8.0.8*
G04 #@! TF.CreationDate,2025-01-21T11:13:05-05:00*
G04 #@! TF.ProjectId,_HW_ESP32-IsoLink,5f48575f-4553-4503-9332-2d49736f4c69,rev?*
G04 #@! TF.SameCoordinates,Original*
G04 #@! TF.FileFunction,Legend,Bot*
G04 #@! TF.FilePolarity,Positive*
%FSLAX46Y46*%
G04 Gerber Fmt 4.6, Leading zero omitted, Abs format (unit mm)*
G04 Created by KiCad (PCBNEW 8.0.8) date 2025-01-21 11:13:05*
%MOMM*%
%LPD*%
G01*
G04 APERTURE LIST*
%ADD10C,0.762000*%
%ADD11C,0.904000*%
%ADD12R,2.000000X2.000000*%
%ADD13C,2.000000*%
%ADD14C,3.200000*%
%ADD15O,1.550000X0.890000*%
%ADD16O,0.950000X1.250000*%
%ADD17C,1.300000*%
G04 APERTURE END LIST*
D10*
X199410320Y-215956999D02*
G75*
G02*
X202410301Y-218956999I-20J-3000001D01*
G01*
X155410320Y-290957000D02*
G75*
G02*
X152410300Y-287957000I-20J3000000D01*
G01*
X199410320Y-290957000D02*
X155410320Y-290957000D01*
X152410320Y-218956999D02*
G75*
G02*
X155410320Y-215957020I2999980J-1D01*
G01*
X202410320Y-287957000D02*
G75*
G02*
X199410320Y-290957020I-3000020J0D01*
G01*
X155410320Y-215956999D02*
X199410320Y-215956999D01*
X202410320Y-218956999D02*
X202410320Y-287957000D01*
X152410320Y-287957000D02*
X152410320Y-218956999D01*
%LPC*%
D11*
X156027000Y-253699000D02*
G75*
G02*
X155123000Y-253699000I-452000J0D01*
G01*
X155123000Y-253699000D02*
G75*
G02*
X156027000Y-253699000I452000J0D01*
G01*
X156027000Y-258699000D02*
G75*
G02*
X155123000Y-258699000I-452000J0D01*
G01*
X155123000Y-258699000D02*
G75*
G02*
X156027000Y-258699000I452000J0D01*
G01*
D12*
X200764000Y-254767000D03*
D13*
X200764000Y-252227000D03*
D12*
X200764000Y-272034000D03*
D13*
X200764000Y-269494000D03*
X200764000Y-266954000D03*
D12*
X200764000Y-262133000D03*
D13*
X200764000Y-259593000D03*
D14*
X199422200Y-287966600D03*
D12*
X200764000Y-231780000D03*
D13*
X200764000Y-229240000D03*
D15*
X153894000Y-275900000D03*
D16*
X156594000Y-276900000D03*
X156594000Y-281900000D03*
D15*
X153894000Y-282900000D03*
D14*
X155422200Y-287966600D03*
X199422200Y-218966600D03*
X155422200Y-218966600D03*
D12*
X200764000Y-239781000D03*
D13*
X200764000Y-237241000D03*
D17*
X155575000Y-253699000D03*
X155575000Y-258699000D03*
D12*
X200764000Y-247401000D03*
D13*
X200764000Y-244861000D03*
%LPD*%
M02*
