G04 #@! TF.GenerationSoftware,KiCad,Pcbnew,8.0.8*
G04 #@! TF.CreationDate,2025-01-21T11:13:05-05:00*
G04 #@! TF.ProjectId,_HW_ESP32-IsoLink,5f48575f-4553-4503-9332-2d49736f4c69,rev?*
G04 #@! TF.SameCoordinates,Original*
G04 #@! TF.FileFunction,Copper,L4,Bot*
G04 #@! TF.FilePolarity,Positive*
%FSLAX46Y46*%
G04 Gerber Fmt 4.6, Leading zero omitted, Abs format (unit mm)*
G04 Created by KiCad (PCBNEW 8.0.8) date 2025-01-21 11:13:05*
%MOMM*%
%LPD*%
G01*
G04 APERTURE LIST*
G04 #@! TA.AperFunction,ComponentPad*
%ADD10R,2.000000X2.000000*%
G04 #@! TD*
G04 #@! TA.AperFunction,ComponentPad*
%ADD11C,2.000000*%
G04 #@! TD*
G04 #@! TA.AperFunction,ComponentPad*
%ADD12O,1.550000X0.890000*%
G04 #@! TD*
G04 #@! TA.AperFunction,ComponentPad*
%ADD13O,0.950000X1.250000*%
G04 #@! TD*
G04 #@! TA.AperFunction,ComponentPad*
%ADD14C,0.400000*%
G04 #@! TD*
G04 #@! TA.AperFunction,HeatsinkPad*
%ADD15C,0.500000*%
G04 #@! TD*
G04 #@! TA.AperFunction,HeatsinkPad*
%ADD16R,2.750000X2.750000*%
G04 #@! TD*
G04 #@! TA.AperFunction,ViaPad*
%ADD17C,0.500000*%
G04 #@! TD*
G04 #@! TA.AperFunction,ViaPad*
%ADD18C,0.600000*%
G04 #@! TD*
G04 #@! TA.AperFunction,Conductor*
%ADD19C,0.254000*%
G04 #@! TD*
G04 #@! TA.AperFunction,Conductor*
%ADD20C,0.635000*%
G04 #@! TD*
G04 #@! TA.AperFunction,Conductor*
%ADD21C,0.200000*%
G04 #@! TD*
G04 APERTURE END LIST*
D10*
X200764000Y-254767000D03*
D11*
X200764000Y-252227000D03*
D10*
X200764000Y-272034000D03*
D11*
X200764000Y-269494000D03*
X200764000Y-266954000D03*
D10*
X200764000Y-262133000D03*
D11*
X200764000Y-259593000D03*
D10*
X200764000Y-231780000D03*
D11*
X200764000Y-229240000D03*
D12*
X153894000Y-275900000D03*
D13*
X156594000Y-276900000D03*
X156594000Y-281900000D03*
D12*
X153894000Y-282900000D03*
D10*
X200764000Y-239781000D03*
D11*
X200764000Y-237241000D03*
D14*
X181209600Y-282487600D03*
X181209600Y-281087600D03*
X180509600Y-283187600D03*
X180509600Y-281787600D03*
X180509600Y-280387600D03*
X179809600Y-282487600D03*
X179809600Y-281087600D03*
X179109600Y-283187600D03*
X179109600Y-281787600D03*
X179109600Y-280387600D03*
X178409600Y-282487600D03*
X178409600Y-281087600D03*
D15*
X166098000Y-283101000D03*
X164973000Y-283101000D03*
X163848000Y-283101000D03*
X166098000Y-284226000D03*
X164973000Y-284226000D03*
D16*
X164973000Y-284226000D03*
D15*
X163848000Y-284226000D03*
X166098000Y-285351000D03*
X164973000Y-285351000D03*
X163848000Y-285351000D03*
D10*
X200764000Y-247401000D03*
D11*
X200764000Y-244861000D03*
D17*
X184581800Y-258318000D03*
D18*
X184480200Y-263906000D03*
X188084000Y-232029000D03*
X180771800Y-257175000D03*
X157937200Y-280695400D03*
X167386000Y-241376200D03*
X158750000Y-259664200D03*
X164134800Y-262788400D03*
X155397200Y-233426000D03*
X193268600Y-286969200D03*
X194843400Y-274497800D03*
X165887400Y-277545800D03*
X167208200Y-233172000D03*
X166268400Y-262788400D03*
X155041600Y-268732000D03*
X159842200Y-259664200D03*
X158496000Y-240284000D03*
X163347400Y-240258600D03*
X167055800Y-276860000D03*
X158419800Y-283337000D03*
X167055800Y-275844000D03*
X167030400Y-274878800D03*
X167246300Y-248500900D03*
X168338500Y-264223500D03*
X167208200Y-234823000D03*
X154305000Y-233426000D03*
X165252400Y-262788400D03*
X164465000Y-237363000D03*
X192405000Y-285673800D03*
X192481200Y-282702000D03*
X156845000Y-240284000D03*
X192405000Y-287324800D03*
X163195000Y-247142000D03*
X169164000Y-256286000D03*
X164973000Y-243255800D03*
X168148000Y-226314000D03*
X163322000Y-271170400D03*
X190906400Y-282448000D03*
X188823600Y-288137600D03*
X158470600Y-284835600D03*
X167132000Y-227558600D03*
X188823600Y-289212400D03*
X170256200Y-241249200D03*
X166002000Y-249084800D03*
X162356800Y-280289000D03*
X170332400Y-233807000D03*
X170281600Y-248767600D03*
X192481200Y-276758400D03*
X163296600Y-289712400D03*
X158470600Y-286385000D03*
X163296600Y-272948400D03*
X162356800Y-278206200D03*
X185597800Y-288213800D03*
X163372800Y-278739600D03*
X166002000Y-248234200D03*
X164414200Y-233426000D03*
X166014501Y-251561499D03*
X154178000Y-271856200D03*
X166014400Y-239395000D03*
X166014400Y-237337600D03*
X166624000Y-259908000D03*
X158419800Y-281813000D03*
X159576000Y-237477800D03*
X165506400Y-233426000D03*
X155727501Y-237464701D03*
X192659000Y-219532200D03*
X189179200Y-245872000D03*
X172262800Y-241223800D03*
X171069000Y-219532200D03*
X188163200Y-248564400D03*
X189179200Y-264210800D03*
X200380600Y-281279600D03*
X192659000Y-218440000D03*
X179527200Y-252831600D03*
X189179200Y-238252000D03*
X193268600Y-228142800D03*
X187731400Y-253949200D03*
X184480200Y-249809000D03*
X172262800Y-248031000D03*
X172288200Y-240411000D03*
X184404000Y-257175000D03*
X186182000Y-249631200D03*
X189179200Y-260604000D03*
X184886600Y-259842000D03*
X174625000Y-263982200D03*
X179527200Y-240436400D03*
X180695600Y-242366800D03*
X163347400Y-220472000D03*
X184480200Y-262763000D03*
X184505600Y-266344400D03*
X163347400Y-218694000D03*
X172948600Y-226415600D03*
X172262800Y-233172000D03*
X189179200Y-241858800D03*
X184962800Y-223189800D03*
X188061600Y-252907800D03*
X154305000Y-225780600D03*
X171069000Y-218440000D03*
X171983400Y-257124200D03*
X171831000Y-249834400D03*
X175754156Y-254953644D03*
X197866000Y-274421600D03*
X187248800Y-241706400D03*
X183515000Y-222580200D03*
X190881000Y-228168200D03*
X184480200Y-247980200D03*
X172364400Y-235915200D03*
X155397200Y-225780600D03*
X176428400Y-248970800D03*
X186372200Y-221272400D03*
X167119000Y-218668600D03*
X191074518Y-238547118D03*
D17*
X175641000Y-227558600D03*
D18*
X191058800Y-235204000D03*
X200431400Y-275590000D03*
X171043600Y-224536000D03*
X191058800Y-242824000D03*
X191084200Y-253517400D03*
X176225200Y-221615000D03*
X184480200Y-236601000D03*
X192252600Y-231394000D03*
D17*
X180746400Y-249783600D03*
D18*
X154305000Y-228346000D03*
D17*
X175615600Y-249809000D03*
D18*
X194233800Y-268630400D03*
X167119000Y-220446600D03*
X176225200Y-220522800D03*
X178917600Y-263804400D03*
X191084200Y-257556000D03*
X191058800Y-250215400D03*
D17*
X185623200Y-254787400D03*
D18*
X192227200Y-265099800D03*
X191084200Y-260807200D03*
X175844200Y-257175000D03*
D17*
X184429400Y-242341400D03*
X175590200Y-242316000D03*
D18*
X171043600Y-223443800D03*
X176225200Y-219430600D03*
X176225200Y-218338400D03*
D17*
X175641000Y-234797600D03*
D18*
X191084200Y-246126000D03*
X155397200Y-228346000D03*
D17*
X164800000Y-280916571D03*
D18*
X165023800Y-277545800D03*
X164150000Y-277535600D03*
D17*
X164800000Y-280136600D03*
D18*
X162128200Y-289661600D03*
X162116644Y-286373444D03*
X162128200Y-288061400D03*
D17*
X187223400Y-264414000D03*
D18*
X197434200Y-272034000D03*
D17*
X186131200Y-236956600D03*
X184581800Y-239725200D03*
X188163200Y-245973600D03*
X185242200Y-247243600D03*
X184835800Y-252806200D03*
X184835800Y-254127000D03*
D18*
X167487600Y-286512000D03*
X161213800Y-271145000D03*
D17*
X196418200Y-285623000D03*
X168037600Y-283514800D03*
X192405000Y-288950400D03*
X180035200Y-248945400D03*
X176174400Y-230632000D03*
D18*
X188772800Y-286258000D03*
X195224400Y-283311600D03*
X191579500Y-283375100D03*
X175615600Y-245491000D03*
D17*
X188036200Y-243687600D03*
D18*
X188671200Y-283210000D03*
X167233600Y-231902000D03*
X167208200Y-230632000D03*
X189026800Y-275539200D03*
X189179200Y-253771400D03*
D17*
X179705000Y-251561600D03*
D18*
X175641000Y-246761000D03*
D17*
X188036200Y-247243600D03*
X180060600Y-255016000D03*
D18*
X189179200Y-250164600D03*
D17*
X184505600Y-251180600D03*
X176174400Y-231902000D03*
D18*
X188722000Y-279425400D03*
X167259000Y-246761000D03*
X188739865Y-277807335D03*
X167233600Y-245516400D03*
X167411400Y-252399800D03*
X188780510Y-284002500D03*
X167436800Y-254076200D03*
X188772800Y-285038800D03*
X165259935Y-258874076D03*
X188925200Y-274269200D03*
X164592000Y-258274076D03*
X188925200Y-272999200D03*
X167182800Y-261061200D03*
X167995600Y-281863800D03*
D17*
X167335200Y-239141000D03*
D18*
X167944800Y-278079200D03*
X167995600Y-280619200D03*
X167208200Y-262737600D03*
X167944800Y-279349200D03*
D17*
X167335200Y-237871000D03*
D19*
X186994800Y-236093000D02*
X199616000Y-236093000D01*
X199616000Y-236093000D02*
X200764000Y-237241000D01*
X186131200Y-236956600D02*
X186994800Y-236093000D01*
D20*
X181914800Y-262483600D02*
X181914800Y-258318000D01*
X175818800Y-228981000D02*
X185036000Y-228981000D01*
X173355000Y-231444800D02*
X175818800Y-228981000D01*
X184581800Y-258318000D02*
X181914800Y-258318000D01*
X183337200Y-263906000D02*
X181914800Y-262483600D01*
X179578000Y-257175000D02*
X173355000Y-250952000D01*
X173355000Y-250952000D02*
X173355000Y-231444800D01*
X185036000Y-228981000D02*
X188084000Y-232029000D01*
X184480200Y-263906000D02*
X183337200Y-263906000D01*
X181914800Y-258318000D02*
X180771800Y-257175000D01*
X180771800Y-257175000D02*
X179578000Y-257175000D01*
D19*
X191084200Y-253517400D02*
X191084200Y-253415800D01*
D21*
X191074518Y-238547118D02*
X191074518Y-238795082D01*
D19*
X191084200Y-253415800D02*
X191058800Y-253390400D01*
X191084200Y-250190000D02*
X191058800Y-250215400D01*
D21*
X191074518Y-238795082D02*
X191017600Y-238852000D01*
D19*
X165377000Y-280375602D02*
X164836031Y-280916571D01*
X165023800Y-277545800D02*
X165023800Y-279222200D01*
X165023800Y-279222200D02*
X165377000Y-279575400D01*
X165377000Y-279575400D02*
X165377000Y-280375602D01*
X164836031Y-280916571D02*
X164800000Y-280916571D01*
X164150000Y-277535600D02*
X164150000Y-279486600D01*
X164150000Y-279486600D02*
X164800000Y-280136600D01*
X162128200Y-286385000D02*
X162128200Y-288010600D01*
X162128200Y-288010600D02*
X162128200Y-288061400D01*
X162128200Y-288061400D02*
X162128200Y-289661600D01*
X187223400Y-264414000D02*
X189504400Y-262133000D01*
X189504400Y-262133000D02*
X200764000Y-262133000D01*
X197434200Y-272034000D02*
X200764000Y-272034000D01*
X184581800Y-239725200D02*
X187760000Y-236547000D01*
X187760000Y-236547000D02*
X197530000Y-236547000D01*
X197530000Y-236547000D02*
X200764000Y-239781000D01*
X198266600Y-244903600D02*
X200764000Y-247401000D01*
X189233200Y-244903600D02*
X198266600Y-244903600D01*
X188163200Y-245973600D02*
X189233200Y-244903600D01*
X185242200Y-247243600D02*
X188036200Y-244449600D01*
X188036200Y-244449600D02*
X200352600Y-244449600D01*
X200352600Y-244449600D02*
X200764000Y-244861000D01*
X186385200Y-252806200D02*
X184835800Y-252806200D01*
X200764000Y-254767000D02*
X198117400Y-252120400D01*
X198117400Y-252120400D02*
X187071000Y-252120400D01*
X187071000Y-252120400D02*
X186385200Y-252806200D01*
X186251000Y-252229200D02*
X186817000Y-251663200D01*
X186817000Y-251663200D02*
X200200200Y-251663200D01*
X183946800Y-252628400D02*
X184346000Y-252229200D01*
X200200200Y-251663200D02*
X200764000Y-252227000D01*
X183946800Y-253238000D02*
X183946800Y-252628400D01*
X184835800Y-254127000D02*
X183946800Y-253238000D01*
X184346000Y-252229200D02*
X186251000Y-252229200D01*
X196418200Y-287147000D02*
X193725800Y-289839400D01*
X161213800Y-271145000D02*
X160223200Y-272135600D01*
X193725800Y-289839400D02*
X170815000Y-289839400D01*
X196418200Y-285623000D02*
X196418200Y-287147000D01*
X170815000Y-289839400D02*
X167487600Y-286512000D01*
X160223200Y-283184600D02*
X163550600Y-286512000D01*
X160223200Y-272135600D02*
X160223200Y-283184600D01*
X163550600Y-286512000D02*
X167487600Y-286512000D01*
X190703200Y-287248600D02*
X192405000Y-288950400D01*
X171771400Y-287248600D02*
X190703200Y-287248600D01*
X168037600Y-283514800D02*
X171771400Y-287248600D01*
X174396400Y-232410000D02*
X174396400Y-247174453D01*
X179222400Y-248132600D02*
X180035200Y-248945400D01*
X174396400Y-247174453D02*
X175354547Y-248132600D01*
X175354547Y-248132600D02*
X179222400Y-248132600D01*
X176174400Y-230632000D02*
X174396400Y-232410000D01*
X188772800Y-286181800D02*
X191579500Y-283375100D01*
X191579500Y-283375100D02*
X191579500Y-282232100D01*
X193675000Y-281762200D02*
X195224400Y-283311600D01*
X192049400Y-281762200D02*
X193675000Y-281762200D01*
X188772800Y-286258000D02*
X188772800Y-286181800D01*
X191579500Y-282232100D02*
X192049400Y-281762200D01*
X185521600Y-245491000D02*
X175615600Y-245491000D01*
X187325000Y-243687600D02*
X185521600Y-245491000D01*
X188036200Y-243687600D02*
X187325000Y-243687600D01*
X167233600Y-231902000D02*
X169011600Y-233680000D01*
X190931800Y-271754600D02*
X190931800Y-274650200D01*
X170738800Y-268452600D02*
X173278800Y-270992600D01*
X164795200Y-254685800D02*
X170738800Y-260629400D01*
X173278800Y-270992600D02*
X190169800Y-270992600D01*
X169011600Y-233680000D02*
X169011600Y-242595400D01*
X187223400Y-276199600D02*
X185877200Y-277545800D01*
X185877200Y-277545800D02*
X185877200Y-280416000D01*
X190931800Y-274650200D02*
X189382400Y-276199600D01*
X190169800Y-270992600D02*
X190931800Y-271754600D01*
X170738800Y-260629400D02*
X170738800Y-268452600D01*
X189382400Y-276199600D02*
X187223400Y-276199600D01*
X185877200Y-280416000D02*
X188671200Y-283210000D01*
X169011600Y-242595400D02*
X164795200Y-246811800D01*
X164795200Y-246811800D02*
X164795200Y-254685800D01*
X164185600Y-246354600D02*
X164185600Y-254965200D01*
X170027600Y-268630400D02*
X173202600Y-271805400D01*
X173202600Y-271805400D02*
X189331600Y-271805400D01*
X168351200Y-237261400D02*
X168351200Y-242189000D01*
X189331600Y-271805400D02*
X190042800Y-272516600D01*
X190042800Y-274523200D02*
X189026800Y-275539200D01*
X166370000Y-231470200D02*
X166370000Y-235280200D01*
X168351200Y-242189000D02*
X164185600Y-246354600D01*
X167208200Y-230632000D02*
X166370000Y-231470200D01*
X170027600Y-260807200D02*
X170027600Y-268630400D01*
X164185600Y-254965200D02*
X170027600Y-260807200D01*
X190042800Y-272516600D02*
X190042800Y-274523200D01*
X166370000Y-235280200D02*
X168351200Y-237261400D01*
X186664600Y-256286000D02*
X189179200Y-253771400D01*
X178308000Y-252958600D02*
X178308000Y-254457200D01*
X178308000Y-254457200D02*
X180136800Y-256286000D01*
X179705000Y-251561600D02*
X178308000Y-252958600D01*
X180136800Y-256286000D02*
X186664600Y-256286000D01*
X186461400Y-248818400D02*
X183489600Y-248818400D01*
X181432200Y-246761000D02*
X175641000Y-246761000D01*
X183489600Y-248818400D02*
X181432200Y-246761000D01*
X188036200Y-247243600D02*
X186461400Y-248818400D01*
X187274200Y-250164600D02*
X189179200Y-250164600D01*
X183301400Y-251775200D02*
X185663600Y-251775200D01*
X185663600Y-251775200D02*
X187274200Y-250164600D01*
X180060600Y-255016000D02*
X183301400Y-251775200D01*
X174850400Y-233226000D02*
X174850400Y-246986400D01*
X180975000Y-247650000D02*
X184505600Y-251180600D01*
X176174400Y-231902000D02*
X174850400Y-233226000D01*
X175514000Y-247650000D02*
X180975000Y-247650000D01*
X174850400Y-246986400D02*
X175514000Y-247650000D01*
X168071800Y-246761000D02*
X167259000Y-246761000D01*
X193954400Y-270789400D02*
X191389000Y-268224000D01*
X169062400Y-251028200D02*
X169062400Y-247751600D01*
X193954400Y-277164800D02*
X193954400Y-270789400D01*
X173405800Y-255371600D02*
X169062400Y-251028200D01*
X191693800Y-279425400D02*
X193954400Y-277164800D01*
X169062400Y-247751600D02*
X168071800Y-246761000D01*
X188722000Y-279425400D02*
X191693800Y-279425400D01*
X191389000Y-268224000D02*
X174777400Y-268224000D01*
X174777400Y-268224000D02*
X173405800Y-266852400D01*
X173405800Y-266852400D02*
X173405800Y-255371600D01*
X168351200Y-248386600D02*
X168351200Y-251104400D01*
X166319200Y-247116600D02*
X166903400Y-247700800D01*
X190467065Y-277807335D02*
X188739865Y-277807335D01*
X168351200Y-251104400D02*
X172897800Y-255651000D01*
X167665400Y-247700800D02*
X168351200Y-248386600D01*
X172897800Y-255651000D02*
X172897800Y-267335000D01*
X167233600Y-245516400D02*
X166319200Y-246430800D01*
X166319200Y-246430800D02*
X166319200Y-247116600D01*
X191185800Y-268884400D02*
X193344800Y-271043400D01*
X193344800Y-274929600D02*
X190467065Y-277807335D01*
X172897800Y-267335000D02*
X174447200Y-268884400D01*
X166903400Y-247700800D02*
X167665400Y-247700800D01*
X193344800Y-271043400D02*
X193344800Y-274929600D01*
X174447200Y-268884400D02*
X191185800Y-268884400D01*
X173583600Y-270306800D02*
X190627000Y-270306800D01*
X171424600Y-268147800D02*
X173583600Y-270306800D01*
X189458600Y-282600400D02*
X189458600Y-283324410D01*
X189458600Y-283324410D02*
X188780510Y-284002500D01*
X166751000Y-255727200D02*
X171424600Y-260400800D01*
X166751000Y-253060200D02*
X166751000Y-255727200D01*
X191871600Y-274624800D02*
X189788800Y-276707600D01*
X187966886Y-276707600D02*
X186639200Y-278035286D01*
X171424600Y-260400800D02*
X171424600Y-268147800D01*
X190627000Y-270306800D02*
X191871600Y-271551400D01*
X189788800Y-276707600D02*
X187966886Y-276707600D01*
X167411400Y-252399800D02*
X166751000Y-253060200D01*
X186639200Y-279781000D02*
X189458600Y-282600400D01*
X191871600Y-271551400D02*
X191871600Y-274624800D01*
X186639200Y-278035286D02*
X186639200Y-279781000D01*
X191008000Y-269544800D02*
X173786800Y-269544800D01*
X190119000Y-283692600D02*
X190119000Y-282117800D01*
X192557400Y-274802600D02*
X192557400Y-271094200D01*
X187579000Y-278003000D02*
X188417200Y-277164800D01*
X172135800Y-260273800D02*
X167436800Y-255574800D01*
X188772800Y-285038800D02*
X190119000Y-283692600D01*
X173786800Y-269544800D02*
X172135800Y-267893800D01*
X188417200Y-277164800D02*
X190195200Y-277164800D01*
X190195200Y-277164800D02*
X192557400Y-274802600D01*
X167436800Y-255574800D02*
X167436800Y-254076200D01*
X192557400Y-271094200D02*
X191008000Y-269544800D01*
X187579000Y-279577800D02*
X187579000Y-278003000D01*
X172135800Y-267893800D02*
X172135800Y-260273800D01*
X190119000Y-282117800D02*
X187579000Y-279577800D01*
D21*
X168941800Y-269373400D02*
X168941800Y-261176086D01*
X168941800Y-261176086D02*
X166639790Y-258874076D01*
X173837600Y-274269200D02*
X168941800Y-269373400D01*
X166639790Y-258874076D02*
X165259935Y-258874076D01*
X188925200Y-274269200D02*
X173837600Y-274269200D01*
X169341800Y-269207714D02*
X169341800Y-261010400D01*
X166605476Y-258274076D02*
X164592000Y-258274076D01*
X169341800Y-261010400D02*
X166605476Y-258274076D01*
X173133286Y-272999200D02*
X169341800Y-269207714D01*
X188925200Y-272999200D02*
X173133286Y-272999200D01*
D19*
X167538400Y-263956800D02*
X167970200Y-263525000D01*
X167538400Y-269849600D02*
X167538400Y-263956800D01*
X169392600Y-271703800D02*
X167538400Y-269849600D01*
X167995600Y-281863800D02*
X169392600Y-280466800D01*
X167970200Y-261848600D02*
X167182800Y-261061200D01*
X167970200Y-263525000D02*
X167970200Y-261848600D01*
X169392600Y-280466800D02*
X169392600Y-271703800D01*
X162407600Y-267131800D02*
X162407600Y-244729000D01*
X167944800Y-278079200D02*
X167944800Y-272669000D01*
X162407600Y-244729000D02*
X167335200Y-239801400D01*
X167944800Y-272669000D02*
X162407600Y-267131800D01*
X167335200Y-239801400D02*
X167335200Y-239141000D01*
X167208200Y-263347200D02*
X167208200Y-262737600D01*
X168757600Y-272389600D02*
X166446200Y-270078200D01*
X166446200Y-270078200D02*
X166446200Y-264109200D01*
X167995600Y-280619200D02*
X168757600Y-279857200D01*
X168757600Y-279857200D02*
X168757600Y-272389600D01*
X166446200Y-264109200D02*
X167208200Y-263347200D01*
X165277800Y-276047200D02*
X165277800Y-271272000D01*
X166954200Y-277723600D02*
X165277800Y-276047200D01*
X165277800Y-271272000D02*
X161772600Y-267766800D01*
X161772600Y-267766800D02*
X161772600Y-240131600D01*
X166954200Y-278358600D02*
X166954200Y-277723600D01*
X161772600Y-240131600D02*
X163449000Y-238455200D01*
X166751000Y-238455200D02*
X167335200Y-237871000D01*
X163449000Y-238455200D02*
X166751000Y-238455200D01*
X167944800Y-279349200D02*
X166954200Y-278358600D01*
M02*
