G04 #@! TF.GenerationSoftware,KiCad,Pcbnew,8.0.8*
G04 #@! TF.CreationDate,2025-01-21T11:13:05-05:00*
G04 #@! TF.ProjectId,_HW_ESP32-IsoLink,5f48575f-4553-4503-9332-2d49736f4c69,rev?*
G04 #@! TF.SameCoordinates,Original*
G04 #@! TF.FileFunction,Copper,L2,Inr*
G04 #@! TF.FilePolarity,Positive*
%FSLAX46Y46*%
G04 Gerber Fmt 4.6, Leading zero omitted, Abs format (unit mm)*
G04 Created by KiCad (PCBNEW 8.0.8) date 2025-01-21 11:13:05*
%MOMM*%
%LPD*%
G01*
G04 APERTURE LIST*
G04 #@! TA.AperFunction,ComponentPad*
%ADD10R,2.000000X2.000000*%
G04 #@! TD*
G04 #@! TA.AperFunction,ComponentPad*
%ADD11C,2.000000*%
G04 #@! TD*
G04 #@! TA.AperFunction,ComponentPad*
%ADD12O,1.550000X0.890000*%
G04 #@! TD*
G04 #@! TA.AperFunction,ComponentPad*
%ADD13O,0.950000X1.250000*%
G04 #@! TD*
G04 #@! TA.AperFunction,ComponentPad*
%ADD14C,0.400000*%
G04 #@! TD*
G04 #@! TA.AperFunction,HeatsinkPad*
%ADD15C,0.500000*%
G04 #@! TD*
G04 #@! TA.AperFunction,ViaPad*
%ADD16C,0.500000*%
G04 #@! TD*
G04 #@! TA.AperFunction,ViaPad*
%ADD17C,0.600000*%
G04 #@! TD*
G04 APERTURE END LIST*
D10*
X200764000Y-254767000D03*
D11*
X200764000Y-252227000D03*
D10*
X200764000Y-272034000D03*
D11*
X200764000Y-269494000D03*
X200764000Y-266954000D03*
D10*
X200764000Y-262133000D03*
D11*
X200764000Y-259593000D03*
D10*
X200764000Y-231780000D03*
D11*
X200764000Y-229240000D03*
D12*
X153894000Y-275900000D03*
D13*
X156594000Y-276900000D03*
X156594000Y-281900000D03*
D12*
X153894000Y-282900000D03*
D10*
X200764000Y-239781000D03*
D11*
X200764000Y-237241000D03*
D14*
X181209600Y-282487600D03*
X181209600Y-281087600D03*
X180509600Y-283187600D03*
X180509600Y-281787600D03*
X180509600Y-280387600D03*
X179809600Y-282487600D03*
X179809600Y-281087600D03*
X179109600Y-283187600D03*
X179109600Y-281787600D03*
X179109600Y-280387600D03*
X178409600Y-282487600D03*
X178409600Y-281087600D03*
D15*
X166098000Y-283101000D03*
X164973000Y-283101000D03*
X163848000Y-283101000D03*
X166098000Y-284226000D03*
X164973000Y-284226000D03*
X163848000Y-284226000D03*
X166098000Y-285351000D03*
X164973000Y-285351000D03*
X163848000Y-285351000D03*
D10*
X200764000Y-247401000D03*
D11*
X200764000Y-244861000D03*
D16*
X184581800Y-258318000D03*
D17*
X184480200Y-263906000D03*
X188084000Y-232029000D03*
X180771800Y-257175000D03*
X157937200Y-280695400D03*
X167386000Y-241376200D03*
X158750000Y-259664200D03*
X164134800Y-262788400D03*
X155397200Y-233426000D03*
X193268600Y-286969200D03*
X194843400Y-274497800D03*
X165887400Y-277545800D03*
X167208200Y-233172000D03*
X166268400Y-262788400D03*
X155041600Y-268732000D03*
X159842200Y-259664200D03*
X158496000Y-240284000D03*
X163347400Y-240258600D03*
X167055800Y-276860000D03*
X158419800Y-283337000D03*
X167055800Y-275844000D03*
X167030400Y-274878800D03*
X167246300Y-248500900D03*
X168338500Y-264223500D03*
X167208200Y-234823000D03*
X154305000Y-233426000D03*
X165252400Y-262788400D03*
X164465000Y-237363000D03*
X192405000Y-285673800D03*
X192481200Y-282702000D03*
X156845000Y-240284000D03*
X192405000Y-287324800D03*
X163195000Y-247142000D03*
X169164000Y-256286000D03*
X164973000Y-243255800D03*
X168148000Y-226314000D03*
X163322000Y-271170400D03*
X190906400Y-282448000D03*
X188823600Y-288137600D03*
X158470600Y-284835600D03*
X167132000Y-227558600D03*
X188823600Y-289212400D03*
X170256200Y-241249200D03*
X166002000Y-249084800D03*
X162356800Y-280289000D03*
X170332400Y-233807000D03*
X170281600Y-248767600D03*
X192481200Y-276758400D03*
X163296600Y-289712400D03*
X158470600Y-286385000D03*
X163296600Y-272948400D03*
X162356800Y-278206200D03*
X185597800Y-288213800D03*
X163372800Y-278739600D03*
X166002000Y-248234200D03*
X164414200Y-233426000D03*
X166014501Y-251561499D03*
X154178000Y-271856200D03*
X166014400Y-239395000D03*
X166014400Y-237337600D03*
X166624000Y-259908000D03*
X158419800Y-281813000D03*
X159576000Y-237477800D03*
X165506400Y-233426000D03*
X155727501Y-237464701D03*
X192659000Y-219532200D03*
X189179200Y-245872000D03*
X172262800Y-241223800D03*
X171069000Y-219532200D03*
X188163200Y-248564400D03*
X189179200Y-264210800D03*
X200380600Y-281279600D03*
X192659000Y-218440000D03*
X179527200Y-252831600D03*
X189179200Y-238252000D03*
X193268600Y-228142800D03*
X187731400Y-253949200D03*
X184480200Y-249809000D03*
X172262800Y-248031000D03*
X172288200Y-240411000D03*
X184404000Y-257175000D03*
X186182000Y-249631200D03*
X189179200Y-260604000D03*
X184886600Y-259842000D03*
X174625000Y-263982200D03*
X179527200Y-240436400D03*
X180695600Y-242366800D03*
X163347400Y-220472000D03*
X184480200Y-262763000D03*
X184505600Y-266344400D03*
X163347400Y-218694000D03*
X172948600Y-226415600D03*
X172262800Y-233172000D03*
X189179200Y-241858800D03*
X184962800Y-223189800D03*
X188061600Y-252907800D03*
X154305000Y-225780600D03*
X171069000Y-218440000D03*
X171983400Y-257124200D03*
X171831000Y-249834400D03*
X175754156Y-254953644D03*
X197866000Y-274421600D03*
X187248800Y-241706400D03*
X183515000Y-222580200D03*
X190881000Y-228168200D03*
X184480200Y-247980200D03*
X172364400Y-235915200D03*
X155397200Y-225780600D03*
X176428400Y-248970800D03*
X186372200Y-221272400D03*
X167119000Y-218668600D03*
X191074518Y-238547118D03*
D16*
X175641000Y-227558600D03*
D17*
X191058800Y-235204000D03*
X200431400Y-275590000D03*
X171043600Y-224536000D03*
X191058800Y-242824000D03*
X191084200Y-253517400D03*
X176225200Y-221615000D03*
X184480200Y-236601000D03*
X192252600Y-231394000D03*
D16*
X180746400Y-249783600D03*
D17*
X154305000Y-228346000D03*
D16*
X175615600Y-249809000D03*
D17*
X194233800Y-268630400D03*
X167119000Y-220446600D03*
X176225200Y-220522800D03*
X178917600Y-263804400D03*
X191084200Y-257556000D03*
X191058800Y-250215400D03*
D16*
X185623200Y-254787400D03*
D17*
X192227200Y-265099800D03*
X191084200Y-260807200D03*
X175844200Y-257175000D03*
D16*
X184429400Y-242341400D03*
X175590200Y-242316000D03*
D17*
X171043600Y-223443800D03*
X176225200Y-219430600D03*
X176225200Y-218338400D03*
D16*
X175641000Y-234797600D03*
D17*
X191084200Y-246126000D03*
X155397200Y-228346000D03*
D16*
X164800000Y-280916571D03*
D17*
X165023800Y-277545800D03*
X164150000Y-277535600D03*
D16*
X164800000Y-280136600D03*
D17*
X162128200Y-289661600D03*
X162116644Y-286373444D03*
X162128200Y-288061400D03*
D16*
X187223400Y-264414000D03*
D17*
X197434200Y-272034000D03*
D16*
X186131200Y-236956600D03*
X184581800Y-239725200D03*
X188163200Y-245973600D03*
X185242200Y-247243600D03*
X184835800Y-252806200D03*
X184835800Y-254127000D03*
D17*
X167487600Y-286512000D03*
X161213800Y-271145000D03*
D16*
X196418200Y-285623000D03*
X168037600Y-283514800D03*
X192405000Y-288950400D03*
X180035200Y-248945400D03*
X176174400Y-230632000D03*
D17*
X188772800Y-286258000D03*
X195224400Y-283311600D03*
X191579500Y-283375100D03*
X175615600Y-245491000D03*
D16*
X188036200Y-243687600D03*
D17*
X188671200Y-283210000D03*
X167233600Y-231902000D03*
X167208200Y-230632000D03*
X189026800Y-275539200D03*
X189179200Y-253771400D03*
D16*
X179705000Y-251561600D03*
D17*
X175641000Y-246761000D03*
D16*
X188036200Y-247243600D03*
X180060600Y-255016000D03*
D17*
X189179200Y-250164600D03*
D16*
X184505600Y-251180600D03*
X176174400Y-231902000D03*
D17*
X188722000Y-279425400D03*
X167259000Y-246761000D03*
X188739865Y-277807335D03*
X167233600Y-245516400D03*
X167411400Y-252399800D03*
X188780510Y-284002500D03*
X167436800Y-254076200D03*
X188772800Y-285038800D03*
X165259935Y-258874076D03*
X188925200Y-274269200D03*
X164592000Y-258274076D03*
X188925200Y-272999200D03*
X167182800Y-261061200D03*
X167995600Y-281863800D03*
D16*
X167335200Y-239141000D03*
D17*
X167944800Y-278079200D03*
X167995600Y-280619200D03*
X167208200Y-262737600D03*
X167944800Y-279349200D03*
D16*
X167335200Y-237871000D03*
G04 #@! TA.AperFunction,Conductor*
G36*
X166403478Y-232759885D02*
G01*
X166449233Y-232812689D01*
X166459177Y-232881847D01*
X166453481Y-232905155D01*
X166422831Y-232992745D01*
X166422830Y-232992750D01*
X166402635Y-233171996D01*
X166402635Y-233172003D01*
X166422830Y-233351249D01*
X166422833Y-233351262D01*
X166482409Y-233521518D01*
X166482410Y-233521520D01*
X166482411Y-233521522D01*
X166520374Y-233581940D01*
X166556668Y-233639702D01*
X166575674Y-233705356D01*
X166577164Y-234286635D01*
X166558158Y-234352924D01*
X166482413Y-234473472D01*
X166482409Y-234473481D01*
X166422833Y-234643737D01*
X166422830Y-234643750D01*
X166402635Y-234822996D01*
X166402635Y-234823003D01*
X166422830Y-235002249D01*
X166422831Y-235002254D01*
X166482411Y-235172522D01*
X166560919Y-235297466D01*
X166579925Y-235363120D01*
X166586194Y-237808303D01*
X166585415Y-237822503D01*
X166579951Y-237871003D01*
X166585742Y-237922399D01*
X166586522Y-237935965D01*
X166589378Y-239050045D01*
X166588598Y-239064245D01*
X166579951Y-239140995D01*
X166579951Y-239141003D01*
X166589074Y-239221974D01*
X166589854Y-239235539D01*
X166594992Y-241239708D01*
X166594212Y-241253908D01*
X166580435Y-241376195D01*
X166580435Y-241376203D01*
X166594927Y-241504830D01*
X166595707Y-241518395D01*
X166598281Y-242521882D01*
X166578768Y-242588972D01*
X166526082Y-242634862D01*
X166474281Y-242646200D01*
X165543159Y-242646200D01*
X165477187Y-242627194D01*
X165475263Y-242625985D01*
X165475262Y-242625984D01*
X165322522Y-242530011D01*
X165299291Y-242521882D01*
X165152254Y-242470431D01*
X165152249Y-242470430D01*
X164973004Y-242450235D01*
X164972996Y-242450235D01*
X164793750Y-242470430D01*
X164793745Y-242470431D01*
X164623477Y-242530011D01*
X164532606Y-242587109D01*
X164470738Y-242625984D01*
X164470736Y-242625985D01*
X164468813Y-242627194D01*
X164402841Y-242646200D01*
X162585400Y-242646200D01*
X162573371Y-246591359D01*
X162554366Y-246656953D01*
X162469211Y-246792476D01*
X162409631Y-246962745D01*
X162409630Y-246962750D01*
X162389435Y-247141996D01*
X162389435Y-247142003D01*
X162409630Y-247321249D01*
X162409631Y-247321254D01*
X162469211Y-247491523D01*
X162551022Y-247621723D01*
X162570027Y-247688073D01*
X162559999Y-250977400D01*
X162561598Y-250977400D01*
X167735946Y-250978455D01*
X167802980Y-250998153D01*
X167848724Y-251050967D01*
X167859919Y-251102723D01*
X167858986Y-251533830D01*
X167839156Y-251600827D01*
X167786253Y-251646468D01*
X167717073Y-251656261D01*
X167694032Y-251650604D01*
X167590657Y-251614432D01*
X167590649Y-251614430D01*
X167411404Y-251594235D01*
X167411396Y-251594235D01*
X167232150Y-251614430D01*
X167232145Y-251614431D01*
X167061876Y-251674011D01*
X166909137Y-251769984D01*
X166781584Y-251897537D01*
X166685611Y-252050276D01*
X166626031Y-252220545D01*
X166626030Y-252220550D01*
X166605835Y-252399796D01*
X166605835Y-252399803D01*
X166626030Y-252579049D01*
X166626031Y-252579054D01*
X166685611Y-252749323D01*
X166738254Y-252833103D01*
X166781584Y-252902062D01*
X166909138Y-253029616D01*
X166999480Y-253086382D01*
X167060878Y-253124961D01*
X167061878Y-253125589D01*
X167064968Y-253126670D01*
X167066700Y-253127912D01*
X167068153Y-253128612D01*
X167068030Y-253128866D01*
X167121745Y-253167391D01*
X167147494Y-253232343D01*
X167134039Y-253300905D01*
X167089989Y-253348706D01*
X166934539Y-253446382D01*
X166806984Y-253573937D01*
X166711011Y-253726676D01*
X166651431Y-253896945D01*
X166651430Y-253896950D01*
X166631235Y-254076196D01*
X166631235Y-254076203D01*
X166651430Y-254255449D01*
X166651431Y-254255454D01*
X166711011Y-254425723D01*
X166755806Y-254497013D01*
X166806984Y-254578462D01*
X166934538Y-254706016D01*
X167087278Y-254801989D01*
X167186974Y-254836874D01*
X167257545Y-254861568D01*
X167257550Y-254861569D01*
X167436796Y-254881765D01*
X167436800Y-254881765D01*
X167436804Y-254881765D01*
X167616049Y-254861569D01*
X167616052Y-254861568D01*
X167616055Y-254861568D01*
X167616056Y-254861567D01*
X167616059Y-254861567D01*
X167686626Y-254836874D01*
X167756405Y-254833311D01*
X167817033Y-254868040D01*
X167849260Y-254930033D01*
X167851582Y-254954183D01*
X167840000Y-260304645D01*
X167820170Y-260371642D01*
X167767267Y-260417283D01*
X167698087Y-260427076D01*
X167650029Y-260409371D01*
X167532322Y-260335411D01*
X167362054Y-260275831D01*
X167362049Y-260275830D01*
X167182804Y-260255635D01*
X167182796Y-260255635D01*
X167003550Y-260275830D01*
X167003545Y-260275831D01*
X166833276Y-260335411D01*
X166680537Y-260431384D01*
X166552984Y-260558937D01*
X166457011Y-260711676D01*
X166397431Y-260881945D01*
X166397430Y-260881950D01*
X166377235Y-261061196D01*
X166377235Y-261061203D01*
X166397430Y-261240449D01*
X166397431Y-261240454D01*
X166457011Y-261410723D01*
X166552984Y-261563462D01*
X166680538Y-261691016D01*
X166833278Y-261786989D01*
X166836368Y-261788070D01*
X166838100Y-261789312D01*
X166839553Y-261790012D01*
X166839430Y-261790266D01*
X166893145Y-261828791D01*
X166918894Y-261893743D01*
X166905439Y-261962305D01*
X166861388Y-262010107D01*
X166763848Y-262071396D01*
X166696612Y-262090396D01*
X166631907Y-262071398D01*
X166627211Y-262068448D01*
X166617922Y-262062611D01*
X166617920Y-262062610D01*
X166617918Y-262062609D01*
X166447662Y-262003033D01*
X166447649Y-262003030D01*
X166268404Y-261982835D01*
X166268396Y-261982835D01*
X166089150Y-262003030D01*
X166089145Y-262003031D01*
X165918876Y-262062611D01*
X165826372Y-262120736D01*
X165759135Y-262139736D01*
X165694428Y-262120736D01*
X165601923Y-262062611D01*
X165431654Y-262003031D01*
X165431649Y-262003030D01*
X165252404Y-261982835D01*
X165252396Y-261982835D01*
X165073150Y-262003030D01*
X165073145Y-262003031D01*
X164902876Y-262062611D01*
X164759572Y-262152656D01*
X164692335Y-262171656D01*
X164627628Y-262152656D01*
X164484323Y-262062611D01*
X164314054Y-262003031D01*
X164314049Y-262003030D01*
X164134804Y-261982835D01*
X164134796Y-261982835D01*
X163955550Y-262003030D01*
X163955545Y-262003031D01*
X163785276Y-262062611D01*
X163632537Y-262158584D01*
X163504984Y-262286137D01*
X163409011Y-262438876D01*
X163349431Y-262609145D01*
X163349430Y-262609150D01*
X163329235Y-262788396D01*
X163329235Y-262788403D01*
X163349430Y-262967649D01*
X163349431Y-262967654D01*
X163409011Y-263137923D01*
X163473064Y-263239862D01*
X163504984Y-263290662D01*
X163632538Y-263418216D01*
X163785278Y-263514189D01*
X163868087Y-263543165D01*
X163955545Y-263573768D01*
X163955550Y-263573769D01*
X164134796Y-263593965D01*
X164134800Y-263593965D01*
X164134804Y-263593965D01*
X164314049Y-263573769D01*
X164314052Y-263573768D01*
X164314055Y-263573768D01*
X164484322Y-263514189D01*
X164627628Y-263424143D01*
X164694864Y-263405143D01*
X164759571Y-263424143D01*
X164780133Y-263437063D01*
X164902875Y-263514188D01*
X165073145Y-263573768D01*
X165073150Y-263573769D01*
X165252396Y-263593965D01*
X165252400Y-263593965D01*
X165252404Y-263593965D01*
X165431649Y-263573769D01*
X165431652Y-263573768D01*
X165431655Y-263573768D01*
X165601922Y-263514189D01*
X165694427Y-263456063D01*
X165761664Y-263437063D01*
X165826373Y-263456064D01*
X165918875Y-263514188D01*
X166089145Y-263573768D01*
X166089150Y-263573769D01*
X166268396Y-263593965D01*
X166268400Y-263593965D01*
X166268404Y-263593965D01*
X166447649Y-263573769D01*
X166447652Y-263573768D01*
X166447655Y-263573768D01*
X166617922Y-263514189D01*
X166712751Y-263454603D01*
X166779987Y-263435603D01*
X166844696Y-263454604D01*
X166847020Y-263456064D01*
X166858678Y-263463389D01*
X166858681Y-263463390D01*
X167028937Y-263522966D01*
X167028943Y-263522967D01*
X167028945Y-263522968D01*
X167028946Y-263522968D01*
X167028950Y-263522969D01*
X167208196Y-263543165D01*
X167208200Y-263543165D01*
X167208204Y-263543165D01*
X167387449Y-263522969D01*
X167387452Y-263522968D01*
X167387455Y-263522968D01*
X167557722Y-263463389D01*
X167557726Y-263463387D01*
X167629616Y-263418215D01*
X167643078Y-263409755D01*
X167710315Y-263390755D01*
X167777150Y-263411122D01*
X167822365Y-263464390D01*
X167833051Y-263515019D01*
X167832984Y-263545843D01*
X167813153Y-263612839D01*
X167796666Y-263633253D01*
X167708686Y-263721233D01*
X167708686Y-263721234D01*
X167612711Y-263873976D01*
X167553131Y-264044245D01*
X167553130Y-264044250D01*
X167532935Y-264223496D01*
X167532935Y-264223503D01*
X167553130Y-264402749D01*
X167553131Y-264402754D01*
X167612711Y-264573023D01*
X167708684Y-264725762D01*
X167793736Y-264810814D01*
X167827221Y-264872137D01*
X167830055Y-264898763D01*
X167821002Y-269081523D01*
X167818107Y-270419211D01*
X167818068Y-270437068D01*
X167798238Y-270504065D01*
X167745335Y-270549706D01*
X167694068Y-270560800D01*
X163892159Y-270560800D01*
X163826187Y-270541794D01*
X163824263Y-270540585D01*
X163824262Y-270540584D01*
X163671522Y-270444611D01*
X163501254Y-270385031D01*
X163501249Y-270385030D01*
X163322004Y-270364835D01*
X163321996Y-270364835D01*
X163142750Y-270385030D01*
X163142745Y-270385031D01*
X162972477Y-270444611D01*
X162881606Y-270501709D01*
X162819738Y-270540584D01*
X162819736Y-270540585D01*
X162817813Y-270541794D01*
X162751841Y-270560800D01*
X161813040Y-270560800D01*
X161746001Y-270541115D01*
X161725359Y-270524481D01*
X161716062Y-270515184D01*
X161563323Y-270419211D01*
X161393054Y-270359631D01*
X161393049Y-270359630D01*
X161213804Y-270339435D01*
X161213796Y-270339435D01*
X161034550Y-270359630D01*
X161034545Y-270359631D01*
X160864276Y-270419211D01*
X160711537Y-270515184D01*
X160702241Y-270524481D01*
X160640918Y-270557966D01*
X160614560Y-270560800D01*
X159232600Y-270560800D01*
X159255889Y-282741412D01*
X159236332Y-282808489D01*
X159183616Y-282854345D01*
X159114477Y-282864420D01*
X159050866Y-282835517D01*
X159044208Y-282829330D01*
X158922062Y-282707184D01*
X158769323Y-282611211D01*
X158599054Y-282551631D01*
X158599049Y-282551630D01*
X158419804Y-282531435D01*
X158419796Y-282531435D01*
X158240550Y-282551630D01*
X158240545Y-282551631D01*
X158070276Y-282611211D01*
X157917537Y-282707184D01*
X157789984Y-282834737D01*
X157694011Y-282987476D01*
X157634431Y-283157745D01*
X157634430Y-283157750D01*
X157614235Y-283336996D01*
X157614235Y-283337003D01*
X157634430Y-283516249D01*
X157634433Y-283516262D01*
X157691744Y-283680045D01*
X157695306Y-283749824D01*
X157660578Y-283810451D01*
X157598584Y-283842679D01*
X157574703Y-283845000D01*
X154915502Y-283845000D01*
X154848463Y-283825315D01*
X154802708Y-283772511D01*
X154792764Y-283703353D01*
X154821789Y-283639797D01*
X154827821Y-283633319D01*
X154958415Y-283502724D01*
X154958418Y-283502721D01*
X155061891Y-283347862D01*
X155133165Y-283175792D01*
X155169500Y-282993124D01*
X155169500Y-282806876D01*
X155169500Y-282806873D01*
X155169499Y-282806871D01*
X155142641Y-282671848D01*
X155133165Y-282624208D01*
X155061891Y-282452138D01*
X155061890Y-282452136D01*
X155061890Y-282452135D01*
X154958421Y-282297283D01*
X154958415Y-282297275D01*
X154826724Y-282165584D01*
X154826716Y-282165578D01*
X154671864Y-282062109D01*
X154499792Y-281990835D01*
X154499784Y-281990833D01*
X154317127Y-281954500D01*
X154317124Y-281954500D01*
X153470876Y-281954500D01*
X153470873Y-281954500D01*
X153288215Y-281990833D01*
X153288207Y-281990835D01*
X153116136Y-282062109D01*
X153115585Y-282062478D01*
X153115251Y-282062582D01*
X153110768Y-282064979D01*
X153110313Y-282064128D01*
X153048906Y-282083352D01*
X152981527Y-282064864D01*
X152934840Y-282012882D01*
X152922700Y-281959372D01*
X152922700Y-281653917D01*
X155618500Y-281653917D01*
X155618500Y-282146082D01*
X155655986Y-282334535D01*
X155655989Y-282334547D01*
X155729520Y-282512068D01*
X155729521Y-282512070D01*
X155836279Y-282671844D01*
X155836282Y-282671848D01*
X155972151Y-282807717D01*
X155972155Y-282807720D01*
X156131927Y-282914477D01*
X156131928Y-282914477D01*
X156131929Y-282914478D01*
X156131931Y-282914479D01*
X156155697Y-282924323D01*
X156309457Y-282988012D01*
X156497917Y-283025499D01*
X156497920Y-283025500D01*
X156497922Y-283025500D01*
X156690080Y-283025500D01*
X156690081Y-283025499D01*
X156878543Y-282988012D01*
X157056073Y-282914477D01*
X157215845Y-282807720D01*
X157351720Y-282671845D01*
X157458477Y-282512073D01*
X157532012Y-282334543D01*
X157569500Y-282146078D01*
X157569500Y-281653922D01*
X157560740Y-281609882D01*
X157566967Y-281540292D01*
X157609829Y-281485114D01*
X157675719Y-281461869D01*
X157723313Y-281468650D01*
X157757940Y-281480767D01*
X157757950Y-281480769D01*
X157937196Y-281500965D01*
X157937200Y-281500965D01*
X157937204Y-281500965D01*
X158116449Y-281480769D01*
X158116452Y-281480768D01*
X158116455Y-281480768D01*
X158286722Y-281421189D01*
X158439462Y-281325216D01*
X158567016Y-281197662D01*
X158662989Y-281044922D01*
X158722568Y-280874655D01*
X158724603Y-280856598D01*
X158742765Y-280695403D01*
X158742765Y-280695396D01*
X158722569Y-280516150D01*
X158722568Y-280516145D01*
X158662989Y-280345878D01*
X158567016Y-280193138D01*
X158439462Y-280065584D01*
X158286723Y-279969611D01*
X158116454Y-279910031D01*
X158116449Y-279910030D01*
X157937204Y-279889835D01*
X157937196Y-279889835D01*
X157757950Y-279910030D01*
X157757945Y-279910031D01*
X157587676Y-279969611D01*
X157434937Y-280065584D01*
X157307384Y-280193137D01*
X157211411Y-280345876D01*
X157151831Y-280516145D01*
X157151830Y-280516150D01*
X157131635Y-280695396D01*
X157131635Y-280695403D01*
X157134268Y-280718773D01*
X157122213Y-280787595D01*
X157074864Y-280838974D01*
X157007254Y-280856598D01*
X156963596Y-280847217D01*
X156878547Y-280811989D01*
X156878535Y-280811986D01*
X156690081Y-280774500D01*
X156690078Y-280774500D01*
X156497922Y-280774500D01*
X156497919Y-280774500D01*
X156309464Y-280811986D01*
X156309452Y-280811989D01*
X156131931Y-280885520D01*
X156131929Y-280885521D01*
X155972155Y-280992279D01*
X155972151Y-280992282D01*
X155836282Y-281128151D01*
X155836279Y-281128155D01*
X155729521Y-281287929D01*
X155729520Y-281287931D01*
X155655989Y-281465452D01*
X155655986Y-281465464D01*
X155618500Y-281653917D01*
X152922700Y-281653917D01*
X152922700Y-276840627D01*
X152942385Y-276773588D01*
X152995189Y-276727833D01*
X153064347Y-276717889D01*
X153110476Y-276735566D01*
X153110768Y-276735021D01*
X153115112Y-276737343D01*
X153115595Y-276737528D01*
X153116138Y-276737891D01*
X153288208Y-276809165D01*
X153446378Y-276840627D01*
X153470871Y-276845499D01*
X153470874Y-276845500D01*
X153470876Y-276845500D01*
X154317126Y-276845500D01*
X154317127Y-276845499D01*
X154499792Y-276809165D01*
X154671862Y-276737891D01*
X154671863Y-276737890D01*
X154671864Y-276737890D01*
X154797531Y-276653922D01*
X154797538Y-276653917D01*
X155618500Y-276653917D01*
X155618500Y-277146082D01*
X155655986Y-277334535D01*
X155655989Y-277334547D01*
X155729520Y-277512068D01*
X155729521Y-277512070D01*
X155836279Y-277671844D01*
X155836282Y-277671848D01*
X155972151Y-277807717D01*
X155972155Y-277807720D01*
X156131927Y-277914477D01*
X156131928Y-277914477D01*
X156131929Y-277914478D01*
X156131931Y-277914479D01*
X156179144Y-277934035D01*
X156309457Y-277988012D01*
X156497917Y-278025499D01*
X156497920Y-278025500D01*
X156497922Y-278025500D01*
X156690080Y-278025500D01*
X156690081Y-278025499D01*
X156878543Y-277988012D01*
X157056073Y-277914477D01*
X157215845Y-277807720D01*
X157351720Y-277671845D01*
X157458477Y-277512073D01*
X157532012Y-277334543D01*
X157569500Y-277146078D01*
X157569500Y-276653922D01*
X157569500Y-276653919D01*
X157569499Y-276653917D01*
X157565620Y-276634415D01*
X157532012Y-276465457D01*
X157458477Y-276287927D01*
X157351720Y-276128155D01*
X157351717Y-276128151D01*
X157215848Y-275992282D01*
X157215844Y-275992279D01*
X157056070Y-275885521D01*
X157056068Y-275885520D01*
X156878547Y-275811989D01*
X156878535Y-275811986D01*
X156690081Y-275774500D01*
X156690078Y-275774500D01*
X156497922Y-275774500D01*
X156497919Y-275774500D01*
X156309464Y-275811986D01*
X156309452Y-275811989D01*
X156131931Y-275885520D01*
X156131929Y-275885521D01*
X155972155Y-275992279D01*
X155972151Y-275992282D01*
X155836282Y-276128151D01*
X155836279Y-276128155D01*
X155729521Y-276287929D01*
X155729520Y-276287931D01*
X155655989Y-276465452D01*
X155655986Y-276465464D01*
X155618500Y-276653917D01*
X154797538Y-276653917D01*
X154826721Y-276634418D01*
X154958418Y-276502721D01*
X155061891Y-276347862D01*
X155133165Y-276175792D01*
X155169500Y-275993124D01*
X155169500Y-275806876D01*
X155169500Y-275806873D01*
X155169499Y-275806871D01*
X155133166Y-275624215D01*
X155133165Y-275624208D01*
X155061891Y-275452138D01*
X155061890Y-275452136D01*
X155061890Y-275452135D01*
X154958421Y-275297283D01*
X154958415Y-275297275D01*
X154826724Y-275165584D01*
X154826716Y-275165578D01*
X154671864Y-275062109D01*
X154499792Y-274990835D01*
X154499784Y-274990833D01*
X154317127Y-274954500D01*
X154317124Y-274954500D01*
X153470876Y-274954500D01*
X153470873Y-274954500D01*
X153288215Y-274990833D01*
X153288207Y-274990835D01*
X153116136Y-275062109D01*
X153115585Y-275062478D01*
X153115251Y-275062582D01*
X153110768Y-275064979D01*
X153110313Y-275064128D01*
X153048906Y-275083352D01*
X152981527Y-275064864D01*
X152934840Y-275012882D01*
X152922700Y-274959372D01*
X152922700Y-268731996D01*
X154236035Y-268731996D01*
X154236035Y-268732003D01*
X154256230Y-268911249D01*
X154256231Y-268911254D01*
X154315811Y-269081523D01*
X154411784Y-269234262D01*
X154539338Y-269361816D01*
X154692078Y-269457789D01*
X154862345Y-269517368D01*
X154862350Y-269517369D01*
X155041596Y-269537565D01*
X155041600Y-269537565D01*
X155041604Y-269537565D01*
X155220849Y-269517369D01*
X155220852Y-269517368D01*
X155220855Y-269517368D01*
X155391122Y-269457789D01*
X155543862Y-269361816D01*
X155671416Y-269234262D01*
X155767389Y-269081522D01*
X155826968Y-268911255D01*
X155847165Y-268732000D01*
X155826968Y-268552745D01*
X155767389Y-268382478D01*
X155671416Y-268229738D01*
X155543862Y-268102184D01*
X155391123Y-268006211D01*
X155220854Y-267946631D01*
X155220849Y-267946630D01*
X155041604Y-267926435D01*
X155041596Y-267926435D01*
X154862350Y-267946630D01*
X154862345Y-267946631D01*
X154692076Y-268006211D01*
X154539337Y-268102184D01*
X154411784Y-268229737D01*
X154315811Y-268382476D01*
X154256231Y-268552745D01*
X154256230Y-268552750D01*
X154236035Y-268731996D01*
X152922700Y-268731996D01*
X152922700Y-259664196D01*
X157944435Y-259664196D01*
X157944435Y-259664203D01*
X157964630Y-259843449D01*
X157964631Y-259843454D01*
X158024211Y-260013723D01*
X158120184Y-260166462D01*
X158247738Y-260294016D01*
X158400478Y-260389989D01*
X158455869Y-260409371D01*
X158570745Y-260449568D01*
X158570750Y-260449569D01*
X158749996Y-260469765D01*
X158750000Y-260469765D01*
X158750004Y-260469765D01*
X158929249Y-260449569D01*
X158929252Y-260449568D01*
X158929255Y-260449568D01*
X159099522Y-260389989D01*
X159230128Y-260307923D01*
X159297364Y-260288923D01*
X159362071Y-260307923D01*
X159399566Y-260331483D01*
X159492675Y-260389988D01*
X159662945Y-260449568D01*
X159662950Y-260449569D01*
X159842196Y-260469765D01*
X159842200Y-260469765D01*
X159842204Y-260469765D01*
X160021449Y-260449569D01*
X160021452Y-260449568D01*
X160021455Y-260449568D01*
X160191722Y-260389989D01*
X160344462Y-260294016D01*
X160472016Y-260166462D01*
X160567989Y-260013722D01*
X160627568Y-259843455D01*
X160627569Y-259843449D01*
X160647765Y-259664203D01*
X160647765Y-259664196D01*
X160627569Y-259484950D01*
X160627568Y-259484945D01*
X160567988Y-259314676D01*
X160510760Y-259223599D01*
X160472016Y-259161938D01*
X160344462Y-259034384D01*
X160322328Y-259020476D01*
X160191723Y-258938411D01*
X160021454Y-258878831D01*
X160021449Y-258878830D01*
X159842204Y-258858635D01*
X159842196Y-258858635D01*
X159662950Y-258878830D01*
X159662945Y-258878831D01*
X159492676Y-258938411D01*
X159362072Y-259020476D01*
X159294835Y-259039476D01*
X159230128Y-259020476D01*
X159099523Y-258938411D01*
X158929254Y-258878831D01*
X158929249Y-258878830D01*
X158750004Y-258858635D01*
X158749996Y-258858635D01*
X158570750Y-258878830D01*
X158570745Y-258878831D01*
X158400476Y-258938411D01*
X158247737Y-259034384D01*
X158120184Y-259161937D01*
X158024211Y-259314676D01*
X157964631Y-259484945D01*
X157964630Y-259484950D01*
X157944435Y-259664196D01*
X152922700Y-259664196D01*
X152922700Y-258610304D01*
X154674500Y-258610304D01*
X154674500Y-258787695D01*
X154709103Y-258961658D01*
X154709106Y-258961667D01*
X154776983Y-259125540D01*
X154776990Y-259125553D01*
X154875535Y-259273034D01*
X154875538Y-259273038D01*
X155000961Y-259398461D01*
X155000965Y-259398464D01*
X155148446Y-259497009D01*
X155148459Y-259497016D01*
X155271363Y-259547923D01*
X155312334Y-259564894D01*
X155312336Y-259564894D01*
X155312341Y-259564896D01*
X155486304Y-259599499D01*
X155486307Y-259599500D01*
X155486309Y-259599500D01*
X155663693Y-259599500D01*
X155663694Y-259599499D01*
X155721682Y-259587964D01*
X155837658Y-259564896D01*
X155837661Y-259564894D01*
X155837666Y-259564894D01*
X155977535Y-259506958D01*
X156001540Y-259497016D01*
X156001540Y-259497015D01*
X156001547Y-259497013D01*
X156149035Y-259398464D01*
X156274464Y-259273035D01*
X156373013Y-259125547D01*
X156440894Y-258961666D01*
X156475500Y-258787691D01*
X156475500Y-258610309D01*
X156475500Y-258610306D01*
X156475499Y-258610304D01*
X156440896Y-258436341D01*
X156440893Y-258436332D01*
X156373684Y-258274072D01*
X163786435Y-258274072D01*
X163786435Y-258274079D01*
X163806630Y-258453325D01*
X163806631Y-258453330D01*
X163866211Y-258623599D01*
X163962184Y-258776338D01*
X164089738Y-258903892D01*
X164242478Y-258999865D01*
X164301381Y-259020476D01*
X164412748Y-259059445D01*
X164415438Y-259060059D01*
X164417001Y-259060933D01*
X164419318Y-259061744D01*
X164419176Y-259062149D01*
X164476418Y-259094166D01*
X164504891Y-259139996D01*
X164534144Y-259223595D01*
X164534146Y-259223598D01*
X164630119Y-259376338D01*
X164757673Y-259503892D01*
X164848015Y-259560658D01*
X164909830Y-259599499D01*
X164910413Y-259599865D01*
X165080680Y-259659444D01*
X165080685Y-259659445D01*
X165259931Y-259679641D01*
X165259935Y-259679641D01*
X165259939Y-259679641D01*
X165439184Y-259659445D01*
X165439187Y-259659444D01*
X165439190Y-259659444D01*
X165609457Y-259599865D01*
X165762197Y-259503892D01*
X165889751Y-259376338D01*
X165985724Y-259223598D01*
X166045303Y-259053331D01*
X166051327Y-258999865D01*
X166065500Y-258874079D01*
X166065500Y-258874072D01*
X166045304Y-258694826D01*
X166045303Y-258694821D01*
X165985723Y-258524552D01*
X165889750Y-258371813D01*
X165762197Y-258244260D01*
X165609456Y-258148286D01*
X165508780Y-258113058D01*
X165439190Y-258088708D01*
X165439188Y-258088707D01*
X165439183Y-258088706D01*
X165436476Y-258088088D01*
X165434906Y-258087209D01*
X165432618Y-258086409D01*
X165432758Y-258086007D01*
X165375502Y-258053972D01*
X165347042Y-258008156D01*
X165317789Y-257924554D01*
X165302978Y-257900983D01*
X165221815Y-257771813D01*
X165094262Y-257644260D01*
X164941523Y-257548287D01*
X164771254Y-257488707D01*
X164771249Y-257488706D01*
X164592004Y-257468511D01*
X164591996Y-257468511D01*
X164412750Y-257488706D01*
X164412745Y-257488707D01*
X164242476Y-257548287D01*
X164089737Y-257644260D01*
X163962184Y-257771813D01*
X163866211Y-257924552D01*
X163806631Y-258094821D01*
X163806630Y-258094826D01*
X163786435Y-258274072D01*
X156373684Y-258274072D01*
X156373016Y-258272459D01*
X156373009Y-258272446D01*
X156274464Y-258124965D01*
X156274461Y-258124961D01*
X156149038Y-257999538D01*
X156149034Y-257999535D01*
X156001553Y-257900990D01*
X156001540Y-257900983D01*
X155837667Y-257833106D01*
X155837658Y-257833103D01*
X155663694Y-257798500D01*
X155663691Y-257798500D01*
X155486309Y-257798500D01*
X155486306Y-257798500D01*
X155312341Y-257833103D01*
X155312332Y-257833106D01*
X155148459Y-257900983D01*
X155148446Y-257900990D01*
X155000965Y-257999535D01*
X155000961Y-257999538D01*
X154875538Y-258124961D01*
X154875535Y-258124965D01*
X154776990Y-258272446D01*
X154776983Y-258272459D01*
X154709106Y-258436332D01*
X154709103Y-258436341D01*
X154674500Y-258610304D01*
X152922700Y-258610304D01*
X152922700Y-253610304D01*
X154674500Y-253610304D01*
X154674500Y-253787695D01*
X154709103Y-253961658D01*
X154709106Y-253961667D01*
X154776983Y-254125540D01*
X154776990Y-254125553D01*
X154875535Y-254273034D01*
X154875538Y-254273038D01*
X155000961Y-254398461D01*
X155000965Y-254398464D01*
X155148446Y-254497009D01*
X155148459Y-254497016D01*
X155271363Y-254547923D01*
X155312334Y-254564894D01*
X155312336Y-254564894D01*
X155312341Y-254564896D01*
X155486304Y-254599499D01*
X155486307Y-254599500D01*
X155486309Y-254599500D01*
X155663693Y-254599500D01*
X155663694Y-254599499D01*
X155721682Y-254587964D01*
X155837658Y-254564896D01*
X155837661Y-254564894D01*
X155837666Y-254564894D01*
X156001547Y-254497013D01*
X156149035Y-254398464D01*
X156274464Y-254273035D01*
X156373013Y-254125547D01*
X156440894Y-253961666D01*
X156475500Y-253787691D01*
X156475500Y-253610309D01*
X156475500Y-253610306D01*
X156475499Y-253610304D01*
X156440896Y-253436341D01*
X156440893Y-253436332D01*
X156373016Y-253272459D01*
X156373009Y-253272446D01*
X156274464Y-253124965D01*
X156274461Y-253124961D01*
X156149038Y-252999538D01*
X156149034Y-252999535D01*
X156001553Y-252900990D01*
X156001540Y-252900983D01*
X155837667Y-252833106D01*
X155837658Y-252833103D01*
X155663694Y-252798500D01*
X155663691Y-252798500D01*
X155486309Y-252798500D01*
X155486306Y-252798500D01*
X155312341Y-252833103D01*
X155312332Y-252833106D01*
X155148459Y-252900983D01*
X155148446Y-252900990D01*
X155000965Y-252999535D01*
X155000961Y-252999538D01*
X154875538Y-253124961D01*
X154875535Y-253124965D01*
X154776990Y-253272446D01*
X154776983Y-253272459D01*
X154709106Y-253436332D01*
X154709103Y-253436341D01*
X154674500Y-253610304D01*
X152922700Y-253610304D01*
X152922700Y-240283996D01*
X156039435Y-240283996D01*
X156039435Y-240284003D01*
X156059630Y-240463249D01*
X156059631Y-240463254D01*
X156119211Y-240633523D01*
X156124494Y-240641930D01*
X156215184Y-240786262D01*
X156342738Y-240913816D01*
X156433080Y-240970582D01*
X156455052Y-240984388D01*
X156495478Y-241009789D01*
X156593156Y-241043968D01*
X156665745Y-241069368D01*
X156665750Y-241069369D01*
X156844996Y-241089565D01*
X156845000Y-241089565D01*
X156845004Y-241089565D01*
X157024249Y-241069369D01*
X157024252Y-241069368D01*
X157024255Y-241069368D01*
X157194522Y-241009789D01*
X157347262Y-240913816D01*
X157474816Y-240786262D01*
X157565506Y-240641930D01*
X157617841Y-240595639D01*
X157686895Y-240584991D01*
X157750743Y-240613366D01*
X157775494Y-240641930D01*
X157866184Y-240786262D01*
X157993738Y-240913816D01*
X158084080Y-240970582D01*
X158106052Y-240984388D01*
X158146478Y-241009789D01*
X158244156Y-241043968D01*
X158316745Y-241069368D01*
X158316750Y-241069369D01*
X158495996Y-241089565D01*
X158496000Y-241089565D01*
X158496004Y-241089565D01*
X158675249Y-241069369D01*
X158675252Y-241069368D01*
X158675255Y-241069368D01*
X158845522Y-241009789D01*
X158998262Y-240913816D01*
X159125816Y-240786262D01*
X159221789Y-240633522D01*
X159281368Y-240463255D01*
X159301565Y-240284000D01*
X159298703Y-240258603D01*
X159298702Y-240258596D01*
X162541835Y-240258596D01*
X162541835Y-240258603D01*
X162562030Y-240437849D01*
X162562031Y-240437854D01*
X162621611Y-240608123D01*
X162642854Y-240641930D01*
X162717584Y-240760862D01*
X162845138Y-240888416D01*
X162997878Y-240984389D01*
X163118733Y-241026678D01*
X163168145Y-241043968D01*
X163168150Y-241043969D01*
X163347396Y-241064165D01*
X163347400Y-241064165D01*
X163347404Y-241064165D01*
X163526649Y-241043969D01*
X163526652Y-241043968D01*
X163526655Y-241043968D01*
X163696922Y-240984389D01*
X163849662Y-240888416D01*
X163977216Y-240760862D01*
X164073189Y-240608122D01*
X164132768Y-240437855D01*
X164152965Y-240258600D01*
X164135630Y-240104750D01*
X164132769Y-240079350D01*
X164132768Y-240079345D01*
X164082076Y-239934476D01*
X164073189Y-239909078D01*
X163977216Y-239756338D01*
X163849662Y-239628784D01*
X163696923Y-239532811D01*
X163526654Y-239473231D01*
X163526649Y-239473230D01*
X163347404Y-239453035D01*
X163347396Y-239453035D01*
X163168150Y-239473230D01*
X163168145Y-239473231D01*
X162997876Y-239532811D01*
X162845137Y-239628784D01*
X162717584Y-239756337D01*
X162621611Y-239909076D01*
X162562031Y-240079345D01*
X162562030Y-240079350D01*
X162541835Y-240258596D01*
X159298702Y-240258596D01*
X159281369Y-240104750D01*
X159281368Y-240104745D01*
X159235044Y-239972360D01*
X159221789Y-239934478D01*
X159125816Y-239781738D01*
X158998262Y-239654184D01*
X158930952Y-239611890D01*
X158845523Y-239558211D01*
X158675254Y-239498631D01*
X158675249Y-239498630D01*
X158496004Y-239478435D01*
X158495996Y-239478435D01*
X158316750Y-239498630D01*
X158316745Y-239498631D01*
X158146476Y-239558211D01*
X157993737Y-239654184D01*
X157866182Y-239781739D01*
X157775493Y-239926070D01*
X157723159Y-239972360D01*
X157654105Y-239983008D01*
X157590257Y-239954633D01*
X157565507Y-239926070D01*
X157474817Y-239781739D01*
X157347262Y-239654184D01*
X157194523Y-239558211D01*
X157024254Y-239498631D01*
X157024249Y-239498630D01*
X156845004Y-239478435D01*
X156844996Y-239478435D01*
X156665750Y-239498630D01*
X156665745Y-239498631D01*
X156495476Y-239558211D01*
X156342737Y-239654184D01*
X156215184Y-239781737D01*
X156119211Y-239934476D01*
X156059631Y-240104745D01*
X156059630Y-240104750D01*
X156039435Y-240283996D01*
X152922700Y-240283996D01*
X152922700Y-237362996D01*
X163659435Y-237362996D01*
X163659435Y-237363003D01*
X163679630Y-237542249D01*
X163679631Y-237542254D01*
X163739211Y-237712523D01*
X163799394Y-237808303D01*
X163835184Y-237865262D01*
X163962738Y-237992816D01*
X164115478Y-238088789D01*
X164285745Y-238148368D01*
X164285750Y-238148369D01*
X164464996Y-238168565D01*
X164465000Y-238168565D01*
X164465004Y-238168565D01*
X164644249Y-238148369D01*
X164644252Y-238148368D01*
X164644255Y-238148368D01*
X164814522Y-238088789D01*
X164967262Y-237992816D01*
X165094816Y-237865262D01*
X165190789Y-237712522D01*
X165250368Y-237542255D01*
X165270565Y-237363000D01*
X165261272Y-237280523D01*
X165250369Y-237183750D01*
X165250368Y-237183745D01*
X165190788Y-237013476D01*
X165094815Y-236860737D01*
X164967262Y-236733184D01*
X164814523Y-236637211D01*
X164644254Y-236577631D01*
X164644249Y-236577630D01*
X164465004Y-236557435D01*
X164464996Y-236557435D01*
X164285750Y-236577630D01*
X164285745Y-236577631D01*
X164115476Y-236637211D01*
X163962737Y-236733184D01*
X163835184Y-236860737D01*
X163739211Y-237013476D01*
X163679631Y-237183745D01*
X163679630Y-237183750D01*
X163659435Y-237362996D01*
X152922700Y-237362996D01*
X152922700Y-236344000D01*
X152942385Y-236276961D01*
X152995189Y-236231206D01*
X153046700Y-236220000D01*
X162534600Y-236220000D01*
X162534600Y-232864200D01*
X162554285Y-232797161D01*
X162607089Y-232751406D01*
X162658600Y-232740200D01*
X166336439Y-232740200D01*
X166403478Y-232759885D01*
G37*
G04 #@! TD.AperFunction*
G04 #@! TA.AperFunction,Conductor*
G36*
X167765085Y-227018807D02*
G01*
X167798475Y-227039788D01*
X167968745Y-227099368D01*
X167968750Y-227099369D01*
X168147996Y-227119565D01*
X168148000Y-227119565D01*
X168148004Y-227119565D01*
X168327249Y-227099369D01*
X168327252Y-227099368D01*
X168327255Y-227099368D01*
X168497522Y-227039789D01*
X168530915Y-227018807D01*
X168596888Y-226999800D01*
X170894200Y-226999800D01*
X170961239Y-227019485D01*
X171006994Y-227072289D01*
X171018200Y-227123800D01*
X171018200Y-270535400D01*
X190376000Y-270535400D01*
X190443039Y-270555085D01*
X190488794Y-270607889D01*
X190500000Y-270659400D01*
X190500000Y-275615400D01*
X194515989Y-275615400D01*
X194583028Y-275635085D01*
X194628783Y-275687889D01*
X194639989Y-275739610D01*
X194628149Y-282724620D01*
X194608351Y-282791626D01*
X194598635Y-282803663D01*
X194598925Y-282803895D01*
X194594584Y-282809338D01*
X194498611Y-282962076D01*
X194439031Y-283132345D01*
X194439030Y-283132350D01*
X194418835Y-283311596D01*
X194418835Y-283311603D01*
X194439030Y-283490849D01*
X194439031Y-283490854D01*
X194498611Y-283661123D01*
X194594584Y-283813862D01*
X194598925Y-283819305D01*
X194596472Y-283821261D01*
X194623328Y-283870444D01*
X194626162Y-283897012D01*
X194615239Y-290342310D01*
X194595441Y-290409316D01*
X194542559Y-290454982D01*
X194491239Y-290466100D01*
X162755140Y-290466100D01*
X162688101Y-290446415D01*
X162642346Y-290393611D01*
X162632402Y-290324453D01*
X162661427Y-290260897D01*
X162667459Y-290254419D01*
X162758016Y-290163862D01*
X162853989Y-290011122D01*
X162913568Y-289840855D01*
X162928802Y-289705649D01*
X162933765Y-289661603D01*
X162933765Y-289661596D01*
X162913569Y-289482350D01*
X162913568Y-289482345D01*
X162853988Y-289312076D01*
X162758015Y-289159337D01*
X162630462Y-289031784D01*
X162526552Y-288966493D01*
X162480262Y-288914159D01*
X162469614Y-288845106D01*
X162497989Y-288781257D01*
X162526551Y-288756507D01*
X162630462Y-288691216D01*
X162758016Y-288563662D01*
X162853989Y-288410922D01*
X162913568Y-288240655D01*
X162915540Y-288223153D01*
X162933765Y-288061403D01*
X162933765Y-288061396D01*
X162913569Y-287882150D01*
X162913568Y-287882145D01*
X162875994Y-287774765D01*
X162853989Y-287711878D01*
X162758016Y-287559138D01*
X162630462Y-287431584D01*
X162477720Y-287335609D01*
X162468665Y-287332441D01*
X162411890Y-287291719D01*
X162386143Y-287226766D01*
X162399600Y-287158204D01*
X162447988Y-287107802D01*
X162459934Y-287102346D01*
X162459891Y-287102256D01*
X162466160Y-287099236D01*
X162466163Y-287099233D01*
X162466166Y-287099233D01*
X162618906Y-287003260D01*
X162746460Y-286875706D01*
X162842433Y-286722966D01*
X162902012Y-286552699D01*
X162903507Y-286539432D01*
X162906598Y-286511996D01*
X166682035Y-286511996D01*
X166682035Y-286512003D01*
X166702230Y-286691249D01*
X166702231Y-286691254D01*
X166761811Y-286861523D01*
X166850870Y-287003259D01*
X166857784Y-287014262D01*
X166985338Y-287141816D01*
X167138078Y-287237789D01*
X167292201Y-287291719D01*
X167308345Y-287297368D01*
X167308350Y-287297369D01*
X167487596Y-287317565D01*
X167487600Y-287317565D01*
X167487604Y-287317565D01*
X167666849Y-287297369D01*
X167666852Y-287297368D01*
X167666855Y-287297368D01*
X167837122Y-287237789D01*
X167989862Y-287141816D01*
X168117416Y-287014262D01*
X168213389Y-286861522D01*
X168272968Y-286691255D01*
X168281033Y-286619676D01*
X168293165Y-286512003D01*
X168293165Y-286511996D01*
X168272969Y-286332750D01*
X168272968Y-286332745D01*
X168246815Y-286258003D01*
X168213389Y-286162478D01*
X168117416Y-286009738D01*
X167989862Y-285882184D01*
X167837123Y-285786211D01*
X167666854Y-285726631D01*
X167666849Y-285726630D01*
X167487604Y-285706435D01*
X167487596Y-285706435D01*
X167308350Y-285726630D01*
X167308345Y-285726631D01*
X167138076Y-285786211D01*
X166985337Y-285882184D01*
X166857784Y-286009737D01*
X166761811Y-286162476D01*
X166702231Y-286332745D01*
X166702230Y-286332750D01*
X166682035Y-286511996D01*
X162906598Y-286511996D01*
X162922209Y-286373447D01*
X162922209Y-286373440D01*
X162902013Y-286194194D01*
X162902012Y-286194189D01*
X162845069Y-286031456D01*
X162842433Y-286023922D01*
X162746460Y-285871182D01*
X162618906Y-285743628D01*
X162591857Y-285726632D01*
X162466167Y-285647655D01*
X162295898Y-285588075D01*
X162295893Y-285588074D01*
X162116648Y-285567879D01*
X162116640Y-285567879D01*
X161937394Y-285588074D01*
X161937389Y-285588075D01*
X161767120Y-285647655D01*
X161614381Y-285743628D01*
X161486828Y-285871181D01*
X161390855Y-286023920D01*
X161331275Y-286194189D01*
X161331274Y-286194194D01*
X161311079Y-286373440D01*
X161311079Y-286373447D01*
X161331274Y-286552693D01*
X161331275Y-286552698D01*
X161390855Y-286722967D01*
X161453420Y-286822538D01*
X161486828Y-286875706D01*
X161614382Y-287003260D01*
X161631892Y-287014262D01*
X161767121Y-287099233D01*
X161774456Y-287101799D01*
X161776018Y-287102346D01*
X161776173Y-287102400D01*
X161832951Y-287143120D01*
X161858700Y-287208072D01*
X161845245Y-287276635D01*
X161796859Y-287327039D01*
X161784909Y-287332497D01*
X161784953Y-287332588D01*
X161778683Y-287335607D01*
X161625937Y-287431584D01*
X161498384Y-287559137D01*
X161402411Y-287711876D01*
X161342831Y-287882145D01*
X161342830Y-287882150D01*
X161322635Y-288061396D01*
X161322635Y-288061403D01*
X161342830Y-288240649D01*
X161342831Y-288240654D01*
X161402411Y-288410923D01*
X161445511Y-288479515D01*
X161498384Y-288563662D01*
X161625938Y-288691216D01*
X161692300Y-288732914D01*
X161729846Y-288756506D01*
X161776137Y-288808841D01*
X161786785Y-288877895D01*
X161758410Y-288941743D01*
X161729846Y-288966494D01*
X161625937Y-289031784D01*
X161498384Y-289159337D01*
X161402411Y-289312076D01*
X161342831Y-289482345D01*
X161342830Y-289482350D01*
X161322635Y-289661596D01*
X161322635Y-289661603D01*
X161342830Y-289840849D01*
X161342831Y-289840854D01*
X161402411Y-290011123D01*
X161498384Y-290163862D01*
X161588941Y-290254419D01*
X161622426Y-290315742D01*
X161617442Y-290385434D01*
X161575570Y-290441367D01*
X161510106Y-290465784D01*
X161501260Y-290466100D01*
X157959600Y-290466100D01*
X157892561Y-290446415D01*
X157846806Y-290393611D01*
X157835600Y-290342100D01*
X157835600Y-284502400D01*
X157855285Y-284435361D01*
X157908089Y-284389606D01*
X157959600Y-284378400D01*
X160299399Y-284378400D01*
X160299400Y-284378400D01*
X160296733Y-283100997D01*
X163092751Y-283100997D01*
X163092751Y-283101002D01*
X163111685Y-283269056D01*
X163167545Y-283428694D01*
X163167547Y-283428697D01*
X163257518Y-283571884D01*
X163257523Y-283571890D01*
X163261452Y-283575819D01*
X163294937Y-283637142D01*
X163289953Y-283706834D01*
X163261452Y-283751181D01*
X163257523Y-283755109D01*
X163257518Y-283755115D01*
X163167547Y-283898302D01*
X163167545Y-283898305D01*
X163111685Y-284057943D01*
X163092751Y-284225997D01*
X163092751Y-284226002D01*
X163111685Y-284394056D01*
X163167545Y-284553694D01*
X163167547Y-284553697D01*
X163257518Y-284696884D01*
X163257523Y-284696890D01*
X163261452Y-284700819D01*
X163294937Y-284762142D01*
X163289953Y-284831834D01*
X163261452Y-284876181D01*
X163257523Y-284880109D01*
X163257518Y-284880115D01*
X163167547Y-285023302D01*
X163167545Y-285023305D01*
X163111685Y-285182943D01*
X163092751Y-285350997D01*
X163092751Y-285351002D01*
X163111685Y-285519056D01*
X163167545Y-285678694D01*
X163167547Y-285678697D01*
X163257518Y-285821884D01*
X163257523Y-285821890D01*
X163377109Y-285941476D01*
X163377115Y-285941481D01*
X163520302Y-286031452D01*
X163520305Y-286031454D01*
X163520309Y-286031455D01*
X163520310Y-286031456D01*
X163534514Y-286036426D01*
X163679943Y-286087314D01*
X163847997Y-286106249D01*
X163848000Y-286106249D01*
X163848003Y-286106249D01*
X164016056Y-286087314D01*
X164016059Y-286087313D01*
X164175690Y-286031456D01*
X164175692Y-286031454D01*
X164175694Y-286031454D01*
X164175697Y-286031452D01*
X164318884Y-285941481D01*
X164318885Y-285941480D01*
X164318890Y-285941477D01*
X164322819Y-285937548D01*
X164384142Y-285904063D01*
X164453834Y-285909047D01*
X164498181Y-285937548D01*
X164502109Y-285941476D01*
X164502115Y-285941481D01*
X164645302Y-286031452D01*
X164645305Y-286031454D01*
X164645309Y-286031455D01*
X164645310Y-286031456D01*
X164659514Y-286036426D01*
X164804943Y-286087314D01*
X164972997Y-286106249D01*
X164973000Y-286106249D01*
X164973003Y-286106249D01*
X165141056Y-286087314D01*
X165141059Y-286087313D01*
X165300690Y-286031456D01*
X165300692Y-286031454D01*
X165300694Y-286031454D01*
X165300697Y-286031452D01*
X165443884Y-285941481D01*
X165443885Y-285941480D01*
X165443890Y-285941477D01*
X165447819Y-285937548D01*
X165509142Y-285904063D01*
X165578834Y-285909047D01*
X165623181Y-285937548D01*
X165627109Y-285941476D01*
X165627115Y-285941481D01*
X165770302Y-286031452D01*
X165770305Y-286031454D01*
X165770309Y-286031455D01*
X165770310Y-286031456D01*
X165784514Y-286036426D01*
X165929943Y-286087314D01*
X166097997Y-286106249D01*
X166098000Y-286106249D01*
X166098003Y-286106249D01*
X166266056Y-286087314D01*
X166266059Y-286087313D01*
X166425690Y-286031456D01*
X166425692Y-286031454D01*
X166425694Y-286031454D01*
X166425697Y-286031452D01*
X166568884Y-285941481D01*
X166568885Y-285941480D01*
X166568890Y-285941477D01*
X166688477Y-285821890D01*
X166710896Y-285786211D01*
X166778452Y-285678697D01*
X166778454Y-285678694D01*
X166778454Y-285678692D01*
X166778456Y-285678690D01*
X166834313Y-285519059D01*
X166834313Y-285519058D01*
X166834314Y-285519056D01*
X166853249Y-285351002D01*
X166853249Y-285350997D01*
X166834314Y-285182943D01*
X166778454Y-285023305D01*
X166778452Y-285023302D01*
X166688481Y-284880115D01*
X166688476Y-284880109D01*
X166684548Y-284876181D01*
X166651063Y-284814858D01*
X166656047Y-284745166D01*
X166684548Y-284700819D01*
X166688477Y-284696890D01*
X166778452Y-284553697D01*
X166778454Y-284553694D01*
X166778454Y-284553692D01*
X166778456Y-284553690D01*
X166834313Y-284394059D01*
X166834313Y-284394058D01*
X166834314Y-284394056D01*
X166853249Y-284226002D01*
X166853249Y-284225997D01*
X166834314Y-284057943D01*
X166778454Y-283898305D01*
X166778452Y-283898302D01*
X166688481Y-283755115D01*
X166688476Y-283755109D01*
X166684548Y-283751181D01*
X166651063Y-283689858D01*
X166656047Y-283620166D01*
X166684548Y-283575819D01*
X166688477Y-283571890D01*
X166696248Y-283559523D01*
X166778452Y-283428697D01*
X166778454Y-283428694D01*
X166778454Y-283428692D01*
X166778456Y-283428690D01*
X166834313Y-283269059D01*
X166834313Y-283269058D01*
X166834314Y-283269056D01*
X166853249Y-283101002D01*
X166853249Y-283100997D01*
X166834314Y-282932943D01*
X166781107Y-282780887D01*
X166778456Y-282773310D01*
X166778455Y-282773309D01*
X166778454Y-282773305D01*
X166778452Y-282773302D01*
X166688481Y-282630115D01*
X166688476Y-282630109D01*
X166568890Y-282510523D01*
X166568884Y-282510518D01*
X166425697Y-282420547D01*
X166425694Y-282420545D01*
X166266056Y-282364685D01*
X166098003Y-282345751D01*
X166097997Y-282345751D01*
X165929943Y-282364685D01*
X165770305Y-282420545D01*
X165770302Y-282420547D01*
X165627115Y-282510518D01*
X165627109Y-282510523D01*
X165623181Y-282514452D01*
X165561858Y-282547937D01*
X165492166Y-282542953D01*
X165447819Y-282514452D01*
X165443890Y-282510523D01*
X165443884Y-282510518D01*
X165300697Y-282420547D01*
X165300694Y-282420545D01*
X165141056Y-282364685D01*
X164973003Y-282345751D01*
X164972997Y-282345751D01*
X164804943Y-282364685D01*
X164645305Y-282420545D01*
X164645302Y-282420547D01*
X164502115Y-282510518D01*
X164502109Y-282510523D01*
X164498181Y-282514452D01*
X164436858Y-282547937D01*
X164367166Y-282542953D01*
X164322819Y-282514452D01*
X164318890Y-282510523D01*
X164318884Y-282510518D01*
X164175697Y-282420547D01*
X164175694Y-282420545D01*
X164016056Y-282364685D01*
X163848003Y-282345751D01*
X163847997Y-282345751D01*
X163679943Y-282364685D01*
X163520305Y-282420545D01*
X163520302Y-282420547D01*
X163377115Y-282510518D01*
X163377109Y-282510523D01*
X163257523Y-282630109D01*
X163257518Y-282630115D01*
X163167547Y-282773302D01*
X163167545Y-282773305D01*
X163111685Y-282932943D01*
X163092751Y-283100997D01*
X160296733Y-283100997D01*
X160290544Y-280136597D01*
X164044751Y-280136597D01*
X164044751Y-280136602D01*
X164063686Y-280304657D01*
X164119545Y-280464295D01*
X164122564Y-280470563D01*
X164120348Y-280471630D01*
X164136232Y-280527861D01*
X164120465Y-280581598D01*
X164122564Y-280582609D01*
X164119546Y-280588874D01*
X164063685Y-280748514D01*
X164044751Y-280916568D01*
X164044751Y-280916573D01*
X164063685Y-281084627D01*
X164119545Y-281244265D01*
X164119547Y-281244268D01*
X164209518Y-281387455D01*
X164209523Y-281387461D01*
X164329109Y-281507047D01*
X164329115Y-281507052D01*
X164472302Y-281597023D01*
X164472305Y-281597025D01*
X164472309Y-281597026D01*
X164472310Y-281597027D01*
X164544913Y-281622431D01*
X164631943Y-281652885D01*
X164799997Y-281671820D01*
X164800000Y-281671820D01*
X164800003Y-281671820D01*
X164968056Y-281652885D01*
X165022755Y-281633745D01*
X165127690Y-281597027D01*
X165127692Y-281597025D01*
X165127694Y-281597025D01*
X165127697Y-281597023D01*
X165270884Y-281507052D01*
X165270885Y-281507051D01*
X165270890Y-281507048D01*
X165390477Y-281387461D01*
X165427097Y-281329181D01*
X165480452Y-281244268D01*
X165480454Y-281244265D01*
X165480454Y-281244263D01*
X165480456Y-281244261D01*
X165536313Y-281084630D01*
X165536313Y-281084629D01*
X165536314Y-281084627D01*
X165555249Y-280916573D01*
X165555249Y-280916568D01*
X165536313Y-280748513D01*
X165491230Y-280619671D01*
X165480456Y-280588881D01*
X165480452Y-280588874D01*
X165477438Y-280582615D01*
X165479654Y-280581547D01*
X165463765Y-280525323D01*
X165479555Y-280471589D01*
X165477433Y-280470567D01*
X165480449Y-280464299D01*
X165480456Y-280464290D01*
X165523559Y-280341109D01*
X165536313Y-280304661D01*
X165536313Y-280304659D01*
X165555249Y-280136602D01*
X165555249Y-280136597D01*
X165536314Y-279968543D01*
X165502224Y-279871119D01*
X165480456Y-279808910D01*
X165480455Y-279808909D01*
X165480454Y-279808905D01*
X165480452Y-279808902D01*
X165390481Y-279665715D01*
X165390476Y-279665709D01*
X165270890Y-279546123D01*
X165270884Y-279546118D01*
X165127697Y-279456147D01*
X165127694Y-279456145D01*
X164968056Y-279400285D01*
X164800003Y-279381351D01*
X164799997Y-279381351D01*
X164631943Y-279400285D01*
X164472305Y-279456145D01*
X164472302Y-279456147D01*
X164329115Y-279546118D01*
X164329109Y-279546123D01*
X164209523Y-279665709D01*
X164209518Y-279665715D01*
X164119547Y-279808902D01*
X164119545Y-279808905D01*
X164063685Y-279968543D01*
X164044751Y-280136597D01*
X160290544Y-280136597D01*
X160285114Y-277535596D01*
X163344435Y-277535596D01*
X163344435Y-277535603D01*
X163364630Y-277714849D01*
X163364631Y-277714854D01*
X163424211Y-277885123D01*
X163520184Y-278037862D01*
X163647738Y-278165416D01*
X163734433Y-278219890D01*
X163795808Y-278258455D01*
X163800478Y-278261389D01*
X163938249Y-278309597D01*
X163970745Y-278320968D01*
X163970750Y-278320969D01*
X164149996Y-278341165D01*
X164150000Y-278341165D01*
X164150004Y-278341165D01*
X164329249Y-278320969D01*
X164329251Y-278320968D01*
X164329255Y-278320968D01*
X164329258Y-278320966D01*
X164329262Y-278320966D01*
X164419377Y-278289432D01*
X164499522Y-278261389D01*
X164512810Y-278253038D01*
X164580043Y-278234038D01*
X164644754Y-278253038D01*
X164674276Y-278271588D01*
X164674278Y-278271589D01*
X164815395Y-278320968D01*
X164844545Y-278331168D01*
X164844550Y-278331169D01*
X165023796Y-278351365D01*
X165023800Y-278351365D01*
X165023804Y-278351365D01*
X165203049Y-278331169D01*
X165203052Y-278331168D01*
X165203055Y-278331168D01*
X165373322Y-278271589D01*
X165389627Y-278261343D01*
X165456863Y-278242343D01*
X165521572Y-278261343D01*
X165537876Y-278271588D01*
X165537878Y-278271589D01*
X165708145Y-278331168D01*
X165708150Y-278331169D01*
X165887396Y-278351365D01*
X165887400Y-278351365D01*
X165887404Y-278351365D01*
X166066649Y-278331169D01*
X166066652Y-278331168D01*
X166066655Y-278331168D01*
X166236922Y-278271589D01*
X166389662Y-278175616D01*
X166517216Y-278048062D01*
X166613189Y-277895322D01*
X166672768Y-277725055D01*
X166672769Y-277725050D01*
X166673805Y-277720513D01*
X166707910Y-277659533D01*
X166769570Y-277626673D01*
X166835651Y-277631058D01*
X166876545Y-277645368D01*
X166876548Y-277645368D01*
X166876550Y-277645369D01*
X167055796Y-277665565D01*
X167062764Y-277665565D01*
X167062764Y-277667604D01*
X167121770Y-277677934D01*
X167173154Y-277725278D01*
X167190785Y-277792887D01*
X167183885Y-277830058D01*
X167159433Y-277899939D01*
X167159430Y-277899950D01*
X167139235Y-278079196D01*
X167139235Y-278079203D01*
X167159430Y-278258449D01*
X167159431Y-278258454D01*
X167219011Y-278428723D01*
X167314984Y-278581462D01*
X167314985Y-278581463D01*
X167360041Y-278626520D01*
X167393525Y-278687843D01*
X167388540Y-278757535D01*
X167360041Y-278801880D01*
X167314984Y-278846937D01*
X167219011Y-278999676D01*
X167159431Y-279169945D01*
X167159430Y-279169950D01*
X167139235Y-279349196D01*
X167139235Y-279349203D01*
X167159430Y-279528449D01*
X167159431Y-279528454D01*
X167219011Y-279698723D01*
X167314984Y-279851462D01*
X167385440Y-279921918D01*
X167418925Y-279983241D01*
X167413941Y-280052933D01*
X167385442Y-280097278D01*
X167365786Y-280116934D01*
X167269811Y-280269676D01*
X167210231Y-280439945D01*
X167210230Y-280439950D01*
X167190035Y-280619196D01*
X167190035Y-280619203D01*
X167210230Y-280798449D01*
X167210231Y-280798454D01*
X167269811Y-280968723D01*
X167365784Y-281121462D01*
X167398141Y-281153819D01*
X167431626Y-281215142D01*
X167426642Y-281284834D01*
X167398141Y-281329181D01*
X167365784Y-281361537D01*
X167269811Y-281514276D01*
X167210231Y-281684545D01*
X167210230Y-281684550D01*
X167190035Y-281863796D01*
X167190035Y-281863803D01*
X167210230Y-282043049D01*
X167210231Y-282043054D01*
X167269811Y-282213323D01*
X167333864Y-282315262D01*
X167365784Y-282366062D01*
X167493338Y-282493616D01*
X167646078Y-282589589D01*
X167694839Y-282606651D01*
X167751615Y-282647372D01*
X167777363Y-282712325D01*
X167763907Y-282780887D01*
X167715520Y-282831290D01*
X167710882Y-282833731D01*
X167566715Y-282924318D01*
X167566709Y-282924323D01*
X167447123Y-283043909D01*
X167447118Y-283043915D01*
X167357147Y-283187102D01*
X167357145Y-283187105D01*
X167301285Y-283346743D01*
X167282351Y-283514797D01*
X167282351Y-283514802D01*
X167301285Y-283682856D01*
X167357145Y-283842494D01*
X167357147Y-283842497D01*
X167447118Y-283985684D01*
X167447123Y-283985690D01*
X167566709Y-284105276D01*
X167566715Y-284105281D01*
X167709902Y-284195252D01*
X167709905Y-284195254D01*
X167709909Y-284195255D01*
X167709910Y-284195256D01*
X167782513Y-284220660D01*
X167869543Y-284251114D01*
X168037597Y-284270049D01*
X168037600Y-284270049D01*
X168037603Y-284270049D01*
X168205656Y-284251114D01*
X168205659Y-284251113D01*
X168365290Y-284195256D01*
X168365292Y-284195254D01*
X168365294Y-284195254D01*
X168365297Y-284195252D01*
X168508484Y-284105281D01*
X168508485Y-284105280D01*
X168508490Y-284105277D01*
X168628077Y-283985690D01*
X168628081Y-283985684D01*
X168718052Y-283842497D01*
X168718054Y-283842494D01*
X168718054Y-283842492D01*
X168718056Y-283842490D01*
X168773913Y-283682859D01*
X168773913Y-283682858D01*
X168773914Y-283682856D01*
X168792849Y-283514802D01*
X168792849Y-283514797D01*
X168773914Y-283346743D01*
X168730602Y-283222964D01*
X168718056Y-283187110D01*
X168718055Y-283187109D01*
X168718054Y-283187105D01*
X168718052Y-283187102D01*
X168628081Y-283043915D01*
X168628076Y-283043909D01*
X168508490Y-282924323D01*
X168508484Y-282924318D01*
X168365297Y-282834347D01*
X168365291Y-282834344D01*
X168339958Y-282825480D01*
X168283181Y-282784758D01*
X168257434Y-282719805D01*
X168270890Y-282651244D01*
X168319277Y-282600841D01*
X168339960Y-282591396D01*
X168345119Y-282589590D01*
X168345118Y-282589590D01*
X168345122Y-282589589D01*
X168497862Y-282493616D01*
X168625416Y-282366062D01*
X168721389Y-282213322D01*
X168780968Y-282043055D01*
X168786692Y-281992255D01*
X168801165Y-281863803D01*
X168801165Y-281863796D01*
X168780969Y-281684550D01*
X168780968Y-281684545D01*
X168776515Y-281671820D01*
X168721389Y-281514278D01*
X168716845Y-281507047D01*
X168659341Y-281415530D01*
X168625416Y-281361538D01*
X168593059Y-281329181D01*
X168559574Y-281267858D01*
X168564558Y-281198166D01*
X168593059Y-281153819D01*
X168625416Y-281121462D01*
X168646693Y-281087600D01*
X177703955Y-281087600D01*
X177724459Y-281256469D01*
X177724460Y-281256474D01*
X177784782Y-281415531D01*
X177817878Y-281463478D01*
X177881417Y-281555529D01*
X178008748Y-281668334D01*
X178015390Y-281671820D01*
X178026791Y-281677804D01*
X178077003Y-281726389D01*
X178092977Y-281794408D01*
X178069641Y-281860266D01*
X178026791Y-281897396D01*
X178008749Y-281906865D01*
X177881416Y-282019672D01*
X177784782Y-282159668D01*
X177724460Y-282318725D01*
X177724459Y-282318730D01*
X177703955Y-282487600D01*
X177724459Y-282656469D01*
X177724460Y-282656474D01*
X177784782Y-282815531D01*
X177824338Y-282872837D01*
X177881417Y-282955529D01*
X177981178Y-283043909D01*
X178008750Y-283068336D01*
X178159374Y-283147390D01*
X178159373Y-283147390D01*
X178201387Y-283157745D01*
X178323363Y-283187809D01*
X178383743Y-283222964D01*
X178415532Y-283285183D01*
X178416784Y-283293258D01*
X178424459Y-283356468D01*
X178424460Y-283356474D01*
X178484782Y-283515531D01*
X178542996Y-283599867D01*
X178581417Y-283655529D01*
X178662242Y-283727133D01*
X178708750Y-283768336D01*
X178850052Y-283842497D01*
X178859375Y-283847390D01*
X179024544Y-283888100D01*
X179194656Y-283888100D01*
X179359825Y-283847390D01*
X179439292Y-283805681D01*
X179510449Y-283768336D01*
X179510450Y-283768334D01*
X179510452Y-283768334D01*
X179637783Y-283655529D01*
X179707551Y-283554453D01*
X179761833Y-283510464D01*
X179831281Y-283502804D01*
X179893846Y-283533907D01*
X179911647Y-283554451D01*
X179923681Y-283571884D01*
X179981415Y-283655527D01*
X179981417Y-283655529D01*
X180012263Y-283682856D01*
X180108750Y-283768336D01*
X180250052Y-283842497D01*
X180259375Y-283847390D01*
X180424544Y-283888100D01*
X180594656Y-283888100D01*
X180759825Y-283847390D01*
X180839292Y-283805681D01*
X180910449Y-283768336D01*
X180910450Y-283768334D01*
X180910452Y-283768334D01*
X181037783Y-283655529D01*
X181134418Y-283515530D01*
X181194740Y-283356472D01*
X181202415Y-283293257D01*
X181230036Y-283229081D01*
X181258345Y-283209996D01*
X187865635Y-283209996D01*
X187865635Y-283210003D01*
X187885830Y-283389249D01*
X187885831Y-283389254D01*
X187945411Y-283559523D01*
X188004855Y-283654127D01*
X188023855Y-283721364D01*
X188016903Y-283761052D01*
X187995141Y-283823245D01*
X187995141Y-283823246D01*
X187974945Y-284002496D01*
X187974945Y-284002503D01*
X187995140Y-284181749D01*
X187995141Y-284181754D01*
X188054721Y-284352024D01*
X188115368Y-284448541D01*
X188134369Y-284515778D01*
X188115369Y-284580486D01*
X188047011Y-284689276D01*
X187987431Y-284859545D01*
X187987430Y-284859550D01*
X187967235Y-285038796D01*
X187967235Y-285038803D01*
X187987430Y-285218049D01*
X187987431Y-285218054D01*
X188047011Y-285388323D01*
X188142984Y-285541062D01*
X188162641Y-285560719D01*
X188196126Y-285622042D01*
X188191142Y-285691734D01*
X188162641Y-285736081D01*
X188142984Y-285755737D01*
X188047011Y-285908476D01*
X187987431Y-286078745D01*
X187987430Y-286078750D01*
X187967235Y-286257996D01*
X187967235Y-286258003D01*
X187987430Y-286437249D01*
X187987431Y-286437254D01*
X188047011Y-286607523D01*
X188054649Y-286619678D01*
X188142984Y-286760262D01*
X188270538Y-286887816D01*
X188360880Y-286944582D01*
X188409729Y-286975276D01*
X188423278Y-286983789D01*
X188478923Y-287003260D01*
X188593545Y-287043368D01*
X188593550Y-287043369D01*
X188772796Y-287063565D01*
X188772800Y-287063565D01*
X188772804Y-287063565D01*
X188952049Y-287043369D01*
X188952052Y-287043368D01*
X188952055Y-287043368D01*
X189122322Y-286983789D01*
X189275062Y-286887816D01*
X189402616Y-286760262D01*
X189498589Y-286607522D01*
X189558168Y-286437255D01*
X189558169Y-286437249D01*
X189578365Y-286258003D01*
X189578365Y-286257996D01*
X189558169Y-286078750D01*
X189558168Y-286078745D01*
X189498588Y-285908476D01*
X189402615Y-285755737D01*
X189382959Y-285736081D01*
X189349474Y-285674758D01*
X189349543Y-285673796D01*
X191599435Y-285673796D01*
X191599435Y-285673803D01*
X191619630Y-285853049D01*
X191619631Y-285853054D01*
X191679211Y-286023323D01*
X191775184Y-286176062D01*
X191902739Y-286303617D01*
X192047070Y-286394307D01*
X192093360Y-286446641D01*
X192104008Y-286515695D01*
X192075633Y-286579543D01*
X192047070Y-286604293D01*
X191902739Y-286694982D01*
X191775184Y-286822537D01*
X191679211Y-286975276D01*
X191619631Y-287145545D01*
X191619630Y-287145550D01*
X191599435Y-287324796D01*
X191599435Y-287324803D01*
X191619630Y-287504049D01*
X191619631Y-287504054D01*
X191679211Y-287674323D01*
X191770496Y-287819601D01*
X191775184Y-287827062D01*
X191902738Y-287954616D01*
X192055478Y-288050589D01*
X192055483Y-288050592D01*
X192061753Y-288053612D01*
X192060594Y-288056017D01*
X192107469Y-288089639D01*
X192133214Y-288154592D01*
X192119756Y-288223153D01*
X192075709Y-288270949D01*
X191934111Y-288359921D01*
X191814523Y-288479509D01*
X191814518Y-288479515D01*
X191724547Y-288622702D01*
X191724545Y-288622705D01*
X191668685Y-288782343D01*
X191649751Y-288950397D01*
X191649751Y-288950402D01*
X191668685Y-289118456D01*
X191724545Y-289278094D01*
X191724547Y-289278097D01*
X191814518Y-289421284D01*
X191814523Y-289421290D01*
X191934109Y-289540876D01*
X191934115Y-289540881D01*
X192077302Y-289630852D01*
X192077305Y-289630854D01*
X192077309Y-289630855D01*
X192077310Y-289630856D01*
X192149913Y-289656260D01*
X192236943Y-289686714D01*
X192404997Y-289705649D01*
X192405000Y-289705649D01*
X192405003Y-289705649D01*
X192573056Y-289686714D01*
X192573059Y-289686713D01*
X192732690Y-289630856D01*
X192732692Y-289630854D01*
X192732694Y-289630854D01*
X192732697Y-289630852D01*
X192875884Y-289540881D01*
X192875885Y-289540880D01*
X192875890Y-289540877D01*
X192995477Y-289421290D01*
X193085452Y-289278097D01*
X193085454Y-289278094D01*
X193085454Y-289278092D01*
X193085456Y-289278090D01*
X193141313Y-289118459D01*
X193141313Y-289118458D01*
X193141314Y-289118456D01*
X193160249Y-288950402D01*
X193160249Y-288950397D01*
X193141314Y-288782343D01*
X193085454Y-288622705D01*
X193085452Y-288622702D01*
X192995481Y-288479515D01*
X192995476Y-288479509D01*
X192875890Y-288359923D01*
X192734291Y-288270950D01*
X192688000Y-288218615D01*
X192677352Y-288149561D01*
X192705727Y-288085713D01*
X192749297Y-288055794D01*
X192748247Y-288053612D01*
X192754516Y-288050592D01*
X192754519Y-288050589D01*
X192754522Y-288050589D01*
X192907262Y-287954616D01*
X193034816Y-287827062D01*
X193039505Y-287819599D01*
X193091835Y-287773306D01*
X193158382Y-287762346D01*
X193255651Y-287773306D01*
X193268599Y-287774765D01*
X193268600Y-287774765D01*
X193268604Y-287774765D01*
X193447849Y-287754569D01*
X193447852Y-287754568D01*
X193447855Y-287754568D01*
X193618122Y-287694989D01*
X193770862Y-287599016D01*
X193898416Y-287471462D01*
X193994389Y-287318722D01*
X194053968Y-287148455D01*
X194053969Y-287148449D01*
X194074165Y-286969203D01*
X194074165Y-286969196D01*
X194053969Y-286789950D01*
X194053968Y-286789945D01*
X194019435Y-286691255D01*
X193994389Y-286619678D01*
X193986751Y-286607523D01*
X193898415Y-286466937D01*
X193770862Y-286339384D01*
X193618123Y-286243411D01*
X193447854Y-286183831D01*
X193447849Y-286183830D01*
X193268604Y-286163635D01*
X193261636Y-286163635D01*
X193261636Y-286161980D01*
X193201282Y-286151398D01*
X193149911Y-286104039D01*
X193132299Y-286036426D01*
X193139199Y-285999287D01*
X193190366Y-285853062D01*
X193190369Y-285853049D01*
X193210565Y-285673803D01*
X193210565Y-285673796D01*
X193190369Y-285494550D01*
X193190368Y-285494545D01*
X193130788Y-285324276D01*
X193091582Y-285261880D01*
X193034816Y-285171538D01*
X192907262Y-285043984D01*
X192754523Y-284948011D01*
X192584254Y-284888431D01*
X192584249Y-284888430D01*
X192405004Y-284868235D01*
X192404996Y-284868235D01*
X192225750Y-284888430D01*
X192225745Y-284888431D01*
X192055476Y-284948011D01*
X191902737Y-285043984D01*
X191775184Y-285171537D01*
X191679211Y-285324276D01*
X191619631Y-285494545D01*
X191619630Y-285494550D01*
X191599435Y-285673796D01*
X189349543Y-285673796D01*
X189354458Y-285605066D01*
X189382959Y-285560719D01*
X189402616Y-285541062D01*
X189498589Y-285388322D01*
X189558168Y-285218055D01*
X189562124Y-285182943D01*
X189578365Y-285038803D01*
X189578365Y-285038796D01*
X189558169Y-284859550D01*
X189558168Y-284859545D01*
X189498588Y-284689275D01*
X189437941Y-284592758D01*
X189418940Y-284525521D01*
X189437940Y-284460813D01*
X189506299Y-284352022D01*
X189565878Y-284181755D01*
X189566001Y-284180665D01*
X189586075Y-284002503D01*
X189586075Y-284002496D01*
X189565879Y-283823250D01*
X189565878Y-283823245D01*
X189506298Y-283652975D01*
X189446854Y-283558372D01*
X189427853Y-283491135D01*
X189434804Y-283451449D01*
X189456568Y-283389255D01*
X189458163Y-283375100D01*
X189458163Y-283375096D01*
X190773935Y-283375096D01*
X190773935Y-283375103D01*
X190794130Y-283554349D01*
X190794131Y-283554354D01*
X190853711Y-283724623D01*
X190915683Y-283823250D01*
X190949684Y-283877362D01*
X191077238Y-284004916D01*
X191161627Y-284057941D01*
X191223737Y-284096968D01*
X191229978Y-284100889D01*
X191349081Y-284142565D01*
X191400245Y-284160468D01*
X191400250Y-284160469D01*
X191579496Y-284180665D01*
X191579500Y-284180665D01*
X191579504Y-284180665D01*
X191758749Y-284160469D01*
X191758752Y-284160468D01*
X191758755Y-284160468D01*
X191929022Y-284100889D01*
X192081762Y-284004916D01*
X192209316Y-283877362D01*
X192305289Y-283724622D01*
X192352372Y-283590064D01*
X192393092Y-283533291D01*
X192458045Y-283507543D01*
X192474236Y-283507708D01*
X192474236Y-283507565D01*
X192481203Y-283507565D01*
X192660449Y-283487369D01*
X192660452Y-283487368D01*
X192660455Y-283487368D01*
X192830722Y-283427789D01*
X192983462Y-283331816D01*
X193111016Y-283204262D01*
X193206989Y-283051522D01*
X193266568Y-282881255D01*
X193266569Y-282881249D01*
X193286765Y-282702003D01*
X193286765Y-282701996D01*
X193266569Y-282522750D01*
X193266568Y-282522745D01*
X193253084Y-282484211D01*
X193206989Y-282352478D01*
X193185782Y-282318728D01*
X193111015Y-282199737D01*
X192983462Y-282072184D01*
X192830723Y-281976211D01*
X192660454Y-281916631D01*
X192660449Y-281916630D01*
X192481204Y-281896435D01*
X192481196Y-281896435D01*
X192301950Y-281916630D01*
X192301945Y-281916631D01*
X192131676Y-281976211D01*
X191978937Y-282072184D01*
X191851384Y-282199737D01*
X191755409Y-282352480D01*
X191708327Y-282487033D01*
X191667606Y-282543809D01*
X191602653Y-282569556D01*
X191586463Y-282569391D01*
X191586463Y-282569535D01*
X191579496Y-282569535D01*
X191400250Y-282589730D01*
X191400245Y-282589731D01*
X191229976Y-282649311D01*
X191077237Y-282745284D01*
X190949684Y-282872837D01*
X190853711Y-283025576D01*
X190794131Y-283195845D01*
X190794130Y-283195850D01*
X190773935Y-283375096D01*
X189458163Y-283375096D01*
X189476765Y-283210003D01*
X189476765Y-283209996D01*
X189456569Y-283030750D01*
X189456568Y-283030745D01*
X189430248Y-282955527D01*
X189396989Y-282860478D01*
X189380815Y-282834738D01*
X189342218Y-282773310D01*
X189301016Y-282707738D01*
X189173462Y-282580184D01*
X189156285Y-282569391D01*
X189020723Y-282484211D01*
X188850454Y-282424631D01*
X188850449Y-282424630D01*
X188671204Y-282404435D01*
X188671196Y-282404435D01*
X188491950Y-282424630D01*
X188491945Y-282424631D01*
X188321676Y-282484211D01*
X188168937Y-282580184D01*
X188041384Y-282707737D01*
X187945411Y-282860476D01*
X187885831Y-283030745D01*
X187885830Y-283030750D01*
X187865635Y-283209996D01*
X181258345Y-283209996D01*
X181287970Y-283190024D01*
X181295811Y-283187815D01*
X181459825Y-283147390D01*
X181548219Y-283100997D01*
X181610449Y-283068336D01*
X181610450Y-283068334D01*
X181610452Y-283068334D01*
X181737783Y-282955529D01*
X181834418Y-282815530D01*
X181894740Y-282656472D01*
X181915245Y-282487600D01*
X181894740Y-282318728D01*
X181834418Y-282159670D01*
X181737783Y-282019671D01*
X181610452Y-281906866D01*
X181592409Y-281897396D01*
X181542197Y-281848812D01*
X181526222Y-281780794D01*
X181549557Y-281714936D01*
X181592409Y-281677803D01*
X181610452Y-281668334D01*
X181737783Y-281555529D01*
X181834418Y-281415530D01*
X181894740Y-281256472D01*
X181915245Y-281087600D01*
X181894740Y-280918728D01*
X181834418Y-280759670D01*
X181737783Y-280619671D01*
X181610452Y-280506866D01*
X181610449Y-280506863D01*
X181459826Y-280427810D01*
X181360315Y-280403283D01*
X181295835Y-280387390D01*
X181235456Y-280352235D01*
X181203667Y-280290016D01*
X181202416Y-280281949D01*
X181194740Y-280218728D01*
X181134418Y-280059670D01*
X181125314Y-280046481D01*
X181082986Y-279985158D01*
X181037783Y-279919671D01*
X180942916Y-279835626D01*
X180910449Y-279806863D01*
X180759826Y-279727810D01*
X180594656Y-279687100D01*
X180424544Y-279687100D01*
X180259373Y-279727810D01*
X180108750Y-279806863D01*
X180015095Y-279889835D01*
X179981417Y-279919671D01*
X179911648Y-280020746D01*
X179857367Y-280064736D01*
X179787918Y-280072395D01*
X179725353Y-280041291D01*
X179707552Y-280020748D01*
X179637783Y-279919671D01*
X179549564Y-279841516D01*
X179510449Y-279806863D01*
X179359826Y-279727810D01*
X179194656Y-279687100D01*
X179024544Y-279687100D01*
X178859373Y-279727810D01*
X178708750Y-279806863D01*
X178658409Y-279851462D01*
X178586164Y-279915466D01*
X178581416Y-279919672D01*
X178484782Y-280059668D01*
X178424460Y-280218725D01*
X178424459Y-280218730D01*
X178416784Y-280281942D01*
X178389162Y-280346119D01*
X178331227Y-280385175D01*
X178323363Y-280387391D01*
X178159373Y-280427810D01*
X178008750Y-280506863D01*
X177881416Y-280619672D01*
X177784782Y-280759668D01*
X177724460Y-280918725D01*
X177724459Y-280918730D01*
X177703955Y-281087600D01*
X168646693Y-281087600D01*
X168721389Y-280968722D01*
X168780968Y-280798455D01*
X168785338Y-280759670D01*
X168801165Y-280619203D01*
X168801165Y-280619196D01*
X168780969Y-280439950D01*
X168780968Y-280439945D01*
X168776722Y-280427810D01*
X168721389Y-280269678D01*
X168625416Y-280116938D01*
X168554959Y-280046481D01*
X168521474Y-279985158D01*
X168526458Y-279915466D01*
X168554959Y-279871119D01*
X168557842Y-279868234D01*
X168574616Y-279851462D01*
X168670589Y-279698722D01*
X168730168Y-279528455D01*
X168738315Y-279456147D01*
X168741780Y-279425396D01*
X187916435Y-279425396D01*
X187916435Y-279425403D01*
X187936630Y-279604649D01*
X187936631Y-279604654D01*
X187996211Y-279774923D01*
X188068416Y-279889835D01*
X188092184Y-279927662D01*
X188219738Y-280055216D01*
X188286679Y-280097278D01*
X188317961Y-280116934D01*
X188372478Y-280151189D01*
X188542745Y-280210768D01*
X188542750Y-280210769D01*
X188721996Y-280230965D01*
X188722000Y-280230965D01*
X188722004Y-280230965D01*
X188901249Y-280210769D01*
X188901252Y-280210768D01*
X188901255Y-280210768D01*
X189071522Y-280151189D01*
X189224262Y-280055216D01*
X189351816Y-279927662D01*
X189447789Y-279774922D01*
X189507368Y-279604655D01*
X189513963Y-279546123D01*
X189527565Y-279425403D01*
X189527565Y-279425396D01*
X189507369Y-279246150D01*
X189507368Y-279246145D01*
X189447788Y-279075876D01*
X189351815Y-278923137D01*
X189224262Y-278795584D01*
X189115070Y-278726974D01*
X189068779Y-278674639D01*
X189058131Y-278605585D01*
X189086506Y-278541737D01*
X189115070Y-278516986D01*
X189242127Y-278437151D01*
X189369681Y-278309597D01*
X189465654Y-278156857D01*
X189525233Y-277986590D01*
X189534995Y-277899950D01*
X189545430Y-277807338D01*
X189545430Y-277807331D01*
X189525234Y-277628085D01*
X189525233Y-277628080D01*
X189465653Y-277457811D01*
X189426447Y-277395415D01*
X189369681Y-277305073D01*
X189242127Y-277177519D01*
X189133298Y-277109137D01*
X189089388Y-277081546D01*
X188919119Y-277021966D01*
X188919114Y-277021965D01*
X188739869Y-277001770D01*
X188739861Y-277001770D01*
X188560615Y-277021965D01*
X188560610Y-277021966D01*
X188390341Y-277081546D01*
X188237602Y-277177519D01*
X188110049Y-277305072D01*
X188014076Y-277457811D01*
X187954496Y-277628080D01*
X187954495Y-277628085D01*
X187934300Y-277807331D01*
X187934300Y-277807338D01*
X187954495Y-277986584D01*
X187954496Y-277986589D01*
X188014076Y-278156858D01*
X188086166Y-278271588D01*
X188110049Y-278309597D01*
X188237603Y-278437151D01*
X188346794Y-278505760D01*
X188393085Y-278558095D01*
X188403733Y-278627148D01*
X188375358Y-278690997D01*
X188346795Y-278715747D01*
X188219740Y-278795582D01*
X188219737Y-278795584D01*
X188092184Y-278923137D01*
X187996211Y-279075876D01*
X187936631Y-279246145D01*
X187936630Y-279246150D01*
X187916435Y-279425396D01*
X168741780Y-279425396D01*
X168750365Y-279349203D01*
X168750365Y-279349196D01*
X168730169Y-279169950D01*
X168730168Y-279169945D01*
X168670589Y-278999678D01*
X168574616Y-278846938D01*
X168529558Y-278801880D01*
X168496074Y-278740558D01*
X168501058Y-278670866D01*
X168529559Y-278626519D01*
X168550493Y-278605585D01*
X168574616Y-278581462D01*
X168670589Y-278428722D01*
X168730168Y-278258455D01*
X168730778Y-278253040D01*
X168750365Y-278079203D01*
X168750365Y-278079196D01*
X168730169Y-277899950D01*
X168730168Y-277899945D01*
X168670588Y-277729676D01*
X168617613Y-277645367D01*
X168574616Y-277576938D01*
X168447062Y-277449384D01*
X168294323Y-277353411D01*
X168124054Y-277293831D01*
X168124049Y-277293830D01*
X167944804Y-277273635D01*
X167937836Y-277273635D01*
X167937836Y-277271602D01*
X167878795Y-277261249D01*
X167827425Y-277213889D01*
X167809814Y-277146276D01*
X167816712Y-277109144D01*
X167841168Y-277039255D01*
X167845392Y-277001770D01*
X167861365Y-276860003D01*
X167861365Y-276859996D01*
X167841169Y-276680750D01*
X167841168Y-276680745D01*
X167781588Y-276510475D01*
X167723464Y-276417973D01*
X167704463Y-276350736D01*
X167723464Y-276286027D01*
X167781588Y-276193524D01*
X167841168Y-276023254D01*
X167841169Y-276023249D01*
X167861365Y-275844003D01*
X167861365Y-275843996D01*
X167841169Y-275664750D01*
X167841168Y-275664745D01*
X167781588Y-275494475D01*
X167726723Y-275407160D01*
X167707722Y-275339923D01*
X167726723Y-275275215D01*
X167756189Y-275228322D01*
X167815768Y-275058055D01*
X167815769Y-275058049D01*
X167835965Y-274878803D01*
X167835965Y-274878796D01*
X167815769Y-274699550D01*
X167815768Y-274699545D01*
X167756188Y-274529276D01*
X167660215Y-274376537D01*
X167532662Y-274248984D01*
X167379923Y-274153011D01*
X167209654Y-274093431D01*
X167209649Y-274093430D01*
X167030404Y-274073235D01*
X167030396Y-274073235D01*
X166851150Y-274093430D01*
X166851145Y-274093431D01*
X166680876Y-274153011D01*
X166528137Y-274248984D01*
X166400584Y-274376537D01*
X166304611Y-274529276D01*
X166245031Y-274699545D01*
X166245030Y-274699550D01*
X166224835Y-274878796D01*
X166224835Y-274878803D01*
X166245030Y-275058049D01*
X166245031Y-275058054D01*
X166304611Y-275228323D01*
X166359476Y-275315639D01*
X166378476Y-275382875D01*
X166359477Y-275447581D01*
X166330009Y-275494480D01*
X166270433Y-275664737D01*
X166270430Y-275664750D01*
X166250235Y-275843996D01*
X166250235Y-275844003D01*
X166270430Y-276023249D01*
X166270431Y-276023254D01*
X166330011Y-276193523D01*
X166388136Y-276286028D01*
X166407136Y-276353265D01*
X166388136Y-276417972D01*
X166330010Y-276510478D01*
X166270428Y-276680757D01*
X166269389Y-276685308D01*
X166235272Y-276746282D01*
X166173606Y-276779131D01*
X166107547Y-276774740D01*
X166066662Y-276760433D01*
X166066649Y-276760430D01*
X165887404Y-276740235D01*
X165887396Y-276740235D01*
X165708150Y-276760430D01*
X165708137Y-276760433D01*
X165537878Y-276820010D01*
X165521568Y-276830258D01*
X165454331Y-276849256D01*
X165389632Y-276830258D01*
X165373321Y-276820010D01*
X165203062Y-276760433D01*
X165203049Y-276760430D01*
X165023804Y-276740235D01*
X165023796Y-276740235D01*
X164844550Y-276760430D01*
X164844537Y-276760433D01*
X164674278Y-276820010D01*
X164660984Y-276828363D01*
X164593747Y-276847361D01*
X164529043Y-276828360D01*
X164499524Y-276809811D01*
X164329254Y-276750231D01*
X164329249Y-276750230D01*
X164150004Y-276730035D01*
X164149996Y-276730035D01*
X163970750Y-276750230D01*
X163970745Y-276750231D01*
X163800476Y-276809811D01*
X163647737Y-276905784D01*
X163520184Y-277033337D01*
X163424211Y-277186076D01*
X163364631Y-277356345D01*
X163364630Y-277356350D01*
X163344435Y-277535596D01*
X160285114Y-277535596D01*
X160275643Y-272999196D01*
X188119635Y-272999196D01*
X188119635Y-272999203D01*
X188139830Y-273178449D01*
X188139831Y-273178454D01*
X188199411Y-273348723D01*
X188295384Y-273501462D01*
X188295385Y-273501463D01*
X188340441Y-273546520D01*
X188373925Y-273607843D01*
X188368940Y-273677535D01*
X188340441Y-273721880D01*
X188295384Y-273766937D01*
X188199411Y-273919676D01*
X188139831Y-274089945D01*
X188139830Y-274089950D01*
X188119635Y-274269196D01*
X188119635Y-274269203D01*
X188139830Y-274448449D01*
X188139831Y-274448454D01*
X188199411Y-274618723D01*
X188295384Y-274771462D01*
X188391332Y-274867410D01*
X188424817Y-274928733D01*
X188419833Y-274998425D01*
X188400608Y-275032392D01*
X188396986Y-275036933D01*
X188301011Y-275189676D01*
X188241431Y-275359945D01*
X188241430Y-275359950D01*
X188221235Y-275539196D01*
X188221235Y-275539203D01*
X188241430Y-275718449D01*
X188241431Y-275718454D01*
X188301011Y-275888723D01*
X188385540Y-276023249D01*
X188396984Y-276041462D01*
X188524538Y-276169016D01*
X188677278Y-276264989D01*
X188847545Y-276324568D01*
X188847550Y-276324569D01*
X189026796Y-276344765D01*
X189026800Y-276344765D01*
X189026804Y-276344765D01*
X189206049Y-276324569D01*
X189206052Y-276324568D01*
X189206055Y-276324568D01*
X189376322Y-276264989D01*
X189529062Y-276169016D01*
X189656616Y-276041462D01*
X189752589Y-275888722D01*
X189812168Y-275718455D01*
X189818221Y-275664737D01*
X189832365Y-275539203D01*
X189832365Y-275539196D01*
X189812169Y-275359950D01*
X189812168Y-275359945D01*
X189792370Y-275303365D01*
X189752589Y-275189678D01*
X189656616Y-275036938D01*
X189560667Y-274940989D01*
X189527182Y-274879666D01*
X189532166Y-274809974D01*
X189551400Y-274775996D01*
X189555007Y-274771470D01*
X189555016Y-274771462D01*
X189650989Y-274618722D01*
X189710568Y-274448455D01*
X189718671Y-274376537D01*
X189730765Y-274269203D01*
X189730765Y-274269196D01*
X189710569Y-274089950D01*
X189710568Y-274089945D01*
X189704721Y-274073235D01*
X189650989Y-273919678D01*
X189618507Y-273867984D01*
X189611782Y-273857280D01*
X189555016Y-273766938D01*
X189509958Y-273721880D01*
X189476474Y-273660558D01*
X189481458Y-273590866D01*
X189509959Y-273546519D01*
X189555016Y-273501462D01*
X189650989Y-273348722D01*
X189710568Y-273178455D01*
X189730765Y-272999200D01*
X189710568Y-272819945D01*
X189650989Y-272649678D01*
X189555016Y-272496938D01*
X189427462Y-272369384D01*
X189274723Y-272273411D01*
X189104454Y-272213831D01*
X189104449Y-272213830D01*
X188925204Y-272193635D01*
X188925196Y-272193635D01*
X188745950Y-272213830D01*
X188745945Y-272213831D01*
X188575676Y-272273411D01*
X188422937Y-272369384D01*
X188295384Y-272496937D01*
X188199411Y-272649676D01*
X188139831Y-272819945D01*
X188139830Y-272819950D01*
X188119635Y-272999196D01*
X160275643Y-272999196D01*
X160274259Y-272336057D01*
X160293804Y-272268978D01*
X160346512Y-272223113D01*
X160398259Y-272211800D01*
X168884600Y-272211800D01*
X168884600Y-264860840D01*
X168904285Y-264793801D01*
X168920919Y-264773159D01*
X168943800Y-264750278D01*
X168968316Y-264725762D01*
X169064289Y-264573022D01*
X169123868Y-264402755D01*
X169127107Y-264374011D01*
X169144065Y-264223503D01*
X169144065Y-264223496D01*
X169123869Y-264044250D01*
X169123868Y-264044245D01*
X169102667Y-263983655D01*
X169064289Y-263873978D01*
X168968316Y-263721238D01*
X168920919Y-263673841D01*
X168887434Y-263612518D01*
X168884600Y-263586160D01*
X168884600Y-257198840D01*
X168904285Y-257131801D01*
X168957089Y-257086046D01*
X169022483Y-257075620D01*
X169060583Y-257079912D01*
X169163997Y-257091565D01*
X169164000Y-257091565D01*
X169164004Y-257091565D01*
X169343249Y-257071369D01*
X169343252Y-257071368D01*
X169343255Y-257071368D01*
X169513522Y-257011789D01*
X169666262Y-256915816D01*
X169793816Y-256788262D01*
X169889789Y-256635522D01*
X169949368Y-256465255D01*
X169951176Y-256449211D01*
X169969565Y-256286003D01*
X169969565Y-256285996D01*
X169949369Y-256106750D01*
X169949368Y-256106745D01*
X169889788Y-255936476D01*
X169793815Y-255783737D01*
X169666262Y-255656184D01*
X169513523Y-255560211D01*
X169343254Y-255500631D01*
X169343249Y-255500630D01*
X169164004Y-255480435D01*
X169163996Y-255480435D01*
X169022483Y-255496379D01*
X168953661Y-255484324D01*
X168902282Y-255436975D01*
X168884600Y-255373159D01*
X168884600Y-250444000D01*
X163877800Y-250444000D01*
X163810761Y-250424315D01*
X163765006Y-250371511D01*
X163753800Y-250320000D01*
X163753800Y-247766640D01*
X163773485Y-247699601D01*
X163790119Y-247678959D01*
X163824816Y-247644262D01*
X163920789Y-247491522D01*
X163980368Y-247321255D01*
X163982176Y-247305211D01*
X164000565Y-247142003D01*
X164000565Y-247141996D01*
X163980369Y-246962750D01*
X163980368Y-246962745D01*
X163920788Y-246792476D01*
X163848584Y-246677565D01*
X163824816Y-246639738D01*
X163790119Y-246605041D01*
X163756634Y-246543718D01*
X163753800Y-246517360D01*
X163753800Y-245516396D01*
X166428035Y-245516396D01*
X166428035Y-245516403D01*
X166448230Y-245695649D01*
X166448231Y-245695654D01*
X166507811Y-245865923D01*
X166603784Y-246018662D01*
X166648840Y-246063718D01*
X166682325Y-246125041D01*
X166677341Y-246194733D01*
X166648842Y-246239078D01*
X166629186Y-246258734D01*
X166533211Y-246411476D01*
X166473631Y-246581745D01*
X166473630Y-246581750D01*
X166453435Y-246760996D01*
X166453435Y-246761003D01*
X166473630Y-246940249D01*
X166473631Y-246940254D01*
X166533211Y-247110523D01*
X166618106Y-247245632D01*
X166629184Y-247263262D01*
X166756738Y-247390816D01*
X166895392Y-247477938D01*
X166909480Y-247486790D01*
X166980629Y-247511687D01*
X167037405Y-247552408D01*
X167063152Y-247617361D01*
X167049696Y-247685923D01*
X167001308Y-247736325D01*
X166980629Y-247745769D01*
X166896780Y-247775109D01*
X166744037Y-247871084D01*
X166616484Y-247998637D01*
X166520511Y-248151376D01*
X166460931Y-248321645D01*
X166460930Y-248321650D01*
X166440735Y-248500896D01*
X166440735Y-248500903D01*
X166460930Y-248680149D01*
X166460931Y-248680154D01*
X166520511Y-248850423D01*
X166615367Y-249001384D01*
X166616484Y-249003162D01*
X166744038Y-249130716D01*
X166774816Y-249150055D01*
X166845097Y-249194216D01*
X166896778Y-249226689D01*
X167053928Y-249281678D01*
X167067045Y-249286268D01*
X167067050Y-249286269D01*
X167246296Y-249306465D01*
X167246300Y-249306465D01*
X167246304Y-249306465D01*
X167425549Y-249286269D01*
X167425552Y-249286268D01*
X167425555Y-249286268D01*
X167595822Y-249226689D01*
X167748562Y-249130716D01*
X167876116Y-249003162D01*
X167972089Y-248850422D01*
X168031668Y-248680155D01*
X168039571Y-248610016D01*
X168051865Y-248500903D01*
X168051865Y-248500896D01*
X168031669Y-248321650D01*
X168031668Y-248321645D01*
X168011827Y-248264944D01*
X167972089Y-248151378D01*
X167876116Y-247998638D01*
X167748562Y-247871084D01*
X167696882Y-247838611D01*
X167595820Y-247775109D01*
X167524669Y-247750212D01*
X167467894Y-247709490D01*
X167442147Y-247644537D01*
X167455604Y-247575975D01*
X167503992Y-247525573D01*
X167524668Y-247516130D01*
X167571728Y-247499663D01*
X167608520Y-247486790D01*
X167622608Y-247477938D01*
X167761262Y-247390816D01*
X167888816Y-247263262D01*
X167984789Y-247110522D01*
X168044368Y-246940255D01*
X168054336Y-246851789D01*
X168064565Y-246761003D01*
X168064565Y-246760996D01*
X168044369Y-246581750D01*
X168044368Y-246581745D01*
X168021839Y-246517360D01*
X167984789Y-246411478D01*
X167888816Y-246258738D01*
X167843759Y-246213681D01*
X167810274Y-246152358D01*
X167815258Y-246082666D01*
X167843761Y-246038317D01*
X167846774Y-246035303D01*
X167863416Y-246018662D01*
X167959389Y-245865922D01*
X168018968Y-245695655D01*
X168027071Y-245623738D01*
X168039165Y-245516403D01*
X168039165Y-245516396D01*
X168018969Y-245337150D01*
X168018968Y-245337145D01*
X167959388Y-245166876D01*
X167863415Y-245014137D01*
X167735862Y-244886584D01*
X167583123Y-244790611D01*
X167412854Y-244731031D01*
X167412849Y-244731030D01*
X167233604Y-244710835D01*
X167233596Y-244710835D01*
X167054350Y-244731030D01*
X167054345Y-244731031D01*
X166884076Y-244790611D01*
X166731337Y-244886584D01*
X166603784Y-245014137D01*
X166507811Y-245166876D01*
X166448231Y-245337145D01*
X166448230Y-245337150D01*
X166428035Y-245516396D01*
X163753800Y-245516396D01*
X163753800Y-243938600D01*
X163773485Y-243871561D01*
X163826289Y-243825806D01*
X163877800Y-243814600D01*
X164348360Y-243814600D01*
X164415399Y-243834285D01*
X164436041Y-243850919D01*
X164470738Y-243885616D01*
X164623478Y-243981589D01*
X164719790Y-244015290D01*
X164793745Y-244041168D01*
X164793750Y-244041169D01*
X164972996Y-244061365D01*
X164973000Y-244061365D01*
X164973004Y-244061365D01*
X165152249Y-244041169D01*
X165152252Y-244041168D01*
X165152255Y-244041168D01*
X165322522Y-243981589D01*
X165475262Y-243885616D01*
X165509959Y-243850919D01*
X165571282Y-243817434D01*
X165597640Y-243814600D01*
X168503600Y-243814600D01*
X168503600Y-228600000D01*
X166722600Y-228600000D01*
X166655561Y-228580315D01*
X166609806Y-228527511D01*
X166598600Y-228476000D01*
X166598600Y-227123800D01*
X166618285Y-227056761D01*
X166671089Y-227011006D01*
X166722600Y-226999800D01*
X167699112Y-226999800D01*
X167765085Y-227018807D01*
G37*
G04 #@! TD.AperFunction*
G04 #@! TA.AperFunction,Conductor*
G36*
X199425936Y-216467325D02*
G01*
X199715996Y-216484870D01*
X199730859Y-216486675D01*
X200012998Y-216538379D01*
X200027535Y-216541962D01*
X200301372Y-216627294D01*
X200315363Y-216632599D01*
X200576943Y-216750326D01*
X200590189Y-216757279D01*
X200835660Y-216905671D01*
X200847976Y-216914172D01*
X200847983Y-216914177D01*
X201073773Y-217091072D01*
X201084981Y-217101002D01*
X201287796Y-217303817D01*
X201297726Y-217315025D01*
X201474625Y-217540819D01*
X201483127Y-217553136D01*
X201623834Y-217785894D01*
X201631517Y-217798603D01*
X201638476Y-217811862D01*
X201756198Y-218073430D01*
X201761507Y-218087431D01*
X201846836Y-218361263D01*
X201850420Y-218375801D01*
X201902124Y-218657939D01*
X201903929Y-218672804D01*
X201921474Y-218962845D01*
X201921700Y-218970332D01*
X201921700Y-227985991D01*
X201902015Y-228053030D01*
X201849211Y-228098785D01*
X201780053Y-228108729D01*
X201721538Y-228083845D01*
X201692009Y-228060862D01*
X201587509Y-227979526D01*
X201455566Y-227908122D01*
X201368811Y-227861172D01*
X201368802Y-227861169D01*
X201133616Y-227780429D01*
X200888335Y-227739500D01*
X200639665Y-227739500D01*
X200394383Y-227780429D01*
X200159197Y-227861169D01*
X200159188Y-227861172D01*
X199940493Y-227979524D01*
X199744257Y-228132261D01*
X199575833Y-228315217D01*
X199439826Y-228523393D01*
X199339936Y-228751118D01*
X199278892Y-228992175D01*
X199278890Y-228992187D01*
X199258357Y-229239994D01*
X199258357Y-229240005D01*
X199278890Y-229487812D01*
X199278892Y-229487824D01*
X199339936Y-229728881D01*
X199437607Y-229951547D01*
X199439827Y-229956607D01*
X199570742Y-230156988D01*
X199590929Y-230223877D01*
X199571749Y-230291063D01*
X199526367Y-230333637D01*
X199521670Y-230336201D01*
X199406455Y-230422452D01*
X199406452Y-230422455D01*
X199320206Y-230537664D01*
X199320202Y-230537671D01*
X199269908Y-230672517D01*
X199263501Y-230732116D01*
X199263500Y-230732135D01*
X199263500Y-232827870D01*
X199263501Y-232827876D01*
X199269908Y-232887483D01*
X199320202Y-233022328D01*
X199320206Y-233022335D01*
X199406452Y-233137544D01*
X199406455Y-233137547D01*
X199521664Y-233223793D01*
X199521671Y-233223797D01*
X199656517Y-233274091D01*
X199656516Y-233274091D01*
X199663444Y-233274835D01*
X199716127Y-233280500D01*
X201797700Y-233280499D01*
X201864739Y-233300184D01*
X201910494Y-233352987D01*
X201921700Y-233404499D01*
X201921700Y-235986991D01*
X201902015Y-236054030D01*
X201849211Y-236099785D01*
X201780053Y-236109729D01*
X201721538Y-236084845D01*
X201714564Y-236079417D01*
X201587509Y-235980526D01*
X201466797Y-235915200D01*
X201368811Y-235862172D01*
X201368802Y-235862169D01*
X201133616Y-235781429D01*
X200888335Y-235740500D01*
X200639665Y-235740500D01*
X200394383Y-235781429D01*
X200159197Y-235862169D01*
X200159188Y-235862172D01*
X199940493Y-235980524D01*
X199744257Y-236133261D01*
X199575833Y-236316217D01*
X199439826Y-236524393D01*
X199339936Y-236752118D01*
X199278892Y-236993175D01*
X199278890Y-236993187D01*
X199258357Y-237240994D01*
X199258357Y-237241005D01*
X199278890Y-237488812D01*
X199278892Y-237488824D01*
X199339936Y-237729881D01*
X199415644Y-237902476D01*
X199439827Y-237957607D01*
X199570742Y-238157988D01*
X199590929Y-238224877D01*
X199571749Y-238292063D01*
X199526367Y-238334637D01*
X199521670Y-238337201D01*
X199406455Y-238423452D01*
X199406452Y-238423455D01*
X199320206Y-238538664D01*
X199320202Y-238538671D01*
X199269908Y-238673517D01*
X199263501Y-238733116D01*
X199263500Y-238733135D01*
X199263500Y-240828870D01*
X199263501Y-240828876D01*
X199269908Y-240888483D01*
X199320202Y-241023328D01*
X199320206Y-241023335D01*
X199406452Y-241138544D01*
X199406455Y-241138547D01*
X199521664Y-241224793D01*
X199521671Y-241224797D01*
X199656517Y-241275091D01*
X199656516Y-241275091D01*
X199663444Y-241275835D01*
X199716127Y-241281500D01*
X201797700Y-241281499D01*
X201864739Y-241301184D01*
X201910494Y-241353987D01*
X201921700Y-241405499D01*
X201921700Y-243606991D01*
X201902015Y-243674030D01*
X201849211Y-243719785D01*
X201780053Y-243729729D01*
X201721538Y-243704845D01*
X201699384Y-243687602D01*
X201587509Y-243600526D01*
X201437862Y-243519541D01*
X201368811Y-243482172D01*
X201368802Y-243482169D01*
X201133616Y-243401429D01*
X200888335Y-243360500D01*
X200639665Y-243360500D01*
X200394383Y-243401429D01*
X200159197Y-243482169D01*
X200159188Y-243482172D01*
X199940493Y-243600524D01*
X199744257Y-243753261D01*
X199575833Y-243936217D01*
X199439826Y-244144393D01*
X199339936Y-244372118D01*
X199278892Y-244613175D01*
X199278890Y-244613187D01*
X199258357Y-244860994D01*
X199258357Y-244861005D01*
X199278890Y-245108812D01*
X199278892Y-245108824D01*
X199339936Y-245349881D01*
X199406974Y-245502710D01*
X199439827Y-245577607D01*
X199570742Y-245777988D01*
X199590929Y-245844877D01*
X199571749Y-245912063D01*
X199526367Y-245954637D01*
X199521670Y-245957201D01*
X199406455Y-246043452D01*
X199406452Y-246043455D01*
X199320206Y-246158664D01*
X199320202Y-246158671D01*
X199269908Y-246293517D01*
X199263501Y-246353116D01*
X199263500Y-246353135D01*
X199263500Y-248448870D01*
X199263501Y-248448876D01*
X199269908Y-248508483D01*
X199320202Y-248643328D01*
X199320206Y-248643335D01*
X199406452Y-248758544D01*
X199406455Y-248758547D01*
X199521664Y-248844793D01*
X199521671Y-248844797D01*
X199656517Y-248895091D01*
X199656516Y-248895091D01*
X199663444Y-248895835D01*
X199716127Y-248901500D01*
X201797700Y-248901499D01*
X201864739Y-248921184D01*
X201910494Y-248973987D01*
X201921700Y-249025499D01*
X201921700Y-250972991D01*
X201902015Y-251040030D01*
X201849211Y-251085785D01*
X201780053Y-251095729D01*
X201721538Y-251070845D01*
X201706624Y-251059237D01*
X201587509Y-250966526D01*
X201446820Y-250890389D01*
X201368811Y-250848172D01*
X201368802Y-250848169D01*
X201133616Y-250767429D01*
X200888335Y-250726500D01*
X200639665Y-250726500D01*
X200394383Y-250767429D01*
X200159197Y-250848169D01*
X200159188Y-250848172D01*
X199940493Y-250966524D01*
X199744257Y-251119261D01*
X199575833Y-251302217D01*
X199439826Y-251510393D01*
X199339936Y-251738118D01*
X199278892Y-251979175D01*
X199278890Y-251979187D01*
X199258357Y-252226994D01*
X199258357Y-252227005D01*
X199278890Y-252474812D01*
X199278892Y-252474824D01*
X199339936Y-252715881D01*
X199424122Y-252907803D01*
X199439827Y-252943607D01*
X199570742Y-253143988D01*
X199590929Y-253210877D01*
X199571749Y-253278063D01*
X199526367Y-253320637D01*
X199521670Y-253323201D01*
X199406455Y-253409452D01*
X199406452Y-253409455D01*
X199320206Y-253524664D01*
X199320202Y-253524671D01*
X199269908Y-253659517D01*
X199263501Y-253719116D01*
X199263500Y-253719135D01*
X199263500Y-255814870D01*
X199263501Y-255814876D01*
X199269908Y-255874483D01*
X199320202Y-256009328D01*
X199320206Y-256009335D01*
X199406452Y-256124544D01*
X199406455Y-256124547D01*
X199521664Y-256210793D01*
X199521671Y-256210797D01*
X199656517Y-256261091D01*
X199656516Y-256261091D01*
X199663444Y-256261835D01*
X199716127Y-256267500D01*
X201797700Y-256267499D01*
X201864739Y-256287184D01*
X201910494Y-256339987D01*
X201921700Y-256391499D01*
X201921700Y-258338991D01*
X201902015Y-258406030D01*
X201849211Y-258451785D01*
X201780053Y-258461729D01*
X201721538Y-258436845D01*
X201714564Y-258431417D01*
X201587509Y-258332526D01*
X201424408Y-258244260D01*
X201368811Y-258214172D01*
X201368802Y-258214169D01*
X201133616Y-258133429D01*
X200888335Y-258092500D01*
X200639665Y-258092500D01*
X200394383Y-258133429D01*
X200159197Y-258214169D01*
X200159188Y-258214172D01*
X199940493Y-258332524D01*
X199744257Y-258485261D01*
X199575833Y-258668217D01*
X199439826Y-258876393D01*
X199339936Y-259104118D01*
X199278892Y-259345175D01*
X199278891Y-259345184D01*
X199258357Y-259592994D01*
X199258357Y-259593005D01*
X199278890Y-259840812D01*
X199278892Y-259840824D01*
X199339936Y-260081881D01*
X199388030Y-260191523D01*
X199439827Y-260309607D01*
X199570742Y-260509988D01*
X199590929Y-260576877D01*
X199571749Y-260644063D01*
X199526367Y-260686637D01*
X199521670Y-260689201D01*
X199406455Y-260775452D01*
X199406452Y-260775455D01*
X199320206Y-260890664D01*
X199320202Y-260890671D01*
X199269908Y-261025517D01*
X199263501Y-261085116D01*
X199263500Y-261085135D01*
X199263500Y-263180870D01*
X199263501Y-263180876D01*
X199269908Y-263240483D01*
X199320202Y-263375328D01*
X199320206Y-263375335D01*
X199406452Y-263490544D01*
X199406455Y-263490547D01*
X199521664Y-263576793D01*
X199521671Y-263576797D01*
X199656517Y-263627091D01*
X199656516Y-263627091D01*
X199663444Y-263627835D01*
X199716127Y-263633500D01*
X201797700Y-263633499D01*
X201864739Y-263653184D01*
X201910494Y-263705987D01*
X201921700Y-263757499D01*
X201921700Y-265699991D01*
X201902015Y-265767030D01*
X201849211Y-265812785D01*
X201780053Y-265822729D01*
X201721538Y-265797845D01*
X201714564Y-265792417D01*
X201587509Y-265693526D01*
X201449078Y-265618611D01*
X201368811Y-265575172D01*
X201368802Y-265575169D01*
X201133616Y-265494429D01*
X200888335Y-265453500D01*
X200639665Y-265453500D01*
X200394383Y-265494429D01*
X200159197Y-265575169D01*
X200159188Y-265575172D01*
X199940493Y-265693524D01*
X199744257Y-265846261D01*
X199575833Y-266029217D01*
X199439826Y-266237393D01*
X199339936Y-266465118D01*
X199278892Y-266706175D01*
X199278890Y-266706187D01*
X199258357Y-266953994D01*
X199258357Y-266954005D01*
X199278890Y-267201812D01*
X199278892Y-267201824D01*
X199339936Y-267442881D01*
X199439826Y-267670606D01*
X199575833Y-267878782D01*
X199575836Y-267878785D01*
X199744256Y-268061738D01*
X199827008Y-268126147D01*
X199867821Y-268182857D01*
X199871496Y-268252630D01*
X199836864Y-268313313D01*
X199827014Y-268321848D01*
X199768400Y-268367469D01*
X199744257Y-268386261D01*
X199575833Y-268569217D01*
X199439826Y-268777393D01*
X199339936Y-269005118D01*
X199278892Y-269246175D01*
X199278890Y-269246187D01*
X199258357Y-269493994D01*
X199258357Y-269494005D01*
X199278890Y-269741812D01*
X199278892Y-269741824D01*
X199339936Y-269982881D01*
X199439825Y-270210603D01*
X199439827Y-270210607D01*
X199570742Y-270410988D01*
X199590929Y-270477877D01*
X199571749Y-270545063D01*
X199526367Y-270587637D01*
X199521670Y-270590201D01*
X199406455Y-270676452D01*
X199406452Y-270676455D01*
X199320206Y-270791664D01*
X199320202Y-270791671D01*
X199269908Y-270926517D01*
X199263501Y-270986116D01*
X199263500Y-270986135D01*
X199263500Y-273081870D01*
X199263501Y-273081876D01*
X199269908Y-273141483D01*
X199320202Y-273276328D01*
X199320206Y-273276335D01*
X199406452Y-273391544D01*
X199406455Y-273391547D01*
X199521664Y-273477793D01*
X199521671Y-273477797D01*
X199656517Y-273528091D01*
X199656516Y-273528091D01*
X199663444Y-273528835D01*
X199716127Y-273534500D01*
X201797700Y-273534499D01*
X201864739Y-273554184D01*
X201910494Y-273606987D01*
X201921700Y-273658499D01*
X201921700Y-278285400D01*
X201902015Y-278352439D01*
X201849211Y-278398194D01*
X201797700Y-278409400D01*
X196694600Y-278409400D01*
X196627561Y-278389715D01*
X196581806Y-278336911D01*
X196570600Y-278285400D01*
X196570600Y-274421596D01*
X197060435Y-274421596D01*
X197060435Y-274421603D01*
X197080630Y-274600849D01*
X197080631Y-274600854D01*
X197140211Y-274771123D01*
X197220572Y-274899016D01*
X197236184Y-274923862D01*
X197363738Y-275051416D01*
X197516478Y-275147389D01*
X197568471Y-275165582D01*
X197686745Y-275206968D01*
X197686750Y-275206969D01*
X197865996Y-275227165D01*
X197866000Y-275227165D01*
X197866004Y-275227165D01*
X198045249Y-275206969D01*
X198045252Y-275206968D01*
X198045255Y-275206968D01*
X198215522Y-275147389D01*
X198368262Y-275051416D01*
X198495816Y-274923862D01*
X198591789Y-274771122D01*
X198651368Y-274600855D01*
X198659433Y-274529278D01*
X198671565Y-274421603D01*
X198671565Y-274421596D01*
X198651369Y-274242350D01*
X198651368Y-274242345D01*
X198620109Y-274153011D01*
X198591789Y-274072078D01*
X198495816Y-273919338D01*
X198368262Y-273791784D01*
X198215523Y-273695811D01*
X198045254Y-273636231D01*
X198045249Y-273636230D01*
X197866004Y-273616035D01*
X197865996Y-273616035D01*
X197686750Y-273636230D01*
X197686745Y-273636231D01*
X197516476Y-273695811D01*
X197363737Y-273791784D01*
X197236184Y-273919337D01*
X197140211Y-274072076D01*
X197080631Y-274242345D01*
X197080630Y-274242350D01*
X197060435Y-274421596D01*
X196570600Y-274421596D01*
X196570600Y-273075400D01*
X192554400Y-273075400D01*
X192487361Y-273055715D01*
X192441606Y-273002911D01*
X192430400Y-272951400D01*
X192430400Y-272033996D01*
X196628635Y-272033996D01*
X196628635Y-272034003D01*
X196648830Y-272213249D01*
X196648831Y-272213254D01*
X196708411Y-272383523D01*
X196747755Y-272446138D01*
X196804384Y-272536262D01*
X196931938Y-272663816D01*
X197084678Y-272759789D01*
X197254945Y-272819368D01*
X197254950Y-272819369D01*
X197434196Y-272839565D01*
X197434200Y-272839565D01*
X197434204Y-272839565D01*
X197613449Y-272819369D01*
X197613452Y-272819368D01*
X197613455Y-272819368D01*
X197783722Y-272759789D01*
X197936462Y-272663816D01*
X198064016Y-272536262D01*
X198159989Y-272383522D01*
X198219568Y-272213255D01*
X198225227Y-272163032D01*
X198239765Y-272034003D01*
X198239765Y-272033996D01*
X198219569Y-271854750D01*
X198219568Y-271854745D01*
X198200487Y-271800216D01*
X198159989Y-271684478D01*
X198064016Y-271531738D01*
X197936462Y-271404184D01*
X197783723Y-271308211D01*
X197613454Y-271248631D01*
X197613449Y-271248630D01*
X197434204Y-271228435D01*
X197434196Y-271228435D01*
X197254950Y-271248630D01*
X197254945Y-271248631D01*
X197084676Y-271308211D01*
X196931937Y-271404184D01*
X196804384Y-271531737D01*
X196708411Y-271684476D01*
X196648831Y-271854745D01*
X196648830Y-271854750D01*
X196628635Y-272033996D01*
X192430400Y-272033996D01*
X192430400Y-268147800D01*
X173961674Y-268147800D01*
X173894635Y-268128115D01*
X173848880Y-268075311D01*
X173837674Y-268023726D01*
X173838208Y-267129768D01*
X173838677Y-266344396D01*
X183700035Y-266344396D01*
X183700035Y-266344403D01*
X183720230Y-266523649D01*
X183720231Y-266523654D01*
X183779811Y-266693923D01*
X183875784Y-266846662D01*
X184003338Y-266974216D01*
X184156078Y-267070189D01*
X184326345Y-267129768D01*
X184326350Y-267129769D01*
X184505596Y-267149965D01*
X184505600Y-267149965D01*
X184505604Y-267149965D01*
X184684849Y-267129769D01*
X184684852Y-267129768D01*
X184684855Y-267129768D01*
X184855122Y-267070189D01*
X185007862Y-266974216D01*
X185135416Y-266846662D01*
X185231389Y-266693922D01*
X185290968Y-266523655D01*
X185290969Y-266523649D01*
X185311165Y-266344403D01*
X185311165Y-266344396D01*
X185290969Y-266165150D01*
X185290968Y-266165145D01*
X185231389Y-265994878D01*
X185135416Y-265842138D01*
X185007862Y-265714584D01*
X184855123Y-265618611D01*
X184684854Y-265559031D01*
X184684849Y-265559030D01*
X184505604Y-265538835D01*
X184505596Y-265538835D01*
X184326350Y-265559030D01*
X184326345Y-265559031D01*
X184156076Y-265618611D01*
X184003337Y-265714584D01*
X183875784Y-265842137D01*
X183779811Y-265994876D01*
X183720231Y-266165145D01*
X183720230Y-266165150D01*
X183700035Y-266344396D01*
X173838677Y-266344396D01*
X173839702Y-264628261D01*
X173859426Y-264561239D01*
X173912257Y-264515516D01*
X173981421Y-264505614D01*
X174044960Y-264534677D01*
X174051382Y-264540660D01*
X174122738Y-264612016D01*
X174275478Y-264707989D01*
X174371810Y-264741697D01*
X174445745Y-264767568D01*
X174445750Y-264767569D01*
X174624996Y-264787765D01*
X174625000Y-264787765D01*
X174625004Y-264787765D01*
X174804249Y-264767569D01*
X174804252Y-264767568D01*
X174804255Y-264767568D01*
X174974522Y-264707989D01*
X175127262Y-264612016D01*
X175254816Y-264484462D01*
X175350789Y-264331722D01*
X175410368Y-264161455D01*
X175418835Y-264086310D01*
X175430565Y-263982203D01*
X175430565Y-263982196D01*
X175410369Y-263802950D01*
X175410368Y-263802945D01*
X175394466Y-263757499D01*
X175350789Y-263632678D01*
X175347278Y-263627091D01*
X175294544Y-263543165D01*
X175254816Y-263479938D01*
X175127262Y-263352384D01*
X175096788Y-263333236D01*
X174974523Y-263256411D01*
X174804254Y-263196831D01*
X174804249Y-263196830D01*
X174625004Y-263176635D01*
X174624996Y-263176635D01*
X174445750Y-263196830D01*
X174445745Y-263196831D01*
X174275476Y-263256411D01*
X174122739Y-263352383D01*
X174052155Y-263422967D01*
X173990831Y-263456451D01*
X173921140Y-263451466D01*
X173865206Y-263409595D01*
X173840790Y-263344130D01*
X173840474Y-263335236D01*
X173840816Y-262762996D01*
X183674635Y-262762996D01*
X183674635Y-262763003D01*
X183694830Y-262942249D01*
X183694831Y-262942254D01*
X183754411Y-263112523D01*
X183852436Y-263268528D01*
X183871436Y-263335765D01*
X183852436Y-263400472D01*
X183754411Y-263556476D01*
X183694831Y-263726745D01*
X183694830Y-263726750D01*
X183674635Y-263905996D01*
X183674635Y-263906003D01*
X183694830Y-264085249D01*
X183694831Y-264085254D01*
X183754411Y-264255523D01*
X183802291Y-264331723D01*
X183850384Y-264408262D01*
X183977938Y-264535816D01*
X184130678Y-264631789D01*
X184300945Y-264691368D01*
X184300950Y-264691369D01*
X184480196Y-264711565D01*
X184480200Y-264711565D01*
X184480204Y-264711565D01*
X184659449Y-264691369D01*
X184659452Y-264691368D01*
X184659455Y-264691368D01*
X184829722Y-264631789D01*
X184982462Y-264535816D01*
X185104281Y-264413997D01*
X186468151Y-264413997D01*
X186468151Y-264414002D01*
X186487085Y-264582056D01*
X186542945Y-264741694D01*
X186542947Y-264741697D01*
X186632918Y-264884884D01*
X186632923Y-264884890D01*
X186752509Y-265004476D01*
X186752515Y-265004481D01*
X186895702Y-265094452D01*
X186895705Y-265094454D01*
X186895709Y-265094455D01*
X186895710Y-265094456D01*
X186968313Y-265119860D01*
X187055343Y-265150314D01*
X187223397Y-265169249D01*
X187223400Y-265169249D01*
X187223403Y-265169249D01*
X187391456Y-265150314D01*
X187391459Y-265150313D01*
X187551090Y-265094456D01*
X187551092Y-265094454D01*
X187551094Y-265094454D01*
X187551097Y-265094452D01*
X187694284Y-265004481D01*
X187694285Y-265004480D01*
X187694290Y-265004477D01*
X187813877Y-264884890D01*
X187813881Y-264884884D01*
X187903852Y-264741697D01*
X187903854Y-264741694D01*
X187903854Y-264741692D01*
X187903856Y-264741690D01*
X187959713Y-264582059D01*
X187959713Y-264582058D01*
X187959714Y-264582056D01*
X187978649Y-264414002D01*
X187978649Y-264413997D01*
X187959714Y-264245943D01*
X187947415Y-264210796D01*
X188373635Y-264210796D01*
X188373635Y-264210803D01*
X188393830Y-264390049D01*
X188393831Y-264390054D01*
X188453411Y-264560323D01*
X188535753Y-264691368D01*
X188549384Y-264713062D01*
X188676938Y-264840616D01*
X188829678Y-264936589D01*
X188865973Y-264949289D01*
X188999945Y-264996168D01*
X188999950Y-264996169D01*
X189179196Y-265016365D01*
X189179200Y-265016365D01*
X189179204Y-265016365D01*
X189358449Y-264996169D01*
X189358452Y-264996168D01*
X189358455Y-264996168D01*
X189528722Y-264936589D01*
X189681462Y-264840616D01*
X189809016Y-264713062D01*
X189904989Y-264560322D01*
X189964568Y-264390055D01*
X189964569Y-264390049D01*
X189984765Y-264210803D01*
X189984765Y-264210796D01*
X189964569Y-264031550D01*
X189964568Y-264031545D01*
X189920638Y-263906000D01*
X189904989Y-263861278D01*
X189809016Y-263708538D01*
X189681462Y-263580984D01*
X189642456Y-263556475D01*
X189528723Y-263485011D01*
X189358454Y-263425431D01*
X189358449Y-263425430D01*
X189179204Y-263405235D01*
X189179196Y-263405235D01*
X188999950Y-263425430D01*
X188999945Y-263425431D01*
X188829676Y-263485011D01*
X188676937Y-263580984D01*
X188549384Y-263708537D01*
X188453411Y-263861276D01*
X188393831Y-264031545D01*
X188393830Y-264031550D01*
X188373635Y-264210796D01*
X187947415Y-264210796D01*
X187903854Y-264086305D01*
X187903852Y-264086302D01*
X187813881Y-263943115D01*
X187813876Y-263943109D01*
X187694290Y-263823523D01*
X187694284Y-263823518D01*
X187551097Y-263733547D01*
X187551094Y-263733545D01*
X187391456Y-263677685D01*
X187223403Y-263658751D01*
X187223397Y-263658751D01*
X187055343Y-263677685D01*
X186895705Y-263733545D01*
X186895702Y-263733547D01*
X186752515Y-263823518D01*
X186752509Y-263823523D01*
X186632923Y-263943109D01*
X186632918Y-263943115D01*
X186542947Y-264086302D01*
X186542945Y-264086305D01*
X186487085Y-264245943D01*
X186468151Y-264413997D01*
X185104281Y-264413997D01*
X185110016Y-264408262D01*
X185205989Y-264255522D01*
X185265568Y-264085255D01*
X185277179Y-263982203D01*
X185285765Y-263906003D01*
X185285765Y-263905996D01*
X185265569Y-263726750D01*
X185265568Y-263726745D01*
X185205988Y-263556475D01*
X185141605Y-263454012D01*
X185110016Y-263403738D01*
X185110014Y-263403736D01*
X185107964Y-263400473D01*
X185088963Y-263333236D01*
X185107964Y-263268527D01*
X185125586Y-263240483D01*
X185205989Y-263112522D01*
X185265568Y-262942255D01*
X185285765Y-262763000D01*
X185282903Y-262737600D01*
X185265569Y-262583750D01*
X185265568Y-262583745D01*
X185205988Y-262413476D01*
X185110015Y-262260737D01*
X184982462Y-262133184D01*
X184829723Y-262037211D01*
X184659454Y-261977631D01*
X184659449Y-261977630D01*
X184480204Y-261957435D01*
X184480196Y-261957435D01*
X184300950Y-261977630D01*
X184300945Y-261977631D01*
X184130676Y-262037211D01*
X183977937Y-262133184D01*
X183850384Y-262260737D01*
X183754411Y-262413476D01*
X183694831Y-262583745D01*
X183694830Y-262583750D01*
X183674635Y-262762996D01*
X173840816Y-262762996D01*
X173844154Y-257174996D01*
X179966235Y-257174996D01*
X179966235Y-257175003D01*
X179986430Y-257354249D01*
X179986431Y-257354254D01*
X180046011Y-257524523D01*
X180101485Y-257612808D01*
X180141984Y-257677262D01*
X180269538Y-257804816D01*
X180422278Y-257900789D01*
X180505087Y-257929765D01*
X180592545Y-257960368D01*
X180592550Y-257960369D01*
X180771796Y-257980565D01*
X180771800Y-257980565D01*
X180771804Y-257980565D01*
X180951049Y-257960369D01*
X180951052Y-257960368D01*
X180951055Y-257960368D01*
X181121322Y-257900789D01*
X181274062Y-257804816D01*
X181401616Y-257677262D01*
X181497589Y-257524522D01*
X181557168Y-257354255D01*
X181577365Y-257175000D01*
X181577365Y-257174996D01*
X183598435Y-257174996D01*
X183598435Y-257175003D01*
X183618630Y-257354249D01*
X183618631Y-257354254D01*
X183678211Y-257524523D01*
X183774184Y-257677262D01*
X183903150Y-257806228D01*
X183936635Y-257867551D01*
X183931651Y-257937243D01*
X183920464Y-257959879D01*
X183901344Y-257990308D01*
X183845485Y-258149943D01*
X183826551Y-258317997D01*
X183826551Y-258318002D01*
X183845485Y-258486056D01*
X183901345Y-258645694D01*
X183901347Y-258645697D01*
X183991318Y-258788884D01*
X183991323Y-258788890D01*
X184110909Y-258908476D01*
X184110915Y-258908481D01*
X184254102Y-258998452D01*
X184254107Y-258998455D01*
X184254110Y-258998456D01*
X184322638Y-259022434D01*
X184379413Y-259063155D01*
X184405161Y-259128108D01*
X184391705Y-259196670D01*
X184369365Y-259227157D01*
X184256783Y-259339739D01*
X184160811Y-259492476D01*
X184101231Y-259662745D01*
X184101230Y-259662750D01*
X184081035Y-259841996D01*
X184081035Y-259842003D01*
X184101230Y-260021249D01*
X184101231Y-260021254D01*
X184160811Y-260191523D01*
X184225212Y-260294016D01*
X184256784Y-260344262D01*
X184384338Y-260471816D01*
X184445087Y-260509987D01*
X184522991Y-260558938D01*
X184537078Y-260567789D01*
X184640552Y-260603996D01*
X184707345Y-260627368D01*
X184707350Y-260627369D01*
X184886596Y-260647565D01*
X184886600Y-260647565D01*
X184886604Y-260647565D01*
X185065849Y-260627369D01*
X185065852Y-260627368D01*
X185065855Y-260627368D01*
X185132648Y-260603996D01*
X188373635Y-260603996D01*
X188373635Y-260604003D01*
X188393830Y-260783249D01*
X188393831Y-260783254D01*
X188453411Y-260953523D01*
X188536097Y-261085116D01*
X188549384Y-261106262D01*
X188676938Y-261233816D01*
X188829678Y-261329789D01*
X188999945Y-261389368D01*
X188999950Y-261389369D01*
X189179196Y-261409565D01*
X189179200Y-261409565D01*
X189179204Y-261409565D01*
X189358449Y-261389369D01*
X189358452Y-261389368D01*
X189358455Y-261389368D01*
X189528722Y-261329789D01*
X189681462Y-261233816D01*
X189809016Y-261106262D01*
X189904989Y-260953522D01*
X189964568Y-260783255D01*
X189965447Y-260775454D01*
X189984765Y-260604003D01*
X189984765Y-260603996D01*
X189964569Y-260424750D01*
X189964568Y-260424745D01*
X189912461Y-260275832D01*
X189904989Y-260254478D01*
X189809016Y-260101738D01*
X189681462Y-259974184D01*
X189528723Y-259878211D01*
X189358454Y-259818631D01*
X189358449Y-259818630D01*
X189179204Y-259798435D01*
X189179196Y-259798435D01*
X188999950Y-259818630D01*
X188999945Y-259818631D01*
X188829676Y-259878211D01*
X188676937Y-259974184D01*
X188549384Y-260101737D01*
X188453411Y-260254476D01*
X188393831Y-260424745D01*
X188393830Y-260424750D01*
X188373635Y-260603996D01*
X185132648Y-260603996D01*
X185236122Y-260567789D01*
X185388862Y-260471816D01*
X185516416Y-260344262D01*
X185612389Y-260191522D01*
X185671968Y-260021255D01*
X185692165Y-259842000D01*
X185692032Y-259840824D01*
X185671969Y-259662750D01*
X185671968Y-259662745D01*
X185612388Y-259492476D01*
X185573182Y-259430080D01*
X185516416Y-259339738D01*
X185388862Y-259212184D01*
X185236122Y-259116211D01*
X185236119Y-259116209D01*
X185132621Y-259079993D01*
X185075845Y-259039272D01*
X185050098Y-258974319D01*
X185063554Y-258905757D01*
X185085889Y-258875277D01*
X185172277Y-258788890D01*
X185172281Y-258788884D01*
X185262252Y-258645697D01*
X185262254Y-258645694D01*
X185262254Y-258645692D01*
X185262256Y-258645690D01*
X185318113Y-258486059D01*
X185318113Y-258486058D01*
X185318114Y-258486056D01*
X185337049Y-258318002D01*
X185337049Y-258317997D01*
X185318114Y-258149943D01*
X185262254Y-257990305D01*
X185262252Y-257990302D01*
X185172281Y-257847115D01*
X185172276Y-257847109D01*
X185091628Y-257766461D01*
X185058143Y-257705138D01*
X185063127Y-257635446D01*
X185074315Y-257612808D01*
X185114856Y-257548287D01*
X185129789Y-257524522D01*
X185189368Y-257354255D01*
X185209565Y-257175000D01*
X185203841Y-257124200D01*
X185189369Y-256995750D01*
X185189368Y-256995745D01*
X185171592Y-256944945D01*
X185129789Y-256825478D01*
X185033816Y-256672738D01*
X184906262Y-256545184D01*
X184753523Y-256449211D01*
X184583254Y-256389631D01*
X184583249Y-256389630D01*
X184404004Y-256369435D01*
X184403996Y-256369435D01*
X184224750Y-256389630D01*
X184224745Y-256389631D01*
X184054476Y-256449211D01*
X183901737Y-256545184D01*
X183774184Y-256672737D01*
X183678211Y-256825476D01*
X183618631Y-256995745D01*
X183618630Y-256995750D01*
X183598435Y-257174996D01*
X181577365Y-257174996D01*
X181571641Y-257124200D01*
X181557169Y-256995750D01*
X181557168Y-256995745D01*
X181539392Y-256944945D01*
X181497589Y-256825478D01*
X181401616Y-256672738D01*
X181274062Y-256545184D01*
X181121323Y-256449211D01*
X180951054Y-256389631D01*
X180951049Y-256389630D01*
X180771804Y-256369435D01*
X180771796Y-256369435D01*
X180592550Y-256389630D01*
X180592545Y-256389631D01*
X180422276Y-256449211D01*
X180269537Y-256545184D01*
X180141984Y-256672737D01*
X180046011Y-256825476D01*
X179986431Y-256995745D01*
X179986430Y-256995750D01*
X179966235Y-257174996D01*
X173844154Y-257174996D01*
X173845481Y-254953640D01*
X174948591Y-254953640D01*
X174948591Y-254953647D01*
X174968786Y-255132893D01*
X174968787Y-255132898D01*
X175028367Y-255303167D01*
X175053832Y-255343694D01*
X175124340Y-255455906D01*
X175251894Y-255583460D01*
X175404634Y-255679433D01*
X175574901Y-255739012D01*
X175574906Y-255739013D01*
X175754152Y-255759209D01*
X175754156Y-255759209D01*
X175754160Y-255759209D01*
X175933405Y-255739013D01*
X175933408Y-255739012D01*
X175933411Y-255739012D01*
X176103678Y-255679433D01*
X176256418Y-255583460D01*
X176383972Y-255455906D01*
X176479945Y-255303166D01*
X176539524Y-255132899D01*
X176552695Y-255016002D01*
X176552696Y-255015997D01*
X179305351Y-255015997D01*
X179305351Y-255016002D01*
X179324285Y-255184056D01*
X179380145Y-255343694D01*
X179380147Y-255343697D01*
X179470118Y-255486884D01*
X179470123Y-255486890D01*
X179589709Y-255606476D01*
X179589715Y-255606481D01*
X179732902Y-255696452D01*
X179732905Y-255696454D01*
X179732909Y-255696455D01*
X179732910Y-255696456D01*
X179805513Y-255721860D01*
X179892543Y-255752314D01*
X180060597Y-255771249D01*
X180060600Y-255771249D01*
X180060603Y-255771249D01*
X180228656Y-255752314D01*
X180266671Y-255739012D01*
X180388290Y-255696456D01*
X180388292Y-255696454D01*
X180388294Y-255696454D01*
X180388297Y-255696452D01*
X180531484Y-255606481D01*
X180531485Y-255606480D01*
X180531490Y-255606477D01*
X180651077Y-255486890D01*
X180741052Y-255343697D01*
X180741054Y-255343694D01*
X180741054Y-255343692D01*
X180741056Y-255343690D01*
X180796913Y-255184059D01*
X180796913Y-255184058D01*
X180796914Y-255184056D01*
X180815849Y-255016002D01*
X180815849Y-255015997D01*
X180796914Y-254847943D01*
X180751262Y-254717477D01*
X180741056Y-254688310D01*
X180741055Y-254688309D01*
X180741054Y-254688305D01*
X180741052Y-254688302D01*
X180651081Y-254545115D01*
X180651076Y-254545109D01*
X180531490Y-254425523D01*
X180531484Y-254425518D01*
X180388297Y-254335547D01*
X180388294Y-254335545D01*
X180228656Y-254279685D01*
X180060603Y-254260751D01*
X180060597Y-254260751D01*
X179892543Y-254279685D01*
X179732905Y-254335545D01*
X179732902Y-254335547D01*
X179589715Y-254425518D01*
X179589709Y-254425523D01*
X179470123Y-254545109D01*
X179470118Y-254545115D01*
X179380147Y-254688302D01*
X179380145Y-254688305D01*
X179324285Y-254847943D01*
X179305351Y-255015997D01*
X176552696Y-255015997D01*
X176559721Y-254953647D01*
X176559721Y-254953640D01*
X176539525Y-254774394D01*
X176539524Y-254774389D01*
X176479944Y-254604120D01*
X176386053Y-254454694D01*
X176383972Y-254451382D01*
X176256418Y-254323828D01*
X176216462Y-254298722D01*
X176103679Y-254227855D01*
X175933410Y-254168275D01*
X175933405Y-254168274D01*
X175754160Y-254148079D01*
X175754152Y-254148079D01*
X175574906Y-254168274D01*
X175574901Y-254168275D01*
X175404632Y-254227855D01*
X175251893Y-254323828D01*
X175124340Y-254451381D01*
X175028367Y-254604120D01*
X174968787Y-254774389D01*
X174968786Y-254774394D01*
X174948591Y-254953640D01*
X173845481Y-254953640D01*
X173846749Y-252831596D01*
X178721635Y-252831596D01*
X178721635Y-252831603D01*
X178741830Y-253010849D01*
X178741831Y-253010854D01*
X178801411Y-253181123D01*
X178861708Y-253277084D01*
X178897384Y-253333862D01*
X179024938Y-253461416D01*
X179075137Y-253492958D01*
X179172731Y-253554281D01*
X179177678Y-253557389D01*
X179298533Y-253599678D01*
X179347945Y-253616968D01*
X179347950Y-253616969D01*
X179527196Y-253637165D01*
X179527200Y-253637165D01*
X179527204Y-253637165D01*
X179706449Y-253616969D01*
X179706452Y-253616968D01*
X179706455Y-253616968D01*
X179876722Y-253557389D01*
X180029462Y-253461416D01*
X180157016Y-253333862D01*
X180252989Y-253181122D01*
X180312568Y-253010855D01*
X180312569Y-253010849D01*
X180332765Y-252831603D01*
X180332765Y-252831596D01*
X180312569Y-252652350D01*
X180312568Y-252652345D01*
X180252989Y-252482078D01*
X180248423Y-252474812D01*
X180228352Y-252442870D01*
X180157016Y-252329338D01*
X180157014Y-252329336D01*
X180155259Y-252327135D01*
X180154567Y-252325442D01*
X180153311Y-252323442D01*
X180153661Y-252323221D01*
X180128849Y-252262449D01*
X180141603Y-252193754D01*
X180171276Y-252157311D01*
X180170966Y-252157001D01*
X180174002Y-252153964D01*
X180174892Y-252152872D01*
X180175879Y-252152083D01*
X180175890Y-252152077D01*
X180295477Y-252032490D01*
X180328975Y-251979179D01*
X180385452Y-251889297D01*
X180385454Y-251889294D01*
X180385454Y-251889292D01*
X180385456Y-251889290D01*
X180441313Y-251729659D01*
X180441313Y-251729658D01*
X180441314Y-251729656D01*
X180460249Y-251561602D01*
X180460249Y-251561597D01*
X180441314Y-251393543D01*
X180385454Y-251233905D01*
X180385452Y-251233902D01*
X180295481Y-251090715D01*
X180295476Y-251090709D01*
X180175890Y-250971123D01*
X180175884Y-250971118D01*
X180032697Y-250881147D01*
X180032694Y-250881145D01*
X179873056Y-250825285D01*
X179705003Y-250806351D01*
X179704997Y-250806351D01*
X179536943Y-250825285D01*
X179377305Y-250881145D01*
X179377302Y-250881147D01*
X179234115Y-250971118D01*
X179234109Y-250971123D01*
X179114523Y-251090709D01*
X179114518Y-251090715D01*
X179024547Y-251233902D01*
X179024545Y-251233905D01*
X178968685Y-251393543D01*
X178949751Y-251561597D01*
X178949751Y-251561602D01*
X178968685Y-251729656D01*
X179024545Y-251889292D01*
X179099457Y-252008513D01*
X179118457Y-252075749D01*
X179098089Y-252142585D01*
X179060437Y-252179478D01*
X179024936Y-252201785D01*
X178897384Y-252329337D01*
X178801411Y-252482076D01*
X178741831Y-252652345D01*
X178741830Y-252652350D01*
X178721635Y-252831596D01*
X173846749Y-252831596D01*
X173849055Y-248970796D01*
X175622835Y-248970796D01*
X175622835Y-248970803D01*
X175643030Y-249150049D01*
X175643031Y-249150054D01*
X175702611Y-249320323D01*
X175751052Y-249397416D01*
X175798584Y-249473062D01*
X175926138Y-249600616D01*
X175974806Y-249631196D01*
X176055204Y-249681714D01*
X176078878Y-249696589D01*
X176249145Y-249756168D01*
X176249150Y-249756169D01*
X176428396Y-249776365D01*
X176428400Y-249776365D01*
X176428404Y-249776365D01*
X176607649Y-249756169D01*
X176607652Y-249756168D01*
X176607655Y-249756168D01*
X176777922Y-249696589D01*
X176930662Y-249600616D01*
X177058216Y-249473062D01*
X177154189Y-249320322D01*
X177213768Y-249150055D01*
X177215947Y-249130716D01*
X177233965Y-248970803D01*
X177233965Y-248970796D01*
X177231103Y-248945397D01*
X179279951Y-248945397D01*
X179279951Y-248945402D01*
X179298885Y-249113456D01*
X179354745Y-249273094D01*
X179354747Y-249273097D01*
X179444718Y-249416284D01*
X179444723Y-249416290D01*
X179564309Y-249535876D01*
X179564315Y-249535881D01*
X179707502Y-249625852D01*
X179707505Y-249625854D01*
X179707509Y-249625855D01*
X179707510Y-249625856D01*
X179722791Y-249631203D01*
X179867143Y-249681714D01*
X180035197Y-249700649D01*
X180035200Y-249700649D01*
X180035203Y-249700649D01*
X180203256Y-249681714D01*
X180203259Y-249681713D01*
X180362890Y-249625856D01*
X180362892Y-249625854D01*
X180362894Y-249625854D01*
X180362897Y-249625852D01*
X180506084Y-249535881D01*
X180506085Y-249535880D01*
X180506090Y-249535877D01*
X180625677Y-249416290D01*
X180630495Y-249408623D01*
X180715652Y-249273097D01*
X180715654Y-249273094D01*
X180715654Y-249273092D01*
X180715656Y-249273090D01*
X180771513Y-249113459D01*
X180771513Y-249113458D01*
X180771514Y-249113456D01*
X180790449Y-248945402D01*
X180790449Y-248945397D01*
X180771514Y-248777343D01*
X180730279Y-248659500D01*
X180715656Y-248617710D01*
X180715655Y-248617709D01*
X180715654Y-248617705D01*
X180715652Y-248617702D01*
X180625681Y-248474515D01*
X180625676Y-248474509D01*
X180506090Y-248354923D01*
X180506084Y-248354918D01*
X180362897Y-248264947D01*
X180362894Y-248264945D01*
X180203256Y-248209085D01*
X180035203Y-248190151D01*
X180035197Y-248190151D01*
X179867143Y-248209085D01*
X179707505Y-248264945D01*
X179707502Y-248264947D01*
X179564315Y-248354918D01*
X179564309Y-248354923D01*
X179444723Y-248474509D01*
X179444718Y-248474515D01*
X179354747Y-248617702D01*
X179354745Y-248617705D01*
X179298885Y-248777343D01*
X179279951Y-248945397D01*
X177231103Y-248945397D01*
X177213769Y-248791550D01*
X177213768Y-248791545D01*
X177211745Y-248785765D01*
X177154189Y-248621278D01*
X177058216Y-248468538D01*
X176930662Y-248340984D01*
X176899884Y-248321645D01*
X176777923Y-248245011D01*
X176607654Y-248185431D01*
X176607649Y-248185430D01*
X176428404Y-248165235D01*
X176428396Y-248165235D01*
X176249150Y-248185430D01*
X176249145Y-248185431D01*
X176078876Y-248245011D01*
X175926137Y-248340984D01*
X175798584Y-248468537D01*
X175702611Y-248621276D01*
X175643031Y-248791545D01*
X175643030Y-248791550D01*
X175622835Y-248970796D01*
X173849055Y-248970796D01*
X173849647Y-247980196D01*
X183674635Y-247980196D01*
X183674635Y-247980203D01*
X183694830Y-248159449D01*
X183694831Y-248159454D01*
X183754411Y-248329723D01*
X183807024Y-248413455D01*
X183850384Y-248482462D01*
X183977938Y-248610016D01*
X184130678Y-248705989D01*
X184275856Y-248756789D01*
X184300945Y-248765568D01*
X184300950Y-248765569D01*
X184352523Y-248771380D01*
X184416937Y-248798446D01*
X184456493Y-248856041D01*
X184458630Y-248925878D01*
X184422672Y-248985784D01*
X184360034Y-249016740D01*
X184352523Y-249017820D01*
X184300950Y-249023630D01*
X184300945Y-249023631D01*
X184130676Y-249083211D01*
X183977937Y-249179184D01*
X183850384Y-249306737D01*
X183754411Y-249459476D01*
X183694831Y-249629745D01*
X183694830Y-249629750D01*
X183674635Y-249808996D01*
X183674635Y-249809003D01*
X183694830Y-249988249D01*
X183694831Y-249988254D01*
X183754411Y-250158523D01*
X183850384Y-250311262D01*
X183977937Y-250438815D01*
X183983384Y-250443159D01*
X183981804Y-250445139D01*
X184020343Y-250488686D01*
X184031010Y-250557737D01*
X184002652Y-250621593D01*
X183995776Y-250629057D01*
X183915118Y-250709715D01*
X183825147Y-250852902D01*
X183825145Y-250852905D01*
X183769285Y-251012543D01*
X183750351Y-251180597D01*
X183750351Y-251180602D01*
X183769285Y-251348656D01*
X183825145Y-251508294D01*
X183825147Y-251508297D01*
X183915118Y-251651484D01*
X183915123Y-251651490D01*
X184034709Y-251771076D01*
X184034715Y-251771081D01*
X184177902Y-251861052D01*
X184177905Y-251861054D01*
X184177909Y-251861055D01*
X184177910Y-251861056D01*
X184320703Y-251911021D01*
X184337544Y-251916914D01*
X184411847Y-251925286D01*
X184476261Y-251952352D01*
X184515817Y-252009947D01*
X184517954Y-252079784D01*
X184481996Y-252139691D01*
X184463937Y-252153499D01*
X184364911Y-252215721D01*
X184245323Y-252335309D01*
X184245318Y-252335315D01*
X184155347Y-252478502D01*
X184155345Y-252478505D01*
X184099485Y-252638143D01*
X184080551Y-252806197D01*
X184080551Y-252806202D01*
X184099485Y-252974256D01*
X184155345Y-253133894D01*
X184155347Y-253133897D01*
X184245318Y-253277084D01*
X184245323Y-253277090D01*
X184347152Y-253378919D01*
X184380637Y-253440242D01*
X184375653Y-253509934D01*
X184347152Y-253554281D01*
X184245323Y-253656109D01*
X184245318Y-253656115D01*
X184155347Y-253799302D01*
X184155345Y-253799305D01*
X184099485Y-253958943D01*
X184080551Y-254126997D01*
X184080551Y-254127002D01*
X184099485Y-254295056D01*
X184155345Y-254454694D01*
X184155347Y-254454697D01*
X184245318Y-254597884D01*
X184245323Y-254597890D01*
X184364909Y-254717476D01*
X184364915Y-254717481D01*
X184508102Y-254807452D01*
X184508105Y-254807454D01*
X184508109Y-254807455D01*
X184508110Y-254807456D01*
X184580713Y-254832860D01*
X184667743Y-254863314D01*
X184835797Y-254882249D01*
X184835800Y-254882249D01*
X184835803Y-254882249D01*
X185003856Y-254863314D01*
X185047784Y-254847943D01*
X185163490Y-254807456D01*
X185163492Y-254807454D01*
X185163494Y-254807454D01*
X185163497Y-254807452D01*
X185306684Y-254717481D01*
X185306685Y-254717480D01*
X185306690Y-254717477D01*
X185426277Y-254597890D01*
X185426281Y-254597884D01*
X185516252Y-254454697D01*
X185516254Y-254454694D01*
X185516254Y-254454692D01*
X185516256Y-254454690D01*
X185572113Y-254295059D01*
X185572113Y-254295058D01*
X185572114Y-254295056D01*
X185591049Y-254127002D01*
X185591049Y-254126997D01*
X185572114Y-253958943D01*
X185568703Y-253949196D01*
X186925835Y-253949196D01*
X186925835Y-253949203D01*
X186946030Y-254128449D01*
X186946031Y-254128454D01*
X187005611Y-254298723D01*
X187070012Y-254401216D01*
X187101584Y-254451462D01*
X187229138Y-254579016D01*
X187381878Y-254674989D01*
X187470548Y-254706016D01*
X187552145Y-254734568D01*
X187552150Y-254734569D01*
X187731396Y-254754765D01*
X187731400Y-254754765D01*
X187731404Y-254754765D01*
X187910649Y-254734569D01*
X187910652Y-254734568D01*
X187910655Y-254734568D01*
X188080922Y-254674989D01*
X188233662Y-254579016D01*
X188361216Y-254451462D01*
X188419710Y-254358368D01*
X188472042Y-254312079D01*
X188541095Y-254301430D01*
X188604944Y-254329805D01*
X188612383Y-254336661D01*
X188676938Y-254401216D01*
X188715939Y-254425722D01*
X188829397Y-254497013D01*
X188829678Y-254497189D01*
X188966643Y-254545115D01*
X188999945Y-254556768D01*
X188999950Y-254556769D01*
X189179196Y-254576965D01*
X189179200Y-254576965D01*
X189179204Y-254576965D01*
X189358449Y-254556769D01*
X189358452Y-254556768D01*
X189358455Y-254556768D01*
X189528722Y-254497189D01*
X189681462Y-254401216D01*
X189809016Y-254273662D01*
X189904989Y-254120922D01*
X189964568Y-253950655D01*
X189964732Y-253949200D01*
X189984765Y-253771403D01*
X189984765Y-253771396D01*
X189964569Y-253592150D01*
X189964568Y-253592145D01*
X189918824Y-253461416D01*
X189904989Y-253421878D01*
X189897182Y-253409454D01*
X189840587Y-253319383D01*
X189809016Y-253269138D01*
X189681462Y-253141584D01*
X189669228Y-253133897D01*
X189528723Y-253045611D01*
X189358454Y-252986031D01*
X189358449Y-252986030D01*
X189179204Y-252965835D01*
X189179196Y-252965835D01*
X189000753Y-252985940D01*
X188931931Y-252973885D01*
X188880552Y-252926536D01*
X188863650Y-252876603D01*
X188846969Y-252728550D01*
X188846968Y-252728545D01*
X188787388Y-252558276D01*
X188691415Y-252405537D01*
X188563862Y-252277984D01*
X188411123Y-252182011D01*
X188240854Y-252122431D01*
X188240849Y-252122430D01*
X188061604Y-252102235D01*
X188061596Y-252102235D01*
X187882350Y-252122430D01*
X187882345Y-252122431D01*
X187712076Y-252182011D01*
X187559337Y-252277984D01*
X187431784Y-252405537D01*
X187335811Y-252558276D01*
X187276231Y-252728545D01*
X187276230Y-252728550D01*
X187256035Y-252907796D01*
X187256035Y-252907803D01*
X187276231Y-253087052D01*
X187301726Y-253159915D01*
X187305287Y-253229694D01*
X187270558Y-253290321D01*
X187250659Y-253305861D01*
X187229138Y-253319383D01*
X187101584Y-253446937D01*
X187005611Y-253599676D01*
X186946031Y-253769945D01*
X186946030Y-253769950D01*
X186925835Y-253949196D01*
X185568703Y-253949196D01*
X185516254Y-253799305D01*
X185516252Y-253799302D01*
X185426281Y-253656115D01*
X185426276Y-253656109D01*
X185324448Y-253554281D01*
X185290963Y-253492958D01*
X185295947Y-253423266D01*
X185324448Y-253378919D01*
X185369505Y-253333862D01*
X185426277Y-253277090D01*
X185484219Y-253184877D01*
X185516252Y-253133897D01*
X185516254Y-253133894D01*
X185516254Y-253133892D01*
X185516256Y-253133890D01*
X185572113Y-252974259D01*
X185572113Y-252974258D01*
X185572114Y-252974256D01*
X185591049Y-252806202D01*
X185591049Y-252806197D01*
X185572114Y-252638143D01*
X185516254Y-252478505D01*
X185516252Y-252478502D01*
X185426281Y-252335315D01*
X185426276Y-252335309D01*
X185306690Y-252215723D01*
X185306684Y-252215718D01*
X185163497Y-252125747D01*
X185163494Y-252125745D01*
X185003856Y-252069886D01*
X184929550Y-252061513D01*
X184865137Y-252034446D01*
X184825582Y-251976850D01*
X184823445Y-251907013D01*
X184859404Y-251847108D01*
X184877454Y-251833305D01*
X184976490Y-251771077D01*
X185096077Y-251651490D01*
X185152561Y-251561597D01*
X185186052Y-251508297D01*
X185186054Y-251508294D01*
X185186054Y-251508292D01*
X185186056Y-251508290D01*
X185241913Y-251348659D01*
X185241913Y-251348658D01*
X185241914Y-251348656D01*
X185260849Y-251180602D01*
X185260849Y-251180597D01*
X185241914Y-251012543D01*
X185199170Y-250890388D01*
X185186056Y-250852910D01*
X185186055Y-250852909D01*
X185186054Y-250852905D01*
X185186052Y-250852902D01*
X185096081Y-250709715D01*
X185096076Y-250709709D01*
X184991503Y-250605136D01*
X184958018Y-250543813D01*
X184963002Y-250474121D01*
X184991499Y-250429778D01*
X185110016Y-250311262D01*
X185205989Y-250158522D01*
X185250409Y-250031577D01*
X185291131Y-249974801D01*
X185356084Y-249949053D01*
X185424645Y-249962509D01*
X185472444Y-250006559D01*
X185552179Y-250133456D01*
X185552184Y-250133462D01*
X185679738Y-250261016D01*
X185832478Y-250356989D01*
X186002745Y-250416568D01*
X186002750Y-250416569D01*
X186181996Y-250436765D01*
X186182000Y-250436765D01*
X186182004Y-250436765D01*
X186361249Y-250416569D01*
X186361252Y-250416568D01*
X186361255Y-250416568D01*
X186531522Y-250356989D01*
X186684262Y-250261016D01*
X186780682Y-250164596D01*
X188373635Y-250164596D01*
X188373635Y-250164603D01*
X188393830Y-250343849D01*
X188393831Y-250343854D01*
X188453411Y-250514123D01*
X188532483Y-250639965D01*
X188549384Y-250666862D01*
X188676938Y-250794416D01*
X188726066Y-250825285D01*
X188814964Y-250881144D01*
X188829678Y-250890389D01*
X188999945Y-250949968D01*
X188999950Y-250949969D01*
X189179196Y-250970165D01*
X189179200Y-250970165D01*
X189179204Y-250970165D01*
X189358449Y-250949969D01*
X189358452Y-250949968D01*
X189358455Y-250949968D01*
X189528722Y-250890389D01*
X189681462Y-250794416D01*
X189809016Y-250666862D01*
X189904989Y-250514122D01*
X189964568Y-250343855D01*
X189964569Y-250343849D01*
X189984765Y-250164603D01*
X189984765Y-250164596D01*
X189964569Y-249985350D01*
X189964568Y-249985345D01*
X189904988Y-249815076D01*
X189830537Y-249696589D01*
X189809016Y-249662338D01*
X189681462Y-249534784D01*
X189528723Y-249438811D01*
X189358454Y-249379231D01*
X189358449Y-249379230D01*
X189179204Y-249359035D01*
X189179196Y-249359035D01*
X188999950Y-249379230D01*
X188999945Y-249379231D01*
X188829676Y-249438811D01*
X188676937Y-249534784D01*
X188549384Y-249662337D01*
X188453411Y-249815076D01*
X188393831Y-249985345D01*
X188393830Y-249985350D01*
X188373635Y-250164596D01*
X186780682Y-250164596D01*
X186811816Y-250133462D01*
X186907789Y-249980722D01*
X186967368Y-249810455D01*
X186967532Y-249809000D01*
X186987565Y-249631203D01*
X186987565Y-249631196D01*
X186967369Y-249451950D01*
X186967368Y-249451945D01*
X186948287Y-249397416D01*
X186907789Y-249281678D01*
X186902395Y-249273094D01*
X186834448Y-249164957D01*
X186811816Y-249128938D01*
X186684262Y-249001384D01*
X186531523Y-248905411D01*
X186361254Y-248845831D01*
X186361249Y-248845830D01*
X186182004Y-248825635D01*
X186181996Y-248825635D01*
X186002750Y-248845830D01*
X186002745Y-248845831D01*
X185832476Y-248905411D01*
X185679737Y-249001384D01*
X185552184Y-249128937D01*
X185456208Y-249281680D01*
X185411789Y-249408623D01*
X185371067Y-249465399D01*
X185306114Y-249491146D01*
X185237553Y-249477689D01*
X185189754Y-249433640D01*
X185137054Y-249349769D01*
X185110016Y-249306738D01*
X184982462Y-249179184D01*
X184905326Y-249130716D01*
X184829723Y-249083211D01*
X184659454Y-249023631D01*
X184659449Y-249023630D01*
X184607876Y-249017820D01*
X184543462Y-248990754D01*
X184503907Y-248933159D01*
X184501769Y-248863322D01*
X184537727Y-248803416D01*
X184600365Y-248772460D01*
X184607876Y-248771380D01*
X184659449Y-248765569D01*
X184659452Y-248765568D01*
X184659455Y-248765568D01*
X184829722Y-248705989D01*
X184982462Y-248610016D01*
X185110016Y-248482462D01*
X185205989Y-248329722D01*
X185265568Y-248159455D01*
X185273125Y-248092380D01*
X185300190Y-248027969D01*
X185357785Y-247988413D01*
X185382456Y-247983045D01*
X185410259Y-247979913D01*
X185569890Y-247924056D01*
X185569892Y-247924054D01*
X185569894Y-247924054D01*
X185569897Y-247924052D01*
X185713084Y-247834081D01*
X185713085Y-247834080D01*
X185713090Y-247834077D01*
X185832677Y-247714490D01*
X185853420Y-247681478D01*
X185922652Y-247571297D01*
X185922654Y-247571294D01*
X185922654Y-247571292D01*
X185922656Y-247571290D01*
X185978513Y-247411659D01*
X185978513Y-247411658D01*
X185978514Y-247411656D01*
X185997449Y-247243602D01*
X185997449Y-247243597D01*
X187280951Y-247243597D01*
X187280951Y-247243602D01*
X187299885Y-247411656D01*
X187355745Y-247571294D01*
X187355747Y-247571297D01*
X187445718Y-247714484D01*
X187445723Y-247714490D01*
X187565312Y-247834079D01*
X187565950Y-247834588D01*
X187566253Y-247835020D01*
X187570234Y-247839001D01*
X187569536Y-247839698D01*
X187606086Y-247891779D01*
X187608931Y-247961591D01*
X187576312Y-248019209D01*
X187533384Y-248062137D01*
X187437411Y-248214876D01*
X187377831Y-248385145D01*
X187377830Y-248385150D01*
X187357635Y-248564396D01*
X187357635Y-248564403D01*
X187377830Y-248743649D01*
X187377831Y-248743654D01*
X187437411Y-248913923D01*
X187509616Y-249028835D01*
X187533384Y-249066662D01*
X187660938Y-249194216D01*
X187751280Y-249250982D01*
X187807437Y-249286268D01*
X187813678Y-249290189D01*
X187983945Y-249349768D01*
X187983950Y-249349769D01*
X188163196Y-249369965D01*
X188163200Y-249369965D01*
X188163204Y-249369965D01*
X188342449Y-249349769D01*
X188342452Y-249349768D01*
X188342455Y-249349768D01*
X188512722Y-249290189D01*
X188665462Y-249194216D01*
X188793016Y-249066662D01*
X188888989Y-248913922D01*
X188948568Y-248743655D01*
X188958050Y-248659500D01*
X188968765Y-248564403D01*
X188968765Y-248564396D01*
X188948569Y-248385150D01*
X188948568Y-248385145D01*
X188888988Y-248214876D01*
X188793015Y-248062137D01*
X188665460Y-247934582D01*
X188638135Y-247917413D01*
X188591845Y-247865079D01*
X188581197Y-247796025D01*
X188609572Y-247732177D01*
X188616418Y-247724748D01*
X188626677Y-247714490D01*
X188647420Y-247681478D01*
X188716652Y-247571297D01*
X188716654Y-247571294D01*
X188716654Y-247571292D01*
X188716656Y-247571290D01*
X188772513Y-247411659D01*
X188772513Y-247411658D01*
X188772514Y-247411656D01*
X188791449Y-247243602D01*
X188791449Y-247243597D01*
X188772514Y-247075543D01*
X188733044Y-246962745D01*
X188716656Y-246915910D01*
X188716655Y-246915909D01*
X188716654Y-246915905D01*
X188716652Y-246915902D01*
X188626681Y-246772715D01*
X188626676Y-246772709D01*
X188611360Y-246757393D01*
X188577875Y-246696070D01*
X188582859Y-246626378D01*
X188624731Y-246570445D01*
X188633050Y-246564730D01*
X188634090Y-246564077D01*
X188634091Y-246564075D01*
X188639074Y-246560944D01*
X188706309Y-246541937D01*
X188771027Y-246560936D01*
X188829678Y-246597789D01*
X188829681Y-246597790D01*
X188999937Y-246657366D01*
X188999943Y-246657367D01*
X188999945Y-246657368D01*
X188999946Y-246657368D01*
X188999950Y-246657369D01*
X189179196Y-246677565D01*
X189179200Y-246677565D01*
X189179204Y-246677565D01*
X189358449Y-246657369D01*
X189358452Y-246657368D01*
X189358455Y-246657368D01*
X189528722Y-246597789D01*
X189681462Y-246501816D01*
X189809016Y-246374262D01*
X189904989Y-246221522D01*
X189964568Y-246051255D01*
X189965447Y-246043454D01*
X189984765Y-245872003D01*
X189984765Y-245871996D01*
X189964569Y-245692750D01*
X189964568Y-245692745D01*
X189904988Y-245522476D01*
X189809015Y-245369737D01*
X189681462Y-245242184D01*
X189528723Y-245146211D01*
X189358454Y-245086631D01*
X189358449Y-245086630D01*
X189179204Y-245066435D01*
X189179196Y-245066435D01*
X188999950Y-245086630D01*
X188999945Y-245086631D01*
X188829676Y-245146211D01*
X188676934Y-245242186D01*
X188643772Y-245275348D01*
X188582449Y-245308833D01*
X188512757Y-245303847D01*
X188497171Y-245296144D01*
X188497162Y-245296164D01*
X188490896Y-245293146D01*
X188331256Y-245237285D01*
X188163203Y-245218351D01*
X188163197Y-245218351D01*
X187995143Y-245237285D01*
X187835505Y-245293145D01*
X187835502Y-245293147D01*
X187692315Y-245383118D01*
X187692309Y-245383123D01*
X187572723Y-245502709D01*
X187572718Y-245502715D01*
X187482747Y-245645902D01*
X187482745Y-245645905D01*
X187426885Y-245805543D01*
X187407951Y-245973597D01*
X187407951Y-245973602D01*
X187426885Y-246141656D01*
X187482745Y-246301294D01*
X187482747Y-246301297D01*
X187572718Y-246444484D01*
X187572723Y-246444490D01*
X187588039Y-246459806D01*
X187621524Y-246521129D01*
X187616540Y-246590821D01*
X187574668Y-246646754D01*
X187566338Y-246652476D01*
X187565314Y-246653119D01*
X187565311Y-246653121D01*
X187445723Y-246772709D01*
X187445718Y-246772715D01*
X187355747Y-246915902D01*
X187355745Y-246915905D01*
X187299885Y-247075543D01*
X187280951Y-247243597D01*
X185997449Y-247243597D01*
X185978514Y-247075543D01*
X185939044Y-246962745D01*
X185922656Y-246915910D01*
X185922655Y-246915909D01*
X185922654Y-246915905D01*
X185922652Y-246915902D01*
X185832681Y-246772715D01*
X185832676Y-246772709D01*
X185713090Y-246653123D01*
X185713084Y-246653118D01*
X185569897Y-246563147D01*
X185569894Y-246563145D01*
X185410256Y-246507285D01*
X185242203Y-246488351D01*
X185242197Y-246488351D01*
X185074143Y-246507285D01*
X184914505Y-246563145D01*
X184914502Y-246563147D01*
X184771315Y-246653118D01*
X184771309Y-246653123D01*
X184651723Y-246772709D01*
X184651718Y-246772715D01*
X184561747Y-246915902D01*
X184561744Y-246915907D01*
X184505886Y-247075543D01*
X184504338Y-247082329D01*
X184502919Y-247082005D01*
X184478904Y-247139137D01*
X184421305Y-247178685D01*
X184396644Y-247184048D01*
X184300949Y-247194830D01*
X184300945Y-247194831D01*
X184130676Y-247254411D01*
X183977937Y-247350384D01*
X183850384Y-247477937D01*
X183754411Y-247630676D01*
X183694831Y-247800945D01*
X183694830Y-247800950D01*
X183674635Y-247980196D01*
X173849647Y-247980196D01*
X173851134Y-245490996D01*
X174810035Y-245490996D01*
X174810035Y-245491003D01*
X174830230Y-245670249D01*
X174830231Y-245670254D01*
X174889811Y-245840523D01*
X174985784Y-245993262D01*
X175043540Y-246051018D01*
X175077025Y-246112341D01*
X175072041Y-246182033D01*
X175043541Y-246226379D01*
X175011186Y-246258734D01*
X174915211Y-246411476D01*
X174855631Y-246581745D01*
X174855630Y-246581750D01*
X174835435Y-246760996D01*
X174835435Y-246761003D01*
X174855630Y-246940249D01*
X174855631Y-246940254D01*
X174915211Y-247110523D01*
X174998831Y-247243602D01*
X175011184Y-247263262D01*
X175138738Y-247390816D01*
X175198927Y-247428635D01*
X175277391Y-247477938D01*
X175291478Y-247486789D01*
X175461745Y-247546368D01*
X175461750Y-247546369D01*
X175640996Y-247566565D01*
X175641000Y-247566565D01*
X175641004Y-247566565D01*
X175820249Y-247546369D01*
X175820252Y-247546368D01*
X175820255Y-247546368D01*
X175990522Y-247486789D01*
X176143262Y-247390816D01*
X176270816Y-247263262D01*
X176366789Y-247110522D01*
X176426368Y-246940255D01*
X176429111Y-246915910D01*
X176446565Y-246761003D01*
X176446565Y-246760996D01*
X176426369Y-246581750D01*
X176426368Y-246581745D01*
X176412439Y-246541937D01*
X176366789Y-246411478D01*
X176270816Y-246258738D01*
X176213058Y-246200980D01*
X176179574Y-246139656D01*
X176184559Y-246069965D01*
X176213058Y-246025619D01*
X176245416Y-245993262D01*
X176341389Y-245840522D01*
X176400968Y-245670255D01*
X176411407Y-245577607D01*
X176421165Y-245491003D01*
X176421165Y-245490996D01*
X176400969Y-245311750D01*
X176400968Y-245311745D01*
X176376628Y-245242186D01*
X176341389Y-245141478D01*
X176245416Y-244988738D01*
X176117862Y-244861184D01*
X176117560Y-244860994D01*
X175965123Y-244765211D01*
X175794854Y-244705631D01*
X175794849Y-244705630D01*
X175615604Y-244685435D01*
X175615596Y-244685435D01*
X175436350Y-244705630D01*
X175436345Y-244705631D01*
X175266076Y-244765211D01*
X175113337Y-244861184D01*
X174985784Y-244988737D01*
X174889811Y-245141476D01*
X174830231Y-245311745D01*
X174830230Y-245311750D01*
X174810035Y-245490996D01*
X173851134Y-245490996D01*
X173852212Y-243687597D01*
X187280951Y-243687597D01*
X187280951Y-243687602D01*
X187299885Y-243855656D01*
X187355745Y-244015294D01*
X187355747Y-244015297D01*
X187445718Y-244158484D01*
X187445723Y-244158490D01*
X187565309Y-244278076D01*
X187565315Y-244278081D01*
X187708502Y-244368052D01*
X187708505Y-244368054D01*
X187708509Y-244368055D01*
X187708510Y-244368056D01*
X187781113Y-244393460D01*
X187868143Y-244423914D01*
X188036197Y-244442849D01*
X188036200Y-244442849D01*
X188036203Y-244442849D01*
X188204256Y-244423914D01*
X188204259Y-244423913D01*
X188363890Y-244368056D01*
X188363892Y-244368054D01*
X188363894Y-244368054D01*
X188363897Y-244368052D01*
X188507084Y-244278081D01*
X188507085Y-244278080D01*
X188507090Y-244278077D01*
X188626677Y-244158490D01*
X188716652Y-244015297D01*
X188716654Y-244015294D01*
X188716654Y-244015292D01*
X188716656Y-244015290D01*
X188772513Y-243855659D01*
X188772513Y-243855658D01*
X188772514Y-243855656D01*
X188791449Y-243687602D01*
X188791449Y-243687597D01*
X188772514Y-243519543D01*
X188716654Y-243359905D01*
X188716652Y-243359902D01*
X188626681Y-243216715D01*
X188626676Y-243216709D01*
X188507090Y-243097123D01*
X188507084Y-243097118D01*
X188363897Y-243007147D01*
X188363894Y-243007145D01*
X188204256Y-242951285D01*
X188036203Y-242932351D01*
X188036197Y-242932351D01*
X187868143Y-242951285D01*
X187708505Y-243007145D01*
X187708502Y-243007147D01*
X187565315Y-243097118D01*
X187565309Y-243097123D01*
X187445723Y-243216709D01*
X187445718Y-243216715D01*
X187355747Y-243359902D01*
X187355745Y-243359905D01*
X187299885Y-243519543D01*
X187280951Y-243687597D01*
X173852212Y-243687597D01*
X173853001Y-242366796D01*
X179890035Y-242366796D01*
X179890035Y-242366803D01*
X179910230Y-242546049D01*
X179910231Y-242546054D01*
X179969811Y-242716323D01*
X179993195Y-242753538D01*
X180065784Y-242869062D01*
X180193338Y-242996616D01*
X180346078Y-243092589D01*
X180516345Y-243152168D01*
X180516350Y-243152169D01*
X180695596Y-243172365D01*
X180695600Y-243172365D01*
X180695604Y-243172365D01*
X180874849Y-243152169D01*
X180874852Y-243152168D01*
X180874855Y-243152168D01*
X181045122Y-243092589D01*
X181197862Y-242996616D01*
X181325416Y-242869062D01*
X181421389Y-242716322D01*
X181480968Y-242546055D01*
X181489489Y-242470432D01*
X181501165Y-242366803D01*
X181501165Y-242366796D01*
X181480969Y-242187550D01*
X181480968Y-242187545D01*
X181421388Y-242017276D01*
X181378857Y-241949589D01*
X181325416Y-241864538D01*
X181197862Y-241736984D01*
X181149182Y-241706396D01*
X186443235Y-241706396D01*
X186443235Y-241706403D01*
X186463430Y-241885649D01*
X186463431Y-241885654D01*
X186523011Y-242055923D01*
X186589393Y-242161568D01*
X186618984Y-242208662D01*
X186746538Y-242336216D01*
X186899278Y-242432189D01*
X187060534Y-242488615D01*
X187069545Y-242491768D01*
X187069550Y-242491769D01*
X187248796Y-242511965D01*
X187248800Y-242511965D01*
X187248804Y-242511965D01*
X187428049Y-242491769D01*
X187428052Y-242491768D01*
X187428055Y-242491768D01*
X187598322Y-242432189D01*
X187751062Y-242336216D01*
X187878616Y-242208662D01*
X187974589Y-242055922D01*
X188034168Y-241885655D01*
X188034916Y-241879016D01*
X188037194Y-241858796D01*
X188373635Y-241858796D01*
X188373635Y-241858803D01*
X188393830Y-242038049D01*
X188393831Y-242038054D01*
X188453411Y-242208323D01*
X188533772Y-242336216D01*
X188549384Y-242361062D01*
X188676938Y-242488616D01*
X188829678Y-242584589D01*
X188947978Y-242625984D01*
X188999945Y-242644168D01*
X188999950Y-242644169D01*
X189179196Y-242664365D01*
X189179200Y-242664365D01*
X189179204Y-242664365D01*
X189358449Y-242644169D01*
X189358452Y-242644168D01*
X189358455Y-242644168D01*
X189528722Y-242584589D01*
X189681462Y-242488616D01*
X189809016Y-242361062D01*
X189904989Y-242208322D01*
X189964568Y-242038055D01*
X189966909Y-242017278D01*
X189984765Y-241858803D01*
X189984765Y-241858796D01*
X189964569Y-241679550D01*
X189964568Y-241679545D01*
X189927399Y-241573322D01*
X189904989Y-241509278D01*
X189809016Y-241356538D01*
X189681462Y-241228984D01*
X189641920Y-241204138D01*
X189528723Y-241133011D01*
X189358454Y-241073431D01*
X189358449Y-241073430D01*
X189179204Y-241053235D01*
X189179196Y-241053235D01*
X188999950Y-241073430D01*
X188999945Y-241073431D01*
X188829676Y-241133011D01*
X188676937Y-241228984D01*
X188549384Y-241356537D01*
X188453411Y-241509276D01*
X188393831Y-241679545D01*
X188393830Y-241679550D01*
X188373635Y-241858796D01*
X188037194Y-241858796D01*
X188054365Y-241706403D01*
X188054365Y-241706396D01*
X188034169Y-241527150D01*
X188034168Y-241527145D01*
X187974588Y-241356876D01*
X187889694Y-241221769D01*
X187878616Y-241204138D01*
X187751062Y-241076584D01*
X187739578Y-241069368D01*
X187598323Y-240980611D01*
X187428054Y-240921031D01*
X187428049Y-240921030D01*
X187248804Y-240900835D01*
X187248796Y-240900835D01*
X187069550Y-240921030D01*
X187069545Y-240921031D01*
X186899276Y-240980611D01*
X186746537Y-241076584D01*
X186618984Y-241204137D01*
X186523011Y-241356876D01*
X186463431Y-241527145D01*
X186463430Y-241527150D01*
X186443235Y-241706396D01*
X181149182Y-241706396D01*
X181045123Y-241641011D01*
X180874854Y-241581431D01*
X180874849Y-241581430D01*
X180695604Y-241561235D01*
X180695596Y-241561235D01*
X180516350Y-241581430D01*
X180516345Y-241581431D01*
X180346076Y-241641011D01*
X180193337Y-241736984D01*
X180065784Y-241864537D01*
X179969811Y-242017276D01*
X179910231Y-242187545D01*
X179910230Y-242187550D01*
X179890035Y-242366796D01*
X173853001Y-242366796D01*
X173854154Y-240436396D01*
X178721635Y-240436396D01*
X178721635Y-240436403D01*
X178741830Y-240615649D01*
X178741831Y-240615654D01*
X178801411Y-240785923D01*
X178833889Y-240837611D01*
X178897384Y-240938662D01*
X179024938Y-241066216D01*
X179041439Y-241076584D01*
X179131241Y-241133011D01*
X179177678Y-241162189D01*
X179347945Y-241221768D01*
X179347950Y-241221769D01*
X179527196Y-241241965D01*
X179527200Y-241241965D01*
X179527204Y-241241965D01*
X179706449Y-241221769D01*
X179706452Y-241221768D01*
X179706455Y-241221768D01*
X179876722Y-241162189D01*
X180029462Y-241066216D01*
X180157016Y-240938662D01*
X180252989Y-240785922D01*
X180312568Y-240615655D01*
X180315430Y-240590255D01*
X180332765Y-240436403D01*
X180332765Y-240436396D01*
X180312569Y-240257150D01*
X180312568Y-240257145D01*
X180291202Y-240196084D01*
X180252989Y-240086878D01*
X180231635Y-240052894D01*
X180213782Y-240024480D01*
X180157016Y-239934138D01*
X180029462Y-239806584D01*
X179989038Y-239781184D01*
X179899936Y-239725197D01*
X183826551Y-239725197D01*
X183826551Y-239725202D01*
X183845485Y-239893256D01*
X183901345Y-240052894D01*
X183901347Y-240052897D01*
X183991318Y-240196084D01*
X183991323Y-240196090D01*
X184110909Y-240315676D01*
X184110915Y-240315681D01*
X184254102Y-240405652D01*
X184254105Y-240405654D01*
X184254109Y-240405655D01*
X184254110Y-240405656D01*
X184326713Y-240431060D01*
X184413743Y-240461514D01*
X184581797Y-240480449D01*
X184581800Y-240480449D01*
X184581803Y-240480449D01*
X184749856Y-240461514D01*
X184749859Y-240461513D01*
X184909490Y-240405656D01*
X184909492Y-240405654D01*
X184909494Y-240405654D01*
X184909497Y-240405652D01*
X185052684Y-240315681D01*
X185052685Y-240315680D01*
X185052690Y-240315677D01*
X185172277Y-240196090D01*
X185219592Y-240120789D01*
X185262252Y-240052897D01*
X185262254Y-240052894D01*
X185262254Y-240052892D01*
X185262256Y-240052890D01*
X185318113Y-239893259D01*
X185318113Y-239893258D01*
X185318114Y-239893256D01*
X185337049Y-239725202D01*
X185337049Y-239725197D01*
X185318114Y-239557143D01*
X185262254Y-239397505D01*
X185262252Y-239397502D01*
X185172281Y-239254315D01*
X185172276Y-239254309D01*
X185052690Y-239134723D01*
X185052684Y-239134718D01*
X184909497Y-239044747D01*
X184909494Y-239044745D01*
X184749856Y-238988885D01*
X184581803Y-238969951D01*
X184581797Y-238969951D01*
X184413743Y-238988885D01*
X184254105Y-239044745D01*
X184254102Y-239044747D01*
X184110915Y-239134718D01*
X184110909Y-239134723D01*
X183991323Y-239254309D01*
X183991318Y-239254315D01*
X183901347Y-239397502D01*
X183901345Y-239397505D01*
X183845485Y-239557143D01*
X183826551Y-239725197D01*
X179899936Y-239725197D01*
X179876723Y-239710611D01*
X179706454Y-239651031D01*
X179706449Y-239651030D01*
X179527204Y-239630835D01*
X179527196Y-239630835D01*
X179347950Y-239651030D01*
X179347945Y-239651031D01*
X179177676Y-239710611D01*
X179024937Y-239806584D01*
X178897384Y-239934137D01*
X178801411Y-240086876D01*
X178741831Y-240257145D01*
X178741830Y-240257150D01*
X178721635Y-240436396D01*
X173854154Y-240436396D01*
X173855459Y-238251996D01*
X188373635Y-238251996D01*
X188373635Y-238252003D01*
X188393830Y-238431249D01*
X188393831Y-238431254D01*
X188453411Y-238601523D01*
X188536097Y-238733116D01*
X188549384Y-238754262D01*
X188676938Y-238881816D01*
X188829678Y-238977789D01*
X188999945Y-239037368D01*
X188999950Y-239037369D01*
X189179196Y-239057565D01*
X189179200Y-239057565D01*
X189179204Y-239057565D01*
X189358449Y-239037369D01*
X189358452Y-239037368D01*
X189358455Y-239037368D01*
X189528722Y-238977789D01*
X189681462Y-238881816D01*
X189809016Y-238754262D01*
X189904989Y-238601522D01*
X189964568Y-238431255D01*
X189965447Y-238423454D01*
X189984765Y-238252003D01*
X189984765Y-238251996D01*
X189964569Y-238072750D01*
X189964568Y-238072745D01*
X189952781Y-238039059D01*
X189904989Y-237902478D01*
X189809016Y-237749738D01*
X189681462Y-237622184D01*
X189582564Y-237560042D01*
X189528723Y-237526211D01*
X189358454Y-237466631D01*
X189358449Y-237466630D01*
X189179204Y-237446435D01*
X189179196Y-237446435D01*
X188999950Y-237466630D01*
X188999945Y-237466631D01*
X188829676Y-237526211D01*
X188676937Y-237622184D01*
X188549384Y-237749737D01*
X188453411Y-237902476D01*
X188393831Y-238072745D01*
X188393830Y-238072750D01*
X188373635Y-238251996D01*
X173855459Y-238251996D01*
X173856233Y-236956597D01*
X185375951Y-236956597D01*
X185375951Y-236956602D01*
X185394885Y-237124656D01*
X185450745Y-237284294D01*
X185450747Y-237284297D01*
X185540718Y-237427484D01*
X185540723Y-237427490D01*
X185660309Y-237547076D01*
X185660315Y-237547081D01*
X185803502Y-237637052D01*
X185803505Y-237637054D01*
X185803509Y-237637055D01*
X185803510Y-237637056D01*
X185860664Y-237657055D01*
X185963143Y-237692914D01*
X186131197Y-237711849D01*
X186131200Y-237711849D01*
X186131203Y-237711849D01*
X186299256Y-237692914D01*
X186315809Y-237687122D01*
X186458890Y-237637056D01*
X186458892Y-237637054D01*
X186458894Y-237637054D01*
X186458897Y-237637052D01*
X186602084Y-237547081D01*
X186602085Y-237547080D01*
X186602090Y-237547077D01*
X186721677Y-237427490D01*
X186811652Y-237284297D01*
X186811654Y-237284294D01*
X186811654Y-237284292D01*
X186811656Y-237284290D01*
X186867513Y-237124659D01*
X186867513Y-237124658D01*
X186867514Y-237124656D01*
X186886449Y-236956602D01*
X186886449Y-236956597D01*
X186867514Y-236788543D01*
X186822232Y-236659136D01*
X186811656Y-236628910D01*
X186811655Y-236628909D01*
X186811654Y-236628905D01*
X186811652Y-236628902D01*
X186721681Y-236485715D01*
X186721676Y-236485709D01*
X186602090Y-236366123D01*
X186602084Y-236366118D01*
X186458897Y-236276147D01*
X186458894Y-236276145D01*
X186299256Y-236220285D01*
X186131203Y-236201351D01*
X186131197Y-236201351D01*
X185963143Y-236220285D01*
X185803505Y-236276145D01*
X185803502Y-236276147D01*
X185660315Y-236366118D01*
X185660309Y-236366123D01*
X185540723Y-236485709D01*
X185540718Y-236485715D01*
X185450747Y-236628902D01*
X185450745Y-236628905D01*
X185394885Y-236788543D01*
X185375951Y-236956597D01*
X173856233Y-236956597D01*
X173860011Y-230631997D01*
X175419151Y-230631997D01*
X175419151Y-230632002D01*
X175438085Y-230800056D01*
X175493945Y-230959694D01*
X175493947Y-230959697D01*
X175583918Y-231102884D01*
X175583923Y-231102890D01*
X175660352Y-231179319D01*
X175693837Y-231240642D01*
X175688853Y-231310334D01*
X175660352Y-231354681D01*
X175583923Y-231431109D01*
X175583918Y-231431115D01*
X175493947Y-231574302D01*
X175493945Y-231574305D01*
X175438085Y-231733943D01*
X175419151Y-231901997D01*
X175419151Y-231902002D01*
X175438085Y-232070056D01*
X175493945Y-232229694D01*
X175493947Y-232229697D01*
X175583918Y-232372884D01*
X175583923Y-232372890D01*
X175703509Y-232492476D01*
X175703515Y-232492481D01*
X175846702Y-232582452D01*
X175846705Y-232582454D01*
X175846709Y-232582455D01*
X175846710Y-232582456D01*
X175919313Y-232607860D01*
X176006343Y-232638314D01*
X176174397Y-232657249D01*
X176174400Y-232657249D01*
X176174403Y-232657249D01*
X176342456Y-232638314D01*
X176342459Y-232638313D01*
X176502090Y-232582456D01*
X176502092Y-232582454D01*
X176502094Y-232582454D01*
X176502097Y-232582452D01*
X176645284Y-232492481D01*
X176645285Y-232492480D01*
X176645290Y-232492477D01*
X176764877Y-232372890D01*
X176854852Y-232229697D01*
X176854854Y-232229694D01*
X176854854Y-232229692D01*
X176854856Y-232229690D01*
X176910713Y-232070059D01*
X176910713Y-232070058D01*
X176910714Y-232070056D01*
X176915340Y-232028996D01*
X187278435Y-232028996D01*
X187278435Y-232029003D01*
X187298630Y-232208249D01*
X187298631Y-232208254D01*
X187358211Y-232378523D01*
X187400743Y-232446211D01*
X187454184Y-232531262D01*
X187581738Y-232658816D01*
X187734478Y-232754789D01*
X187852778Y-232796184D01*
X187904745Y-232814368D01*
X187904750Y-232814369D01*
X188083996Y-232834565D01*
X188084000Y-232834565D01*
X188084004Y-232834565D01*
X188263249Y-232814369D01*
X188263252Y-232814368D01*
X188263255Y-232814368D01*
X188433522Y-232754789D01*
X188586262Y-232658816D01*
X188713816Y-232531262D01*
X188809789Y-232378522D01*
X188869368Y-232208255D01*
X188869369Y-232208249D01*
X188889565Y-232029003D01*
X188889565Y-232028996D01*
X188869369Y-231849750D01*
X188869368Y-231849745D01*
X188809788Y-231679476D01*
X188743702Y-231574302D01*
X188713816Y-231526738D01*
X188586262Y-231399184D01*
X188515436Y-231354681D01*
X188433523Y-231303211D01*
X188263254Y-231243631D01*
X188263249Y-231243630D01*
X188084004Y-231223435D01*
X188083996Y-231223435D01*
X187904750Y-231243630D01*
X187904745Y-231243631D01*
X187734476Y-231303211D01*
X187581737Y-231399184D01*
X187454184Y-231526737D01*
X187358211Y-231679476D01*
X187298631Y-231849745D01*
X187298630Y-231849750D01*
X187278435Y-232028996D01*
X176915340Y-232028996D01*
X176929649Y-231902002D01*
X176929649Y-231901997D01*
X176910714Y-231733943D01*
X176854854Y-231574305D01*
X176854852Y-231574302D01*
X176764881Y-231431115D01*
X176764876Y-231431109D01*
X176688448Y-231354681D01*
X176654963Y-231293358D01*
X176659947Y-231223666D01*
X176688448Y-231179319D01*
X176764877Y-231102890D01*
X176854852Y-230959697D01*
X176854854Y-230959694D01*
X176854854Y-230959692D01*
X176854856Y-230959690D01*
X176910713Y-230800059D01*
X176910713Y-230800058D01*
X176910714Y-230800056D01*
X176929649Y-230632002D01*
X176929649Y-230631997D01*
X176910714Y-230463943D01*
X176854854Y-230304305D01*
X176854852Y-230304302D01*
X176764881Y-230161115D01*
X176764876Y-230161109D01*
X176645290Y-230041523D01*
X176645284Y-230041518D01*
X176502097Y-229951547D01*
X176502094Y-229951545D01*
X176342456Y-229895685D01*
X176174403Y-229876751D01*
X176174397Y-229876751D01*
X176006343Y-229895685D01*
X175846705Y-229951545D01*
X175846702Y-229951547D01*
X175703515Y-230041518D01*
X175703509Y-230041523D01*
X175583923Y-230161109D01*
X175583918Y-230161115D01*
X175493947Y-230304302D01*
X175493945Y-230304305D01*
X175438085Y-230463943D01*
X175419151Y-230631997D01*
X173860011Y-230631997D01*
X173861483Y-228168196D01*
X190075435Y-228168196D01*
X190075435Y-228168203D01*
X190095630Y-228347449D01*
X190095631Y-228347454D01*
X190155211Y-228517723D01*
X190158774Y-228523393D01*
X190251184Y-228670462D01*
X190378738Y-228798016D01*
X190469080Y-228854782D01*
X190491052Y-228868588D01*
X190531478Y-228893989D01*
X190629156Y-228928168D01*
X190701745Y-228953568D01*
X190701750Y-228953569D01*
X190880996Y-228973765D01*
X190881000Y-228973765D01*
X190881004Y-228973765D01*
X191060249Y-228953569D01*
X191060252Y-228953568D01*
X191060255Y-228953568D01*
X191230522Y-228893989D01*
X191383262Y-228798016D01*
X191510816Y-228670462D01*
X191606789Y-228517722D01*
X191666368Y-228347455D01*
X191669231Y-228322049D01*
X191686565Y-228168203D01*
X191686565Y-228168196D01*
X191683703Y-228142796D01*
X192463035Y-228142796D01*
X192463035Y-228142803D01*
X192483230Y-228322049D01*
X192483231Y-228322054D01*
X192542811Y-228492323D01*
X192562334Y-228523393D01*
X192638784Y-228645062D01*
X192766338Y-228772616D01*
X192919078Y-228868589D01*
X193089345Y-228928168D01*
X193089350Y-228928169D01*
X193268596Y-228948365D01*
X193268600Y-228948365D01*
X193268604Y-228948365D01*
X193447849Y-228928169D01*
X193447852Y-228928168D01*
X193447855Y-228928168D01*
X193618122Y-228868589D01*
X193770862Y-228772616D01*
X193898416Y-228645062D01*
X193994389Y-228492322D01*
X194053968Y-228322055D01*
X194053969Y-228322049D01*
X194074165Y-228142803D01*
X194074165Y-228142796D01*
X194053969Y-227963550D01*
X194053968Y-227963545D01*
X193994388Y-227793276D01*
X193898415Y-227640537D01*
X193770862Y-227512984D01*
X193618123Y-227417011D01*
X193447854Y-227357431D01*
X193447849Y-227357430D01*
X193268604Y-227337235D01*
X193268596Y-227337235D01*
X193089350Y-227357430D01*
X193089345Y-227357431D01*
X192919076Y-227417011D01*
X192766337Y-227512984D01*
X192638784Y-227640537D01*
X192542811Y-227793276D01*
X192483231Y-227963545D01*
X192483230Y-227963550D01*
X192463035Y-228142796D01*
X191683703Y-228142796D01*
X191666369Y-227988950D01*
X191666368Y-227988945D01*
X191606788Y-227818676D01*
X191510815Y-227665937D01*
X191383262Y-227538384D01*
X191230523Y-227442411D01*
X191060254Y-227382831D01*
X191060249Y-227382830D01*
X190881004Y-227362635D01*
X190880996Y-227362635D01*
X190701750Y-227382830D01*
X190701745Y-227382831D01*
X190531476Y-227442411D01*
X190378737Y-227538384D01*
X190251184Y-227665937D01*
X190155211Y-227818676D01*
X190095631Y-227988945D01*
X190095630Y-227988950D01*
X190075435Y-228168196D01*
X173861483Y-228168196D01*
X173863000Y-225628200D01*
X173116780Y-225628200D01*
X173102899Y-225627420D01*
X173049721Y-225621428D01*
X172948603Y-225610035D01*
X172948597Y-225610035D01*
X172847478Y-225621428D01*
X172794300Y-225627420D01*
X172780420Y-225628200D01*
X170343233Y-225628200D01*
X170276194Y-225608515D01*
X170230439Y-225555711D01*
X170219238Y-225503073D01*
X170230800Y-224231200D01*
X160070800Y-224231200D01*
X160045951Y-229797354D01*
X160025967Y-229864304D01*
X159972959Y-229909823D01*
X159921952Y-229920800D01*
X153046700Y-229920800D01*
X152979661Y-229901115D01*
X152933906Y-229848311D01*
X152922700Y-229796800D01*
X152922700Y-225780596D01*
X153499435Y-225780596D01*
X153499435Y-225780603D01*
X153519630Y-225959849D01*
X153519631Y-225959854D01*
X153579211Y-226130123D01*
X153645955Y-226236345D01*
X153675184Y-226282862D01*
X153802738Y-226410416D01*
X153955478Y-226506389D01*
X154125745Y-226565968D01*
X154125750Y-226565969D01*
X154304996Y-226586165D01*
X154305000Y-226586165D01*
X154305004Y-226586165D01*
X154484249Y-226565969D01*
X154484252Y-226565968D01*
X154484255Y-226565968D01*
X154654522Y-226506389D01*
X154785128Y-226424323D01*
X154852364Y-226405323D01*
X154917071Y-226424323D01*
X154954566Y-226447883D01*
X155047675Y-226506388D01*
X155217945Y-226565968D01*
X155217950Y-226565969D01*
X155397196Y-226586165D01*
X155397200Y-226586165D01*
X155397204Y-226586165D01*
X155576449Y-226565969D01*
X155576452Y-226565968D01*
X155576455Y-226565968D01*
X155746722Y-226506389D01*
X155899462Y-226410416D01*
X156027016Y-226282862D01*
X156122989Y-226130122D01*
X156182568Y-225959855D01*
X156202765Y-225780600D01*
X156183547Y-225610035D01*
X156182569Y-225601350D01*
X156182568Y-225601345D01*
X156166600Y-225555711D01*
X156122989Y-225431078D01*
X156027016Y-225278338D01*
X155899462Y-225150784D01*
X155877328Y-225136876D01*
X155746723Y-225054811D01*
X155576454Y-224995231D01*
X155576449Y-224995230D01*
X155397204Y-224975035D01*
X155397196Y-224975035D01*
X155217950Y-224995230D01*
X155217945Y-224995231D01*
X155047676Y-225054811D01*
X154917072Y-225136876D01*
X154849835Y-225155876D01*
X154785128Y-225136876D01*
X154654523Y-225054811D01*
X154484254Y-224995231D01*
X154484249Y-224995230D01*
X154305004Y-224975035D01*
X154304996Y-224975035D01*
X154125750Y-224995230D01*
X154125745Y-224995231D01*
X153955476Y-225054811D01*
X153802737Y-225150784D01*
X153675184Y-225278337D01*
X153579211Y-225431076D01*
X153519631Y-225601345D01*
X153519630Y-225601350D01*
X153499435Y-225780596D01*
X152922700Y-225780596D01*
X152922700Y-222580196D01*
X182709435Y-222580196D01*
X182709435Y-222580203D01*
X182729630Y-222759449D01*
X182729631Y-222759454D01*
X182789211Y-222929723D01*
X182855314Y-223034925D01*
X182885184Y-223082462D01*
X183012738Y-223210016D01*
X183165478Y-223305989D01*
X183335745Y-223365568D01*
X183335750Y-223365569D01*
X183514996Y-223385765D01*
X183515000Y-223385765D01*
X183515004Y-223385765D01*
X183694249Y-223365569D01*
X183694252Y-223365568D01*
X183694255Y-223365568D01*
X183864522Y-223305989D01*
X183983010Y-223231537D01*
X184050246Y-223212537D01*
X184117081Y-223232904D01*
X184162296Y-223286172D01*
X184172202Y-223322646D01*
X184177431Y-223369050D01*
X184177431Y-223369054D01*
X184237011Y-223539323D01*
X184332984Y-223692062D01*
X184460538Y-223819616D01*
X184613278Y-223915589D01*
X184783545Y-223975168D01*
X184783550Y-223975169D01*
X184962796Y-223995365D01*
X184962800Y-223995365D01*
X184962804Y-223995365D01*
X185142049Y-223975169D01*
X185142052Y-223975168D01*
X185142055Y-223975168D01*
X185312322Y-223915589D01*
X185465062Y-223819616D01*
X185592616Y-223692062D01*
X185688589Y-223539322D01*
X185748168Y-223369055D01*
X185757507Y-223286172D01*
X185768365Y-223189803D01*
X185768365Y-223189796D01*
X185748169Y-223010550D01*
X185748168Y-223010545D01*
X185688588Y-222840276D01*
X185592615Y-222687537D01*
X185465062Y-222559984D01*
X185312323Y-222464011D01*
X185142054Y-222404431D01*
X185142049Y-222404430D01*
X184962804Y-222384235D01*
X184962796Y-222384235D01*
X184783550Y-222404430D01*
X184783545Y-222404431D01*
X184613276Y-222464011D01*
X184494789Y-222538462D01*
X184427552Y-222557462D01*
X184360717Y-222537094D01*
X184315503Y-222483826D01*
X184305597Y-222447351D01*
X184300369Y-222400949D01*
X184300368Y-222400945D01*
X184240788Y-222230676D01*
X184144815Y-222077937D01*
X184017262Y-221950384D01*
X183864523Y-221854411D01*
X183694254Y-221794831D01*
X183694249Y-221794830D01*
X183515004Y-221774635D01*
X183514996Y-221774635D01*
X183335750Y-221794830D01*
X183335745Y-221794831D01*
X183165476Y-221854411D01*
X183012737Y-221950384D01*
X182885184Y-222077937D01*
X182789211Y-222230676D01*
X182729631Y-222400945D01*
X182729630Y-222400950D01*
X182709435Y-222580196D01*
X152922700Y-222580196D01*
X152922700Y-218970349D01*
X152922926Y-218962862D01*
X152930036Y-218845312D01*
X152930036Y-218845311D01*
X153571700Y-218845311D01*
X153571700Y-219087888D01*
X153603361Y-219328385D01*
X153666147Y-219562704D01*
X153758973Y-219786805D01*
X153758976Y-219786812D01*
X153880264Y-219996889D01*
X153880266Y-219996892D01*
X153880267Y-219996893D01*
X154027933Y-220189336D01*
X154027939Y-220189343D01*
X154199456Y-220360860D01*
X154199462Y-220360865D01*
X154391911Y-220508536D01*
X154601988Y-220629824D01*
X154826100Y-220722654D01*
X155060411Y-220785438D01*
X155240786Y-220809184D01*
X155300911Y-220817100D01*
X155300912Y-220817100D01*
X155543489Y-220817100D01*
X155591588Y-220810767D01*
X155783989Y-220785438D01*
X156018300Y-220722654D01*
X156242412Y-220629824D01*
X156452489Y-220508536D01*
X156644938Y-220360865D01*
X156816465Y-220189338D01*
X156964136Y-219996889D01*
X157085424Y-219786812D01*
X157178254Y-219562700D01*
X157241038Y-219328389D01*
X157272700Y-219087888D01*
X157272700Y-218845312D01*
X157265355Y-218789524D01*
X157252779Y-218693996D01*
X162541835Y-218693996D01*
X162541835Y-218694003D01*
X162562030Y-218873249D01*
X162562031Y-218873254D01*
X162621611Y-219043523D01*
X162649488Y-219087888D01*
X162717584Y-219196262D01*
X162845138Y-219323816D01*
X162997878Y-219419789D01*
X162997880Y-219419790D01*
X163129821Y-219465959D01*
X163186597Y-219506680D01*
X163212344Y-219571633D01*
X163198888Y-219640195D01*
X163150500Y-219690597D01*
X163129821Y-219700041D01*
X162997880Y-219746209D01*
X162845137Y-219842184D01*
X162717584Y-219969737D01*
X162621611Y-220122476D01*
X162562031Y-220292745D01*
X162562030Y-220292750D01*
X162541835Y-220471996D01*
X162541835Y-220472003D01*
X162562030Y-220651249D01*
X162562031Y-220651254D01*
X162621611Y-220821523D01*
X162685296Y-220922876D01*
X162717584Y-220974262D01*
X162845138Y-221101816D01*
X162997878Y-221197789D01*
X163168145Y-221257368D01*
X163168150Y-221257369D01*
X163347396Y-221277565D01*
X163347400Y-221277565D01*
X163347404Y-221277565D01*
X163393280Y-221272396D01*
X185566635Y-221272396D01*
X185566635Y-221272403D01*
X185586830Y-221451649D01*
X185586831Y-221451654D01*
X185646411Y-221621923D01*
X185742367Y-221774635D01*
X185742384Y-221774662D01*
X185869938Y-221902216D01*
X186022678Y-221998189D01*
X186192945Y-222057768D01*
X186192950Y-222057769D01*
X186372196Y-222077965D01*
X186372200Y-222077965D01*
X186372204Y-222077965D01*
X186551449Y-222057769D01*
X186551452Y-222057768D01*
X186551455Y-222057768D01*
X186721722Y-221998189D01*
X186874462Y-221902216D01*
X187002016Y-221774662D01*
X187097989Y-221621922D01*
X187157568Y-221451655D01*
X187177765Y-221272400D01*
X187176071Y-221257369D01*
X187157569Y-221093150D01*
X187157568Y-221093145D01*
X187097988Y-220922876D01*
X187031524Y-220817100D01*
X187002016Y-220770138D01*
X186874462Y-220642584D01*
X186854155Y-220629824D01*
X186721723Y-220546611D01*
X186551454Y-220487031D01*
X186551449Y-220487030D01*
X186372204Y-220466835D01*
X186372196Y-220466835D01*
X186192950Y-220487030D01*
X186192945Y-220487031D01*
X186022676Y-220546611D01*
X185869937Y-220642584D01*
X185742384Y-220770137D01*
X185646411Y-220922876D01*
X185586831Y-221093145D01*
X185586830Y-221093150D01*
X185566635Y-221272396D01*
X163393280Y-221272396D01*
X163526649Y-221257369D01*
X163526652Y-221257368D01*
X163526655Y-221257368D01*
X163696922Y-221197789D01*
X163849662Y-221101816D01*
X163977216Y-220974262D01*
X164073189Y-220821522D01*
X164132768Y-220651255D01*
X164133745Y-220642584D01*
X164152965Y-220472003D01*
X164152965Y-220471996D01*
X164132769Y-220292750D01*
X164132768Y-220292745D01*
X164096584Y-220189338D01*
X164073189Y-220122478D01*
X163977216Y-219969738D01*
X163849662Y-219842184D01*
X163696921Y-219746210D01*
X163564979Y-219700042D01*
X163508202Y-219659320D01*
X163482455Y-219594367D01*
X163495911Y-219525806D01*
X163544298Y-219475403D01*
X163564979Y-219465958D01*
X163604116Y-219452262D01*
X163696922Y-219419789D01*
X163849662Y-219323816D01*
X163977216Y-219196262D01*
X164073189Y-219043522D01*
X164132768Y-218873255D01*
X164132769Y-218873249D01*
X164152965Y-218694003D01*
X164152965Y-218693996D01*
X164132769Y-218514750D01*
X164132768Y-218514745D01*
X164106615Y-218440003D01*
X164106613Y-218439996D01*
X170263435Y-218439996D01*
X170263435Y-218440003D01*
X170283630Y-218619249D01*
X170283631Y-218619254D01*
X170343211Y-218789523D01*
X170425276Y-218920128D01*
X170444276Y-218987365D01*
X170425276Y-219052072D01*
X170343211Y-219182676D01*
X170283631Y-219352945D01*
X170283630Y-219352950D01*
X170263435Y-219532196D01*
X170263435Y-219532203D01*
X170283630Y-219711449D01*
X170283631Y-219711454D01*
X170343211Y-219881723D01*
X170398515Y-219969738D01*
X170439184Y-220034462D01*
X170566738Y-220162016D01*
X170719478Y-220257989D01*
X170889745Y-220317568D01*
X170889750Y-220317569D01*
X171068996Y-220337765D01*
X171069000Y-220337765D01*
X171069004Y-220337765D01*
X171248249Y-220317569D01*
X171248252Y-220317568D01*
X171248255Y-220317568D01*
X171418522Y-220257989D01*
X171571262Y-220162016D01*
X171698816Y-220034462D01*
X171794789Y-219881722D01*
X171854368Y-219711455D01*
X171857165Y-219686632D01*
X171874565Y-219532203D01*
X171874565Y-219532196D01*
X171854369Y-219352950D01*
X171854368Y-219352945D01*
X171794788Y-219182675D01*
X171712724Y-219052073D01*
X171693723Y-218984836D01*
X171712724Y-218920127D01*
X171724927Y-218900707D01*
X171760429Y-218844205D01*
X171794788Y-218789524D01*
X171794789Y-218789522D01*
X171854368Y-218619255D01*
X171855995Y-218604814D01*
X171874565Y-218440003D01*
X171874565Y-218439996D01*
X191853435Y-218439996D01*
X191853435Y-218440003D01*
X191873630Y-218619249D01*
X191873631Y-218619254D01*
X191933211Y-218789523D01*
X192015276Y-218920128D01*
X192034276Y-218987365D01*
X192015276Y-219052072D01*
X191933211Y-219182676D01*
X191873631Y-219352945D01*
X191873630Y-219352950D01*
X191853435Y-219532196D01*
X191853435Y-219532203D01*
X191873630Y-219711449D01*
X191873631Y-219711454D01*
X191933211Y-219881723D01*
X191988515Y-219969738D01*
X192029184Y-220034462D01*
X192156738Y-220162016D01*
X192309478Y-220257989D01*
X192479745Y-220317568D01*
X192479750Y-220317569D01*
X192658996Y-220337765D01*
X192659000Y-220337765D01*
X192659004Y-220337765D01*
X192838249Y-220317569D01*
X192838252Y-220317568D01*
X192838255Y-220317568D01*
X193008522Y-220257989D01*
X193161262Y-220162016D01*
X193288816Y-220034462D01*
X193384789Y-219881722D01*
X193444368Y-219711455D01*
X193447165Y-219686632D01*
X193464565Y-219532203D01*
X193464565Y-219532196D01*
X193444369Y-219352950D01*
X193444368Y-219352945D01*
X193384788Y-219182675D01*
X193302724Y-219052073D01*
X193283723Y-218984836D01*
X193302724Y-218920127D01*
X193314927Y-218900707D01*
X193349734Y-218845311D01*
X197571700Y-218845311D01*
X197571700Y-219087888D01*
X197603361Y-219328385D01*
X197666147Y-219562704D01*
X197758973Y-219786805D01*
X197758976Y-219786812D01*
X197880264Y-219996889D01*
X197880266Y-219996892D01*
X197880267Y-219996893D01*
X198027933Y-220189336D01*
X198027939Y-220189343D01*
X198199456Y-220360860D01*
X198199462Y-220360865D01*
X198391911Y-220508536D01*
X198601988Y-220629824D01*
X198826100Y-220722654D01*
X199060411Y-220785438D01*
X199240786Y-220809184D01*
X199300911Y-220817100D01*
X199300912Y-220817100D01*
X199543489Y-220817100D01*
X199591588Y-220810767D01*
X199783989Y-220785438D01*
X200018300Y-220722654D01*
X200242412Y-220629824D01*
X200452489Y-220508536D01*
X200644938Y-220360865D01*
X200816465Y-220189338D01*
X200964136Y-219996889D01*
X201085424Y-219786812D01*
X201178254Y-219562700D01*
X201241038Y-219328389D01*
X201272700Y-219087888D01*
X201272700Y-218845312D01*
X201265355Y-218789524D01*
X201249989Y-218672804D01*
X201241038Y-218604811D01*
X201178254Y-218370500D01*
X201085424Y-218146388D01*
X200964136Y-217936311D01*
X200816465Y-217743862D01*
X200816460Y-217743856D01*
X200644943Y-217572339D01*
X200644936Y-217572333D01*
X200452493Y-217424667D01*
X200452492Y-217424666D01*
X200452489Y-217424664D01*
X200280861Y-217325574D01*
X200242414Y-217303377D01*
X200242405Y-217303373D01*
X200018304Y-217210547D01*
X199783985Y-217147761D01*
X199543489Y-217116100D01*
X199543488Y-217116100D01*
X199300912Y-217116100D01*
X199300911Y-217116100D01*
X199060414Y-217147761D01*
X198826095Y-217210547D01*
X198601994Y-217303373D01*
X198601985Y-217303377D01*
X198391906Y-217424667D01*
X198199463Y-217572333D01*
X198199456Y-217572339D01*
X198027939Y-217743856D01*
X198027933Y-217743863D01*
X197880267Y-217936306D01*
X197758977Y-218146385D01*
X197758973Y-218146394D01*
X197666147Y-218370495D01*
X197603361Y-218604814D01*
X197571700Y-218845311D01*
X193349734Y-218845311D01*
X193350429Y-218844205D01*
X193384788Y-218789524D01*
X193384789Y-218789522D01*
X193444368Y-218619255D01*
X193445995Y-218604814D01*
X193464565Y-218440003D01*
X193464565Y-218439996D01*
X193444369Y-218260750D01*
X193444368Y-218260745D01*
X193384788Y-218090476D01*
X193288815Y-217937737D01*
X193161262Y-217810184D01*
X193008523Y-217714211D01*
X192838254Y-217654631D01*
X192838249Y-217654630D01*
X192659004Y-217634435D01*
X192658996Y-217634435D01*
X192479750Y-217654630D01*
X192479745Y-217654631D01*
X192309476Y-217714211D01*
X192156737Y-217810184D01*
X192029184Y-217937737D01*
X191933211Y-218090476D01*
X191873631Y-218260745D01*
X191873630Y-218260750D01*
X191853435Y-218439996D01*
X171874565Y-218439996D01*
X171854369Y-218260750D01*
X171854368Y-218260745D01*
X171794788Y-218090476D01*
X171698815Y-217937737D01*
X171571262Y-217810184D01*
X171418523Y-217714211D01*
X171248254Y-217654631D01*
X171248249Y-217654630D01*
X171069004Y-217634435D01*
X171068996Y-217634435D01*
X170889750Y-217654630D01*
X170889745Y-217654631D01*
X170719476Y-217714211D01*
X170566737Y-217810184D01*
X170439184Y-217937737D01*
X170343211Y-218090476D01*
X170283631Y-218260745D01*
X170283630Y-218260750D01*
X170263435Y-218439996D01*
X164106613Y-218439996D01*
X164073189Y-218344478D01*
X163977216Y-218191738D01*
X163849662Y-218064184D01*
X163696923Y-217968211D01*
X163526654Y-217908631D01*
X163526649Y-217908630D01*
X163347404Y-217888435D01*
X163347396Y-217888435D01*
X163168150Y-217908630D01*
X163168145Y-217908631D01*
X162997876Y-217968211D01*
X162845137Y-218064184D01*
X162717584Y-218191737D01*
X162621611Y-218344476D01*
X162562031Y-218514745D01*
X162562030Y-218514750D01*
X162541835Y-218693996D01*
X157252779Y-218693996D01*
X157249989Y-218672804D01*
X157241038Y-218604811D01*
X157178254Y-218370500D01*
X157085424Y-218146388D01*
X156964136Y-217936311D01*
X156816465Y-217743862D01*
X156816460Y-217743856D01*
X156644943Y-217572339D01*
X156644936Y-217572333D01*
X156452493Y-217424667D01*
X156452492Y-217424666D01*
X156452489Y-217424664D01*
X156280861Y-217325574D01*
X156242414Y-217303377D01*
X156242405Y-217303373D01*
X156018304Y-217210547D01*
X155783985Y-217147761D01*
X155543489Y-217116100D01*
X155543488Y-217116100D01*
X155300912Y-217116100D01*
X155300911Y-217116100D01*
X155060414Y-217147761D01*
X154826095Y-217210547D01*
X154601994Y-217303373D01*
X154601985Y-217303377D01*
X154391906Y-217424667D01*
X154199463Y-217572333D01*
X154199456Y-217572339D01*
X154027939Y-217743856D01*
X154027933Y-217743863D01*
X153880267Y-217936306D01*
X153758977Y-218146385D01*
X153758973Y-218146394D01*
X153666147Y-218370495D01*
X153603361Y-218604814D01*
X153571700Y-218845311D01*
X152930036Y-218845311D01*
X152940471Y-218672800D01*
X152942276Y-218657939D01*
X152949366Y-218619254D01*
X152993980Y-218375797D01*
X152997564Y-218361263D01*
X153082899Y-218087411D01*
X153088197Y-218073441D01*
X153205927Y-217811857D01*
X153212880Y-217798610D01*
X153361280Y-217553126D01*
X153369767Y-217540830D01*
X153546681Y-217315017D01*
X153556596Y-217303826D01*
X153759426Y-217100995D01*
X153770617Y-217091080D01*
X153996430Y-216914167D01*
X154008734Y-216905675D01*
X154187581Y-216797559D01*
X154254212Y-216757280D01*
X154267458Y-216750327D01*
X154529042Y-216632597D01*
X154543012Y-216627299D01*
X154816868Y-216541962D01*
X154831398Y-216538380D01*
X155113544Y-216486675D01*
X155128401Y-216484871D01*
X155418487Y-216467324D01*
X155425960Y-216467099D01*
X155488092Y-216467099D01*
X199356308Y-216467099D01*
X199418449Y-216467099D01*
X199425936Y-216467325D01*
G37*
G04 #@! TD.AperFunction*
M02*
