M48
; DRILL file {KiCad 8.0.8} date 2025-01-21T11:13:40-0500
; FORMAT={-:-/ absolute / metric / decimal}
; #@! TF.CreationDate,2025-01-21T11:13:40-05:00
; #@! TF.GenerationSoftware,Kicad,Pcbnew,8.0.8
; #@! TF.FileFunction,Plated,1,4,PTH
FMAT,2
METRIC
; #@! TA.AperFunction,Plated,PTH,ComponentDrill
T1C0.200
; #@! TA.AperFunction,Plated,PTH,ViaDrill
T2C0.300
; #@! TA.AperFunction,Plated,PTH,ComponentDrill
T3C0.500
; #@! TA.AperFunction,Plated,PTH,ComponentDrill
T4C0.550
; #@! TA.AperFunction,Plated,PTH,ComponentDrill
T5C1.200
%
G90
G05
T1
X163.848Y-283.101
X163.848Y-284.226
X163.848Y-285.351
X164.973Y-283.101
X164.973Y-284.226
X164.973Y-285.351
X166.098Y-283.101
X166.098Y-284.226
X166.098Y-285.351
X178.41Y-281.088
X178.41Y-282.488
X179.11Y-280.388
X179.11Y-281.788
X179.11Y-283.188
X179.81Y-281.088
X179.81Y-282.488
X180.51Y-280.388
X180.51Y-281.788
X180.51Y-283.188
X181.21Y-281.088
X181.21Y-282.488
T2
X154.178Y-271.856
X154.305Y-225.781
X154.305Y-228.346
X154.305Y-233.426
X155.042Y-268.732
X155.397Y-225.781
X155.397Y-228.346
X155.397Y-233.426
X155.728Y-237.465
X156.845Y-240.284
X157.937Y-280.695
X158.42Y-281.813
X158.42Y-283.337
X158.471Y-284.836
X158.471Y-286.385
X158.496Y-240.284
X158.75Y-259.664
X159.576Y-237.478
X159.842Y-259.664
X161.214Y-271.145
X162.117Y-286.373
X162.128Y-288.061
X162.128Y-289.662
X162.357Y-278.206
X162.357Y-280.289
X163.195Y-247.142
X163.297Y-272.948
X163.297Y-289.712
X163.322Y-271.17
X163.347Y-218.694
X163.347Y-220.472
X163.347Y-240.259
X163.373Y-278.74
X164.135Y-262.788
X164.15Y-277.536
X164.414Y-233.426
X164.465Y-237.363
X164.592Y-258.274
X164.8Y-280.137
X164.8Y-280.917
X164.973Y-243.256
X165.024Y-277.546
X165.252Y-262.788
X165.26Y-258.874
X165.506Y-233.426
X165.887Y-277.546
X166.002Y-248.234
X166.002Y-249.085
X166.014Y-237.338
X166.014Y-239.395
X166.015Y-251.561
X166.268Y-262.788
X166.624Y-259.908
X167.03Y-274.879
X167.056Y-275.844
X167.056Y-276.86
X167.119Y-218.669
X167.119Y-220.447
X167.132Y-227.559
X167.183Y-261.061
X167.208Y-230.632
X167.208Y-233.172
X167.208Y-234.823
X167.208Y-262.738
X167.234Y-231.902
X167.234Y-245.516
X167.246Y-248.501
X167.259Y-246.761
X167.335Y-237.871
X167.335Y-239.141
X167.386Y-241.376
X167.411Y-252.4
X167.437Y-254.076
X167.488Y-286.512
X167.945Y-278.079
X167.945Y-279.349
X167.996Y-280.619
X167.996Y-281.864
X168.038Y-283.515
X168.148Y-226.314
X168.338Y-264.224
X169.164Y-256.286
X170.256Y-241.249
X170.282Y-248.768
X170.332Y-233.807
X171.044Y-223.444
X171.044Y-224.536
X171.069Y-218.44
X171.069Y-219.532
X171.831Y-249.834
X171.983Y-257.124
X172.263Y-233.172
X172.263Y-241.224
X172.263Y-248.031
X172.288Y-240.411
X172.364Y-235.915
X172.949Y-226.416
X174.625Y-263.982
X175.59Y-242.316
X175.616Y-245.491
X175.616Y-249.809
X175.641Y-227.559
X175.641Y-234.798
X175.641Y-246.761
X175.754Y-254.954
X175.844Y-257.175
X176.174Y-230.632
X176.174Y-231.902
X176.225Y-218.338
X176.225Y-219.431
X176.225Y-220.523
X176.225Y-221.615
X176.428Y-248.971
X178.918Y-263.804
X179.527Y-240.436
X179.527Y-252.832
X179.705Y-251.562
X180.035Y-248.945
X180.061Y-255.016
X180.696Y-242.367
X180.746Y-249.784
X180.772Y-257.175
X183.515Y-222.58
X184.404Y-257.175
X184.429Y-242.341
X184.48Y-236.601
X184.48Y-247.98
X184.48Y-249.809
X184.48Y-262.763
X184.48Y-263.906
X184.506Y-251.181
X184.506Y-266.344
X184.582Y-239.725
X184.582Y-258.318
X184.836Y-252.806
X184.836Y-254.127
X184.887Y-259.842
X184.963Y-223.19
X185.242Y-247.244
X185.598Y-288.214
X185.623Y-254.787
X186.131Y-236.957
X186.182Y-249.631
X186.372Y-221.272
X187.223Y-264.414
X187.249Y-241.706
X187.731Y-253.949
X188.036Y-243.688
X188.036Y-247.244
X188.062Y-252.908
X188.084Y-232.029
X188.163Y-245.974
X188.163Y-248.564
X188.671Y-283.21
X188.722Y-279.425
X188.74Y-277.807
X188.773Y-285.039
X188.773Y-286.258
X188.781Y-284.002
X188.824Y-288.138
X188.824Y-289.212
X188.925Y-272.999
X188.925Y-274.269
X189.027Y-275.539
X189.179Y-238.252
X189.179Y-241.859
X189.179Y-245.872
X189.179Y-250.165
X189.179Y-253.771
X189.179Y-260.604
X189.179Y-264.211
X190.881Y-228.168
X190.906Y-282.448
X191.059Y-235.204
X191.059Y-242.824
X191.059Y-250.215
X191.075Y-238.547
X191.084Y-246.126
X191.084Y-253.517
X191.084Y-257.556
X191.084Y-260.807
X191.579Y-283.375
X192.227Y-265.1
X192.253Y-231.394
X192.405Y-285.674
X192.405Y-287.325
X192.405Y-288.95
X192.481Y-276.758
X192.481Y-282.702
X192.659Y-218.44
X192.659Y-219.532
X193.269Y-228.143
X193.269Y-286.969
X194.234Y-268.63
X194.843Y-274.498
X195.224Y-283.312
X196.418Y-285.623
X197.434Y-272.034
X197.866Y-274.422
X200.381Y-281.28
X200.431Y-275.59
T5
X200.764Y-229.24
X200.764Y-231.78
X200.764Y-237.241
X200.764Y-239.781
X200.764Y-244.861
X200.764Y-247.401
X200.764Y-252.227
X200.764Y-254.767
X200.764Y-259.593
X200.764Y-262.133
X200.764Y-266.954
X200.764Y-269.494
X200.764Y-272.034
T3
X154.219Y-275.9G85X153.569Y-275.9
G05
X154.219Y-282.9G85X153.569Y-282.9
G05
T4
X156.594Y-276.75G85X156.594Y-277.05
G05
X156.594Y-281.75G85X156.594Y-282.05
G05
M30
