G04 #@! TF.GenerationSoftware,KiCad,Pcbnew,8.0.8*
G04 #@! TF.CreationDate,2025-01-21T11:13:05-05:00*
G04 #@! TF.ProjectId,_HW_ESP32-IsoLink,5f48575f-4553-4503-9332-2d49736f4c69,rev?*
G04 #@! TF.SameCoordinates,Original*
G04 #@! TF.FileFunction,Copper,L3,Inr*
G04 #@! TF.FilePolarity,Positive*
%FSLAX46Y46*%
G04 Gerber Fmt 4.6, Leading zero omitted, Abs format (unit mm)*
G04 Created by KiCad (PCBNEW 8.0.8) date 2025-01-21 11:13:05*
%MOMM*%
%LPD*%
G01*
G04 APERTURE LIST*
G04 #@! TA.AperFunction,ComponentPad*
%ADD10R,2.000000X2.000000*%
G04 #@! TD*
G04 #@! TA.AperFunction,ComponentPad*
%ADD11C,2.000000*%
G04 #@! TD*
G04 #@! TA.AperFunction,ComponentPad*
%ADD12O,1.550000X0.890000*%
G04 #@! TD*
G04 #@! TA.AperFunction,ComponentPad*
%ADD13O,0.950000X1.250000*%
G04 #@! TD*
G04 #@! TA.AperFunction,ComponentPad*
%ADD14C,0.400000*%
G04 #@! TD*
G04 #@! TA.AperFunction,HeatsinkPad*
%ADD15C,0.500000*%
G04 #@! TD*
G04 #@! TA.AperFunction,ViaPad*
%ADD16C,0.500000*%
G04 #@! TD*
G04 #@! TA.AperFunction,ViaPad*
%ADD17C,0.600000*%
G04 #@! TD*
G04 APERTURE END LIST*
D10*
X200764000Y-254767000D03*
D11*
X200764000Y-252227000D03*
D10*
X200764000Y-272034000D03*
D11*
X200764000Y-269494000D03*
X200764000Y-266954000D03*
D10*
X200764000Y-262133000D03*
D11*
X200764000Y-259593000D03*
D10*
X200764000Y-231780000D03*
D11*
X200764000Y-229240000D03*
D12*
X153894000Y-275900000D03*
D13*
X156594000Y-276900000D03*
X156594000Y-281900000D03*
D12*
X153894000Y-282900000D03*
D10*
X200764000Y-239781000D03*
D11*
X200764000Y-237241000D03*
D14*
X181209600Y-282487600D03*
X181209600Y-281087600D03*
X180509600Y-283187600D03*
X180509600Y-281787600D03*
X180509600Y-280387600D03*
X179809600Y-282487600D03*
X179809600Y-281087600D03*
X179109600Y-283187600D03*
X179109600Y-281787600D03*
X179109600Y-280387600D03*
X178409600Y-282487600D03*
X178409600Y-281087600D03*
D15*
X166098000Y-283101000D03*
X164973000Y-283101000D03*
X163848000Y-283101000D03*
X166098000Y-284226000D03*
X164973000Y-284226000D03*
X163848000Y-284226000D03*
X166098000Y-285351000D03*
X164973000Y-285351000D03*
X163848000Y-285351000D03*
D10*
X200764000Y-247401000D03*
D11*
X200764000Y-244861000D03*
D16*
X184581800Y-258318000D03*
D17*
X184480200Y-263906000D03*
X188084000Y-232029000D03*
X180771800Y-257175000D03*
X157937200Y-280695400D03*
X167386000Y-241376200D03*
X158750000Y-259664200D03*
X164134800Y-262788400D03*
X155397200Y-233426000D03*
X193268600Y-286969200D03*
X194843400Y-274497800D03*
X165887400Y-277545800D03*
X167208200Y-233172000D03*
X166268400Y-262788400D03*
X155041600Y-268732000D03*
X159842200Y-259664200D03*
X158496000Y-240284000D03*
X163347400Y-240258600D03*
X167055800Y-276860000D03*
X158419800Y-283337000D03*
X167055800Y-275844000D03*
X167030400Y-274878800D03*
X167246300Y-248500900D03*
X168338500Y-264223500D03*
X167208200Y-234823000D03*
X154305000Y-233426000D03*
X165252400Y-262788400D03*
X164465000Y-237363000D03*
X192405000Y-285673800D03*
X192481200Y-282702000D03*
X156845000Y-240284000D03*
X192405000Y-287324800D03*
X163195000Y-247142000D03*
X169164000Y-256286000D03*
X164973000Y-243255800D03*
X168148000Y-226314000D03*
X163322000Y-271170400D03*
X190906400Y-282448000D03*
X188823600Y-288137600D03*
X158470600Y-284835600D03*
X167132000Y-227558600D03*
X188823600Y-289212400D03*
X170256200Y-241249200D03*
X166002000Y-249084800D03*
X162356800Y-280289000D03*
X170332400Y-233807000D03*
X170281600Y-248767600D03*
X192481200Y-276758400D03*
X163296600Y-289712400D03*
X158470600Y-286385000D03*
X163296600Y-272948400D03*
X162356800Y-278206200D03*
X185597800Y-288213800D03*
X163372800Y-278739600D03*
X166002000Y-248234200D03*
X164414200Y-233426000D03*
X166014501Y-251561499D03*
X154178000Y-271856200D03*
X166014400Y-239395000D03*
X166014400Y-237337600D03*
X166624000Y-259908000D03*
X158419800Y-281813000D03*
X159576000Y-237477800D03*
X165506400Y-233426000D03*
X155727501Y-237464701D03*
X192659000Y-219532200D03*
X189179200Y-245872000D03*
X172262800Y-241223800D03*
X171069000Y-219532200D03*
X188163200Y-248564400D03*
X189179200Y-264210800D03*
X200380600Y-281279600D03*
X192659000Y-218440000D03*
X179527200Y-252831600D03*
X189179200Y-238252000D03*
X193268600Y-228142800D03*
X187731400Y-253949200D03*
X184480200Y-249809000D03*
X172262800Y-248031000D03*
X172288200Y-240411000D03*
X184404000Y-257175000D03*
X186182000Y-249631200D03*
X189179200Y-260604000D03*
X184886600Y-259842000D03*
X174625000Y-263982200D03*
X179527200Y-240436400D03*
X180695600Y-242366800D03*
X163347400Y-220472000D03*
X184480200Y-262763000D03*
X184505600Y-266344400D03*
X163347400Y-218694000D03*
X172948600Y-226415600D03*
X172262800Y-233172000D03*
X189179200Y-241858800D03*
X184962800Y-223189800D03*
X188061600Y-252907800D03*
X154305000Y-225780600D03*
X171069000Y-218440000D03*
X171983400Y-257124200D03*
X171831000Y-249834400D03*
X175754156Y-254953644D03*
X197866000Y-274421600D03*
X187248800Y-241706400D03*
X183515000Y-222580200D03*
X190881000Y-228168200D03*
X184480200Y-247980200D03*
X172364400Y-235915200D03*
X155397200Y-225780600D03*
X176428400Y-248970800D03*
X186372200Y-221272400D03*
X167119000Y-218668600D03*
X191074518Y-238547118D03*
D16*
X175641000Y-227558600D03*
D17*
X191058800Y-235204000D03*
X200431400Y-275590000D03*
X171043600Y-224536000D03*
X191058800Y-242824000D03*
X191084200Y-253517400D03*
X176225200Y-221615000D03*
X184480200Y-236601000D03*
X192252600Y-231394000D03*
D16*
X180746400Y-249783600D03*
D17*
X154305000Y-228346000D03*
D16*
X175615600Y-249809000D03*
D17*
X194233800Y-268630400D03*
X167119000Y-220446600D03*
X176225200Y-220522800D03*
X178917600Y-263804400D03*
X191084200Y-257556000D03*
X191058800Y-250215400D03*
D16*
X185623200Y-254787400D03*
D17*
X192227200Y-265099800D03*
X191084200Y-260807200D03*
X175844200Y-257175000D03*
D16*
X184429400Y-242341400D03*
X175590200Y-242316000D03*
D17*
X171043600Y-223443800D03*
X176225200Y-219430600D03*
X176225200Y-218338400D03*
D16*
X175641000Y-234797600D03*
D17*
X191084200Y-246126000D03*
X155397200Y-228346000D03*
D16*
X164800000Y-280916571D03*
D17*
X165023800Y-277545800D03*
X164150000Y-277535600D03*
D16*
X164800000Y-280136600D03*
D17*
X162128200Y-289661600D03*
X162116644Y-286373444D03*
X162128200Y-288061400D03*
D16*
X187223400Y-264414000D03*
D17*
X197434200Y-272034000D03*
D16*
X186131200Y-236956600D03*
X184581800Y-239725200D03*
X188163200Y-245973600D03*
X185242200Y-247243600D03*
X184835800Y-252806200D03*
X184835800Y-254127000D03*
D17*
X167487600Y-286512000D03*
X161213800Y-271145000D03*
D16*
X196418200Y-285623000D03*
X168037600Y-283514800D03*
X192405000Y-288950400D03*
X180035200Y-248945400D03*
X176174400Y-230632000D03*
D17*
X188772800Y-286258000D03*
X195224400Y-283311600D03*
X191579500Y-283375100D03*
X175615600Y-245491000D03*
D16*
X188036200Y-243687600D03*
D17*
X188671200Y-283210000D03*
X167233600Y-231902000D03*
X167208200Y-230632000D03*
X189026800Y-275539200D03*
X189179200Y-253771400D03*
D16*
X179705000Y-251561600D03*
D17*
X175641000Y-246761000D03*
D16*
X188036200Y-247243600D03*
X180060600Y-255016000D03*
D17*
X189179200Y-250164600D03*
D16*
X184505600Y-251180600D03*
X176174400Y-231902000D03*
D17*
X188722000Y-279425400D03*
X167259000Y-246761000D03*
X188739865Y-277807335D03*
X167233600Y-245516400D03*
X167411400Y-252399800D03*
X188780510Y-284002500D03*
X167436800Y-254076200D03*
X188772800Y-285038800D03*
X165259935Y-258874076D03*
X188925200Y-274269200D03*
X164592000Y-258274076D03*
X188925200Y-272999200D03*
X167182800Y-261061200D03*
X167995600Y-281863800D03*
D16*
X167335200Y-239141000D03*
D17*
X167944800Y-278079200D03*
X167995600Y-280619200D03*
X167208200Y-262737600D03*
X167944800Y-279349200D03*
D16*
X167335200Y-237871000D03*
G04 #@! TA.AperFunction,Conductor*
G36*
X169639852Y-225698890D02*
G01*
X169685796Y-225751530D01*
X169697186Y-225803656D01*
X169684367Y-233298216D01*
X169665362Y-233363975D01*
X169606608Y-233457482D01*
X169547033Y-233627737D01*
X169547030Y-233627750D01*
X169526835Y-233806996D01*
X169526835Y-233807003D01*
X169547030Y-233986249D01*
X169547031Y-233986254D01*
X169606611Y-234156522D01*
X169663625Y-234247259D01*
X169682631Y-234313443D01*
X169671792Y-240650379D01*
X169651993Y-240717385D01*
X169635476Y-240737845D01*
X169626386Y-240746934D01*
X169626384Y-240746938D01*
X169530411Y-240899676D01*
X169470831Y-241069945D01*
X169470830Y-241069950D01*
X169450635Y-241249196D01*
X169450635Y-241249203D01*
X169470830Y-241428449D01*
X169470831Y-241428454D01*
X169530411Y-241598723D01*
X169626384Y-241751462D01*
X169633427Y-241758505D01*
X169666912Y-241819828D01*
X169669746Y-241846398D01*
X169658847Y-248218584D01*
X169639841Y-248284344D01*
X169555811Y-248418076D01*
X169496231Y-248588345D01*
X169496230Y-248588350D01*
X169476035Y-248767596D01*
X169476035Y-248767603D01*
X169496230Y-248946849D01*
X169496231Y-248946854D01*
X169555811Y-249117123D01*
X169637968Y-249247874D01*
X169656974Y-249314058D01*
X169621199Y-270230599D01*
X169621200Y-270230600D01*
X195583000Y-270230600D01*
X195650039Y-270250285D01*
X195695794Y-270303089D01*
X195707000Y-270354600D01*
X195707000Y-282457615D01*
X195687315Y-282524654D01*
X195634511Y-282570409D01*
X195565353Y-282580353D01*
X195542045Y-282574656D01*
X195403662Y-282526233D01*
X195403649Y-282526230D01*
X195224404Y-282506035D01*
X195224396Y-282506035D01*
X195045150Y-282526230D01*
X195045145Y-282526231D01*
X194874876Y-282585811D01*
X194722137Y-282681784D01*
X194594584Y-282809337D01*
X194498611Y-282962076D01*
X194439031Y-283132345D01*
X194439030Y-283132350D01*
X194418835Y-283311596D01*
X194418835Y-283311603D01*
X194439030Y-283490849D01*
X194439031Y-283490854D01*
X194498611Y-283661123D01*
X194546848Y-283737891D01*
X194594584Y-283813862D01*
X194722138Y-283941416D01*
X194792590Y-283985684D01*
X194823197Y-284004916D01*
X194874878Y-284037389D01*
X195045139Y-284096966D01*
X195045145Y-284096968D01*
X195045150Y-284096969D01*
X195224396Y-284117165D01*
X195224400Y-284117165D01*
X195224404Y-284117165D01*
X195403649Y-284096969D01*
X195403651Y-284096968D01*
X195403655Y-284096968D01*
X195403658Y-284096966D01*
X195403662Y-284096966D01*
X195542045Y-284048544D01*
X195611824Y-284044982D01*
X195672451Y-284079710D01*
X195704679Y-284141704D01*
X195707000Y-284165585D01*
X195707000Y-285362102D01*
X195700042Y-285403056D01*
X195681886Y-285454941D01*
X195681885Y-285454945D01*
X195662951Y-285622997D01*
X195662951Y-285623002D01*
X195681885Y-285791055D01*
X195700042Y-285842944D01*
X195707000Y-285883897D01*
X195707000Y-290342100D01*
X195687315Y-290409139D01*
X195634511Y-290454894D01*
X195583000Y-290466100D01*
X163974340Y-290466100D01*
X163907301Y-290446415D01*
X163861546Y-290393611D01*
X163851602Y-290324453D01*
X163880627Y-290260897D01*
X163886659Y-290254419D01*
X163906200Y-290234878D01*
X163926416Y-290214662D01*
X164022389Y-290061922D01*
X164081968Y-289891655D01*
X164081969Y-289891649D01*
X164102165Y-289712403D01*
X164102165Y-289712396D01*
X164081969Y-289533150D01*
X164081968Y-289533145D01*
X164073357Y-289508536D01*
X164022389Y-289362878D01*
X163926416Y-289210138D01*
X163798862Y-289082584D01*
X163757022Y-289056294D01*
X163646123Y-288986611D01*
X163475854Y-288927031D01*
X163475849Y-288927030D01*
X163296604Y-288906835D01*
X163296596Y-288906835D01*
X163117350Y-288927030D01*
X163117345Y-288927031D01*
X162947076Y-288986611D01*
X162808625Y-289073607D01*
X162741389Y-289092607D01*
X162674553Y-289072239D01*
X162654972Y-289056294D01*
X162630462Y-289031784D01*
X162610697Y-289019365D01*
X162526552Y-288966493D01*
X162480262Y-288914159D01*
X162469614Y-288845106D01*
X162497989Y-288781257D01*
X162526551Y-288756507D01*
X162630462Y-288691216D01*
X162758016Y-288563662D01*
X162853989Y-288410922D01*
X162913568Y-288240655D01*
X162913569Y-288240649D01*
X162916595Y-288213796D01*
X184792235Y-288213796D01*
X184792235Y-288213803D01*
X184812430Y-288393049D01*
X184812431Y-288393054D01*
X184872011Y-288563323D01*
X184952372Y-288691216D01*
X184967984Y-288716062D01*
X185095538Y-288843616D01*
X185147446Y-288876232D01*
X185228293Y-288927032D01*
X185248278Y-288939589D01*
X185382659Y-288986611D01*
X185418545Y-288999168D01*
X185418550Y-288999169D01*
X185597796Y-289019365D01*
X185597800Y-289019365D01*
X185597804Y-289019365D01*
X185777049Y-288999169D01*
X185777052Y-288999168D01*
X185777055Y-288999168D01*
X185947322Y-288939589D01*
X186100062Y-288843616D01*
X186227616Y-288716062D01*
X186323589Y-288563322D01*
X186383168Y-288393055D01*
X186390454Y-288328389D01*
X186403365Y-288213803D01*
X186403365Y-288213796D01*
X186394779Y-288137596D01*
X188018035Y-288137596D01*
X188018035Y-288137603D01*
X188038230Y-288316849D01*
X188038231Y-288316854D01*
X188097811Y-288487123D01*
X188174409Y-288609028D01*
X188193409Y-288676265D01*
X188174409Y-288740972D01*
X188097811Y-288862876D01*
X188038231Y-289033145D01*
X188038230Y-289033150D01*
X188018035Y-289212396D01*
X188018035Y-289212403D01*
X188038230Y-289391649D01*
X188038231Y-289391654D01*
X188097811Y-289561923D01*
X188141124Y-289630854D01*
X188193784Y-289714662D01*
X188321338Y-289842216D01*
X188474078Y-289938189D01*
X188644345Y-289997768D01*
X188644350Y-289997769D01*
X188823596Y-290017965D01*
X188823600Y-290017965D01*
X188823604Y-290017965D01*
X189002849Y-289997769D01*
X189002852Y-289997768D01*
X189002855Y-289997768D01*
X189173122Y-289938189D01*
X189325862Y-289842216D01*
X189453416Y-289714662D01*
X189549389Y-289561922D01*
X189608968Y-289391655D01*
X189608969Y-289391649D01*
X189629165Y-289212403D01*
X189629165Y-289212396D01*
X189608969Y-289033150D01*
X189608968Y-289033145D01*
X189580013Y-288950397D01*
X191649751Y-288950397D01*
X191649751Y-288950402D01*
X191668685Y-289118456D01*
X191724545Y-289278094D01*
X191724547Y-289278097D01*
X191814518Y-289421284D01*
X191814523Y-289421290D01*
X191934109Y-289540876D01*
X191934115Y-289540881D01*
X192077302Y-289630852D01*
X192077305Y-289630854D01*
X192077309Y-289630855D01*
X192077310Y-289630856D01*
X192149913Y-289656260D01*
X192236943Y-289686714D01*
X192404997Y-289705649D01*
X192405000Y-289705649D01*
X192405003Y-289705649D01*
X192573056Y-289686714D01*
X192573059Y-289686713D01*
X192732690Y-289630856D01*
X192732692Y-289630854D01*
X192732694Y-289630854D01*
X192732697Y-289630852D01*
X192875884Y-289540881D01*
X192875885Y-289540880D01*
X192875890Y-289540877D01*
X192995477Y-289421290D01*
X193017351Y-289386478D01*
X193085452Y-289278097D01*
X193085454Y-289278094D01*
X193085454Y-289278092D01*
X193085456Y-289278090D01*
X193141313Y-289118459D01*
X193141313Y-289118458D01*
X193141314Y-289118456D01*
X193160249Y-288950402D01*
X193160249Y-288950397D01*
X193141314Y-288782343D01*
X193085454Y-288622705D01*
X193085452Y-288622702D01*
X192995481Y-288479515D01*
X192995476Y-288479509D01*
X192875890Y-288359923D01*
X192875884Y-288359918D01*
X192732697Y-288269947D01*
X192732694Y-288269945D01*
X192573056Y-288214085D01*
X192405003Y-288195151D01*
X192404997Y-288195151D01*
X192236943Y-288214085D01*
X192077305Y-288269945D01*
X192077302Y-288269947D01*
X191934115Y-288359918D01*
X191934109Y-288359923D01*
X191814523Y-288479509D01*
X191814518Y-288479515D01*
X191724547Y-288622702D01*
X191724545Y-288622705D01*
X191668685Y-288782343D01*
X191649751Y-288950397D01*
X189580013Y-288950397D01*
X189571837Y-288927031D01*
X189549389Y-288862878D01*
X189472789Y-288740971D01*
X189453790Y-288673736D01*
X189472790Y-288609028D01*
X189549389Y-288487122D01*
X189608968Y-288316855D01*
X189613655Y-288275259D01*
X189629165Y-288137603D01*
X189629165Y-288137596D01*
X189608969Y-287958350D01*
X189608968Y-287958345D01*
X189582304Y-287882145D01*
X189549389Y-287788078D01*
X189453416Y-287635338D01*
X189325862Y-287507784D01*
X189173123Y-287411811D01*
X189002854Y-287352231D01*
X189002849Y-287352230D01*
X188823604Y-287332035D01*
X188823596Y-287332035D01*
X188644350Y-287352230D01*
X188644345Y-287352231D01*
X188474076Y-287411811D01*
X188321337Y-287507784D01*
X188193784Y-287635337D01*
X188097811Y-287788076D01*
X188038231Y-287958345D01*
X188038230Y-287958350D01*
X188018035Y-288137596D01*
X186394779Y-288137596D01*
X186383169Y-288034550D01*
X186383168Y-288034545D01*
X186336336Y-287900708D01*
X186323589Y-287864278D01*
X186227616Y-287711538D01*
X186100062Y-287583984D01*
X186060520Y-287559138D01*
X185947323Y-287488011D01*
X185777054Y-287428431D01*
X185777049Y-287428430D01*
X185597804Y-287408235D01*
X185597796Y-287408235D01*
X185418550Y-287428430D01*
X185418545Y-287428431D01*
X185248276Y-287488011D01*
X185095537Y-287583984D01*
X184967984Y-287711537D01*
X184872011Y-287864276D01*
X184812431Y-288034545D01*
X184812430Y-288034550D01*
X184792235Y-288213796D01*
X162916595Y-288213796D01*
X162933765Y-288061403D01*
X162933765Y-288061396D01*
X162913569Y-287882150D01*
X162913568Y-287882145D01*
X162900679Y-287845311D01*
X162853989Y-287711878D01*
X162853775Y-287711538D01*
X162758015Y-287559137D01*
X162630462Y-287431584D01*
X162477720Y-287335609D01*
X162468665Y-287332441D01*
X162411890Y-287291719D01*
X162386143Y-287226766D01*
X162399600Y-287158204D01*
X162447988Y-287107802D01*
X162459934Y-287102346D01*
X162459891Y-287102256D01*
X162466160Y-287099236D01*
X162466163Y-287099233D01*
X162466166Y-287099233D01*
X162618906Y-287003260D01*
X162746460Y-286875706D01*
X162842433Y-286722966D01*
X162902012Y-286552699D01*
X162902013Y-286552693D01*
X162906598Y-286511996D01*
X166682035Y-286511996D01*
X166682035Y-286512003D01*
X166702230Y-286691249D01*
X166702231Y-286691254D01*
X166761811Y-286861523D01*
X166850870Y-287003259D01*
X166857784Y-287014262D01*
X166985338Y-287141816D01*
X167138078Y-287237789D01*
X167292201Y-287291719D01*
X167308345Y-287297368D01*
X167308350Y-287297369D01*
X167487596Y-287317565D01*
X167487600Y-287317565D01*
X167487604Y-287317565D01*
X167666849Y-287297369D01*
X167666852Y-287297368D01*
X167666855Y-287297368D01*
X167837122Y-287237789D01*
X167989862Y-287141816D01*
X168117416Y-287014262D01*
X168213389Y-286861522D01*
X168272968Y-286691255D01*
X168272969Y-286691249D01*
X168293165Y-286512003D01*
X168293165Y-286511996D01*
X168272969Y-286332750D01*
X168272968Y-286332745D01*
X168246815Y-286258003D01*
X168213389Y-286162478D01*
X168204142Y-286147762D01*
X168160776Y-286078745D01*
X168117416Y-286009738D01*
X167989862Y-285882184D01*
X167837123Y-285786211D01*
X167666854Y-285726631D01*
X167666849Y-285726630D01*
X167487604Y-285706435D01*
X167487596Y-285706435D01*
X167308350Y-285726630D01*
X167308345Y-285726631D01*
X167138076Y-285786211D01*
X166985337Y-285882184D01*
X166857784Y-286009737D01*
X166761811Y-286162476D01*
X166702231Y-286332745D01*
X166702230Y-286332750D01*
X166682035Y-286511996D01*
X162906598Y-286511996D01*
X162922209Y-286373447D01*
X162922209Y-286373440D01*
X162902013Y-286194194D01*
X162902012Y-286194189D01*
X162861616Y-286078745D01*
X162845003Y-286031267D01*
X163521284Y-286031267D01*
X163680053Y-286086823D01*
X163680058Y-286086824D01*
X163847996Y-286105746D01*
X163848004Y-286105746D01*
X164015938Y-286086824D01*
X164015943Y-286086823D01*
X164174713Y-286031267D01*
X164174714Y-286031267D01*
X164646284Y-286031267D01*
X164805053Y-286086823D01*
X164805058Y-286086824D01*
X164972996Y-286105746D01*
X164973004Y-286105746D01*
X165140938Y-286086824D01*
X165140943Y-286086823D01*
X165299713Y-286031267D01*
X165299714Y-286031267D01*
X165771284Y-286031267D01*
X165930053Y-286086823D01*
X165930058Y-286086824D01*
X166097996Y-286105746D01*
X166098004Y-286105746D01*
X166265938Y-286086824D01*
X166265943Y-286086823D01*
X166424713Y-286031267D01*
X166424714Y-286031267D01*
X166098001Y-285704554D01*
X166098000Y-285704554D01*
X165771284Y-286031267D01*
X165299714Y-286031267D01*
X164973001Y-285704554D01*
X164973000Y-285704554D01*
X164646284Y-286031267D01*
X164174714Y-286031267D01*
X163848001Y-285704554D01*
X163848000Y-285704554D01*
X163521284Y-286031267D01*
X162845003Y-286031267D01*
X162842433Y-286023922D01*
X162746460Y-285871182D01*
X162618906Y-285743628D01*
X162591857Y-285726632D01*
X162466167Y-285647655D01*
X162295898Y-285588075D01*
X162295893Y-285588074D01*
X162116648Y-285567879D01*
X162116640Y-285567879D01*
X161937394Y-285588074D01*
X161937389Y-285588075D01*
X161767120Y-285647655D01*
X161614381Y-285743628D01*
X161486828Y-285871181D01*
X161390855Y-286023920D01*
X161331275Y-286194189D01*
X161331274Y-286194194D01*
X161311079Y-286373440D01*
X161311079Y-286373447D01*
X161331274Y-286552693D01*
X161331275Y-286552698D01*
X161390855Y-286722967D01*
X161477916Y-286861522D01*
X161486828Y-286875706D01*
X161614382Y-287003260D01*
X161671148Y-287038928D01*
X161767121Y-287099233D01*
X161774456Y-287101799D01*
X161776018Y-287102346D01*
X161776173Y-287102400D01*
X161832951Y-287143120D01*
X161858700Y-287208072D01*
X161845245Y-287276635D01*
X161796859Y-287327039D01*
X161784909Y-287332497D01*
X161784953Y-287332588D01*
X161778683Y-287335607D01*
X161625937Y-287431584D01*
X161498384Y-287559137D01*
X161402411Y-287711876D01*
X161342831Y-287882145D01*
X161342830Y-287882150D01*
X161322635Y-288061396D01*
X161322635Y-288061403D01*
X161342830Y-288240649D01*
X161342831Y-288240654D01*
X161402411Y-288410923D01*
X161450291Y-288487123D01*
X161498384Y-288563662D01*
X161625938Y-288691216D01*
X161656052Y-288710138D01*
X161729846Y-288756506D01*
X161776137Y-288808841D01*
X161786785Y-288877895D01*
X161758410Y-288941743D01*
X161729846Y-288966494D01*
X161625937Y-289031784D01*
X161498384Y-289159337D01*
X161402411Y-289312076D01*
X161342831Y-289482345D01*
X161342830Y-289482350D01*
X161322635Y-289661596D01*
X161322635Y-289661603D01*
X161342830Y-289840849D01*
X161342831Y-289840854D01*
X161402411Y-290011123D01*
X161498384Y-290163862D01*
X161588941Y-290254419D01*
X161622426Y-290315742D01*
X161617442Y-290385434D01*
X161575570Y-290441367D01*
X161510106Y-290465784D01*
X161501260Y-290466100D01*
X155425951Y-290466100D01*
X155418464Y-290465874D01*
X155128405Y-290448328D01*
X155113540Y-290446523D01*
X154831401Y-290394819D01*
X154816863Y-290391235D01*
X154543032Y-290305906D01*
X154529031Y-290300597D01*
X154267463Y-290182875D01*
X154254204Y-290175916D01*
X154234264Y-290163862D01*
X154008737Y-290027526D01*
X153996417Y-290019022D01*
X153986333Y-290011122D01*
X153770741Y-289842216D01*
X153770626Y-289842126D01*
X153759418Y-289832196D01*
X153556603Y-289629381D01*
X153546673Y-289618173D01*
X153486119Y-289540881D01*
X153369773Y-289392376D01*
X153361275Y-289380065D01*
X153212880Y-289134589D01*
X153205927Y-289121343D01*
X153088200Y-288859763D01*
X153082893Y-288845767D01*
X153082222Y-288843615D01*
X152997563Y-288571935D01*
X152993980Y-288557398D01*
X152979707Y-288479515D01*
X152942275Y-288275257D01*
X152940471Y-288260394D01*
X152933043Y-288137600D01*
X152922926Y-287970336D01*
X152922700Y-287962849D01*
X152922700Y-287845311D01*
X153571700Y-287845311D01*
X153571700Y-288087888D01*
X153603361Y-288328385D01*
X153666147Y-288562704D01*
X153729670Y-288716062D01*
X153758976Y-288786812D01*
X153880264Y-288996889D01*
X153880266Y-288996892D01*
X153880267Y-288996893D01*
X154027933Y-289189336D01*
X154027939Y-289189343D01*
X154199456Y-289360860D01*
X154199463Y-289360866D01*
X154312521Y-289447618D01*
X154391911Y-289508536D01*
X154601988Y-289629824D01*
X154826100Y-289722654D01*
X155060411Y-289785438D01*
X155240786Y-289809184D01*
X155300911Y-289817100D01*
X155300912Y-289817100D01*
X155543489Y-289817100D01*
X155591588Y-289810767D01*
X155783989Y-289785438D01*
X156018300Y-289722654D01*
X156242412Y-289629824D01*
X156452489Y-289508536D01*
X156644938Y-289360865D01*
X156816465Y-289189338D01*
X156964136Y-288996889D01*
X157085424Y-288786812D01*
X157178254Y-288562700D01*
X157241038Y-288328389D01*
X157272700Y-288087888D01*
X157272700Y-287845312D01*
X157241038Y-287604811D01*
X157178254Y-287370500D01*
X157085424Y-287146388D01*
X156964136Y-286936311D01*
X156816465Y-286743862D01*
X156816460Y-286743856D01*
X156644943Y-286572339D01*
X156644936Y-286572333D01*
X156452493Y-286424667D01*
X156452492Y-286424666D01*
X156452489Y-286424664D01*
X156242412Y-286303376D01*
X156242405Y-286303373D01*
X156018304Y-286210547D01*
X155783985Y-286147761D01*
X155543489Y-286116100D01*
X155543488Y-286116100D01*
X155300912Y-286116100D01*
X155300911Y-286116100D01*
X155060414Y-286147761D01*
X154826095Y-286210547D01*
X154601994Y-286303373D01*
X154601985Y-286303377D01*
X154391906Y-286424667D01*
X154199463Y-286572333D01*
X154199456Y-286572339D01*
X154027939Y-286743856D01*
X154027933Y-286743863D01*
X153880267Y-286936306D01*
X153758977Y-287146385D01*
X153758973Y-287146394D01*
X153666147Y-287370495D01*
X153603361Y-287604814D01*
X153571700Y-287845311D01*
X152922700Y-287845311D01*
X152922700Y-284835596D01*
X157665035Y-284835596D01*
X157665035Y-284835603D01*
X157685230Y-285014849D01*
X157685231Y-285014854D01*
X157744811Y-285185123D01*
X157840784Y-285337862D01*
X157968339Y-285465417D01*
X158031823Y-285505307D01*
X158078113Y-285557641D01*
X158088761Y-285626695D01*
X158060386Y-285690543D01*
X158031823Y-285715293D01*
X157968339Y-285755182D01*
X157840784Y-285882737D01*
X157744811Y-286035476D01*
X157685231Y-286205745D01*
X157685230Y-286205750D01*
X157665035Y-286384996D01*
X157665035Y-286385003D01*
X157685230Y-286564249D01*
X157685231Y-286564254D01*
X157744811Y-286734523D01*
X157824610Y-286861522D01*
X157840784Y-286887262D01*
X157968338Y-287014816D01*
X158013778Y-287043368D01*
X158102691Y-287099236D01*
X158121078Y-287110789D01*
X158256582Y-287158204D01*
X158291345Y-287170368D01*
X158291350Y-287170369D01*
X158470596Y-287190565D01*
X158470600Y-287190565D01*
X158470604Y-287190565D01*
X158649849Y-287170369D01*
X158649852Y-287170368D01*
X158649855Y-287170368D01*
X158820122Y-287110789D01*
X158972862Y-287014816D01*
X159100416Y-286887262D01*
X159196389Y-286734522D01*
X159255968Y-286564255D01*
X159257271Y-286552693D01*
X159276165Y-286385003D01*
X159276165Y-286384996D01*
X159255969Y-286205750D01*
X159255968Y-286205745D01*
X159240828Y-286162478D01*
X159196389Y-286035478D01*
X159180215Y-286009738D01*
X159143113Y-285950690D01*
X159100416Y-285882738D01*
X158972862Y-285755184D01*
X158909376Y-285715293D01*
X158863086Y-285662959D01*
X158852438Y-285593906D01*
X158880813Y-285530057D01*
X158909377Y-285505306D01*
X158972862Y-285465416D01*
X159087282Y-285350996D01*
X163093254Y-285350996D01*
X163093254Y-285351003D01*
X163112176Y-285518944D01*
X163167731Y-285677713D01*
X163494446Y-285351000D01*
X163474555Y-285331109D01*
X163748000Y-285331109D01*
X163748000Y-285370891D01*
X163763224Y-285407645D01*
X163791355Y-285435776D01*
X163828109Y-285451000D01*
X163867891Y-285451000D01*
X163904645Y-285435776D01*
X163932776Y-285407645D01*
X163948000Y-285370891D01*
X163948000Y-285351000D01*
X164201554Y-285351000D01*
X164410500Y-285559946D01*
X164619446Y-285351000D01*
X164599555Y-285331109D01*
X164873000Y-285331109D01*
X164873000Y-285370891D01*
X164888224Y-285407645D01*
X164916355Y-285435776D01*
X164953109Y-285451000D01*
X164992891Y-285451000D01*
X165029645Y-285435776D01*
X165057776Y-285407645D01*
X165073000Y-285370891D01*
X165073000Y-285351000D01*
X165326554Y-285351000D01*
X165535500Y-285559946D01*
X165744446Y-285351000D01*
X165724555Y-285331109D01*
X165998000Y-285331109D01*
X165998000Y-285370891D01*
X166013224Y-285407645D01*
X166041355Y-285435776D01*
X166078109Y-285451000D01*
X166117891Y-285451000D01*
X166154645Y-285435776D01*
X166182776Y-285407645D01*
X166198000Y-285370891D01*
X166198000Y-285350999D01*
X166451554Y-285350999D01*
X166451554Y-285351001D01*
X166778267Y-285677714D01*
X166778267Y-285677713D01*
X166833823Y-285518943D01*
X166833824Y-285518938D01*
X166852746Y-285351003D01*
X166852746Y-285350996D01*
X166833824Y-285183058D01*
X166833823Y-285183053D01*
X166778267Y-285024285D01*
X166778267Y-285024284D01*
X166451554Y-285350999D01*
X166198000Y-285350999D01*
X166198000Y-285331109D01*
X166182776Y-285294355D01*
X166154645Y-285266224D01*
X166117891Y-285251000D01*
X166078109Y-285251000D01*
X166041355Y-285266224D01*
X166013224Y-285294355D01*
X165998000Y-285331109D01*
X165724555Y-285331109D01*
X165535500Y-285142054D01*
X165326554Y-285351000D01*
X165073000Y-285351000D01*
X165073000Y-285331109D01*
X165057776Y-285294355D01*
X165029645Y-285266224D01*
X164992891Y-285251000D01*
X164953109Y-285251000D01*
X164916355Y-285266224D01*
X164888224Y-285294355D01*
X164873000Y-285331109D01*
X164599555Y-285331109D01*
X164410500Y-285142054D01*
X164201554Y-285351000D01*
X163948000Y-285351000D01*
X163948000Y-285331109D01*
X163932776Y-285294355D01*
X163904645Y-285266224D01*
X163867891Y-285251000D01*
X163828109Y-285251000D01*
X163791355Y-285266224D01*
X163763224Y-285294355D01*
X163748000Y-285331109D01*
X163474555Y-285331109D01*
X163167731Y-285024285D01*
X163112176Y-285183055D01*
X163093254Y-285350996D01*
X159087282Y-285350996D01*
X159100416Y-285337862D01*
X159196389Y-285185122D01*
X159255968Y-285014855D01*
X159257930Y-284997446D01*
X159276165Y-284835603D01*
X159276165Y-284835596D01*
X159270859Y-284788500D01*
X163639054Y-284788500D01*
X163848000Y-284997446D01*
X164056946Y-284788500D01*
X164764054Y-284788500D01*
X164973000Y-284997446D01*
X165181946Y-284788500D01*
X165889054Y-284788500D01*
X166098000Y-284997446D01*
X166306946Y-284788500D01*
X166098000Y-284579554D01*
X165889054Y-284788500D01*
X165181946Y-284788500D01*
X164973000Y-284579554D01*
X164764054Y-284788500D01*
X164056946Y-284788500D01*
X163848000Y-284579554D01*
X163639054Y-284788500D01*
X159270859Y-284788500D01*
X159255969Y-284656350D01*
X159255968Y-284656345D01*
X159219706Y-284552714D01*
X159196389Y-284486078D01*
X159100416Y-284333338D01*
X158993074Y-284225996D01*
X163093254Y-284225996D01*
X163093254Y-284226003D01*
X163112176Y-284393944D01*
X163167731Y-284552713D01*
X163494446Y-284226000D01*
X163474555Y-284206109D01*
X163748000Y-284206109D01*
X163748000Y-284245891D01*
X163763224Y-284282645D01*
X163791355Y-284310776D01*
X163828109Y-284326000D01*
X163867891Y-284326000D01*
X163904645Y-284310776D01*
X163932776Y-284282645D01*
X163948000Y-284245891D01*
X163948000Y-284226000D01*
X164201554Y-284226000D01*
X164410500Y-284434946D01*
X164619446Y-284226000D01*
X164599555Y-284206109D01*
X164873000Y-284206109D01*
X164873000Y-284245891D01*
X164888224Y-284282645D01*
X164916355Y-284310776D01*
X164953109Y-284326000D01*
X164992891Y-284326000D01*
X165029645Y-284310776D01*
X165057776Y-284282645D01*
X165073000Y-284245891D01*
X165073000Y-284226000D01*
X165326554Y-284226000D01*
X165535500Y-284434946D01*
X165744446Y-284226000D01*
X165724555Y-284206109D01*
X165998000Y-284206109D01*
X165998000Y-284245891D01*
X166013224Y-284282645D01*
X166041355Y-284310776D01*
X166078109Y-284326000D01*
X166117891Y-284326000D01*
X166154645Y-284310776D01*
X166182776Y-284282645D01*
X166198000Y-284245891D01*
X166198000Y-284225999D01*
X166451554Y-284225999D01*
X166451554Y-284226001D01*
X166778267Y-284552714D01*
X166778267Y-284552713D01*
X166833823Y-284393943D01*
X166833824Y-284393938D01*
X166852746Y-284226003D01*
X166852746Y-284225996D01*
X166833824Y-284058058D01*
X166833823Y-284058053D01*
X166778267Y-283899285D01*
X166778267Y-283899284D01*
X166451554Y-284225999D01*
X166198000Y-284225999D01*
X166198000Y-284206109D01*
X166182776Y-284169355D01*
X166154645Y-284141224D01*
X166117891Y-284126000D01*
X166078109Y-284126000D01*
X166041355Y-284141224D01*
X166013224Y-284169355D01*
X165998000Y-284206109D01*
X165724555Y-284206109D01*
X165535500Y-284017054D01*
X165326554Y-284226000D01*
X165073000Y-284226000D01*
X165073000Y-284206109D01*
X165057776Y-284169355D01*
X165029645Y-284141224D01*
X164992891Y-284126000D01*
X164953109Y-284126000D01*
X164916355Y-284141224D01*
X164888224Y-284169355D01*
X164873000Y-284206109D01*
X164599555Y-284206109D01*
X164410500Y-284017054D01*
X164201554Y-284226000D01*
X163948000Y-284226000D01*
X163948000Y-284206109D01*
X163932776Y-284169355D01*
X163904645Y-284141224D01*
X163867891Y-284126000D01*
X163828109Y-284126000D01*
X163791355Y-284141224D01*
X163763224Y-284169355D01*
X163748000Y-284206109D01*
X163474555Y-284206109D01*
X163167731Y-283899285D01*
X163112176Y-284058055D01*
X163093254Y-284225996D01*
X158993074Y-284225996D01*
X158972862Y-284205784D01*
X158956104Y-284195254D01*
X158820123Y-284109811D01*
X158649854Y-284050231D01*
X158649849Y-284050230D01*
X158470604Y-284030035D01*
X158470596Y-284030035D01*
X158291350Y-284050230D01*
X158291345Y-284050231D01*
X158121076Y-284109811D01*
X157968337Y-284205784D01*
X157840784Y-284333337D01*
X157744811Y-284486076D01*
X157685231Y-284656345D01*
X157685230Y-284656350D01*
X157665035Y-284835596D01*
X152922700Y-284835596D01*
X152922700Y-283840627D01*
X152942385Y-283773588D01*
X152995189Y-283727833D01*
X153064347Y-283717889D01*
X153110476Y-283735566D01*
X153110768Y-283735021D01*
X153115112Y-283737343D01*
X153115595Y-283737528D01*
X153116138Y-283737891D01*
X153288208Y-283809165D01*
X153446378Y-283840627D01*
X153470871Y-283845499D01*
X153470874Y-283845500D01*
X153470876Y-283845500D01*
X154317126Y-283845500D01*
X154317127Y-283845499D01*
X154499792Y-283809165D01*
X154671862Y-283737891D01*
X154671863Y-283737890D01*
X154671864Y-283737890D01*
X154754228Y-283682856D01*
X154783196Y-283663500D01*
X163639054Y-283663500D01*
X163848000Y-283872446D01*
X164056946Y-283663500D01*
X164764054Y-283663500D01*
X164973000Y-283872446D01*
X165181946Y-283663500D01*
X165889054Y-283663500D01*
X166098000Y-283872446D01*
X166306946Y-283663500D01*
X166098000Y-283454554D01*
X165889054Y-283663500D01*
X165181946Y-283663500D01*
X164973000Y-283454554D01*
X164764054Y-283663500D01*
X164056946Y-283663500D01*
X163848000Y-283454554D01*
X163639054Y-283663500D01*
X154783196Y-283663500D01*
X154826721Y-283634418D01*
X154958418Y-283502721D01*
X155056222Y-283356347D01*
X155061890Y-283347864D01*
X155061890Y-283347863D01*
X155061891Y-283347862D01*
X155133165Y-283175792D01*
X155148043Y-283100996D01*
X163093254Y-283100996D01*
X163093254Y-283101003D01*
X163112176Y-283268944D01*
X163167731Y-283427713D01*
X163494446Y-283101000D01*
X163474555Y-283081109D01*
X163748000Y-283081109D01*
X163748000Y-283120891D01*
X163763224Y-283157645D01*
X163791355Y-283185776D01*
X163828109Y-283201000D01*
X163867891Y-283201000D01*
X163904645Y-283185776D01*
X163932776Y-283157645D01*
X163948000Y-283120891D01*
X163948000Y-283101000D01*
X164201554Y-283101000D01*
X164410500Y-283309946D01*
X164619446Y-283101000D01*
X164599555Y-283081109D01*
X164873000Y-283081109D01*
X164873000Y-283120891D01*
X164888224Y-283157645D01*
X164916355Y-283185776D01*
X164953109Y-283201000D01*
X164992891Y-283201000D01*
X165029645Y-283185776D01*
X165057776Y-283157645D01*
X165073000Y-283120891D01*
X165073000Y-283101000D01*
X165326554Y-283101000D01*
X165535500Y-283309946D01*
X165744446Y-283101000D01*
X165724555Y-283081109D01*
X165998000Y-283081109D01*
X165998000Y-283120891D01*
X166013224Y-283157645D01*
X166041355Y-283185776D01*
X166078109Y-283201000D01*
X166117891Y-283201000D01*
X166154645Y-283185776D01*
X166182776Y-283157645D01*
X166198000Y-283120891D01*
X166198000Y-283100999D01*
X166451554Y-283100999D01*
X166451554Y-283101001D01*
X166778267Y-283427714D01*
X166778267Y-283427713D01*
X166833823Y-283268943D01*
X166833824Y-283268938D01*
X166852746Y-283101003D01*
X166852746Y-283100996D01*
X166833824Y-282933058D01*
X166833823Y-282933053D01*
X166778267Y-282774285D01*
X166778267Y-282774284D01*
X166451554Y-283100999D01*
X166198000Y-283100999D01*
X166198000Y-283081109D01*
X166182776Y-283044355D01*
X166154645Y-283016224D01*
X166117891Y-283001000D01*
X166078109Y-283001000D01*
X166041355Y-283016224D01*
X166013224Y-283044355D01*
X165998000Y-283081109D01*
X165724555Y-283081109D01*
X165535500Y-282892054D01*
X165326554Y-283101000D01*
X165073000Y-283101000D01*
X165073000Y-283081109D01*
X165057776Y-283044355D01*
X165029645Y-283016224D01*
X164992891Y-283001000D01*
X164953109Y-283001000D01*
X164916355Y-283016224D01*
X164888224Y-283044355D01*
X164873000Y-283081109D01*
X164599555Y-283081109D01*
X164410500Y-282892054D01*
X164201554Y-283101000D01*
X163948000Y-283101000D01*
X163948000Y-283081109D01*
X163932776Y-283044355D01*
X163904645Y-283016224D01*
X163867891Y-283001000D01*
X163828109Y-283001000D01*
X163791355Y-283016224D01*
X163763224Y-283044355D01*
X163748000Y-283081109D01*
X163474555Y-283081109D01*
X163167731Y-282774285D01*
X163112176Y-282933055D01*
X163093254Y-283100996D01*
X155148043Y-283100996D01*
X155169500Y-282993124D01*
X155169500Y-282806876D01*
X155169500Y-282806873D01*
X155169499Y-282806871D01*
X155160086Y-282759551D01*
X155133165Y-282624208D01*
X155061891Y-282452138D01*
X155061890Y-282452136D01*
X155061890Y-282452135D01*
X154958421Y-282297283D01*
X154958415Y-282297275D01*
X154826724Y-282165584D01*
X154826716Y-282165578D01*
X154671864Y-282062109D01*
X154499792Y-281990835D01*
X154499784Y-281990833D01*
X154317127Y-281954500D01*
X154317124Y-281954500D01*
X153470876Y-281954500D01*
X153470873Y-281954500D01*
X153288215Y-281990833D01*
X153288207Y-281990835D01*
X153116136Y-282062109D01*
X153115585Y-282062478D01*
X153115251Y-282062582D01*
X153110768Y-282064979D01*
X153110313Y-282064128D01*
X153048906Y-282083352D01*
X152981527Y-282064864D01*
X152934840Y-282012882D01*
X152922700Y-281959372D01*
X152922700Y-281653917D01*
X155618500Y-281653917D01*
X155618500Y-282146082D01*
X155655986Y-282334535D01*
X155655989Y-282334547D01*
X155729520Y-282512068D01*
X155729521Y-282512070D01*
X155836279Y-282671844D01*
X155836282Y-282671848D01*
X155972151Y-282807717D01*
X155972155Y-282807720D01*
X156131927Y-282914477D01*
X156131928Y-282914477D01*
X156131929Y-282914478D01*
X156131931Y-282914479D01*
X156309452Y-282988010D01*
X156309457Y-282988012D01*
X156497917Y-283025499D01*
X156497920Y-283025500D01*
X156497922Y-283025500D01*
X156690080Y-283025500D01*
X156690081Y-283025499D01*
X156878543Y-282988012D01*
X157056073Y-282914477D01*
X157215845Y-282807720D01*
X157351720Y-282671845D01*
X157458477Y-282512073D01*
X157532012Y-282334543D01*
X157536152Y-282313725D01*
X157568535Y-282251814D01*
X157629250Y-282217238D01*
X157699019Y-282220976D01*
X157755693Y-282261841D01*
X157762763Y-282271941D01*
X157789982Y-282315260D01*
X157789984Y-282315262D01*
X157917538Y-282442816D01*
X157957155Y-282467709D01*
X158050293Y-282526232D01*
X158070278Y-282538789D01*
X158204659Y-282585811D01*
X158240545Y-282598368D01*
X158240550Y-282598369D01*
X158419796Y-282618565D01*
X158419800Y-282618565D01*
X158419804Y-282618565D01*
X158599049Y-282598369D01*
X158599052Y-282598368D01*
X158599055Y-282598368D01*
X158769322Y-282538789D01*
X158922062Y-282442816D01*
X158944147Y-282420731D01*
X163521285Y-282420731D01*
X163848000Y-282747446D01*
X163848001Y-282747446D01*
X164174714Y-282420731D01*
X164646285Y-282420731D01*
X164973000Y-282747446D01*
X164973001Y-282747446D01*
X165299714Y-282420731D01*
X165771285Y-282420731D01*
X166098000Y-282747446D01*
X166098001Y-282747446D01*
X166424714Y-282420731D01*
X166265944Y-282365176D01*
X166098004Y-282346254D01*
X166097996Y-282346254D01*
X165930055Y-282365176D01*
X165771285Y-282420731D01*
X165299714Y-282420731D01*
X165140944Y-282365176D01*
X164973004Y-282346254D01*
X164972996Y-282346254D01*
X164805055Y-282365176D01*
X164646285Y-282420731D01*
X164174714Y-282420731D01*
X164015944Y-282365176D01*
X163848004Y-282346254D01*
X163847996Y-282346254D01*
X163680055Y-282365176D01*
X163521285Y-282420731D01*
X158944147Y-282420731D01*
X159049616Y-282315262D01*
X159145589Y-282162522D01*
X159205168Y-281992255D01*
X159205328Y-281990835D01*
X159225365Y-281813003D01*
X159225365Y-281812996D01*
X159205169Y-281633750D01*
X159205168Y-281633745D01*
X159169942Y-281533074D01*
X159145589Y-281463478D01*
X159049616Y-281310738D01*
X158922062Y-281183184D01*
X158860091Y-281144245D01*
X158769323Y-281087211D01*
X158599054Y-281027631D01*
X158599049Y-281027630D01*
X158419804Y-281007435D01*
X158419796Y-281007435D01*
X158240550Y-281027630D01*
X158240545Y-281027631D01*
X158070276Y-281087211D01*
X157917537Y-281183184D01*
X157789982Y-281310739D01*
X157723581Y-281416416D01*
X157671247Y-281462706D01*
X157602193Y-281473354D01*
X157538345Y-281444979D01*
X157504027Y-281397895D01*
X157458479Y-281287931D01*
X157458478Y-281287929D01*
X157351720Y-281128155D01*
X157351717Y-281128151D01*
X157215848Y-280992282D01*
X157215844Y-280992279D01*
X157056070Y-280885521D01*
X157056068Y-280885520D01*
X156878547Y-280811989D01*
X156878535Y-280811986D01*
X156690081Y-280774500D01*
X156690078Y-280774500D01*
X156497922Y-280774500D01*
X156497919Y-280774500D01*
X156309464Y-280811986D01*
X156309452Y-280811989D01*
X156131931Y-280885520D01*
X156131929Y-280885521D01*
X155972155Y-280992279D01*
X155972151Y-280992282D01*
X155836282Y-281128151D01*
X155836279Y-281128155D01*
X155729521Y-281287929D01*
X155729520Y-281287931D01*
X155655989Y-281465452D01*
X155655986Y-281465464D01*
X155618500Y-281653917D01*
X152922700Y-281653917D01*
X152922700Y-280288996D01*
X161551235Y-280288996D01*
X161551235Y-280289003D01*
X161571430Y-280468249D01*
X161571431Y-280468254D01*
X161631011Y-280638523D01*
X161702137Y-280751719D01*
X161726984Y-280791262D01*
X161854538Y-280918816D01*
X161944880Y-280975582D01*
X161971453Y-280992279D01*
X162007278Y-281014789D01*
X162053478Y-281030955D01*
X162177545Y-281074368D01*
X162177550Y-281074369D01*
X162356796Y-281094565D01*
X162356800Y-281094565D01*
X162356804Y-281094565D01*
X162536049Y-281074369D01*
X162536052Y-281074368D01*
X162536055Y-281074368D01*
X162706322Y-281014789D01*
X162859062Y-280918816D01*
X162986616Y-280791262D01*
X163082589Y-280638522D01*
X163142168Y-280468255D01*
X163142169Y-280468249D01*
X163162365Y-280289003D01*
X163162365Y-280288996D01*
X163145194Y-280136597D01*
X164044751Y-280136597D01*
X164044751Y-280136602D01*
X164063686Y-280304657D01*
X164119545Y-280464295D01*
X164122564Y-280470563D01*
X164120348Y-280471630D01*
X164136232Y-280527861D01*
X164120465Y-280581598D01*
X164122564Y-280582609D01*
X164119546Y-280588874D01*
X164063685Y-280748514D01*
X164044751Y-280916568D01*
X164044751Y-280916573D01*
X164063685Y-281084627D01*
X164119545Y-281244265D01*
X164119547Y-281244268D01*
X164209518Y-281387455D01*
X164209523Y-281387461D01*
X164329109Y-281507047D01*
X164329115Y-281507052D01*
X164472302Y-281597023D01*
X164472305Y-281597025D01*
X164472309Y-281597026D01*
X164472310Y-281597027D01*
X164544913Y-281622431D01*
X164631943Y-281652885D01*
X164799997Y-281671820D01*
X164800000Y-281671820D01*
X164800003Y-281671820D01*
X164968056Y-281652885D01*
X164968059Y-281652884D01*
X165127690Y-281597027D01*
X165127692Y-281597025D01*
X165127694Y-281597025D01*
X165127697Y-281597023D01*
X165270884Y-281507052D01*
X165270885Y-281507051D01*
X165270890Y-281507048D01*
X165390477Y-281387461D01*
X165438686Y-281310737D01*
X165480452Y-281244268D01*
X165480454Y-281244265D01*
X165480454Y-281244263D01*
X165480456Y-281244261D01*
X165536313Y-281084630D01*
X165536313Y-281084629D01*
X165536314Y-281084627D01*
X165555249Y-280916573D01*
X165555249Y-280916568D01*
X165536313Y-280748513D01*
X165480456Y-280588881D01*
X165477438Y-280582615D01*
X165479654Y-280581547D01*
X165463765Y-280525323D01*
X165479555Y-280471589D01*
X165477433Y-280470567D01*
X165480449Y-280464299D01*
X165480456Y-280464290D01*
X165527112Y-280330955D01*
X165536313Y-280304661D01*
X165536313Y-280304659D01*
X165555249Y-280136602D01*
X165555249Y-280136597D01*
X165536314Y-279968543D01*
X165502224Y-279871119D01*
X165480456Y-279808910D01*
X165480455Y-279808909D01*
X165480454Y-279808905D01*
X165480452Y-279808902D01*
X165390481Y-279665715D01*
X165390476Y-279665709D01*
X165270890Y-279546123D01*
X165270884Y-279546118D01*
X165127697Y-279456147D01*
X165127694Y-279456145D01*
X164968056Y-279400285D01*
X164800003Y-279381351D01*
X164799997Y-279381351D01*
X164631943Y-279400285D01*
X164472305Y-279456145D01*
X164472302Y-279456147D01*
X164329115Y-279546118D01*
X164329109Y-279546123D01*
X164209523Y-279665709D01*
X164209518Y-279665715D01*
X164119547Y-279808902D01*
X164119545Y-279808905D01*
X164063685Y-279968543D01*
X164044751Y-280136597D01*
X163145194Y-280136597D01*
X163142169Y-280109750D01*
X163142168Y-280109745D01*
X163092759Y-279968543D01*
X163082589Y-279939478D01*
X162986616Y-279786738D01*
X162859062Y-279659184D01*
X162772280Y-279604655D01*
X162706323Y-279563211D01*
X162536054Y-279503631D01*
X162536049Y-279503630D01*
X162356804Y-279483435D01*
X162356796Y-279483435D01*
X162177550Y-279503630D01*
X162177545Y-279503631D01*
X162007276Y-279563211D01*
X161854537Y-279659184D01*
X161726984Y-279786737D01*
X161631011Y-279939476D01*
X161571431Y-280109745D01*
X161571430Y-280109750D01*
X161551235Y-280288996D01*
X152922700Y-280288996D01*
X152922700Y-278206196D01*
X161551235Y-278206196D01*
X161551235Y-278206203D01*
X161571430Y-278385449D01*
X161571431Y-278385454D01*
X161631011Y-278555723D01*
X161714028Y-278687843D01*
X161726984Y-278708462D01*
X161854538Y-278836016D01*
X161944880Y-278892782D01*
X161993191Y-278923138D01*
X162007278Y-278931989D01*
X162109103Y-278967619D01*
X162177545Y-278991568D01*
X162177550Y-278991569D01*
X162356796Y-279011765D01*
X162356800Y-279011765D01*
X162356804Y-279011765D01*
X162511697Y-278994313D01*
X162580519Y-279006368D01*
X162631898Y-279053717D01*
X162642620Y-279076575D01*
X162647010Y-279089119D01*
X162647012Y-279089124D01*
X162697799Y-279169950D01*
X162742984Y-279241862D01*
X162870538Y-279369416D01*
X162919666Y-279400285D01*
X163008564Y-279456144D01*
X163023278Y-279465389D01*
X163193545Y-279524968D01*
X163193550Y-279524969D01*
X163372796Y-279545165D01*
X163372800Y-279545165D01*
X163372804Y-279545165D01*
X163552049Y-279524969D01*
X163552052Y-279524968D01*
X163552055Y-279524968D01*
X163722322Y-279465389D01*
X163875062Y-279369416D01*
X164002616Y-279241862D01*
X164098589Y-279089122D01*
X164158168Y-278918855D01*
X164171348Y-278801880D01*
X164178365Y-278739603D01*
X164178365Y-278739596D01*
X164158169Y-278560350D01*
X164158166Y-278560337D01*
X164135429Y-278495359D01*
X164131867Y-278425580D01*
X164166595Y-278364953D01*
X164228588Y-278332725D01*
X164238587Y-278331184D01*
X164329249Y-278320969D01*
X164329251Y-278320968D01*
X164329255Y-278320968D01*
X164329258Y-278320966D01*
X164329262Y-278320966D01*
X164419377Y-278289432D01*
X164499522Y-278261389D01*
X164512810Y-278253038D01*
X164580043Y-278234038D01*
X164644754Y-278253038D01*
X164674276Y-278271588D01*
X164674278Y-278271589D01*
X164815395Y-278320968D01*
X164844545Y-278331168D01*
X164844550Y-278331169D01*
X165023796Y-278351365D01*
X165023800Y-278351365D01*
X165023804Y-278351365D01*
X165203049Y-278331169D01*
X165203052Y-278331168D01*
X165203055Y-278331168D01*
X165373322Y-278271589D01*
X165526062Y-278175616D01*
X165622482Y-278079196D01*
X167139235Y-278079196D01*
X167139235Y-278079203D01*
X167159430Y-278258449D01*
X167159431Y-278258454D01*
X167219011Y-278428723D01*
X167314984Y-278581462D01*
X167314985Y-278581463D01*
X167360041Y-278626520D01*
X167393525Y-278687843D01*
X167388540Y-278757535D01*
X167360041Y-278801880D01*
X167314984Y-278846937D01*
X167219011Y-278999676D01*
X167159431Y-279169945D01*
X167159430Y-279169950D01*
X167139235Y-279349196D01*
X167139235Y-279349203D01*
X167159430Y-279528449D01*
X167159431Y-279528454D01*
X167219011Y-279698723D01*
X167314984Y-279851462D01*
X167385440Y-279921918D01*
X167418925Y-279983241D01*
X167413941Y-280052933D01*
X167385442Y-280097278D01*
X167365786Y-280116934D01*
X167269811Y-280269676D01*
X167210231Y-280439945D01*
X167210230Y-280439950D01*
X167190035Y-280619196D01*
X167190035Y-280619203D01*
X167210230Y-280798449D01*
X167210231Y-280798454D01*
X167269811Y-280968723D01*
X167365784Y-281121462D01*
X167398141Y-281153819D01*
X167431626Y-281215142D01*
X167426642Y-281284834D01*
X167398141Y-281329181D01*
X167365784Y-281361537D01*
X167269811Y-281514276D01*
X167210231Y-281684545D01*
X167210230Y-281684550D01*
X167190035Y-281863796D01*
X167190035Y-281863803D01*
X167210230Y-282043049D01*
X167210231Y-282043054D01*
X167269811Y-282213323D01*
X167336119Y-282318851D01*
X167365784Y-282366062D01*
X167493338Y-282493616D01*
X167646078Y-282589589D01*
X167694839Y-282606651D01*
X167751615Y-282647372D01*
X167777363Y-282712325D01*
X167763907Y-282780887D01*
X167715520Y-282831290D01*
X167710882Y-282833731D01*
X167566715Y-282924318D01*
X167566709Y-282924323D01*
X167447123Y-283043909D01*
X167447118Y-283043915D01*
X167357147Y-283187102D01*
X167357145Y-283187105D01*
X167301285Y-283346743D01*
X167282351Y-283514797D01*
X167282351Y-283514802D01*
X167301285Y-283682856D01*
X167357145Y-283842494D01*
X167357147Y-283842497D01*
X167447118Y-283985684D01*
X167447123Y-283985690D01*
X167566709Y-284105276D01*
X167566715Y-284105281D01*
X167709902Y-284195252D01*
X167709905Y-284195254D01*
X167709909Y-284195255D01*
X167709910Y-284195256D01*
X167782513Y-284220660D01*
X167869543Y-284251114D01*
X168037597Y-284270049D01*
X168037600Y-284270049D01*
X168037603Y-284270049D01*
X168205656Y-284251114D01*
X168205659Y-284251113D01*
X168365290Y-284195256D01*
X168365292Y-284195254D01*
X168365294Y-284195254D01*
X168365297Y-284195252D01*
X168508484Y-284105281D01*
X168508485Y-284105280D01*
X168508490Y-284105277D01*
X168628077Y-283985690D01*
X168628081Y-283985684D01*
X168718052Y-283842497D01*
X168718054Y-283842494D01*
X168718054Y-283842492D01*
X168718056Y-283842490D01*
X168731734Y-283803401D01*
X178776640Y-283803401D01*
X178859555Y-283846918D01*
X179024606Y-283887600D01*
X179194594Y-283887600D01*
X179359644Y-283846918D01*
X179442559Y-283803401D01*
X180176640Y-283803401D01*
X180259555Y-283846918D01*
X180424606Y-283887600D01*
X180594594Y-283887600D01*
X180759644Y-283846918D01*
X180842559Y-283803401D01*
X180509601Y-283470442D01*
X180509600Y-283470442D01*
X180176640Y-283803401D01*
X179442559Y-283803401D01*
X179109601Y-283470442D01*
X179109600Y-283470442D01*
X178776640Y-283803401D01*
X168731734Y-283803401D01*
X168773913Y-283682859D01*
X168773913Y-283682858D01*
X168773914Y-283682856D01*
X168792849Y-283514802D01*
X168792849Y-283514797D01*
X168773914Y-283346743D01*
X168730207Y-283221835D01*
X168718056Y-283187110D01*
X168718055Y-283187109D01*
X168718054Y-283187105D01*
X168718052Y-283187102D01*
X168665459Y-283103401D01*
X178076639Y-283103401D01*
X178159555Y-283146918D01*
X178323818Y-283187406D01*
X178384199Y-283222563D01*
X178415987Y-283284782D01*
X178417239Y-283292856D01*
X178424948Y-283356348D01*
X178424949Y-283356351D01*
X178485229Y-283515294D01*
X178490878Y-283523479D01*
X178826757Y-283187600D01*
X178806866Y-283167709D01*
X179009600Y-283167709D01*
X179009600Y-283207491D01*
X179024824Y-283244245D01*
X179052955Y-283272376D01*
X179089709Y-283287600D01*
X179129491Y-283287600D01*
X179166245Y-283272376D01*
X179194376Y-283244245D01*
X179209600Y-283207491D01*
X179209600Y-283187599D01*
X179392442Y-283187599D01*
X179392442Y-283187600D01*
X179728320Y-283523479D01*
X179746740Y-283521805D01*
X179761833Y-283509576D01*
X179831282Y-283501919D01*
X179871016Y-283521674D01*
X179890878Y-283523479D01*
X180226757Y-283187600D01*
X180206866Y-283167709D01*
X180409600Y-283167709D01*
X180409600Y-283207491D01*
X180424824Y-283244245D01*
X180452955Y-283272376D01*
X180489709Y-283287600D01*
X180529491Y-283287600D01*
X180566245Y-283272376D01*
X180594376Y-283244245D01*
X180609600Y-283207491D01*
X180609600Y-283187599D01*
X180792442Y-283187599D01*
X180792442Y-283187600D01*
X181128320Y-283523479D01*
X181128320Y-283523478D01*
X181133969Y-283515296D01*
X181194250Y-283356351D01*
X181194251Y-283356347D01*
X181201960Y-283292858D01*
X181229581Y-283228680D01*
X181257295Y-283209996D01*
X187865635Y-283209996D01*
X187865635Y-283210003D01*
X187885830Y-283389249D01*
X187885831Y-283389254D01*
X187945411Y-283559523D01*
X188004855Y-283654127D01*
X188023855Y-283721364D01*
X188016903Y-283761052D01*
X187995141Y-283823245D01*
X187995141Y-283823246D01*
X187974945Y-284002496D01*
X187974945Y-284002503D01*
X187995140Y-284181749D01*
X187995141Y-284181754D01*
X188054721Y-284352024D01*
X188115368Y-284448541D01*
X188134369Y-284515778D01*
X188115369Y-284580486D01*
X188047011Y-284689276D01*
X187987431Y-284859545D01*
X187987430Y-284859550D01*
X187967235Y-285038796D01*
X187967235Y-285038803D01*
X187987430Y-285218049D01*
X187987431Y-285218054D01*
X188047011Y-285388323D01*
X188142984Y-285541062D01*
X188162641Y-285560719D01*
X188196126Y-285622042D01*
X188191142Y-285691734D01*
X188162641Y-285736081D01*
X188142984Y-285755737D01*
X188047011Y-285908476D01*
X187987431Y-286078745D01*
X187987430Y-286078750D01*
X187967235Y-286257996D01*
X187967235Y-286258003D01*
X187987430Y-286437249D01*
X187987431Y-286437254D01*
X188047011Y-286607523D01*
X188099620Y-286691249D01*
X188142984Y-286760262D01*
X188270538Y-286887816D01*
X188423278Y-286983789D01*
X188511948Y-287014816D01*
X188593545Y-287043368D01*
X188593550Y-287043369D01*
X188772796Y-287063565D01*
X188772800Y-287063565D01*
X188772804Y-287063565D01*
X188952049Y-287043369D01*
X188952052Y-287043368D01*
X188952055Y-287043368D01*
X189122322Y-286983789D01*
X189275062Y-286887816D01*
X189402616Y-286760262D01*
X189498589Y-286607522D01*
X189558168Y-286437255D01*
X189558169Y-286437249D01*
X189578365Y-286258003D01*
X189578365Y-286257996D01*
X189558169Y-286078750D01*
X189558168Y-286078745D01*
X189543028Y-286035478D01*
X189498589Y-285908478D01*
X189482415Y-285882738D01*
X189457411Y-285842944D01*
X189402616Y-285755738D01*
X189382959Y-285736081D01*
X189349474Y-285674758D01*
X189354458Y-285605066D01*
X189382959Y-285560719D01*
X189386037Y-285557641D01*
X189402616Y-285541062D01*
X189498589Y-285388322D01*
X189558168Y-285218055D01*
X189561879Y-285185122D01*
X189578365Y-285038803D01*
X189578365Y-285038796D01*
X189558169Y-284859550D01*
X189558168Y-284859545D01*
X189498588Y-284689275D01*
X189437941Y-284592758D01*
X189418940Y-284525521D01*
X189437940Y-284460813D01*
X189506299Y-284352022D01*
X189565878Y-284181755D01*
X189567700Y-284165585D01*
X189586075Y-284002503D01*
X189586075Y-284002496D01*
X189565879Y-283823250D01*
X189565878Y-283823245D01*
X189506298Y-283652975D01*
X189446854Y-283558372D01*
X189427853Y-283491135D01*
X189434804Y-283451449D01*
X189456568Y-283389255D01*
X189458163Y-283375100D01*
X189476765Y-283210003D01*
X189476765Y-283209996D01*
X189456569Y-283030750D01*
X189456568Y-283030745D01*
X189443405Y-282993128D01*
X189396989Y-282860478D01*
X189301016Y-282707738D01*
X189173462Y-282580184D01*
X189142204Y-282560543D01*
X189020723Y-282484211D01*
X188917227Y-282447996D01*
X190100835Y-282447996D01*
X190100835Y-282448003D01*
X190121030Y-282627249D01*
X190121031Y-282627254D01*
X190180611Y-282797523D01*
X190260282Y-282924318D01*
X190276584Y-282950262D01*
X190404138Y-283077816D01*
X190488708Y-283130955D01*
X190547201Y-283167709D01*
X190556878Y-283173789D01*
X190660372Y-283210003D01*
X190694186Y-283221835D01*
X190750962Y-283262557D01*
X190776709Y-283327510D01*
X190776452Y-283352757D01*
X190776047Y-283356351D01*
X190773936Y-283375096D01*
X190773935Y-283375101D01*
X190773935Y-283375103D01*
X190794130Y-283554349D01*
X190794131Y-283554354D01*
X190853711Y-283724623D01*
X190915683Y-283823250D01*
X190949684Y-283877362D01*
X191077238Y-284004916D01*
X191149355Y-284050230D01*
X191223737Y-284096968D01*
X191229978Y-284100889D01*
X191345249Y-284141224D01*
X191400245Y-284160468D01*
X191400250Y-284160469D01*
X191579496Y-284180665D01*
X191579500Y-284180665D01*
X191579504Y-284180665D01*
X191758749Y-284160469D01*
X191758752Y-284160468D01*
X191758755Y-284160468D01*
X191929022Y-284100889D01*
X192081762Y-284004916D01*
X192209316Y-283877362D01*
X192305289Y-283724622D01*
X192364868Y-283554355D01*
X192368347Y-283523478D01*
X192385065Y-283375103D01*
X192385065Y-283375096D01*
X192364869Y-283195850D01*
X192364868Y-283195845D01*
X192332520Y-283103401D01*
X192305289Y-283025578D01*
X192305239Y-283025499D01*
X192235480Y-282914478D01*
X192209316Y-282872838D01*
X192081762Y-282745284D01*
X191929021Y-282649310D01*
X191791714Y-282601265D01*
X191734938Y-282560543D01*
X191709190Y-282495591D01*
X191709448Y-282470338D01*
X191711965Y-282448001D01*
X191711965Y-282447997D01*
X191691769Y-282268750D01*
X191691768Y-282268745D01*
X191632188Y-282098476D01*
X191578405Y-282012882D01*
X191536216Y-281945738D01*
X191408662Y-281818184D01*
X191255923Y-281722211D01*
X191085654Y-281662631D01*
X191085649Y-281662630D01*
X190906404Y-281642435D01*
X190906396Y-281642435D01*
X190727150Y-281662630D01*
X190727145Y-281662631D01*
X190556876Y-281722211D01*
X190404137Y-281818184D01*
X190276584Y-281945737D01*
X190180611Y-282098476D01*
X190121031Y-282268745D01*
X190121030Y-282268750D01*
X190100835Y-282447996D01*
X188917227Y-282447996D01*
X188850454Y-282424631D01*
X188850449Y-282424630D01*
X188671204Y-282404435D01*
X188671196Y-282404435D01*
X188491950Y-282424630D01*
X188491945Y-282424631D01*
X188321676Y-282484211D01*
X188168937Y-282580184D01*
X188041384Y-282707737D01*
X187945411Y-282860476D01*
X187885831Y-283030745D01*
X187885830Y-283030750D01*
X187865635Y-283209996D01*
X181257295Y-283209996D01*
X181287515Y-283189622D01*
X181295381Y-283187406D01*
X181459644Y-283146918D01*
X181542559Y-283103401D01*
X181209601Y-282770442D01*
X181209599Y-282770442D01*
X181055819Y-282924223D01*
X180792442Y-283187599D01*
X180609600Y-283187599D01*
X180609600Y-283167709D01*
X180594376Y-283130955D01*
X180566245Y-283102824D01*
X180529491Y-283087600D01*
X180489709Y-283087600D01*
X180452955Y-283102824D01*
X180424824Y-283130955D01*
X180409600Y-283167709D01*
X180206866Y-283167709D01*
X179963380Y-282924223D01*
X179963378Y-282924220D01*
X179809601Y-282770442D01*
X179809599Y-282770442D01*
X179655819Y-282924223D01*
X179392442Y-283187599D01*
X179209600Y-283187599D01*
X179209600Y-283167709D01*
X179194376Y-283130955D01*
X179166245Y-283102824D01*
X179129491Y-283087600D01*
X179089709Y-283087600D01*
X179052955Y-283102824D01*
X179024824Y-283130955D01*
X179009600Y-283167709D01*
X178806866Y-283167709D01*
X178409599Y-282770442D01*
X178409598Y-282770442D01*
X178076639Y-283103401D01*
X168665459Y-283103401D01*
X168628081Y-283043915D01*
X168628076Y-283043909D01*
X168508490Y-282924323D01*
X168508484Y-282924318D01*
X168365297Y-282834347D01*
X168365291Y-282834344D01*
X168339958Y-282825480D01*
X168283181Y-282784758D01*
X168257434Y-282719805D01*
X168270890Y-282651244D01*
X168319277Y-282600841D01*
X168339960Y-282591396D01*
X168345119Y-282589590D01*
X168345118Y-282589590D01*
X168345122Y-282589589D01*
X168497862Y-282493616D01*
X168503879Y-282487599D01*
X177704459Y-282487599D01*
X177704459Y-282487600D01*
X177724948Y-282656348D01*
X177724949Y-282656351D01*
X177785229Y-282815294D01*
X177790878Y-282823479D01*
X178126757Y-282487601D01*
X178126757Y-282487599D01*
X178106867Y-282467709D01*
X178309600Y-282467709D01*
X178309600Y-282507491D01*
X178324824Y-282544245D01*
X178352955Y-282572376D01*
X178389709Y-282587600D01*
X178429491Y-282587600D01*
X178466245Y-282572376D01*
X178494376Y-282544245D01*
X178509600Y-282507491D01*
X178509600Y-282487599D01*
X178692442Y-282487599D01*
X178692442Y-282487600D01*
X178853996Y-282649154D01*
X178854011Y-282649168D01*
X179109600Y-282904757D01*
X179526757Y-282487600D01*
X179506866Y-282467709D01*
X179709600Y-282467709D01*
X179709600Y-282507491D01*
X179724824Y-282544245D01*
X179752955Y-282572376D01*
X179789709Y-282587600D01*
X179829491Y-282587600D01*
X179866245Y-282572376D01*
X179894376Y-282544245D01*
X179909600Y-282507491D01*
X179909600Y-282487599D01*
X180092442Y-282487599D01*
X180092442Y-282487600D01*
X180253996Y-282649154D01*
X180254011Y-282649168D01*
X180509600Y-282904757D01*
X180926757Y-282487600D01*
X180906866Y-282467709D01*
X181109600Y-282467709D01*
X181109600Y-282507491D01*
X181124824Y-282544245D01*
X181152955Y-282572376D01*
X181189709Y-282587600D01*
X181229491Y-282587600D01*
X181266245Y-282572376D01*
X181294376Y-282544245D01*
X181309600Y-282507491D01*
X181309600Y-282487599D01*
X181492442Y-282487599D01*
X181492442Y-282487601D01*
X181828320Y-282823479D01*
X181828320Y-282823478D01*
X181833969Y-282815296D01*
X181894250Y-282656351D01*
X181894251Y-282656348D01*
X181914741Y-282487600D01*
X181914741Y-282487599D01*
X181894251Y-282318851D01*
X181894250Y-282318845D01*
X181833971Y-282159904D01*
X181828321Y-282151719D01*
X181492442Y-282487599D01*
X181309600Y-282487599D01*
X181309600Y-282467709D01*
X181294376Y-282430955D01*
X181266245Y-282402824D01*
X181229491Y-282387600D01*
X181189709Y-282387600D01*
X181152955Y-282402824D01*
X181124824Y-282430955D01*
X181109600Y-282467709D01*
X180906866Y-282467709D01*
X180672234Y-282233077D01*
X180672232Y-282233074D01*
X180509601Y-282070442D01*
X180509599Y-282070442D01*
X180346965Y-282233077D01*
X180092442Y-282487599D01*
X179909600Y-282487599D01*
X179909600Y-282467709D01*
X179894376Y-282430955D01*
X179866245Y-282402824D01*
X179829491Y-282387600D01*
X179789709Y-282387600D01*
X179752955Y-282402824D01*
X179724824Y-282430955D01*
X179709600Y-282467709D01*
X179506866Y-282467709D01*
X179272234Y-282233077D01*
X179272232Y-282233074D01*
X179109601Y-282070442D01*
X179109599Y-282070442D01*
X178946965Y-282233077D01*
X178692442Y-282487599D01*
X178509600Y-282487599D01*
X178509600Y-282467709D01*
X178494376Y-282430955D01*
X178466245Y-282402824D01*
X178429491Y-282387600D01*
X178389709Y-282387600D01*
X178352955Y-282402824D01*
X178324824Y-282430955D01*
X178309600Y-282467709D01*
X178106867Y-282467709D01*
X177790878Y-282151720D01*
X177790877Y-282151720D01*
X177785228Y-282159905D01*
X177724949Y-282318845D01*
X177724948Y-282318851D01*
X177704459Y-282487599D01*
X168503879Y-282487599D01*
X168625416Y-282366062D01*
X168721389Y-282213322D01*
X168780968Y-282043055D01*
X168786692Y-281992254D01*
X168801165Y-281863803D01*
X168801165Y-281863796D01*
X168783093Y-281703401D01*
X178076639Y-281703401D01*
X178083934Y-281751327D01*
X178094051Y-281794411D01*
X178084177Y-281822272D01*
X178076639Y-281871797D01*
X178409598Y-282204757D01*
X178409599Y-282204757D01*
X178668619Y-281945738D01*
X178826757Y-281787600D01*
X178806866Y-281767709D01*
X179009600Y-281767709D01*
X179009600Y-281807491D01*
X179024824Y-281844245D01*
X179052955Y-281872376D01*
X179089709Y-281887600D01*
X179129491Y-281887600D01*
X179166245Y-281872376D01*
X179194376Y-281844245D01*
X179209600Y-281807491D01*
X179209600Y-281787599D01*
X179392442Y-281787599D01*
X179392442Y-281787600D01*
X179550566Y-281945724D01*
X179550581Y-281945738D01*
X179809600Y-282204757D01*
X180226757Y-281787600D01*
X180206866Y-281767709D01*
X180409600Y-281767709D01*
X180409600Y-281807491D01*
X180424824Y-281844245D01*
X180452955Y-281872376D01*
X180489709Y-281887600D01*
X180529491Y-281887600D01*
X180566245Y-281872376D01*
X180594376Y-281844245D01*
X180609600Y-281807491D01*
X180609600Y-281787599D01*
X180792442Y-281787599D01*
X180792442Y-281787600D01*
X180950566Y-281945724D01*
X180950581Y-281945738D01*
X181209600Y-282204757D01*
X181209601Y-282204757D01*
X181542559Y-281871797D01*
X181535264Y-281823870D01*
X181525147Y-281780795D01*
X181535023Y-281752918D01*
X181542559Y-281703402D01*
X181209601Y-281370442D01*
X181209599Y-281370442D01*
X181046965Y-281533077D01*
X180792442Y-281787599D01*
X180609600Y-281787599D01*
X180609600Y-281767709D01*
X180594376Y-281730955D01*
X180566245Y-281702824D01*
X180529491Y-281687600D01*
X180489709Y-281687600D01*
X180452955Y-281702824D01*
X180424824Y-281730955D01*
X180409600Y-281767709D01*
X180206866Y-281767709D01*
X179972234Y-281533077D01*
X179972232Y-281533074D01*
X179809601Y-281370442D01*
X179809599Y-281370442D01*
X179646965Y-281533077D01*
X179392442Y-281787599D01*
X179209600Y-281787599D01*
X179209600Y-281767709D01*
X179194376Y-281730955D01*
X179166245Y-281702824D01*
X179129491Y-281687600D01*
X179089709Y-281687600D01*
X179052955Y-281702824D01*
X179024824Y-281730955D01*
X179009600Y-281767709D01*
X178806866Y-281767709D01*
X178409599Y-281370442D01*
X178409598Y-281370442D01*
X178076639Y-281703401D01*
X168783093Y-281703401D01*
X168780969Y-281684550D01*
X168780968Y-281684545D01*
X168773300Y-281662630D01*
X168721389Y-281514278D01*
X168716845Y-281507047D01*
X168682182Y-281451880D01*
X168625416Y-281361538D01*
X168593059Y-281329181D01*
X168559574Y-281267858D01*
X168564558Y-281198166D01*
X168593059Y-281153819D01*
X168602633Y-281144245D01*
X168625416Y-281121462D01*
X168646694Y-281087599D01*
X177704459Y-281087599D01*
X177704459Y-281087600D01*
X177724948Y-281256348D01*
X177724949Y-281256351D01*
X177785229Y-281415294D01*
X177790878Y-281423479D01*
X178126757Y-281087601D01*
X178126757Y-281087599D01*
X178106867Y-281067709D01*
X178309600Y-281067709D01*
X178309600Y-281107491D01*
X178324824Y-281144245D01*
X178352955Y-281172376D01*
X178389709Y-281187600D01*
X178429491Y-281187600D01*
X178466245Y-281172376D01*
X178494376Y-281144245D01*
X178509600Y-281107491D01*
X178509600Y-281087599D01*
X178692442Y-281087599D01*
X178692442Y-281087600D01*
X178846328Y-281241486D01*
X178846343Y-281241500D01*
X179109600Y-281504757D01*
X179526757Y-281087600D01*
X179506866Y-281067709D01*
X179709600Y-281067709D01*
X179709600Y-281107491D01*
X179724824Y-281144245D01*
X179752955Y-281172376D01*
X179789709Y-281187600D01*
X179829491Y-281187600D01*
X179866245Y-281172376D01*
X179894376Y-281144245D01*
X179909600Y-281107491D01*
X179909600Y-281087599D01*
X180092442Y-281087599D01*
X180092442Y-281087600D01*
X180246328Y-281241486D01*
X180246343Y-281241500D01*
X180509600Y-281504757D01*
X180926757Y-281087600D01*
X180906866Y-281067709D01*
X181109600Y-281067709D01*
X181109600Y-281107491D01*
X181124824Y-281144245D01*
X181152955Y-281172376D01*
X181189709Y-281187600D01*
X181229491Y-281187600D01*
X181266245Y-281172376D01*
X181294376Y-281144245D01*
X181309600Y-281107491D01*
X181309600Y-281087599D01*
X181492442Y-281087599D01*
X181492442Y-281087601D01*
X181828320Y-281423479D01*
X181828320Y-281423478D01*
X181833969Y-281415296D01*
X181894250Y-281256351D01*
X181894251Y-281256348D01*
X181914741Y-281087600D01*
X181914741Y-281087599D01*
X181894251Y-280918851D01*
X181894250Y-280918845D01*
X181833971Y-280759904D01*
X181828321Y-280751719D01*
X181492442Y-281087599D01*
X181309600Y-281087599D01*
X181309600Y-281067709D01*
X181294376Y-281030955D01*
X181266245Y-281002824D01*
X181229491Y-280987600D01*
X181189709Y-280987600D01*
X181152955Y-281002824D01*
X181124824Y-281030955D01*
X181109600Y-281067709D01*
X180906866Y-281067709D01*
X180672234Y-280833077D01*
X180672232Y-280833074D01*
X180509601Y-280670442D01*
X180509599Y-280670442D01*
X180346965Y-280833077D01*
X180092442Y-281087599D01*
X179909600Y-281087599D01*
X179909600Y-281067709D01*
X179894376Y-281030955D01*
X179866245Y-281002824D01*
X179829491Y-280987600D01*
X179789709Y-280987600D01*
X179752955Y-281002824D01*
X179724824Y-281030955D01*
X179709600Y-281067709D01*
X179506866Y-281067709D01*
X179272234Y-280833077D01*
X179272232Y-280833074D01*
X179109601Y-280670442D01*
X179109599Y-280670442D01*
X178946965Y-280833077D01*
X178692442Y-281087599D01*
X178509600Y-281087599D01*
X178509600Y-281067709D01*
X178494376Y-281030955D01*
X178466245Y-281002824D01*
X178429491Y-280987600D01*
X178389709Y-280987600D01*
X178352955Y-281002824D01*
X178324824Y-281030955D01*
X178309600Y-281067709D01*
X178106867Y-281067709D01*
X177790877Y-280751720D01*
X177785228Y-280759905D01*
X177724949Y-280918845D01*
X177724948Y-280918851D01*
X177704459Y-281087599D01*
X168646694Y-281087599D01*
X168721389Y-280968722D01*
X168780968Y-280798455D01*
X168780969Y-280798449D01*
X168801165Y-280619203D01*
X168801165Y-280619196D01*
X168784557Y-280471796D01*
X178076639Y-280471796D01*
X178076639Y-280471797D01*
X178409598Y-280804757D01*
X178409599Y-280804757D01*
X178625476Y-280588881D01*
X178826757Y-280387599D01*
X178826757Y-280387598D01*
X178806868Y-280367709D01*
X179009600Y-280367709D01*
X179009600Y-280407491D01*
X179024824Y-280444245D01*
X179052955Y-280472376D01*
X179089709Y-280487600D01*
X179129491Y-280487600D01*
X179166245Y-280472376D01*
X179194376Y-280444245D01*
X179209600Y-280407491D01*
X179209600Y-280387599D01*
X179392442Y-280387599D01*
X179809600Y-280804757D01*
X180025476Y-280588881D01*
X180226757Y-280387599D01*
X180226757Y-280387598D01*
X180206868Y-280367709D01*
X180409600Y-280367709D01*
X180409600Y-280407491D01*
X180424824Y-280444245D01*
X180452955Y-280472376D01*
X180489709Y-280487600D01*
X180529491Y-280487600D01*
X180566245Y-280472376D01*
X180594376Y-280444245D01*
X180609600Y-280407491D01*
X180609600Y-280387599D01*
X180792442Y-280387599D01*
X181209600Y-280804757D01*
X181209601Y-280804757D01*
X181542559Y-280471797D01*
X181542559Y-280471796D01*
X181459646Y-280428282D01*
X181295380Y-280387793D01*
X181235000Y-280352636D01*
X181203212Y-280290416D01*
X181201960Y-280282341D01*
X181194251Y-280218852D01*
X181194250Y-280218845D01*
X181133971Y-280059904D01*
X181128321Y-280051719D01*
X180792442Y-280387599D01*
X180609600Y-280387599D01*
X180609600Y-280367709D01*
X180594376Y-280330955D01*
X180566245Y-280302824D01*
X180529491Y-280287600D01*
X180489709Y-280287600D01*
X180452955Y-280302824D01*
X180424824Y-280330955D01*
X180409600Y-280367709D01*
X180206868Y-280367709D01*
X179890878Y-280051719D01*
X179872444Y-280053395D01*
X179857367Y-280065615D01*
X179787919Y-280073276D01*
X179748185Y-280053524D01*
X179728321Y-280051719D01*
X179392442Y-280387599D01*
X179209600Y-280387599D01*
X179209600Y-280367709D01*
X179194376Y-280330955D01*
X179166245Y-280302824D01*
X179129491Y-280287600D01*
X179089709Y-280287600D01*
X179052955Y-280302824D01*
X179024824Y-280330955D01*
X179009600Y-280367709D01*
X178806868Y-280367709D01*
X178490878Y-280051719D01*
X178490877Y-280051720D01*
X178485228Y-280059905D01*
X178424949Y-280218845D01*
X178424948Y-280218851D01*
X178417239Y-280282343D01*
X178389617Y-280346521D01*
X178331682Y-280385577D01*
X178323819Y-280387793D01*
X178159551Y-280428282D01*
X178076639Y-280471796D01*
X168784557Y-280471796D01*
X168780969Y-280439950D01*
X168780968Y-280439945D01*
X168761944Y-280385577D01*
X168721389Y-280269678D01*
X168689448Y-280218845D01*
X168646937Y-280151189D01*
X168625416Y-280116938D01*
X168554959Y-280046481D01*
X168521474Y-279985158D01*
X168526458Y-279915466D01*
X168554959Y-279871119D01*
X168557842Y-279868234D01*
X168574616Y-279851462D01*
X168624674Y-279771796D01*
X178776639Y-279771796D01*
X179109600Y-280104757D01*
X179109601Y-280104757D01*
X179442559Y-279771797D01*
X179442559Y-279771796D01*
X180176639Y-279771796D01*
X180509600Y-280104757D01*
X180509601Y-280104757D01*
X180842559Y-279771797D01*
X180842559Y-279771796D01*
X180759646Y-279728282D01*
X180594594Y-279687600D01*
X180424606Y-279687600D01*
X180259551Y-279728282D01*
X180176639Y-279771796D01*
X179442559Y-279771796D01*
X179359646Y-279728282D01*
X179194594Y-279687600D01*
X179024606Y-279687600D01*
X178859551Y-279728282D01*
X178776639Y-279771796D01*
X168624674Y-279771796D01*
X168670589Y-279698722D01*
X168730168Y-279528455D01*
X168732965Y-279503630D01*
X168741780Y-279425396D01*
X187916435Y-279425396D01*
X187916435Y-279425403D01*
X187936630Y-279604649D01*
X187936631Y-279604654D01*
X187996211Y-279774923D01*
X188084521Y-279915466D01*
X188092184Y-279927662D01*
X188219738Y-280055216D01*
X188286679Y-280097278D01*
X188317961Y-280116934D01*
X188372478Y-280151189D01*
X188542745Y-280210768D01*
X188542750Y-280210769D01*
X188721996Y-280230965D01*
X188722000Y-280230965D01*
X188722004Y-280230965D01*
X188901249Y-280210769D01*
X188901252Y-280210768D01*
X188901255Y-280210768D01*
X189071522Y-280151189D01*
X189224262Y-280055216D01*
X189351816Y-279927662D01*
X189447789Y-279774922D01*
X189507368Y-279604655D01*
X189513963Y-279546123D01*
X189527565Y-279425403D01*
X189527565Y-279425396D01*
X189507369Y-279246150D01*
X189507368Y-279246145D01*
X189452424Y-279089124D01*
X189447789Y-279075878D01*
X189351816Y-278923138D01*
X189224262Y-278795584D01*
X189115070Y-278726974D01*
X189068779Y-278674639D01*
X189058131Y-278605585D01*
X189086506Y-278541737D01*
X189115070Y-278516986D01*
X189242127Y-278437151D01*
X189369681Y-278309597D01*
X189465654Y-278156857D01*
X189525233Y-277986590D01*
X189528879Y-277954232D01*
X189545430Y-277807338D01*
X189545430Y-277807331D01*
X189525234Y-277628085D01*
X189525233Y-277628080D01*
X189496442Y-277545800D01*
X189465654Y-277457813D01*
X189369681Y-277305073D01*
X189242127Y-277177519D01*
X189089388Y-277081546D01*
X188919119Y-277021966D01*
X188919114Y-277021965D01*
X188739869Y-277001770D01*
X188739861Y-277001770D01*
X188560615Y-277021965D01*
X188560610Y-277021966D01*
X188390341Y-277081546D01*
X188237602Y-277177519D01*
X188110049Y-277305072D01*
X188014076Y-277457811D01*
X187954496Y-277628080D01*
X187954495Y-277628085D01*
X187934300Y-277807331D01*
X187934300Y-277807338D01*
X187954495Y-277986584D01*
X187954496Y-277986589D01*
X188014076Y-278156858D01*
X188086166Y-278271588D01*
X188110049Y-278309597D01*
X188237603Y-278437151D01*
X188346794Y-278505760D01*
X188393085Y-278558095D01*
X188403733Y-278627148D01*
X188375358Y-278690997D01*
X188346795Y-278715747D01*
X188219740Y-278795582D01*
X188219737Y-278795584D01*
X188092184Y-278923137D01*
X187996211Y-279075876D01*
X187936631Y-279246145D01*
X187936630Y-279246150D01*
X187916435Y-279425396D01*
X168741780Y-279425396D01*
X168750365Y-279349203D01*
X168750365Y-279349196D01*
X168730169Y-279169950D01*
X168730168Y-279169945D01*
X168670589Y-278999678D01*
X168574616Y-278846938D01*
X168529558Y-278801880D01*
X168496074Y-278740558D01*
X168501058Y-278670866D01*
X168529559Y-278626519D01*
X168550493Y-278605585D01*
X168574616Y-278581462D01*
X168670589Y-278428722D01*
X168730168Y-278258455D01*
X168730778Y-278253040D01*
X168750365Y-278079203D01*
X168750365Y-278079196D01*
X168730169Y-277899950D01*
X168730168Y-277899945D01*
X168715028Y-277856678D01*
X168670589Y-277729678D01*
X168667680Y-277725049D01*
X168574615Y-277576937D01*
X168447062Y-277449384D01*
X168294323Y-277353411D01*
X168124054Y-277293831D01*
X168124049Y-277293830D01*
X167944804Y-277273635D01*
X167944796Y-277273635D01*
X167765550Y-277293830D01*
X167765545Y-277293831D01*
X167595276Y-277353411D01*
X167442537Y-277449384D01*
X167314984Y-277576937D01*
X167219011Y-277729676D01*
X167159431Y-277899945D01*
X167159430Y-277899950D01*
X167139235Y-278079196D01*
X165622482Y-278079196D01*
X165653616Y-278048062D01*
X165749589Y-277895322D01*
X165809168Y-277725055D01*
X165810317Y-277714857D01*
X165829365Y-277545803D01*
X165829365Y-277545796D01*
X165809169Y-277366550D01*
X165809168Y-277366545D01*
X165787658Y-277305072D01*
X165749589Y-277196278D01*
X165718047Y-277146080D01*
X165653615Y-277043537D01*
X165526062Y-276915984D01*
X165373323Y-276820011D01*
X165203054Y-276760431D01*
X165203049Y-276760430D01*
X165184996Y-276758396D01*
X191675635Y-276758396D01*
X191675635Y-276758403D01*
X191695830Y-276937649D01*
X191695831Y-276937654D01*
X191755411Y-277107923D01*
X191810929Y-277196278D01*
X191851384Y-277260662D01*
X191978938Y-277388216D01*
X192131678Y-277484189D01*
X192211366Y-277512073D01*
X192301945Y-277543768D01*
X192301950Y-277543769D01*
X192481196Y-277563965D01*
X192481200Y-277563965D01*
X192481204Y-277563965D01*
X192660449Y-277543769D01*
X192660452Y-277543768D01*
X192660455Y-277543768D01*
X192830722Y-277484189D01*
X192983462Y-277388216D01*
X193111016Y-277260662D01*
X193206989Y-277107922D01*
X193266568Y-276937655D01*
X193276742Y-276847361D01*
X193286765Y-276758403D01*
X193286765Y-276758396D01*
X193266569Y-276579150D01*
X193266568Y-276579145D01*
X193206988Y-276408876D01*
X193130993Y-276287931D01*
X193111016Y-276256138D01*
X192983462Y-276128584D01*
X192982773Y-276128151D01*
X192830723Y-276032611D01*
X192660454Y-275973031D01*
X192660449Y-275973030D01*
X192481204Y-275952835D01*
X192481196Y-275952835D01*
X192301950Y-275973030D01*
X192301945Y-275973031D01*
X192131676Y-276032611D01*
X191978937Y-276128584D01*
X191851384Y-276256137D01*
X191755411Y-276408876D01*
X191695831Y-276579145D01*
X191695830Y-276579150D01*
X191675635Y-276758396D01*
X165184996Y-276758396D01*
X165023804Y-276740235D01*
X165023796Y-276740235D01*
X164844550Y-276760430D01*
X164844537Y-276760433D01*
X164674278Y-276820010D01*
X164660984Y-276828363D01*
X164593747Y-276847361D01*
X164529043Y-276828360D01*
X164499524Y-276809811D01*
X164329254Y-276750231D01*
X164329249Y-276750230D01*
X164150004Y-276730035D01*
X164149996Y-276730035D01*
X163970750Y-276750230D01*
X163970745Y-276750231D01*
X163800476Y-276809811D01*
X163647737Y-276905784D01*
X163520184Y-277033337D01*
X163424211Y-277186076D01*
X163364631Y-277356345D01*
X163364630Y-277356350D01*
X163344435Y-277535596D01*
X163344435Y-277535603D01*
X163364630Y-277714849D01*
X163364632Y-277714857D01*
X163387371Y-277779841D01*
X163390932Y-277849620D01*
X163356203Y-277910247D01*
X163294210Y-277942474D01*
X163284212Y-277944015D01*
X163217902Y-277951486D01*
X163149080Y-277939431D01*
X163097701Y-277892082D01*
X163086978Y-277869221D01*
X163082589Y-277856678D01*
X162986616Y-277703938D01*
X162859062Y-277576384D01*
X162807154Y-277543768D01*
X162706323Y-277480411D01*
X162536054Y-277420831D01*
X162536049Y-277420830D01*
X162356804Y-277400635D01*
X162356796Y-277400635D01*
X162177550Y-277420830D01*
X162177545Y-277420831D01*
X162007276Y-277480411D01*
X161854537Y-277576384D01*
X161726984Y-277703937D01*
X161631011Y-277856676D01*
X161571431Y-278026945D01*
X161571430Y-278026950D01*
X161551235Y-278206196D01*
X152922700Y-278206196D01*
X152922700Y-276840627D01*
X152942385Y-276773588D01*
X152995189Y-276727833D01*
X153064347Y-276717889D01*
X153110476Y-276735566D01*
X153110768Y-276735021D01*
X153115112Y-276737343D01*
X153115595Y-276737528D01*
X153116138Y-276737891D01*
X153288208Y-276809165D01*
X153446378Y-276840627D01*
X153470871Y-276845499D01*
X153470874Y-276845500D01*
X153470876Y-276845500D01*
X154317126Y-276845500D01*
X154317127Y-276845499D01*
X154499792Y-276809165D01*
X154671862Y-276737891D01*
X154671863Y-276737890D01*
X154671864Y-276737890D01*
X154797531Y-276653922D01*
X154797538Y-276653917D01*
X155618500Y-276653917D01*
X155618500Y-277146082D01*
X155655986Y-277334535D01*
X155655989Y-277334547D01*
X155729520Y-277512068D01*
X155729521Y-277512070D01*
X155836279Y-277671844D01*
X155836282Y-277671848D01*
X155972151Y-277807717D01*
X155972155Y-277807720D01*
X156131927Y-277914477D01*
X156131928Y-277914477D01*
X156131929Y-277914478D01*
X156131931Y-277914479D01*
X156306024Y-277986590D01*
X156309457Y-277988012D01*
X156497917Y-278025499D01*
X156497920Y-278025500D01*
X156497922Y-278025500D01*
X156690080Y-278025500D01*
X156690081Y-278025499D01*
X156878543Y-277988012D01*
X157056073Y-277914477D01*
X157215845Y-277807720D01*
X157351720Y-277671845D01*
X157458477Y-277512073D01*
X157532012Y-277334543D01*
X157569500Y-277146078D01*
X157569500Y-276653922D01*
X157569500Y-276653919D01*
X157569499Y-276653917D01*
X157565620Y-276634415D01*
X157532012Y-276465457D01*
X157508576Y-276408878D01*
X157458479Y-276287931D01*
X157458478Y-276287929D01*
X157443149Y-276264988D01*
X157351720Y-276128155D01*
X157351717Y-276128151D01*
X157215848Y-275992282D01*
X157215844Y-275992279D01*
X157056070Y-275885521D01*
X157056068Y-275885520D01*
X156878547Y-275811989D01*
X156878535Y-275811986D01*
X156690081Y-275774500D01*
X156690078Y-275774500D01*
X156497922Y-275774500D01*
X156497919Y-275774500D01*
X156309464Y-275811986D01*
X156309452Y-275811989D01*
X156131931Y-275885520D01*
X156131929Y-275885521D01*
X155972155Y-275992279D01*
X155972151Y-275992282D01*
X155836282Y-276128151D01*
X155836279Y-276128155D01*
X155729521Y-276287929D01*
X155729520Y-276287931D01*
X155655989Y-276465452D01*
X155655986Y-276465464D01*
X155618500Y-276653917D01*
X154797538Y-276653917D01*
X154826721Y-276634418D01*
X154958418Y-276502721D01*
X155061891Y-276347862D01*
X155133165Y-276175792D01*
X155169500Y-275993124D01*
X155169500Y-275806876D01*
X155169500Y-275806873D01*
X155169499Y-275806871D01*
X155133166Y-275624215D01*
X155133165Y-275624208D01*
X155061891Y-275452138D01*
X155061890Y-275452136D01*
X155061890Y-275452135D01*
X154958421Y-275297283D01*
X154958415Y-275297275D01*
X154826724Y-275165584D01*
X154826716Y-275165578D01*
X154671864Y-275062109D01*
X154499792Y-274990835D01*
X154499784Y-274990833D01*
X154317127Y-274954500D01*
X154317124Y-274954500D01*
X153470876Y-274954500D01*
X153470873Y-274954500D01*
X153288215Y-274990833D01*
X153288207Y-274990835D01*
X153116136Y-275062109D01*
X153115585Y-275062478D01*
X153115251Y-275062582D01*
X153110768Y-275064979D01*
X153110313Y-275064128D01*
X153048906Y-275083352D01*
X152981527Y-275064864D01*
X152934840Y-275012882D01*
X152922700Y-274959372D01*
X152922700Y-272948396D01*
X162491035Y-272948396D01*
X162491035Y-272948403D01*
X162511230Y-273127649D01*
X162511231Y-273127654D01*
X162570811Y-273297923D01*
X162602731Y-273348723D01*
X162666784Y-273450662D01*
X162794338Y-273578216D01*
X162947078Y-273674189D01*
X163083371Y-273721880D01*
X163117345Y-273733768D01*
X163117350Y-273733769D01*
X163296596Y-273753965D01*
X163296600Y-273753965D01*
X163296604Y-273753965D01*
X163475849Y-273733769D01*
X163475852Y-273733768D01*
X163475855Y-273733768D01*
X163646122Y-273674189D01*
X163798862Y-273578216D01*
X163926416Y-273450662D01*
X164022389Y-273297922D01*
X164081968Y-273127655D01*
X164096441Y-272999203D01*
X164096442Y-272999196D01*
X188119635Y-272999196D01*
X188119635Y-272999203D01*
X188139830Y-273178449D01*
X188139831Y-273178454D01*
X188199411Y-273348723D01*
X188295384Y-273501462D01*
X188295385Y-273501463D01*
X188340441Y-273546520D01*
X188373925Y-273607843D01*
X188368940Y-273677535D01*
X188340441Y-273721880D01*
X188295384Y-273766937D01*
X188199411Y-273919676D01*
X188139831Y-274089945D01*
X188139830Y-274089950D01*
X188119635Y-274269196D01*
X188119635Y-274269203D01*
X188139830Y-274448449D01*
X188139831Y-274448454D01*
X188199411Y-274618723D01*
X188295384Y-274771462D01*
X188391332Y-274867410D01*
X188424817Y-274928733D01*
X188419833Y-274998425D01*
X188400608Y-275032392D01*
X188396986Y-275036933D01*
X188301011Y-275189676D01*
X188241431Y-275359945D01*
X188241430Y-275359950D01*
X188221235Y-275539196D01*
X188221235Y-275539203D01*
X188241430Y-275718449D01*
X188241431Y-275718454D01*
X188301011Y-275888723D01*
X188366080Y-275992279D01*
X188396984Y-276041462D01*
X188524538Y-276169016D01*
X188535322Y-276175792D01*
X188663191Y-276256138D01*
X188677278Y-276264989D01*
X188847545Y-276324568D01*
X188847550Y-276324569D01*
X189026796Y-276344765D01*
X189026800Y-276344765D01*
X189026804Y-276344765D01*
X189206049Y-276324569D01*
X189206052Y-276324568D01*
X189206055Y-276324568D01*
X189376322Y-276264989D01*
X189529062Y-276169016D01*
X189656616Y-276041462D01*
X189752589Y-275888722D01*
X189812168Y-275718455D01*
X189812169Y-275718449D01*
X189832365Y-275539203D01*
X189832365Y-275539196D01*
X189812169Y-275359950D01*
X189812168Y-275359945D01*
X189752588Y-275189676D01*
X189674163Y-275064864D01*
X189656616Y-275036938D01*
X189560667Y-274940989D01*
X189527182Y-274879666D01*
X189532166Y-274809974D01*
X189551400Y-274775996D01*
X189555007Y-274771470D01*
X189555016Y-274771462D01*
X189650989Y-274618722D01*
X189710568Y-274448455D01*
X189730765Y-274269200D01*
X189710568Y-274089945D01*
X189650989Y-273919678D01*
X189555016Y-273766938D01*
X189509958Y-273721880D01*
X189476474Y-273660558D01*
X189481458Y-273590866D01*
X189509959Y-273546519D01*
X189555016Y-273501462D01*
X189650989Y-273348722D01*
X189710568Y-273178455D01*
X189716292Y-273127654D01*
X189730765Y-272999203D01*
X189730765Y-272999196D01*
X189710569Y-272819950D01*
X189710568Y-272819945D01*
X189650988Y-272649676D01*
X189608457Y-272581989D01*
X189555016Y-272496938D01*
X189427462Y-272369384D01*
X189410080Y-272358462D01*
X189274723Y-272273411D01*
X189104454Y-272213831D01*
X189104449Y-272213830D01*
X188925204Y-272193635D01*
X188925196Y-272193635D01*
X188745950Y-272213830D01*
X188745945Y-272213831D01*
X188575676Y-272273411D01*
X188422937Y-272369384D01*
X188295384Y-272496937D01*
X188199411Y-272649676D01*
X188139831Y-272819945D01*
X188139830Y-272819950D01*
X188119635Y-272999196D01*
X164096442Y-272999196D01*
X164102165Y-272948403D01*
X164102165Y-272948396D01*
X164081969Y-272769150D01*
X164081968Y-272769145D01*
X164044394Y-272661765D01*
X164022389Y-272598878D01*
X163926416Y-272446138D01*
X163798862Y-272318584D01*
X163726970Y-272273411D01*
X163646123Y-272222611D01*
X163475854Y-272163031D01*
X163475849Y-272163030D01*
X163296604Y-272142835D01*
X163296596Y-272142835D01*
X163117350Y-272163030D01*
X163117345Y-272163031D01*
X162947076Y-272222611D01*
X162794337Y-272318584D01*
X162666784Y-272446137D01*
X162570811Y-272598876D01*
X162511231Y-272769145D01*
X162511230Y-272769150D01*
X162491035Y-272948396D01*
X152922700Y-272948396D01*
X152922700Y-271856196D01*
X153372435Y-271856196D01*
X153372435Y-271856203D01*
X153392630Y-272035449D01*
X153392631Y-272035454D01*
X153452211Y-272205723D01*
X153462823Y-272222611D01*
X153548184Y-272358462D01*
X153675738Y-272486016D01*
X153828478Y-272581989D01*
X153998745Y-272641568D01*
X153998750Y-272641569D01*
X154177996Y-272661765D01*
X154178000Y-272661765D01*
X154178004Y-272661765D01*
X154357249Y-272641569D01*
X154357252Y-272641568D01*
X154357255Y-272641568D01*
X154527522Y-272581989D01*
X154680262Y-272486016D01*
X154807816Y-272358462D01*
X154903789Y-272205722D01*
X154963368Y-272035455D01*
X154972933Y-271950565D01*
X154983565Y-271856203D01*
X154983565Y-271856196D01*
X154963369Y-271676950D01*
X154963368Y-271676945D01*
X154903788Y-271506676D01*
X154807815Y-271353937D01*
X154680262Y-271226384D01*
X154550735Y-271144996D01*
X160408235Y-271144996D01*
X160408235Y-271145003D01*
X160428430Y-271324249D01*
X160428431Y-271324254D01*
X160488011Y-271494523D01*
X160495649Y-271506678D01*
X160583984Y-271647262D01*
X160711538Y-271774816D01*
X160801880Y-271831582D01*
X160841064Y-271856203D01*
X160864278Y-271870789D01*
X161034545Y-271930368D01*
X161034550Y-271930369D01*
X161213796Y-271950565D01*
X161213800Y-271950565D01*
X161213804Y-271950565D01*
X161393049Y-271930369D01*
X161393052Y-271930368D01*
X161393055Y-271930368D01*
X161563322Y-271870789D01*
X161716062Y-271774816D01*
X161843616Y-271647262D01*
X161939589Y-271494522D01*
X161999168Y-271324255D01*
X161999169Y-271324249D01*
X162019365Y-271145003D01*
X162019365Y-271144996D01*
X161999169Y-270965750D01*
X161999168Y-270965745D01*
X161939588Y-270795476D01*
X161843615Y-270642737D01*
X161716062Y-270515184D01*
X161563323Y-270419211D01*
X161393054Y-270359631D01*
X161393049Y-270359630D01*
X161213804Y-270339435D01*
X161213796Y-270339435D01*
X161034550Y-270359630D01*
X161034545Y-270359631D01*
X160864276Y-270419211D01*
X160711537Y-270515184D01*
X160583984Y-270642737D01*
X160488011Y-270795476D01*
X160428431Y-270965745D01*
X160428430Y-270965750D01*
X160408235Y-271144996D01*
X154550735Y-271144996D01*
X154527523Y-271130411D01*
X154357254Y-271070831D01*
X154357249Y-271070830D01*
X154178004Y-271050635D01*
X154177996Y-271050635D01*
X153998750Y-271070830D01*
X153998745Y-271070831D01*
X153828476Y-271130411D01*
X153675737Y-271226384D01*
X153548184Y-271353937D01*
X153452211Y-271506676D01*
X153392631Y-271676945D01*
X153392630Y-271676950D01*
X153372435Y-271856196D01*
X152922700Y-271856196D01*
X152922700Y-258610304D01*
X154674500Y-258610304D01*
X154674500Y-258787695D01*
X154709103Y-258961658D01*
X154709106Y-258961667D01*
X154776983Y-259125540D01*
X154776990Y-259125553D01*
X154875535Y-259273034D01*
X154875538Y-259273038D01*
X155000961Y-259398461D01*
X155000965Y-259398464D01*
X155148446Y-259497009D01*
X155148459Y-259497016D01*
X155271363Y-259547923D01*
X155312334Y-259564894D01*
X155312336Y-259564894D01*
X155312341Y-259564896D01*
X155486304Y-259599499D01*
X155486307Y-259599500D01*
X155486309Y-259599500D01*
X155663693Y-259599500D01*
X155663694Y-259599499D01*
X155721682Y-259587964D01*
X155837658Y-259564896D01*
X155837661Y-259564894D01*
X155837666Y-259564894D01*
X155977535Y-259506958D01*
X156001540Y-259497016D01*
X156001540Y-259497015D01*
X156001547Y-259497013D01*
X156149035Y-259398464D01*
X156274464Y-259273035D01*
X156373013Y-259125547D01*
X156374221Y-259122632D01*
X156402923Y-259053336D01*
X156440894Y-258961666D01*
X156475500Y-258787691D01*
X156475500Y-258610309D01*
X156475500Y-258610306D01*
X156475499Y-258610304D01*
X156440896Y-258436341D01*
X156440893Y-258436332D01*
X156373684Y-258274072D01*
X163786435Y-258274072D01*
X163786435Y-258274079D01*
X163806630Y-258453325D01*
X163806631Y-258453330D01*
X163866211Y-258623599D01*
X163962184Y-258776338D01*
X164089738Y-258903892D01*
X164180080Y-258960658D01*
X164240235Y-258998456D01*
X164242478Y-258999865D01*
X164404709Y-259056632D01*
X164412748Y-259059445D01*
X164415438Y-259060059D01*
X164417001Y-259060933D01*
X164419318Y-259061744D01*
X164419176Y-259062149D01*
X164476418Y-259094166D01*
X164504891Y-259139996D01*
X164534144Y-259223595D01*
X164534146Y-259223598D01*
X164630119Y-259376338D01*
X164757673Y-259503892D01*
X164828660Y-259548496D01*
X164909830Y-259599499D01*
X164910413Y-259599865D01*
X164974043Y-259622130D01*
X165080680Y-259659444D01*
X165080685Y-259659445D01*
X165259931Y-259679641D01*
X165259935Y-259679641D01*
X165259939Y-259679641D01*
X165439184Y-259659445D01*
X165439187Y-259659444D01*
X165439190Y-259659444D01*
X165609457Y-259599865D01*
X165610040Y-259599499D01*
X165660970Y-259567497D01*
X165728206Y-259548496D01*
X165795042Y-259568863D01*
X165840256Y-259622130D01*
X165849495Y-259691387D01*
X165843986Y-259713441D01*
X165838632Y-259728740D01*
X165838630Y-259728750D01*
X165818435Y-259907996D01*
X165818435Y-259908003D01*
X165838630Y-260087249D01*
X165838631Y-260087254D01*
X165898211Y-260257523D01*
X165947152Y-260335411D01*
X165994184Y-260410262D01*
X166121738Y-260537816D01*
X166169440Y-260567789D01*
X166274478Y-260633789D01*
X166344338Y-260658234D01*
X166401114Y-260698956D01*
X166426862Y-260763908D01*
X166420426Y-260816230D01*
X166397432Y-260881942D01*
X166397430Y-260881950D01*
X166377235Y-261061196D01*
X166377235Y-261061203D01*
X166397430Y-261240449D01*
X166397431Y-261240454D01*
X166457011Y-261410723D01*
X166552984Y-261563462D01*
X166680538Y-261691016D01*
X166833278Y-261786989D01*
X166836368Y-261788070D01*
X166838100Y-261789312D01*
X166839553Y-261790012D01*
X166839430Y-261790266D01*
X166893145Y-261828791D01*
X166918894Y-261893743D01*
X166905439Y-261962305D01*
X166861389Y-262010106D01*
X166705939Y-262107782D01*
X166578384Y-262235337D01*
X166482411Y-262388076D01*
X166422831Y-262558345D01*
X166422830Y-262558350D01*
X166402635Y-262737596D01*
X166402635Y-262737603D01*
X166422830Y-262916849D01*
X166422831Y-262916854D01*
X166482411Y-263087123D01*
X166537367Y-263174584D01*
X166578384Y-263239862D01*
X166705938Y-263367416D01*
X166858678Y-263463389D01*
X167028945Y-263522968D01*
X167028950Y-263522969D01*
X167208196Y-263543165D01*
X167208200Y-263543165D01*
X167208204Y-263543165D01*
X167387449Y-263522969D01*
X167387452Y-263522968D01*
X167387455Y-263522968D01*
X167557722Y-263463389D01*
X167710462Y-263367416D01*
X167838016Y-263239862D01*
X167933989Y-263087122D01*
X167993568Y-262916855D01*
X168013765Y-262737600D01*
X167993568Y-262558345D01*
X167933989Y-262388078D01*
X167838016Y-262235338D01*
X167710462Y-262107784D01*
X167557722Y-262011811D01*
X167557719Y-262011809D01*
X167554624Y-262010726D01*
X167552892Y-262009484D01*
X167551447Y-262008788D01*
X167551568Y-262008534D01*
X167497850Y-261970003D01*
X167472105Y-261905049D01*
X167485563Y-261836488D01*
X167529611Y-261788692D01*
X167532320Y-261786989D01*
X167532322Y-261786989D01*
X167685062Y-261691016D01*
X167812616Y-261563462D01*
X167908589Y-261410722D01*
X167968168Y-261240455D01*
X167968916Y-261233816D01*
X167988365Y-261061203D01*
X167988365Y-261061196D01*
X167968169Y-260881950D01*
X167968168Y-260881945D01*
X167945173Y-260816230D01*
X167908589Y-260711678D01*
X167812616Y-260558938D01*
X167685062Y-260431384D01*
X167532322Y-260335411D01*
X167532319Y-260335409D01*
X167462460Y-260310964D01*
X167405684Y-260270243D01*
X167379937Y-260205290D01*
X167386374Y-260152967D01*
X167409367Y-260087259D01*
X167409369Y-260087249D01*
X167429565Y-259908003D01*
X167429565Y-259907996D01*
X167409369Y-259728750D01*
X167409368Y-259728745D01*
X167392186Y-259679641D01*
X167349789Y-259558478D01*
X167253816Y-259405738D01*
X167126262Y-259278184D01*
X167055274Y-259233579D01*
X166973523Y-259182211D01*
X166803254Y-259122631D01*
X166803249Y-259122630D01*
X166624004Y-259102435D01*
X166623996Y-259102435D01*
X166444750Y-259122630D01*
X166444745Y-259122631D01*
X166274474Y-259182212D01*
X166222962Y-259214579D01*
X166155725Y-259233579D01*
X166088890Y-259213211D01*
X166043677Y-259159942D01*
X166034440Y-259090686D01*
X166039951Y-259068627D01*
X166045301Y-259053336D01*
X166045303Y-259053331D01*
X166051327Y-258999865D01*
X166065500Y-258874079D01*
X166065500Y-258874072D01*
X166045304Y-258694826D01*
X166045303Y-258694821D01*
X165985723Y-258524552D01*
X165889750Y-258371813D01*
X165762197Y-258244260D01*
X165609456Y-258148286D01*
X165508780Y-258113058D01*
X165439190Y-258088708D01*
X165439188Y-258088707D01*
X165439183Y-258088706D01*
X165436476Y-258088088D01*
X165434906Y-258087209D01*
X165432618Y-258086409D01*
X165432758Y-258086007D01*
X165375502Y-258053972D01*
X165347042Y-258008156D01*
X165317789Y-257924554D01*
X165305830Y-257905522D01*
X165260326Y-257833103D01*
X165221816Y-257771814D01*
X165094262Y-257644260D01*
X165065937Y-257626462D01*
X164941523Y-257548287D01*
X164771254Y-257488707D01*
X164771249Y-257488706D01*
X164592004Y-257468511D01*
X164591996Y-257468511D01*
X164412750Y-257488706D01*
X164412745Y-257488707D01*
X164242476Y-257548287D01*
X164089737Y-257644260D01*
X163962184Y-257771813D01*
X163866211Y-257924552D01*
X163806631Y-258094821D01*
X163806630Y-258094826D01*
X163786435Y-258274072D01*
X156373684Y-258274072D01*
X156373016Y-258272459D01*
X156373009Y-258272446D01*
X156274464Y-258124965D01*
X156274461Y-258124961D01*
X156149038Y-257999538D01*
X156149034Y-257999535D01*
X156001553Y-257900990D01*
X156001540Y-257900983D01*
X155837667Y-257833106D01*
X155837658Y-257833103D01*
X155663694Y-257798500D01*
X155663691Y-257798500D01*
X155486309Y-257798500D01*
X155486306Y-257798500D01*
X155312341Y-257833103D01*
X155312332Y-257833106D01*
X155148459Y-257900983D01*
X155148446Y-257900990D01*
X155000965Y-257999535D01*
X155000961Y-257999538D01*
X154875538Y-258124961D01*
X154875535Y-258124965D01*
X154776990Y-258272446D01*
X154776983Y-258272459D01*
X154709106Y-258436332D01*
X154709103Y-258436341D01*
X154674500Y-258610304D01*
X152922700Y-258610304D01*
X152922700Y-253610304D01*
X154674500Y-253610304D01*
X154674500Y-253787695D01*
X154709103Y-253961658D01*
X154709106Y-253961667D01*
X154776983Y-254125540D01*
X154776990Y-254125553D01*
X154875535Y-254273034D01*
X154875538Y-254273038D01*
X155000961Y-254398461D01*
X155000965Y-254398464D01*
X155148446Y-254497009D01*
X155148459Y-254497016D01*
X155264571Y-254545110D01*
X155312334Y-254564894D01*
X155312336Y-254564894D01*
X155312341Y-254564896D01*
X155486304Y-254599499D01*
X155486307Y-254599500D01*
X155486309Y-254599500D01*
X155663693Y-254599500D01*
X155663694Y-254599499D01*
X155721682Y-254587964D01*
X155837658Y-254564896D01*
X155837661Y-254564894D01*
X155837666Y-254564894D01*
X156001547Y-254497013D01*
X156149035Y-254398464D01*
X156274464Y-254273035D01*
X156373013Y-254125547D01*
X156440894Y-253961666D01*
X156443085Y-253950655D01*
X156475499Y-253787695D01*
X156475500Y-253787693D01*
X156475500Y-253610306D01*
X156475499Y-253610304D01*
X156440896Y-253436341D01*
X156440893Y-253436332D01*
X156373016Y-253272459D01*
X156373009Y-253272446D01*
X156274464Y-253124965D01*
X156274461Y-253124961D01*
X156149038Y-252999538D01*
X156149034Y-252999535D01*
X156001553Y-252900990D01*
X156001540Y-252900983D01*
X155837667Y-252833106D01*
X155837658Y-252833103D01*
X155663694Y-252798500D01*
X155663691Y-252798500D01*
X155486309Y-252798500D01*
X155486306Y-252798500D01*
X155312341Y-252833103D01*
X155312332Y-252833106D01*
X155148459Y-252900983D01*
X155148446Y-252900990D01*
X155000965Y-252999535D01*
X155000961Y-252999538D01*
X154875538Y-253124961D01*
X154875535Y-253124965D01*
X154776990Y-253272446D01*
X154776983Y-253272459D01*
X154709106Y-253436332D01*
X154709103Y-253436341D01*
X154674500Y-253610304D01*
X152922700Y-253610304D01*
X152922700Y-251561495D01*
X165208936Y-251561495D01*
X165208936Y-251561502D01*
X165229131Y-251740748D01*
X165229132Y-251740753D01*
X165288712Y-251911022D01*
X165292414Y-251916913D01*
X165384685Y-252063761D01*
X165512239Y-252191315D01*
X165578883Y-252233190D01*
X165650171Y-252277984D01*
X165664979Y-252287288D01*
X165720810Y-252306824D01*
X165835246Y-252346867D01*
X165835251Y-252346868D01*
X166014497Y-252367064D01*
X166014501Y-252367064D01*
X166014505Y-252367064D01*
X166193750Y-252346868D01*
X166193753Y-252346867D01*
X166193756Y-252346867D01*
X166364023Y-252287288D01*
X166419881Y-252252189D01*
X166487113Y-252233190D01*
X166553949Y-252253556D01*
X166599164Y-252306824D01*
X166609072Y-252371064D01*
X166605835Y-252399800D01*
X166605835Y-252399803D01*
X166626030Y-252579049D01*
X166626031Y-252579054D01*
X166685611Y-252749323D01*
X166738254Y-252833103D01*
X166781584Y-252902062D01*
X166909138Y-253029616D01*
X166921862Y-253037611D01*
X167060878Y-253124961D01*
X167061878Y-253125589D01*
X167064968Y-253126670D01*
X167066700Y-253127912D01*
X167068153Y-253128612D01*
X167068030Y-253128866D01*
X167121745Y-253167391D01*
X167147494Y-253232343D01*
X167134039Y-253300905D01*
X167089989Y-253348706D01*
X166934539Y-253446382D01*
X166806984Y-253573937D01*
X166711011Y-253726676D01*
X166651431Y-253896945D01*
X166651430Y-253896950D01*
X166631235Y-254076196D01*
X166631235Y-254076203D01*
X166651430Y-254255449D01*
X166651431Y-254255454D01*
X166711011Y-254425723D01*
X166793353Y-254556768D01*
X166806984Y-254578462D01*
X166934538Y-254706016D01*
X167087278Y-254801989D01*
X167218601Y-254847941D01*
X167257545Y-254861568D01*
X167257550Y-254861569D01*
X167436796Y-254881765D01*
X167436800Y-254881765D01*
X167436804Y-254881765D01*
X167616049Y-254861569D01*
X167616052Y-254861568D01*
X167616055Y-254861568D01*
X167786322Y-254801989D01*
X167939062Y-254706016D01*
X168066616Y-254578462D01*
X168162589Y-254425722D01*
X168222168Y-254255455D01*
X168228763Y-254196923D01*
X168242365Y-254076203D01*
X168242365Y-254076196D01*
X168222169Y-253896950D01*
X168222168Y-253896945D01*
X168162588Y-253726676D01*
X168106344Y-253637165D01*
X168066616Y-253573938D01*
X167939062Y-253446384D01*
X167786322Y-253350411D01*
X167786319Y-253350409D01*
X167783224Y-253349326D01*
X167781492Y-253348084D01*
X167780047Y-253347388D01*
X167780168Y-253347134D01*
X167726450Y-253308603D01*
X167700705Y-253243649D01*
X167714163Y-253175088D01*
X167758211Y-253127292D01*
X167760920Y-253125589D01*
X167760922Y-253125589D01*
X167913662Y-253029616D01*
X168041216Y-252902062D01*
X168137189Y-252749322D01*
X168196768Y-252579055D01*
X168208097Y-252478510D01*
X168216965Y-252399803D01*
X168216965Y-252399796D01*
X168196769Y-252220550D01*
X168196768Y-252220545D01*
X168155698Y-252103175D01*
X168137189Y-252050278D01*
X168041216Y-251897538D01*
X167913662Y-251769984D01*
X167867141Y-251740753D01*
X167760923Y-251674011D01*
X167590654Y-251614431D01*
X167590649Y-251614430D01*
X167411404Y-251594235D01*
X167411396Y-251594235D01*
X167232150Y-251614430D01*
X167232145Y-251614431D01*
X167061876Y-251674011D01*
X167006021Y-251709108D01*
X166938784Y-251728108D01*
X166871949Y-251707740D01*
X166826735Y-251654472D01*
X166816829Y-251590230D01*
X166820066Y-251561501D01*
X166820066Y-251561495D01*
X166799870Y-251382249D01*
X166799869Y-251382244D01*
X166788117Y-251348659D01*
X166740290Y-251211977D01*
X166644317Y-251059237D01*
X166516763Y-250931683D01*
X166391397Y-250852910D01*
X166364024Y-250835710D01*
X166193755Y-250776130D01*
X166193750Y-250776129D01*
X166014505Y-250755934D01*
X166014497Y-250755934D01*
X165835251Y-250776129D01*
X165835246Y-250776130D01*
X165664977Y-250835710D01*
X165512238Y-250931683D01*
X165384685Y-251059236D01*
X165288712Y-251211975D01*
X165229132Y-251382244D01*
X165229131Y-251382249D01*
X165208936Y-251561495D01*
X152922700Y-251561495D01*
X152922700Y-248234196D01*
X165196435Y-248234196D01*
X165196435Y-248234203D01*
X165216630Y-248413449D01*
X165216633Y-248413462D01*
X165276210Y-248583721D01*
X165282374Y-248593532D01*
X165301372Y-248660770D01*
X165282374Y-248725468D01*
X165276210Y-248735278D01*
X165216633Y-248905537D01*
X165216630Y-248905550D01*
X165196435Y-249084796D01*
X165196435Y-249084803D01*
X165216630Y-249264049D01*
X165216631Y-249264054D01*
X165276211Y-249434323D01*
X165340022Y-249535877D01*
X165372184Y-249587062D01*
X165499738Y-249714616D01*
X165565868Y-249756168D01*
X165652264Y-249810455D01*
X165652478Y-249810589D01*
X165720526Y-249834400D01*
X165822745Y-249870168D01*
X165822750Y-249870169D01*
X166001996Y-249890365D01*
X166002000Y-249890365D01*
X166002004Y-249890365D01*
X166181249Y-249870169D01*
X166181252Y-249870168D01*
X166181255Y-249870168D01*
X166351522Y-249810589D01*
X166504262Y-249714616D01*
X166631816Y-249587062D01*
X166727789Y-249434322D01*
X166787368Y-249264055D01*
X166789191Y-249247874D01*
X166807565Y-249084803D01*
X166807565Y-249084796D01*
X166787369Y-248905550D01*
X166787368Y-248905545D01*
X166787321Y-248905411D01*
X166727789Y-248735278D01*
X166721628Y-248725473D01*
X166702626Y-248658240D01*
X166721628Y-248593526D01*
X166727789Y-248583722D01*
X166787368Y-248413455D01*
X166793963Y-248354923D01*
X166807565Y-248234203D01*
X166807565Y-248234196D01*
X166787369Y-248054950D01*
X166787368Y-248054945D01*
X166766083Y-247994117D01*
X166727789Y-247884678D01*
X166631816Y-247731938D01*
X166504262Y-247604384D01*
X166351523Y-247508411D01*
X166181254Y-247448831D01*
X166181249Y-247448830D01*
X166002004Y-247428635D01*
X166001996Y-247428635D01*
X165822750Y-247448830D01*
X165822745Y-247448831D01*
X165652476Y-247508411D01*
X165499737Y-247604384D01*
X165372184Y-247731937D01*
X165276211Y-247884676D01*
X165216631Y-248054945D01*
X165216630Y-248054950D01*
X165196435Y-248234196D01*
X152922700Y-248234196D01*
X152922700Y-245516396D01*
X166428035Y-245516396D01*
X166428035Y-245516403D01*
X166448230Y-245695649D01*
X166448231Y-245695654D01*
X166507811Y-245865923D01*
X166603784Y-246018662D01*
X166648840Y-246063718D01*
X166682325Y-246125041D01*
X166677341Y-246194733D01*
X166648842Y-246239078D01*
X166629186Y-246258734D01*
X166533211Y-246411476D01*
X166473631Y-246581745D01*
X166473630Y-246581750D01*
X166453435Y-246760996D01*
X166453435Y-246761003D01*
X166473630Y-246940249D01*
X166473631Y-246940254D01*
X166533211Y-247110523D01*
X166618106Y-247245632D01*
X166629184Y-247263262D01*
X166756738Y-247390816D01*
X166816927Y-247428635D01*
X166895391Y-247477938D01*
X166909478Y-247486789D01*
X167079745Y-247546368D01*
X167079750Y-247546369D01*
X167258996Y-247566565D01*
X167259000Y-247566565D01*
X167259004Y-247566565D01*
X167438249Y-247546369D01*
X167438252Y-247546368D01*
X167438255Y-247546368D01*
X167608522Y-247486789D01*
X167761262Y-247390816D01*
X167888816Y-247263262D01*
X167984789Y-247110522D01*
X168044368Y-246940255D01*
X168064565Y-246761000D01*
X168055164Y-246677565D01*
X168044369Y-246581750D01*
X168044368Y-246581745D01*
X168018314Y-246507287D01*
X167984789Y-246411478D01*
X167888816Y-246258738D01*
X167843759Y-246213681D01*
X167810274Y-246152358D01*
X167815258Y-246082666D01*
X167843761Y-246038317D01*
X167846774Y-246035303D01*
X167863416Y-246018662D01*
X167959389Y-245865922D01*
X168018968Y-245695655D01*
X168027071Y-245623738D01*
X168039165Y-245516403D01*
X168039165Y-245516396D01*
X168018969Y-245337150D01*
X168018968Y-245337145D01*
X167959388Y-245166876D01*
X167863415Y-245014137D01*
X167735862Y-244886584D01*
X167583123Y-244790611D01*
X167412854Y-244731031D01*
X167412849Y-244731030D01*
X167233604Y-244710835D01*
X167233596Y-244710835D01*
X167054350Y-244731030D01*
X167054345Y-244731031D01*
X166884076Y-244790611D01*
X166731337Y-244886584D01*
X166603784Y-245014137D01*
X166507811Y-245166876D01*
X166448231Y-245337145D01*
X166448230Y-245337150D01*
X166428035Y-245516396D01*
X152922700Y-245516396D01*
X152922700Y-237464697D01*
X154921936Y-237464697D01*
X154921936Y-237464704D01*
X154942131Y-237643950D01*
X154942132Y-237643955D01*
X155001712Y-237814224D01*
X155056094Y-237900772D01*
X155097685Y-237966963D01*
X155225239Y-238094517D01*
X155377979Y-238190490D01*
X155415414Y-238203589D01*
X155548246Y-238250069D01*
X155548251Y-238250070D01*
X155727497Y-238270266D01*
X155727501Y-238270266D01*
X155727505Y-238270266D01*
X155906750Y-238250070D01*
X155906753Y-238250069D01*
X155906756Y-238250069D01*
X156077023Y-238190490D01*
X156229763Y-238094517D01*
X156357317Y-237966963D01*
X156453290Y-237814223D01*
X156512869Y-237643956D01*
X156512870Y-237643950D01*
X156531591Y-237477796D01*
X158770435Y-237477796D01*
X158770435Y-237477803D01*
X158790630Y-237657049D01*
X158790631Y-237657054D01*
X158850211Y-237827323D01*
X158906749Y-237917302D01*
X158946184Y-237980062D01*
X159073738Y-238107616D01*
X159130314Y-238143165D01*
X159218687Y-238198694D01*
X159226478Y-238203589D01*
X159359310Y-238250069D01*
X159396745Y-238263168D01*
X159396750Y-238263169D01*
X159575996Y-238283365D01*
X159576000Y-238283365D01*
X159576004Y-238283365D01*
X159755249Y-238263169D01*
X159755252Y-238263168D01*
X159755255Y-238263168D01*
X159925522Y-238203589D01*
X160078262Y-238107616D01*
X160205816Y-237980062D01*
X160301789Y-237827322D01*
X160361368Y-237657055D01*
X160362845Y-237643950D01*
X160381565Y-237477803D01*
X160381565Y-237477796D01*
X160365768Y-237337596D01*
X165208835Y-237337596D01*
X165208835Y-237337603D01*
X165229030Y-237516849D01*
X165229031Y-237516854D01*
X165288611Y-237687123D01*
X165372939Y-237821329D01*
X165384584Y-237839862D01*
X165512138Y-237967416D01*
X165664878Y-238063389D01*
X165699018Y-238075335D01*
X165835145Y-238122968D01*
X165835150Y-238122969D01*
X166014396Y-238143165D01*
X166014400Y-238143165D01*
X166014404Y-238143165D01*
X166193649Y-238122969D01*
X166193652Y-238122968D01*
X166193655Y-238122968D01*
X166363922Y-238063389D01*
X166431858Y-238020701D01*
X166499093Y-238001701D01*
X166565929Y-238022068D01*
X166611143Y-238075335D01*
X166614869Y-238084735D01*
X166622876Y-238107615D01*
X166654744Y-238198691D01*
X166654747Y-238198697D01*
X166744718Y-238341884D01*
X166744723Y-238341890D01*
X166821152Y-238418319D01*
X166854637Y-238479642D01*
X166849653Y-238549334D01*
X166821152Y-238593681D01*
X166744724Y-238670108D01*
X166702616Y-238737121D01*
X166650280Y-238783411D01*
X166581227Y-238794058D01*
X166520307Y-238768091D01*
X166516663Y-238765185D01*
X166516662Y-238765184D01*
X166454895Y-238726373D01*
X166363923Y-238669211D01*
X166193654Y-238609631D01*
X166193649Y-238609630D01*
X166014404Y-238589435D01*
X166014396Y-238589435D01*
X165835150Y-238609630D01*
X165835145Y-238609631D01*
X165664876Y-238669211D01*
X165512137Y-238765184D01*
X165384584Y-238892737D01*
X165288611Y-239045476D01*
X165229031Y-239215745D01*
X165229030Y-239215750D01*
X165208835Y-239394996D01*
X165208835Y-239395003D01*
X165229030Y-239574249D01*
X165229031Y-239574254D01*
X165288611Y-239744523D01*
X165336952Y-239821456D01*
X165384584Y-239897262D01*
X165512138Y-240024816D01*
X165664878Y-240120789D01*
X165835145Y-240180368D01*
X165835150Y-240180369D01*
X166014396Y-240200565D01*
X166014400Y-240200565D01*
X166014404Y-240200565D01*
X166193649Y-240180369D01*
X166193652Y-240180368D01*
X166193655Y-240180368D01*
X166363922Y-240120789D01*
X166516662Y-240024816D01*
X166644216Y-239897262D01*
X166715228Y-239784247D01*
X166767562Y-239737957D01*
X166836615Y-239727309D01*
X166886191Y-239745226D01*
X166943418Y-239781184D01*
X167007506Y-239821454D01*
X167007507Y-239821454D01*
X167007510Y-239821456D01*
X167113930Y-239858694D01*
X167167143Y-239877314D01*
X167335197Y-239896249D01*
X167335200Y-239896249D01*
X167335203Y-239896249D01*
X167503256Y-239877314D01*
X167503259Y-239877313D01*
X167662890Y-239821456D01*
X167662892Y-239821454D01*
X167662894Y-239821454D01*
X167662897Y-239821452D01*
X167806084Y-239731481D01*
X167806085Y-239731480D01*
X167806090Y-239731477D01*
X167925677Y-239611890D01*
X167949325Y-239574255D01*
X168015652Y-239468697D01*
X168015654Y-239468694D01*
X168015654Y-239468692D01*
X168015656Y-239468690D01*
X168071513Y-239309059D01*
X168071513Y-239309058D01*
X168071514Y-239309056D01*
X168090449Y-239141002D01*
X168090449Y-239140997D01*
X168071514Y-238972943D01*
X168039627Y-238881816D01*
X168015656Y-238813310D01*
X168015655Y-238813309D01*
X168015654Y-238813305D01*
X168015652Y-238813302D01*
X167925681Y-238670115D01*
X167925676Y-238670109D01*
X167849248Y-238593681D01*
X167815763Y-238532358D01*
X167820747Y-238462666D01*
X167849248Y-238418319D01*
X167925677Y-238341890D01*
X167983372Y-238250070D01*
X168015652Y-238198697D01*
X168015654Y-238198694D01*
X168015655Y-238198691D01*
X168015656Y-238198690D01*
X168071513Y-238039059D01*
X168071513Y-238039058D01*
X168071514Y-238039056D01*
X168090449Y-237871002D01*
X168090449Y-237870997D01*
X168071514Y-237702943D01*
X168015654Y-237543305D01*
X168015652Y-237543302D01*
X167925681Y-237400115D01*
X167925676Y-237400109D01*
X167806090Y-237280523D01*
X167806084Y-237280518D01*
X167662897Y-237190547D01*
X167662894Y-237190545D01*
X167503256Y-237134685D01*
X167335203Y-237115751D01*
X167335197Y-237115751D01*
X167167143Y-237134685D01*
X167007506Y-237190545D01*
X166978103Y-237209020D01*
X166910865Y-237228019D01*
X166844031Y-237207650D01*
X166798818Y-237154381D01*
X166795091Y-237144979D01*
X166740189Y-236988078D01*
X166644215Y-236835337D01*
X166516662Y-236707784D01*
X166363923Y-236611811D01*
X166193654Y-236552231D01*
X166193649Y-236552230D01*
X166014404Y-236532035D01*
X166014396Y-236532035D01*
X165835150Y-236552230D01*
X165835145Y-236552231D01*
X165664876Y-236611811D01*
X165512137Y-236707784D01*
X165384584Y-236835337D01*
X165288611Y-236988076D01*
X165229031Y-237158345D01*
X165229030Y-237158350D01*
X165208835Y-237337596D01*
X160365768Y-237337596D01*
X160361369Y-237298550D01*
X160361368Y-237298545D01*
X160355060Y-237280518D01*
X160301789Y-237128278D01*
X160293558Y-237115179D01*
X160205815Y-236975537D01*
X160078262Y-236847984D01*
X159925523Y-236752011D01*
X159755254Y-236692431D01*
X159755249Y-236692430D01*
X159576004Y-236672235D01*
X159575996Y-236672235D01*
X159396750Y-236692430D01*
X159396745Y-236692431D01*
X159226476Y-236752011D01*
X159073737Y-236847984D01*
X158946184Y-236975537D01*
X158850211Y-237128276D01*
X158790631Y-237298545D01*
X158790630Y-237298550D01*
X158770435Y-237477796D01*
X156531591Y-237477796D01*
X156533066Y-237464704D01*
X156533066Y-237464697D01*
X156512870Y-237285451D01*
X156512869Y-237285446D01*
X156460115Y-237134685D01*
X156453290Y-237115179D01*
X156357317Y-236962439D01*
X156229763Y-236834885D01*
X156077024Y-236738912D01*
X155906755Y-236679332D01*
X155906750Y-236679331D01*
X155727505Y-236659136D01*
X155727497Y-236659136D01*
X155548251Y-236679331D01*
X155548246Y-236679332D01*
X155377977Y-236738912D01*
X155225238Y-236834885D01*
X155097685Y-236962438D01*
X155001712Y-237115177D01*
X154942132Y-237285446D01*
X154942131Y-237285451D01*
X154921936Y-237464697D01*
X152922700Y-237464697D01*
X152922700Y-233425996D01*
X163608635Y-233425996D01*
X163608635Y-233426003D01*
X163628830Y-233605249D01*
X163628831Y-233605254D01*
X163688411Y-233775523D01*
X163784384Y-233928262D01*
X163911938Y-234055816D01*
X164064678Y-234151789D01*
X164234945Y-234211368D01*
X164234950Y-234211369D01*
X164414196Y-234231565D01*
X164414200Y-234231565D01*
X164414204Y-234231565D01*
X164593449Y-234211369D01*
X164593452Y-234211368D01*
X164593455Y-234211368D01*
X164763722Y-234151789D01*
X164894328Y-234069723D01*
X164961564Y-234050723D01*
X165026271Y-234069723D01*
X165063766Y-234093283D01*
X165156875Y-234151788D01*
X165327145Y-234211368D01*
X165327150Y-234211369D01*
X165506396Y-234231565D01*
X165506400Y-234231565D01*
X165506404Y-234231565D01*
X165685649Y-234211369D01*
X165685652Y-234211368D01*
X165685655Y-234211368D01*
X165855922Y-234151789D01*
X166008662Y-234055816D01*
X166136216Y-233928262D01*
X166232189Y-233775522D01*
X166291768Y-233605255D01*
X166291769Y-233605249D01*
X166311965Y-233426003D01*
X166311965Y-233425996D01*
X166291769Y-233246750D01*
X166291768Y-233246745D01*
X166232189Y-233076478D01*
X166136216Y-232923738D01*
X166008662Y-232796184D01*
X165986528Y-232782276D01*
X165855923Y-232700211D01*
X165685654Y-232640631D01*
X165685649Y-232640630D01*
X165506404Y-232620435D01*
X165506396Y-232620435D01*
X165327150Y-232640630D01*
X165327145Y-232640631D01*
X165156876Y-232700211D01*
X165026272Y-232782276D01*
X164959035Y-232801276D01*
X164894328Y-232782276D01*
X164763723Y-232700211D01*
X164593454Y-232640631D01*
X164593449Y-232640630D01*
X164414204Y-232620435D01*
X164414196Y-232620435D01*
X164234950Y-232640630D01*
X164234945Y-232640631D01*
X164064676Y-232700211D01*
X163911937Y-232796184D01*
X163784384Y-232923737D01*
X163688411Y-233076476D01*
X163628831Y-233246745D01*
X163628830Y-233246750D01*
X163608635Y-233425996D01*
X152922700Y-233425996D01*
X152922700Y-232662433D01*
X152942385Y-232595394D01*
X152995189Y-232549639D01*
X153047006Y-232538434D01*
X162585400Y-232562400D01*
X162585400Y-232562399D01*
X162585400Y-230631996D01*
X166402635Y-230631996D01*
X166402635Y-230632003D01*
X166422830Y-230811249D01*
X166422831Y-230811254D01*
X166482411Y-230981523D01*
X166578384Y-231134262D01*
X166636140Y-231192018D01*
X166669625Y-231253341D01*
X166664641Y-231323033D01*
X166636141Y-231367379D01*
X166603786Y-231399734D01*
X166507811Y-231552476D01*
X166448231Y-231722745D01*
X166448230Y-231722750D01*
X166428035Y-231901996D01*
X166428035Y-231902003D01*
X166448230Y-232081249D01*
X166448231Y-232081254D01*
X166507811Y-232251523D01*
X166580016Y-232366435D01*
X166603784Y-232404262D01*
X166731338Y-232531816D01*
X166884078Y-232627789D01*
X167054345Y-232687368D01*
X167054350Y-232687369D01*
X167233596Y-232707565D01*
X167233600Y-232707565D01*
X167233604Y-232707565D01*
X167412849Y-232687369D01*
X167412852Y-232687368D01*
X167412855Y-232687368D01*
X167583122Y-232627789D01*
X167735862Y-232531816D01*
X167863416Y-232404262D01*
X167959389Y-232251522D01*
X168018968Y-232081255D01*
X168018969Y-232081249D01*
X168039165Y-231902003D01*
X168039165Y-231901996D01*
X168018969Y-231722750D01*
X168018968Y-231722745D01*
X167959388Y-231552476D01*
X167883128Y-231431110D01*
X167863416Y-231399738D01*
X167805658Y-231341980D01*
X167772174Y-231280656D01*
X167777159Y-231210965D01*
X167805658Y-231166619D01*
X167838016Y-231134262D01*
X167933989Y-230981522D01*
X167993568Y-230811255D01*
X167993569Y-230811249D01*
X168013765Y-230632003D01*
X168013765Y-230631996D01*
X167993569Y-230452750D01*
X167993568Y-230452745D01*
X167933988Y-230282476D01*
X167838015Y-230129737D01*
X167710462Y-230002184D01*
X167557723Y-229906211D01*
X167387454Y-229846631D01*
X167387449Y-229846630D01*
X167208204Y-229826435D01*
X167208196Y-229826435D01*
X167028950Y-229846630D01*
X167028945Y-229846631D01*
X166858676Y-229906211D01*
X166705937Y-230002184D01*
X166578384Y-230129737D01*
X166482411Y-230282476D01*
X166422831Y-230452745D01*
X166422830Y-230452750D01*
X166402635Y-230631996D01*
X162585400Y-230631996D01*
X162585400Y-227558596D01*
X166326435Y-227558596D01*
X166326435Y-227558603D01*
X166346630Y-227737849D01*
X166346631Y-227737854D01*
X166406211Y-227908123D01*
X166461729Y-227996478D01*
X166502184Y-228060862D01*
X166629738Y-228188416D01*
X166782478Y-228284389D01*
X166952745Y-228343968D01*
X166952750Y-228343969D01*
X167131996Y-228364165D01*
X167132000Y-228364165D01*
X167132004Y-228364165D01*
X167311249Y-228343969D01*
X167311252Y-228343968D01*
X167311255Y-228343968D01*
X167481522Y-228284389D01*
X167634262Y-228188416D01*
X167761816Y-228060862D01*
X167857789Y-227908122D01*
X167917368Y-227737855D01*
X167917369Y-227737849D01*
X167937565Y-227558603D01*
X167937565Y-227558596D01*
X167917369Y-227379350D01*
X167917368Y-227379345D01*
X167857788Y-227209076D01*
X167761815Y-227056337D01*
X167634262Y-226928784D01*
X167481523Y-226832811D01*
X167311254Y-226773231D01*
X167311249Y-226773230D01*
X167132004Y-226753035D01*
X167131996Y-226753035D01*
X166952750Y-226773230D01*
X166952745Y-226773231D01*
X166782476Y-226832811D01*
X166629737Y-226928784D01*
X166502184Y-227056337D01*
X166406211Y-227209076D01*
X166346631Y-227379345D01*
X166346630Y-227379350D01*
X166326435Y-227558596D01*
X162585400Y-227558596D01*
X162585400Y-225827957D01*
X162605085Y-225760918D01*
X162657889Y-225715163D01*
X162708953Y-225703958D01*
X169572743Y-225679445D01*
X169639852Y-225698890D01*
G37*
G04 #@! TD.AperFunction*
G04 #@! TA.AperFunction,Conductor*
G36*
X199425936Y-216467325D02*
G01*
X199715996Y-216484870D01*
X199730859Y-216486675D01*
X200012998Y-216538379D01*
X200027535Y-216541962D01*
X200301372Y-216627294D01*
X200315363Y-216632599D01*
X200576943Y-216750326D01*
X200590189Y-216757279D01*
X200835660Y-216905671D01*
X200847976Y-216914172D01*
X200847983Y-216914177D01*
X201073773Y-217091072D01*
X201084981Y-217101002D01*
X201287796Y-217303817D01*
X201297726Y-217315025D01*
X201474625Y-217540819D01*
X201483127Y-217553136D01*
X201623834Y-217785894D01*
X201631517Y-217798603D01*
X201638476Y-217811862D01*
X201756198Y-218073430D01*
X201761507Y-218087431D01*
X201846836Y-218361263D01*
X201850420Y-218375801D01*
X201902124Y-218657939D01*
X201903929Y-218672804D01*
X201921474Y-218962845D01*
X201921700Y-218970332D01*
X201921700Y-227986626D01*
X201902015Y-228053665D01*
X201849211Y-228099420D01*
X201780053Y-228109364D01*
X201721538Y-228084479D01*
X201587237Y-227979948D01*
X201587228Y-227979942D01*
X201368614Y-227861635D01*
X201368603Y-227861630D01*
X201133493Y-227780916D01*
X200888293Y-227740000D01*
X200639707Y-227740000D01*
X200394506Y-227780916D01*
X200159396Y-227861630D01*
X200159385Y-227861635D01*
X199940770Y-227979943D01*
X199893943Y-228016389D01*
X200552941Y-228675387D01*
X200532409Y-228680889D01*
X200395592Y-228759881D01*
X200283881Y-228871592D01*
X200204889Y-229008409D01*
X200199387Y-229028941D01*
X199540563Y-228370117D01*
X199440267Y-228523633D01*
X199440265Y-228523637D01*
X199340412Y-228751282D01*
X199279387Y-228992261D01*
X199279385Y-228992270D01*
X199258859Y-229239994D01*
X199258859Y-229240005D01*
X199279385Y-229487729D01*
X199279387Y-229487738D01*
X199340412Y-229728717D01*
X199440267Y-229956367D01*
X199571182Y-230156748D01*
X199591369Y-230223637D01*
X199572189Y-230290823D01*
X199526806Y-230333398D01*
X199521667Y-230336204D01*
X199406455Y-230422452D01*
X199406452Y-230422455D01*
X199320206Y-230537664D01*
X199320202Y-230537671D01*
X199269908Y-230672517D01*
X199263501Y-230732116D01*
X199263500Y-230732135D01*
X199263500Y-232827870D01*
X199263501Y-232827876D01*
X199269908Y-232887483D01*
X199320202Y-233022328D01*
X199320206Y-233022335D01*
X199406452Y-233137544D01*
X199406455Y-233137547D01*
X199521664Y-233223793D01*
X199521671Y-233223797D01*
X199656517Y-233274091D01*
X199656516Y-233274091D01*
X199663444Y-233274835D01*
X199716127Y-233280500D01*
X201797700Y-233280499D01*
X201864739Y-233300184D01*
X201910494Y-233352987D01*
X201921700Y-233404499D01*
X201921700Y-235986991D01*
X201902015Y-236054030D01*
X201849211Y-236099785D01*
X201780053Y-236109729D01*
X201721538Y-236084845D01*
X201714564Y-236079417D01*
X201587509Y-235980526D01*
X201470427Y-235917164D01*
X201368811Y-235862172D01*
X201368802Y-235862169D01*
X201133616Y-235781429D01*
X200888335Y-235740500D01*
X200639665Y-235740500D01*
X200394383Y-235781429D01*
X200159197Y-235862169D01*
X200159188Y-235862172D01*
X199940493Y-235980524D01*
X199744257Y-236133261D01*
X199575833Y-236316217D01*
X199439826Y-236524393D01*
X199339936Y-236752118D01*
X199278892Y-236993175D01*
X199278890Y-236993187D01*
X199258357Y-237240994D01*
X199258357Y-237241005D01*
X199278890Y-237488812D01*
X199278892Y-237488824D01*
X199339936Y-237729881D01*
X199439825Y-237957603D01*
X199439827Y-237957607D01*
X199570742Y-238157988D01*
X199590929Y-238224877D01*
X199571749Y-238292063D01*
X199526367Y-238334637D01*
X199521670Y-238337201D01*
X199406455Y-238423452D01*
X199406452Y-238423455D01*
X199320206Y-238538664D01*
X199320202Y-238538671D01*
X199269908Y-238673517D01*
X199263501Y-238733116D01*
X199263500Y-238733135D01*
X199263500Y-240828870D01*
X199263501Y-240828876D01*
X199269908Y-240888483D01*
X199320202Y-241023328D01*
X199320206Y-241023335D01*
X199406452Y-241138544D01*
X199406455Y-241138547D01*
X199521664Y-241224793D01*
X199521671Y-241224797D01*
X199656517Y-241275091D01*
X199656516Y-241275091D01*
X199663444Y-241275835D01*
X199716127Y-241281500D01*
X201797700Y-241281499D01*
X201864739Y-241301184D01*
X201910494Y-241353987D01*
X201921700Y-241405499D01*
X201921700Y-243606991D01*
X201902015Y-243674030D01*
X201849211Y-243719785D01*
X201780053Y-243729729D01*
X201721538Y-243704845D01*
X201699384Y-243687602D01*
X201587509Y-243600526D01*
X201437862Y-243519541D01*
X201368811Y-243482172D01*
X201368802Y-243482169D01*
X201133616Y-243401429D01*
X200888335Y-243360500D01*
X200639665Y-243360500D01*
X200394383Y-243401429D01*
X200159197Y-243482169D01*
X200159188Y-243482172D01*
X199940493Y-243600524D01*
X199744257Y-243753261D01*
X199575833Y-243936217D01*
X199439826Y-244144393D01*
X199339936Y-244372118D01*
X199278892Y-244613175D01*
X199278890Y-244613187D01*
X199258357Y-244860994D01*
X199258357Y-244861005D01*
X199278890Y-245108812D01*
X199278892Y-245108824D01*
X199339936Y-245349881D01*
X199406974Y-245502710D01*
X199439827Y-245577607D01*
X199570742Y-245777988D01*
X199590929Y-245844877D01*
X199571749Y-245912063D01*
X199526367Y-245954637D01*
X199521670Y-245957201D01*
X199406455Y-246043452D01*
X199406452Y-246043455D01*
X199320206Y-246158664D01*
X199320202Y-246158671D01*
X199269908Y-246293517D01*
X199263501Y-246353116D01*
X199263500Y-246353135D01*
X199263500Y-248448870D01*
X199263501Y-248448876D01*
X199269908Y-248508483D01*
X199320202Y-248643328D01*
X199320206Y-248643335D01*
X199406452Y-248758544D01*
X199406455Y-248758547D01*
X199521664Y-248844793D01*
X199521671Y-248844797D01*
X199656517Y-248895091D01*
X199656516Y-248895091D01*
X199663444Y-248895835D01*
X199716127Y-248901500D01*
X201797700Y-248901499D01*
X201864739Y-248921184D01*
X201910494Y-248973987D01*
X201921700Y-249025499D01*
X201921700Y-250972991D01*
X201902015Y-251040030D01*
X201849211Y-251085785D01*
X201780053Y-251095729D01*
X201721538Y-251070845D01*
X201706624Y-251059237D01*
X201587509Y-250966526D01*
X201446820Y-250890389D01*
X201368811Y-250848172D01*
X201368802Y-250848169D01*
X201133616Y-250767429D01*
X200888335Y-250726500D01*
X200639665Y-250726500D01*
X200394383Y-250767429D01*
X200159197Y-250848169D01*
X200159188Y-250848172D01*
X199940493Y-250966524D01*
X199744257Y-251119261D01*
X199575833Y-251302217D01*
X199439826Y-251510393D01*
X199339936Y-251738118D01*
X199278892Y-251979175D01*
X199278890Y-251979187D01*
X199258357Y-252226994D01*
X199258357Y-252227005D01*
X199278890Y-252474812D01*
X199278892Y-252474824D01*
X199339936Y-252715881D01*
X199439825Y-252943603D01*
X199439827Y-252943607D01*
X199570742Y-253143988D01*
X199590929Y-253210877D01*
X199571749Y-253278063D01*
X199526367Y-253320637D01*
X199521670Y-253323201D01*
X199406455Y-253409452D01*
X199406452Y-253409455D01*
X199320206Y-253524664D01*
X199320202Y-253524671D01*
X199269908Y-253659517D01*
X199263501Y-253719116D01*
X199263500Y-253719135D01*
X199263500Y-255814870D01*
X199263501Y-255814876D01*
X199269908Y-255874483D01*
X199320202Y-256009328D01*
X199320206Y-256009335D01*
X199406452Y-256124544D01*
X199406455Y-256124547D01*
X199521664Y-256210793D01*
X199521671Y-256210797D01*
X199656517Y-256261091D01*
X199656516Y-256261091D01*
X199663444Y-256261835D01*
X199716127Y-256267500D01*
X201797700Y-256267499D01*
X201864739Y-256287184D01*
X201910494Y-256339987D01*
X201921700Y-256391499D01*
X201921700Y-258339626D01*
X201902015Y-258406665D01*
X201849211Y-258452420D01*
X201780053Y-258462364D01*
X201721538Y-258437479D01*
X201587237Y-258332948D01*
X201587228Y-258332942D01*
X201368614Y-258214635D01*
X201368603Y-258214630D01*
X201133493Y-258133916D01*
X200888293Y-258093000D01*
X200639707Y-258093000D01*
X200394506Y-258133916D01*
X200159396Y-258214630D01*
X200159385Y-258214635D01*
X199940770Y-258332943D01*
X199893943Y-258369389D01*
X200552941Y-259028387D01*
X200532409Y-259033889D01*
X200395592Y-259112881D01*
X200283881Y-259224592D01*
X200204889Y-259361409D01*
X200199387Y-259381941D01*
X199540563Y-258723117D01*
X199440267Y-258876633D01*
X199440265Y-258876637D01*
X199340412Y-259104282D01*
X199279387Y-259345261D01*
X199279385Y-259345270D01*
X199258859Y-259592994D01*
X199258859Y-259593005D01*
X199279385Y-259840729D01*
X199279387Y-259840738D01*
X199340412Y-260081717D01*
X199440267Y-260309367D01*
X199571182Y-260509748D01*
X199591369Y-260576637D01*
X199572189Y-260643823D01*
X199526806Y-260686398D01*
X199521667Y-260689204D01*
X199406455Y-260775452D01*
X199406452Y-260775455D01*
X199320206Y-260890664D01*
X199320202Y-260890671D01*
X199269908Y-261025517D01*
X199263501Y-261085116D01*
X199263500Y-261085135D01*
X199263500Y-263180870D01*
X199263501Y-263180876D01*
X199269908Y-263240483D01*
X199320202Y-263375328D01*
X199320206Y-263375335D01*
X199406452Y-263490544D01*
X199406455Y-263490547D01*
X199521664Y-263576793D01*
X199521671Y-263576797D01*
X199656517Y-263627091D01*
X199656516Y-263627091D01*
X199663444Y-263627835D01*
X199716127Y-263633500D01*
X201797700Y-263633499D01*
X201864739Y-263653184D01*
X201910494Y-263705987D01*
X201921700Y-263757499D01*
X201921700Y-265700626D01*
X201902015Y-265767665D01*
X201849211Y-265813420D01*
X201780053Y-265823364D01*
X201721538Y-265798479D01*
X201587237Y-265693948D01*
X201587228Y-265693942D01*
X201368614Y-265575635D01*
X201368603Y-265575630D01*
X201133493Y-265494916D01*
X200888293Y-265454000D01*
X200639707Y-265454000D01*
X200394506Y-265494916D01*
X200159396Y-265575630D01*
X200159385Y-265575635D01*
X199940770Y-265693943D01*
X199893943Y-265730389D01*
X200552941Y-266389387D01*
X200532409Y-266394889D01*
X200395592Y-266473881D01*
X200283881Y-266585592D01*
X200204889Y-266722409D01*
X200199387Y-266742940D01*
X199540563Y-266084117D01*
X199440267Y-266237633D01*
X199440265Y-266237637D01*
X199340412Y-266465282D01*
X199279387Y-266706261D01*
X199279385Y-266706270D01*
X199258859Y-266953994D01*
X199258859Y-266954005D01*
X199279385Y-267201729D01*
X199279387Y-267201738D01*
X199340412Y-267442717D01*
X199440267Y-267670367D01*
X199540562Y-267823881D01*
X200199387Y-267165058D01*
X200204889Y-267185591D01*
X200283881Y-267322408D01*
X200395592Y-267434119D01*
X200532409Y-267513111D01*
X200552939Y-267518612D01*
X199893943Y-268177609D01*
X199895344Y-268200176D01*
X199879851Y-268268306D01*
X199847745Y-268305712D01*
X199744258Y-268386260D01*
X199575833Y-268569217D01*
X199439826Y-268777393D01*
X199339936Y-269005118D01*
X199278892Y-269246175D01*
X199278890Y-269246187D01*
X199258357Y-269493994D01*
X199258357Y-269494005D01*
X199278890Y-269741812D01*
X199278892Y-269741824D01*
X199339936Y-269982881D01*
X199439825Y-270210603D01*
X199439827Y-270210607D01*
X199570742Y-270410988D01*
X199590929Y-270477877D01*
X199571749Y-270545063D01*
X199526367Y-270587637D01*
X199521670Y-270590201D01*
X199406455Y-270676452D01*
X199406452Y-270676455D01*
X199320206Y-270791664D01*
X199320202Y-270791671D01*
X199269908Y-270926517D01*
X199263501Y-270986116D01*
X199263500Y-270986135D01*
X199263500Y-273081870D01*
X199263501Y-273081876D01*
X199269908Y-273141483D01*
X199320202Y-273276328D01*
X199320206Y-273276335D01*
X199406452Y-273391544D01*
X199406455Y-273391547D01*
X199521664Y-273477793D01*
X199521671Y-273477797D01*
X199656517Y-273528091D01*
X199656516Y-273528091D01*
X199663444Y-273528835D01*
X199716127Y-273534500D01*
X201797700Y-273534499D01*
X201864739Y-273554184D01*
X201910494Y-273606987D01*
X201921700Y-273658499D01*
X201921700Y-284305200D01*
X201902015Y-284372239D01*
X201849211Y-284417994D01*
X201797700Y-284429200D01*
X197405800Y-284429200D01*
X197338761Y-284409515D01*
X197293006Y-284356711D01*
X197281800Y-284305200D01*
X197281800Y-275589996D01*
X199625835Y-275589996D01*
X199625835Y-275590003D01*
X199646030Y-275769249D01*
X199646031Y-275769254D01*
X199705611Y-275939523D01*
X199738761Y-275992280D01*
X199801584Y-276092262D01*
X199929138Y-276219816D01*
X200081878Y-276315789D01*
X200252145Y-276375368D01*
X200252150Y-276375369D01*
X200431396Y-276395565D01*
X200431400Y-276395565D01*
X200431404Y-276395565D01*
X200610649Y-276375369D01*
X200610652Y-276375368D01*
X200610655Y-276375368D01*
X200780922Y-276315789D01*
X200933662Y-276219816D01*
X201061216Y-276092262D01*
X201157189Y-275939522D01*
X201216768Y-275769255D01*
X201222492Y-275718455D01*
X201236965Y-275590003D01*
X201236965Y-275589996D01*
X201216769Y-275410750D01*
X201216768Y-275410745D01*
X201179194Y-275303365D01*
X201157189Y-275240478D01*
X201134369Y-275204161D01*
X201061215Y-275087737D01*
X200933662Y-274960184D01*
X200780923Y-274864211D01*
X200610654Y-274804631D01*
X200610649Y-274804630D01*
X200431404Y-274784435D01*
X200431396Y-274784435D01*
X200252150Y-274804630D01*
X200252145Y-274804631D01*
X200081876Y-274864211D01*
X199929137Y-274960184D01*
X199801584Y-275087737D01*
X199705611Y-275240476D01*
X199646031Y-275410745D01*
X199646030Y-275410750D01*
X199625835Y-275589996D01*
X197281800Y-275589996D01*
X197281800Y-272961149D01*
X197301485Y-272894110D01*
X197354289Y-272848355D01*
X197419684Y-272837929D01*
X197434200Y-272839565D01*
X197554551Y-272826004D01*
X197613449Y-272819369D01*
X197613452Y-272819368D01*
X197613455Y-272819368D01*
X197783722Y-272759789D01*
X197936462Y-272663816D01*
X198064016Y-272536262D01*
X198159989Y-272383522D01*
X198219568Y-272213255D01*
X198225227Y-272163032D01*
X198239765Y-272034003D01*
X198239765Y-272033996D01*
X198219569Y-271854750D01*
X198219568Y-271854745D01*
X198200487Y-271800216D01*
X198159989Y-271684478D01*
X198064016Y-271531738D01*
X197936462Y-271404184D01*
X197783723Y-271308211D01*
X197613454Y-271248631D01*
X197613449Y-271248630D01*
X197434204Y-271228435D01*
X197434195Y-271228435D01*
X197419682Y-271230070D01*
X197350860Y-271218015D01*
X197299482Y-271170665D01*
X197281800Y-271106850D01*
X197281800Y-267716000D01*
X171396250Y-267741278D01*
X171329191Y-267721659D01*
X171283385Y-267668900D01*
X171272129Y-267617350D01*
X171269965Y-263804396D01*
X178112035Y-263804396D01*
X178112035Y-263804403D01*
X178132230Y-263983649D01*
X178132231Y-263983654D01*
X178191811Y-264153923D01*
X178255651Y-264255523D01*
X178287784Y-264306662D01*
X178415338Y-264434216D01*
X178568078Y-264530189D01*
X178690488Y-264573022D01*
X178738345Y-264589768D01*
X178738350Y-264589769D01*
X178917596Y-264609965D01*
X178917600Y-264609965D01*
X178917604Y-264609965D01*
X179096849Y-264589769D01*
X179096852Y-264589768D01*
X179096855Y-264589768D01*
X179267122Y-264530189D01*
X179419862Y-264434216D01*
X179547416Y-264306662D01*
X179643389Y-264153922D01*
X179702968Y-263983655D01*
X179707536Y-263943115D01*
X179711718Y-263905996D01*
X183674635Y-263905996D01*
X183674635Y-263906003D01*
X183694830Y-264085249D01*
X183694831Y-264085254D01*
X183754411Y-264255523D01*
X183828863Y-264374011D01*
X183850384Y-264408262D01*
X183977938Y-264535816D01*
X184130678Y-264631789D01*
X184300945Y-264691368D01*
X184300950Y-264691369D01*
X184480196Y-264711565D01*
X184480200Y-264711565D01*
X184480204Y-264711565D01*
X184659449Y-264691369D01*
X184659452Y-264691368D01*
X184659455Y-264691368D01*
X184829722Y-264631789D01*
X184982462Y-264535816D01*
X185104281Y-264413997D01*
X186468151Y-264413997D01*
X186468151Y-264414002D01*
X186487085Y-264582056D01*
X186542945Y-264741694D01*
X186542947Y-264741697D01*
X186632918Y-264884884D01*
X186632923Y-264884890D01*
X186752509Y-265004476D01*
X186752515Y-265004481D01*
X186895702Y-265094452D01*
X186895705Y-265094454D01*
X186895709Y-265094455D01*
X186895710Y-265094456D01*
X186910991Y-265099803D01*
X187055343Y-265150314D01*
X187223397Y-265169249D01*
X187223400Y-265169249D01*
X187223403Y-265169249D01*
X187391456Y-265150314D01*
X187391459Y-265150313D01*
X187535829Y-265099796D01*
X191421635Y-265099796D01*
X191421635Y-265099803D01*
X191441830Y-265279049D01*
X191441831Y-265279054D01*
X191501411Y-265449323D01*
X191580776Y-265575630D01*
X191597384Y-265602062D01*
X191724938Y-265729616D01*
X191877678Y-265825589D01*
X192047945Y-265885168D01*
X192047950Y-265885169D01*
X192227196Y-265905365D01*
X192227200Y-265905365D01*
X192227204Y-265905365D01*
X192406449Y-265885169D01*
X192406452Y-265885168D01*
X192406455Y-265885168D01*
X192576722Y-265825589D01*
X192729462Y-265729616D01*
X192857016Y-265602062D01*
X192952989Y-265449322D01*
X193012568Y-265279055D01*
X193024940Y-265169249D01*
X193032765Y-265099803D01*
X193032765Y-265099796D01*
X193012569Y-264920550D01*
X193012568Y-264920545D01*
X193000090Y-264884884D01*
X192952989Y-264750278D01*
X192947595Y-264741694D01*
X192878537Y-264631789D01*
X192857016Y-264597538D01*
X192729462Y-264469984D01*
X192672536Y-264434215D01*
X192576723Y-264374011D01*
X192406454Y-264314431D01*
X192406449Y-264314430D01*
X192227204Y-264294235D01*
X192227196Y-264294235D01*
X192047950Y-264314430D01*
X192047945Y-264314431D01*
X191877676Y-264374011D01*
X191724937Y-264469984D01*
X191597384Y-264597537D01*
X191501411Y-264750276D01*
X191441831Y-264920545D01*
X191441830Y-264920550D01*
X191421635Y-265099796D01*
X187535829Y-265099796D01*
X187551090Y-265094456D01*
X187551092Y-265094454D01*
X187551094Y-265094454D01*
X187551097Y-265094452D01*
X187694284Y-265004481D01*
X187694285Y-265004480D01*
X187694290Y-265004477D01*
X187813877Y-264884890D01*
X187813881Y-264884884D01*
X187903852Y-264741697D01*
X187903854Y-264741694D01*
X187903854Y-264741692D01*
X187903856Y-264741690D01*
X187959713Y-264582059D01*
X187959713Y-264582058D01*
X187959714Y-264582056D01*
X187978649Y-264414002D01*
X187978649Y-264413997D01*
X187959714Y-264245943D01*
X187903854Y-264086305D01*
X187903852Y-264086302D01*
X187813881Y-263943115D01*
X187813876Y-263943109D01*
X187694290Y-263823523D01*
X187694284Y-263823518D01*
X187551097Y-263733547D01*
X187551094Y-263733545D01*
X187391456Y-263677685D01*
X187223403Y-263658751D01*
X187223397Y-263658751D01*
X187055343Y-263677685D01*
X186895705Y-263733545D01*
X186895702Y-263733547D01*
X186752515Y-263823518D01*
X186752509Y-263823523D01*
X186632923Y-263943109D01*
X186632918Y-263943115D01*
X186542947Y-264086302D01*
X186542945Y-264086305D01*
X186487085Y-264245943D01*
X186468151Y-264413997D01*
X185104281Y-264413997D01*
X185110016Y-264408262D01*
X185205989Y-264255522D01*
X185265568Y-264085255D01*
X185270189Y-264044245D01*
X185285765Y-263906003D01*
X185285765Y-263905996D01*
X185265569Y-263726750D01*
X185265568Y-263726745D01*
X185232939Y-263633498D01*
X185205989Y-263556478D01*
X185110016Y-263403738D01*
X184982462Y-263276184D01*
X184829723Y-263180211D01*
X184659454Y-263120631D01*
X184659449Y-263120630D01*
X184480204Y-263100435D01*
X184480196Y-263100435D01*
X184300950Y-263120630D01*
X184300945Y-263120631D01*
X184130676Y-263180211D01*
X183977937Y-263276184D01*
X183850384Y-263403737D01*
X183754411Y-263556476D01*
X183694831Y-263726745D01*
X183694830Y-263726750D01*
X183674635Y-263905996D01*
X179711718Y-263905996D01*
X179723165Y-263804403D01*
X179723165Y-263804396D01*
X179702969Y-263625150D01*
X179702968Y-263625145D01*
X179643388Y-263454876D01*
X179547415Y-263302137D01*
X179419862Y-263174584D01*
X179267123Y-263078611D01*
X179096854Y-263019031D01*
X179096849Y-263019030D01*
X178917604Y-262998835D01*
X178917596Y-262998835D01*
X178738350Y-263019030D01*
X178738345Y-263019031D01*
X178568076Y-263078611D01*
X178415337Y-263174584D01*
X178287784Y-263302137D01*
X178191811Y-263454876D01*
X178132231Y-263625145D01*
X178132230Y-263625150D01*
X178112035Y-263804396D01*
X171269965Y-263804396D01*
X171268264Y-260807196D01*
X190278635Y-260807196D01*
X190278635Y-260807203D01*
X190298830Y-260986449D01*
X190298831Y-260986454D01*
X190358411Y-261156723D01*
X190411024Y-261240455D01*
X190454384Y-261309462D01*
X190581938Y-261437016D01*
X190734678Y-261532989D01*
X190821765Y-261563462D01*
X190904945Y-261592568D01*
X190904950Y-261592569D01*
X191084196Y-261612765D01*
X191084200Y-261612765D01*
X191084204Y-261612765D01*
X191263449Y-261592569D01*
X191263452Y-261592568D01*
X191263455Y-261592568D01*
X191433722Y-261532989D01*
X191586462Y-261437016D01*
X191714016Y-261309462D01*
X191809989Y-261156722D01*
X191869568Y-260986455D01*
X191880360Y-260890671D01*
X191889765Y-260807203D01*
X191889765Y-260807196D01*
X191869569Y-260627950D01*
X191869568Y-260627945D01*
X191809989Y-260457678D01*
X191793467Y-260431384D01*
X191714015Y-260304937D01*
X191586462Y-260177384D01*
X191433723Y-260081411D01*
X191263454Y-260021831D01*
X191263449Y-260021830D01*
X191084204Y-260001635D01*
X191084196Y-260001635D01*
X190904950Y-260021830D01*
X190904945Y-260021831D01*
X190734676Y-260081411D01*
X190581937Y-260177384D01*
X190454384Y-260304937D01*
X190358411Y-260457676D01*
X190298831Y-260627945D01*
X190298830Y-260627950D01*
X190278635Y-260807196D01*
X171268264Y-260807196D01*
X171266852Y-258317997D01*
X183826551Y-258317997D01*
X183826551Y-258318002D01*
X183845485Y-258486056D01*
X183901345Y-258645694D01*
X183901347Y-258645697D01*
X183991318Y-258788884D01*
X183991323Y-258788890D01*
X184110909Y-258908476D01*
X184110915Y-258908481D01*
X184254102Y-258998452D01*
X184254105Y-258998454D01*
X184254109Y-258998455D01*
X184254110Y-258998456D01*
X184258137Y-258999865D01*
X184413743Y-259054314D01*
X184581797Y-259073249D01*
X184581800Y-259073249D01*
X184581803Y-259073249D01*
X184749856Y-259054314D01*
X184752665Y-259053331D01*
X184909490Y-258998456D01*
X184909492Y-258998454D01*
X184909494Y-258998454D01*
X184909497Y-258998452D01*
X185052684Y-258908481D01*
X185052685Y-258908480D01*
X185052690Y-258908477D01*
X185172277Y-258788890D01*
X185172281Y-258788884D01*
X185262252Y-258645697D01*
X185262254Y-258645694D01*
X185262254Y-258645692D01*
X185262256Y-258645690D01*
X185318113Y-258486059D01*
X185318113Y-258486058D01*
X185318114Y-258486056D01*
X185337049Y-258318002D01*
X185337049Y-258317997D01*
X185318114Y-258149943D01*
X185262254Y-257990305D01*
X185262252Y-257990302D01*
X185172281Y-257847115D01*
X185172276Y-257847109D01*
X185052690Y-257727523D01*
X185052684Y-257727518D01*
X184909497Y-257637547D01*
X184909494Y-257637545D01*
X184749856Y-257581685D01*
X184581803Y-257562751D01*
X184581797Y-257562751D01*
X184413743Y-257581685D01*
X184254105Y-257637545D01*
X184254102Y-257637547D01*
X184110915Y-257727518D01*
X184110909Y-257727523D01*
X183991323Y-257847109D01*
X183991318Y-257847115D01*
X183901347Y-257990302D01*
X183901345Y-257990305D01*
X183845485Y-258149943D01*
X183826551Y-258317997D01*
X171266852Y-258317997D01*
X171266203Y-257174996D01*
X175038635Y-257174996D01*
X175038635Y-257175003D01*
X175058830Y-257354249D01*
X175058831Y-257354254D01*
X175118411Y-257524523D01*
X175189428Y-257637545D01*
X175214384Y-257677262D01*
X175341938Y-257804816D01*
X175494678Y-257900789D01*
X175664945Y-257960368D01*
X175664950Y-257960369D01*
X175844196Y-257980565D01*
X175844200Y-257980565D01*
X175844204Y-257980565D01*
X176023449Y-257960369D01*
X176023452Y-257960368D01*
X176023455Y-257960368D01*
X176193722Y-257900789D01*
X176346462Y-257804816D01*
X176474016Y-257677262D01*
X176569989Y-257524522D01*
X176629568Y-257354255D01*
X176629569Y-257354249D01*
X176649765Y-257175003D01*
X176649765Y-257174996D01*
X179966235Y-257174996D01*
X179966235Y-257175003D01*
X179986430Y-257354249D01*
X179986431Y-257354254D01*
X180046011Y-257524523D01*
X180117028Y-257637545D01*
X180141984Y-257677262D01*
X180269538Y-257804816D01*
X180422278Y-257900789D01*
X180592545Y-257960368D01*
X180592550Y-257960369D01*
X180771796Y-257980565D01*
X180771800Y-257980565D01*
X180771804Y-257980565D01*
X180951049Y-257960369D01*
X180951052Y-257960368D01*
X180951055Y-257960368D01*
X181121322Y-257900789D01*
X181274062Y-257804816D01*
X181401616Y-257677262D01*
X181477813Y-257555996D01*
X190278635Y-257555996D01*
X190278635Y-257556003D01*
X190298830Y-257735249D01*
X190298831Y-257735254D01*
X190358411Y-257905523D01*
X190411687Y-257990310D01*
X190454384Y-258058262D01*
X190581938Y-258185816D01*
X190734678Y-258281789D01*
X190838155Y-258317997D01*
X190904945Y-258341368D01*
X190904950Y-258341369D01*
X191084196Y-258361565D01*
X191084200Y-258361565D01*
X191084204Y-258361565D01*
X191263449Y-258341369D01*
X191263452Y-258341368D01*
X191263455Y-258341368D01*
X191433722Y-258281789D01*
X191586462Y-258185816D01*
X191714016Y-258058262D01*
X191809989Y-257905522D01*
X191869568Y-257735255D01*
X191869569Y-257735249D01*
X191889765Y-257556003D01*
X191889765Y-257555996D01*
X191869569Y-257376750D01*
X191869568Y-257376745D01*
X191809988Y-257206476D01*
X191737784Y-257091565D01*
X191714016Y-257053738D01*
X191586462Y-256926184D01*
X191433723Y-256830211D01*
X191263454Y-256770631D01*
X191263449Y-256770630D01*
X191084204Y-256750435D01*
X191084196Y-256750435D01*
X190904950Y-256770630D01*
X190904945Y-256770631D01*
X190734676Y-256830211D01*
X190581937Y-256926184D01*
X190454384Y-257053737D01*
X190358411Y-257206476D01*
X190298831Y-257376745D01*
X190298830Y-257376750D01*
X190278635Y-257555996D01*
X181477813Y-257555996D01*
X181497589Y-257524522D01*
X181557168Y-257354255D01*
X181557169Y-257354249D01*
X181577365Y-257175003D01*
X181577365Y-257174996D01*
X181557169Y-256995750D01*
X181557168Y-256995745D01*
X181497589Y-256825478D01*
X181401616Y-256672738D01*
X181274062Y-256545184D01*
X181121323Y-256449211D01*
X180951054Y-256389631D01*
X180951049Y-256389630D01*
X180771804Y-256369435D01*
X180771796Y-256369435D01*
X180592550Y-256389630D01*
X180592545Y-256389631D01*
X180422276Y-256449211D01*
X180269537Y-256545184D01*
X180141984Y-256672737D01*
X180046011Y-256825476D01*
X179986431Y-256995745D01*
X179986430Y-256995750D01*
X179966235Y-257174996D01*
X176649765Y-257174996D01*
X176629569Y-256995750D01*
X176629568Y-256995745D01*
X176569989Y-256825478D01*
X176474016Y-256672738D01*
X176346462Y-256545184D01*
X176193723Y-256449211D01*
X176023454Y-256389631D01*
X176023449Y-256389630D01*
X175844204Y-256369435D01*
X175844196Y-256369435D01*
X175664950Y-256389630D01*
X175664945Y-256389631D01*
X175494676Y-256449211D01*
X175341937Y-256545184D01*
X175214384Y-256672737D01*
X175118411Y-256825476D01*
X175058831Y-256995745D01*
X175058830Y-256995750D01*
X175038635Y-257174996D01*
X171266203Y-257174996D01*
X171264978Y-255015997D01*
X179305351Y-255015997D01*
X179305351Y-255016002D01*
X179324285Y-255184056D01*
X179380145Y-255343694D01*
X179380147Y-255343697D01*
X179470118Y-255486884D01*
X179470123Y-255486890D01*
X179589709Y-255606476D01*
X179589715Y-255606481D01*
X179732902Y-255696452D01*
X179732905Y-255696454D01*
X179732909Y-255696455D01*
X179732910Y-255696456D01*
X179805513Y-255721860D01*
X179892543Y-255752314D01*
X180060597Y-255771249D01*
X180060600Y-255771249D01*
X180060603Y-255771249D01*
X180228656Y-255752314D01*
X180228659Y-255752313D01*
X180388290Y-255696456D01*
X180388292Y-255696454D01*
X180388294Y-255696454D01*
X180388297Y-255696452D01*
X180531484Y-255606481D01*
X180531485Y-255606480D01*
X180531490Y-255606477D01*
X180651077Y-255486890D01*
X180663038Y-255467854D01*
X180741052Y-255343697D01*
X180741054Y-255343694D01*
X180741054Y-255343692D01*
X180741056Y-255343690D01*
X180796913Y-255184059D01*
X180796913Y-255184058D01*
X180796914Y-255184056D01*
X180815849Y-255016002D01*
X180815849Y-255015997D01*
X180796914Y-254847943D01*
X180751262Y-254717477D01*
X180741056Y-254688310D01*
X180741055Y-254688309D01*
X180741054Y-254688305D01*
X180741052Y-254688302D01*
X180651081Y-254545115D01*
X180651076Y-254545109D01*
X180531490Y-254425523D01*
X180531484Y-254425518D01*
X180388297Y-254335547D01*
X180388294Y-254335545D01*
X180228656Y-254279685D01*
X180060603Y-254260751D01*
X180060597Y-254260751D01*
X179892543Y-254279685D01*
X179732905Y-254335545D01*
X179732902Y-254335547D01*
X179589715Y-254425518D01*
X179589709Y-254425523D01*
X179470123Y-254545109D01*
X179470118Y-254545115D01*
X179380147Y-254688302D01*
X179380145Y-254688305D01*
X179324285Y-254847943D01*
X179305351Y-255015997D01*
X171264978Y-255015997D01*
X171263018Y-251561597D01*
X178949751Y-251561597D01*
X178949751Y-251561602D01*
X178968685Y-251729656D01*
X179024545Y-251889294D01*
X179024547Y-251889297D01*
X179114518Y-252032484D01*
X179114523Y-252032490D01*
X179234109Y-252152076D01*
X179234115Y-252152081D01*
X179377302Y-252242052D01*
X179377305Y-252242054D01*
X179377309Y-252242055D01*
X179377310Y-252242056D01*
X179449913Y-252267460D01*
X179536943Y-252297914D01*
X179704997Y-252316849D01*
X179705000Y-252316849D01*
X179705003Y-252316849D01*
X179873056Y-252297914D01*
X179873059Y-252297913D01*
X180032690Y-252242056D01*
X180032692Y-252242054D01*
X180032694Y-252242054D01*
X180032697Y-252242052D01*
X180175884Y-252152081D01*
X180175885Y-252152080D01*
X180175890Y-252152077D01*
X180295477Y-252032490D01*
X180328975Y-251979179D01*
X180385452Y-251889297D01*
X180385454Y-251889294D01*
X180385454Y-251889292D01*
X180385456Y-251889290D01*
X180441313Y-251729659D01*
X180441313Y-251729658D01*
X180441314Y-251729656D01*
X180460249Y-251561602D01*
X180460249Y-251561597D01*
X180441314Y-251393543D01*
X180385454Y-251233905D01*
X180385452Y-251233902D01*
X180351958Y-251180597D01*
X183750351Y-251180597D01*
X183750351Y-251180602D01*
X183769285Y-251348656D01*
X183825145Y-251508294D01*
X183825147Y-251508297D01*
X183915118Y-251651484D01*
X183915123Y-251651490D01*
X184034709Y-251771076D01*
X184034715Y-251771081D01*
X184177902Y-251861052D01*
X184177905Y-251861054D01*
X184177909Y-251861055D01*
X184177910Y-251861056D01*
X184320703Y-251911021D01*
X184337544Y-251916914D01*
X184411847Y-251925286D01*
X184476261Y-251952352D01*
X184515817Y-252009947D01*
X184517954Y-252079784D01*
X184481996Y-252139691D01*
X184463937Y-252153499D01*
X184364911Y-252215721D01*
X184245323Y-252335309D01*
X184245318Y-252335315D01*
X184155347Y-252478502D01*
X184155345Y-252478505D01*
X184099485Y-252638143D01*
X184080551Y-252806197D01*
X184080551Y-252806202D01*
X184099485Y-252974256D01*
X184155345Y-253133894D01*
X184155347Y-253133897D01*
X184245318Y-253277084D01*
X184245323Y-253277090D01*
X184347152Y-253378919D01*
X184380637Y-253440242D01*
X184375653Y-253509934D01*
X184347152Y-253554281D01*
X184245323Y-253656109D01*
X184245318Y-253656115D01*
X184155347Y-253799302D01*
X184155345Y-253799305D01*
X184099485Y-253958943D01*
X184080551Y-254126997D01*
X184080551Y-254127002D01*
X184099485Y-254295056D01*
X184155345Y-254454694D01*
X184155347Y-254454697D01*
X184245318Y-254597884D01*
X184245323Y-254597890D01*
X184364909Y-254717476D01*
X184364915Y-254717481D01*
X184508102Y-254807452D01*
X184508105Y-254807454D01*
X184508109Y-254807455D01*
X184508110Y-254807456D01*
X184623810Y-254847941D01*
X184667744Y-254863314D01*
X184784889Y-254876513D01*
X184849303Y-254903579D01*
X184888047Y-254958778D01*
X184942742Y-255115086D01*
X184942747Y-255115097D01*
X185032718Y-255258284D01*
X185032723Y-255258290D01*
X185152309Y-255377876D01*
X185152315Y-255377881D01*
X185295502Y-255467852D01*
X185295505Y-255467854D01*
X185295509Y-255467855D01*
X185295510Y-255467856D01*
X185368113Y-255493260D01*
X185455143Y-255523714D01*
X185623197Y-255542649D01*
X185623200Y-255542649D01*
X185623203Y-255542649D01*
X185791256Y-255523714D01*
X185791259Y-255523713D01*
X185950890Y-255467856D01*
X185950892Y-255467854D01*
X185950894Y-255467854D01*
X185950897Y-255467852D01*
X186094084Y-255377881D01*
X186094085Y-255377880D01*
X186094090Y-255377877D01*
X186213677Y-255258290D01*
X186303652Y-255115097D01*
X186303654Y-255115094D01*
X186303654Y-255115092D01*
X186303656Y-255115090D01*
X186359513Y-254955459D01*
X186359513Y-254955458D01*
X186359514Y-254955456D01*
X186378449Y-254787402D01*
X186378449Y-254787397D01*
X186359514Y-254619343D01*
X186303654Y-254459705D01*
X186303652Y-254459702D01*
X186213681Y-254316515D01*
X186213676Y-254316509D01*
X186094090Y-254196923D01*
X186094084Y-254196918D01*
X185950897Y-254106947D01*
X185950894Y-254106945D01*
X185791255Y-254051085D01*
X185674109Y-254037886D01*
X185609695Y-254010819D01*
X185570951Y-253955620D01*
X185516255Y-253799308D01*
X185516252Y-253799302D01*
X185498717Y-253771396D01*
X188373635Y-253771396D01*
X188373635Y-253771403D01*
X188393830Y-253950649D01*
X188393831Y-253950654D01*
X188453411Y-254120923D01*
X188537944Y-254255455D01*
X188549384Y-254273662D01*
X188676938Y-254401216D01*
X188715939Y-254425722D01*
X188829397Y-254497013D01*
X188829678Y-254497189D01*
X188966643Y-254545115D01*
X188999945Y-254556768D01*
X188999950Y-254556769D01*
X189179196Y-254576965D01*
X189179200Y-254576965D01*
X189179204Y-254576965D01*
X189358449Y-254556769D01*
X189358452Y-254556768D01*
X189358455Y-254556768D01*
X189528722Y-254497189D01*
X189681462Y-254401216D01*
X189809016Y-254273662D01*
X189904989Y-254120922D01*
X189964568Y-253950655D01*
X189970620Y-253896945D01*
X189984765Y-253771403D01*
X189984765Y-253771396D01*
X189964569Y-253592150D01*
X189964568Y-253592145D01*
X189938415Y-253517403D01*
X189938413Y-253517396D01*
X190278635Y-253517396D01*
X190278635Y-253517403D01*
X190298830Y-253696649D01*
X190298831Y-253696654D01*
X190358411Y-253866923D01*
X190448828Y-254010819D01*
X190454384Y-254019662D01*
X190581938Y-254147216D01*
X190734678Y-254243189D01*
X190882905Y-254295056D01*
X190904945Y-254302768D01*
X190904950Y-254302769D01*
X191084196Y-254322965D01*
X191084200Y-254322965D01*
X191084204Y-254322965D01*
X191263449Y-254302769D01*
X191263452Y-254302768D01*
X191263455Y-254302768D01*
X191433722Y-254243189D01*
X191586462Y-254147216D01*
X191714016Y-254019662D01*
X191809989Y-253866922D01*
X191869568Y-253696655D01*
X191869569Y-253696649D01*
X191889765Y-253517403D01*
X191889765Y-253517396D01*
X191869569Y-253338150D01*
X191869568Y-253338145D01*
X191845686Y-253269894D01*
X191809989Y-253167878D01*
X191793467Y-253141584D01*
X191714015Y-253015137D01*
X191586462Y-252887584D01*
X191433723Y-252791611D01*
X191263454Y-252732031D01*
X191263449Y-252732030D01*
X191084204Y-252711835D01*
X191084196Y-252711835D01*
X190904950Y-252732030D01*
X190904945Y-252732031D01*
X190734676Y-252791611D01*
X190581937Y-252887584D01*
X190454384Y-253015137D01*
X190358411Y-253167876D01*
X190298831Y-253338145D01*
X190298830Y-253338150D01*
X190278635Y-253517396D01*
X189938413Y-253517396D01*
X189904989Y-253421878D01*
X189897182Y-253409454D01*
X189841375Y-253320637D01*
X189809016Y-253269138D01*
X189681462Y-253141584D01*
X189669228Y-253133897D01*
X189528723Y-253045611D01*
X189358454Y-252986031D01*
X189358449Y-252986030D01*
X189179204Y-252965835D01*
X189179196Y-252965835D01*
X188999950Y-252986030D01*
X188999945Y-252986031D01*
X188829676Y-253045611D01*
X188676937Y-253141584D01*
X188549384Y-253269137D01*
X188453411Y-253421876D01*
X188393831Y-253592145D01*
X188393830Y-253592150D01*
X188373635Y-253771396D01*
X185498717Y-253771396D01*
X185426281Y-253656115D01*
X185426276Y-253656109D01*
X185324448Y-253554281D01*
X185290963Y-253492958D01*
X185295947Y-253423266D01*
X185324448Y-253378919D01*
X185365222Y-253338145D01*
X185426277Y-253277090D01*
X185516252Y-253133897D01*
X185516254Y-253133894D01*
X185516254Y-253133892D01*
X185516256Y-253133890D01*
X185572113Y-252974259D01*
X185572113Y-252974258D01*
X185572114Y-252974256D01*
X185591049Y-252806202D01*
X185591049Y-252806197D01*
X185572114Y-252638143D01*
X185516254Y-252478505D01*
X185516252Y-252478502D01*
X185426281Y-252335315D01*
X185426276Y-252335309D01*
X185306690Y-252215723D01*
X185306684Y-252215718D01*
X185163497Y-252125747D01*
X185163494Y-252125745D01*
X185003856Y-252069886D01*
X184929550Y-252061513D01*
X184865137Y-252034446D01*
X184825582Y-251976850D01*
X184823445Y-251907013D01*
X184859404Y-251847108D01*
X184877454Y-251833305D01*
X184976490Y-251771077D01*
X185096077Y-251651490D01*
X185152561Y-251561597D01*
X185186052Y-251508297D01*
X185186054Y-251508294D01*
X185186054Y-251508292D01*
X185186056Y-251508290D01*
X185241913Y-251348659D01*
X185241913Y-251348658D01*
X185241914Y-251348656D01*
X185260849Y-251180602D01*
X185260849Y-251180597D01*
X185241914Y-251012543D01*
X185199170Y-250890388D01*
X185186056Y-250852910D01*
X185186055Y-250852909D01*
X185186054Y-250852905D01*
X185186052Y-250852902D01*
X185096081Y-250709715D01*
X185096076Y-250709709D01*
X184976490Y-250590123D01*
X184976484Y-250590118D01*
X184833297Y-250500147D01*
X184833294Y-250500145D01*
X184673656Y-250444285D01*
X184505603Y-250425351D01*
X184505597Y-250425351D01*
X184337543Y-250444285D01*
X184177905Y-250500145D01*
X184177902Y-250500147D01*
X184034715Y-250590118D01*
X184034709Y-250590123D01*
X183915123Y-250709709D01*
X183915118Y-250709715D01*
X183825147Y-250852902D01*
X183825145Y-250852905D01*
X183769285Y-251012543D01*
X183750351Y-251180597D01*
X180351958Y-251180597D01*
X180295481Y-251090715D01*
X180295476Y-251090709D01*
X180175890Y-250971123D01*
X180175884Y-250971118D01*
X180032697Y-250881147D01*
X180032694Y-250881145D01*
X179873056Y-250825285D01*
X179705003Y-250806351D01*
X179704997Y-250806351D01*
X179536943Y-250825285D01*
X179377305Y-250881145D01*
X179377302Y-250881147D01*
X179234115Y-250971118D01*
X179234109Y-250971123D01*
X179114523Y-251090709D01*
X179114518Y-251090715D01*
X179024547Y-251233902D01*
X179024545Y-251233905D01*
X178968685Y-251393543D01*
X178949751Y-251561597D01*
X171263018Y-251561597D01*
X171262023Y-249808997D01*
X174860351Y-249808997D01*
X174860351Y-249809002D01*
X174879285Y-249977056D01*
X174935145Y-250136694D01*
X174935147Y-250136697D01*
X175025118Y-250279884D01*
X175025123Y-250279890D01*
X175144709Y-250399476D01*
X175144715Y-250399481D01*
X175287902Y-250489452D01*
X175287905Y-250489454D01*
X175287909Y-250489455D01*
X175287910Y-250489456D01*
X175358402Y-250514122D01*
X175447543Y-250545314D01*
X175615597Y-250564249D01*
X175615600Y-250564249D01*
X175615603Y-250564249D01*
X175783656Y-250545314D01*
X175802132Y-250538849D01*
X175943290Y-250489456D01*
X175943292Y-250489454D01*
X175943294Y-250489454D01*
X175943297Y-250489452D01*
X176086484Y-250399481D01*
X176086485Y-250399480D01*
X176086490Y-250399477D01*
X176206077Y-250279890D01*
X176246599Y-250215400D01*
X176296052Y-250136697D01*
X176296054Y-250136694D01*
X176296054Y-250136692D01*
X176296056Y-250136690D01*
X176351913Y-249977059D01*
X176351913Y-249977058D01*
X176351914Y-249977056D01*
X176370849Y-249809002D01*
X176370849Y-249808997D01*
X176351914Y-249640943D01*
X176314767Y-249534784D01*
X176296056Y-249481310D01*
X176296055Y-249481309D01*
X176296054Y-249481305D01*
X176296052Y-249481302D01*
X176206081Y-249338115D01*
X176206076Y-249338109D01*
X176086490Y-249218523D01*
X176086484Y-249218518D01*
X175943297Y-249128547D01*
X175943294Y-249128545D01*
X175783656Y-249072685D01*
X175615603Y-249053751D01*
X175615597Y-249053751D01*
X175447543Y-249072685D01*
X175287905Y-249128545D01*
X175287902Y-249128547D01*
X175144715Y-249218518D01*
X175144709Y-249218523D01*
X175025123Y-249338109D01*
X175025118Y-249338115D01*
X174935147Y-249481302D01*
X174935145Y-249481305D01*
X174879285Y-249640943D01*
X174860351Y-249808997D01*
X171262023Y-249808997D01*
X171261533Y-248945397D01*
X179279951Y-248945397D01*
X179279951Y-248945402D01*
X179298885Y-249113456D01*
X179354745Y-249273094D01*
X179354747Y-249273097D01*
X179444718Y-249416284D01*
X179444723Y-249416290D01*
X179564309Y-249535876D01*
X179564315Y-249535881D01*
X179707502Y-249625852D01*
X179707508Y-249625855D01*
X179707510Y-249625856D01*
X179867141Y-249681713D01*
X179882850Y-249683482D01*
X179947263Y-249710546D01*
X179986820Y-249768140D01*
X179992189Y-249792819D01*
X180010085Y-249951656D01*
X180065945Y-250111294D01*
X180065947Y-250111297D01*
X180155918Y-250254484D01*
X180155923Y-250254490D01*
X180275509Y-250374076D01*
X180275515Y-250374081D01*
X180418702Y-250464052D01*
X180418705Y-250464054D01*
X180418709Y-250464055D01*
X180418710Y-250464056D01*
X180491288Y-250489452D01*
X180578343Y-250519914D01*
X180746397Y-250538849D01*
X180746400Y-250538849D01*
X180746403Y-250538849D01*
X180914456Y-250519914D01*
X180970947Y-250500147D01*
X181074090Y-250464056D01*
X181074092Y-250464054D01*
X181074094Y-250464054D01*
X181074097Y-250464052D01*
X181217284Y-250374081D01*
X181217285Y-250374080D01*
X181217290Y-250374077D01*
X181336877Y-250254490D01*
X181393359Y-250164600D01*
X181393362Y-250164596D01*
X188373635Y-250164596D01*
X188373635Y-250164603D01*
X188393830Y-250343849D01*
X188393831Y-250343854D01*
X188453411Y-250514123D01*
X188549384Y-250666862D01*
X188676938Y-250794416D01*
X188726066Y-250825285D01*
X188814964Y-250881144D01*
X188829678Y-250890389D01*
X188974853Y-250941188D01*
X188999945Y-250949968D01*
X188999950Y-250949969D01*
X189179196Y-250970165D01*
X189179200Y-250970165D01*
X189179204Y-250970165D01*
X189358449Y-250949969D01*
X189358452Y-250949968D01*
X189358455Y-250949968D01*
X189528722Y-250890389D01*
X189681462Y-250794416D01*
X189809016Y-250666862D01*
X189904989Y-250514122D01*
X189964568Y-250343855D01*
X189979041Y-250215403D01*
X189979042Y-250215396D01*
X190253235Y-250215396D01*
X190253235Y-250215403D01*
X190273430Y-250394649D01*
X190273431Y-250394654D01*
X190333011Y-250564923D01*
X190397064Y-250666862D01*
X190428984Y-250717662D01*
X190556538Y-250845216D01*
X190709278Y-250941189D01*
X190800163Y-250972991D01*
X190879545Y-251000768D01*
X190879550Y-251000769D01*
X191058796Y-251020965D01*
X191058800Y-251020965D01*
X191058804Y-251020965D01*
X191238049Y-251000769D01*
X191238052Y-251000768D01*
X191238055Y-251000768D01*
X191408322Y-250941189D01*
X191561062Y-250845216D01*
X191688616Y-250717662D01*
X191784589Y-250564922D01*
X191844168Y-250394655D01*
X191849892Y-250343854D01*
X191864365Y-250215403D01*
X191864365Y-250215396D01*
X191844169Y-250036150D01*
X191844168Y-250036145D01*
X191784588Y-249865876D01*
X191738683Y-249792819D01*
X191688616Y-249713138D01*
X191561062Y-249585584D01*
X191509154Y-249552968D01*
X191408323Y-249489611D01*
X191238054Y-249430031D01*
X191238049Y-249430030D01*
X191058804Y-249409835D01*
X191058796Y-249409835D01*
X190879550Y-249430030D01*
X190879545Y-249430031D01*
X190709276Y-249489611D01*
X190556537Y-249585584D01*
X190428984Y-249713137D01*
X190333011Y-249865876D01*
X190273431Y-250036145D01*
X190273430Y-250036150D01*
X190253235Y-250215396D01*
X189979042Y-250215396D01*
X189984765Y-250164603D01*
X189984765Y-250164596D01*
X189964569Y-249985350D01*
X189964568Y-249985345D01*
X189924266Y-249870168D01*
X189904989Y-249815078D01*
X189902168Y-249810589D01*
X189830662Y-249696787D01*
X189809016Y-249662338D01*
X189681462Y-249534784D01*
X189528723Y-249438811D01*
X189358454Y-249379231D01*
X189358449Y-249379230D01*
X189179204Y-249359035D01*
X189179196Y-249359035D01*
X188999950Y-249379230D01*
X188999945Y-249379231D01*
X188829676Y-249438811D01*
X188676937Y-249534784D01*
X188549384Y-249662337D01*
X188453411Y-249815076D01*
X188393831Y-249985345D01*
X188393830Y-249985350D01*
X188373635Y-250164596D01*
X181393362Y-250164596D01*
X181426852Y-250111297D01*
X181426854Y-250111294D01*
X181426854Y-250111292D01*
X181426856Y-250111290D01*
X181482713Y-249951659D01*
X181482713Y-249951658D01*
X181482714Y-249951656D01*
X181501649Y-249783602D01*
X181501649Y-249783597D01*
X181482714Y-249615543D01*
X181426854Y-249455905D01*
X181426852Y-249455902D01*
X181336881Y-249312715D01*
X181336876Y-249312709D01*
X181217290Y-249193123D01*
X181217284Y-249193118D01*
X181074097Y-249103147D01*
X181074094Y-249103145D01*
X180914456Y-249047286D01*
X180898742Y-249045515D01*
X180834329Y-249018446D01*
X180794776Y-248960849D01*
X180789410Y-248936178D01*
X180771514Y-248777344D01*
X180764936Y-248758544D01*
X180715656Y-248617710D01*
X180715655Y-248617709D01*
X180715654Y-248617705D01*
X180715652Y-248617702D01*
X180625681Y-248474515D01*
X180625676Y-248474509D01*
X180506090Y-248354923D01*
X180506084Y-248354918D01*
X180362897Y-248264947D01*
X180362894Y-248264945D01*
X180203256Y-248209085D01*
X180035203Y-248190151D01*
X180035197Y-248190151D01*
X179867143Y-248209085D01*
X179707505Y-248264945D01*
X179707502Y-248264947D01*
X179564315Y-248354918D01*
X179564309Y-248354923D01*
X179444723Y-248474509D01*
X179444718Y-248474515D01*
X179354747Y-248617702D01*
X179354745Y-248617705D01*
X179298885Y-248777343D01*
X179279951Y-248945397D01*
X171261533Y-248945397D01*
X171259572Y-245490996D01*
X174810035Y-245490996D01*
X174810035Y-245491003D01*
X174830230Y-245670249D01*
X174830231Y-245670254D01*
X174889811Y-245840523D01*
X174985784Y-245993262D01*
X175043540Y-246051018D01*
X175077025Y-246112341D01*
X175072041Y-246182033D01*
X175043541Y-246226379D01*
X175011186Y-246258734D01*
X174915211Y-246411476D01*
X174855631Y-246581745D01*
X174855630Y-246581750D01*
X174835435Y-246760996D01*
X174835435Y-246761003D01*
X174855630Y-246940249D01*
X174855631Y-246940254D01*
X174915211Y-247110523D01*
X174998831Y-247243602D01*
X175011184Y-247263262D01*
X175138738Y-247390816D01*
X175291478Y-247486789D01*
X175461745Y-247546368D01*
X175461750Y-247546369D01*
X175640996Y-247566565D01*
X175641000Y-247566565D01*
X175641004Y-247566565D01*
X175820249Y-247546369D01*
X175820252Y-247546368D01*
X175820255Y-247546368D01*
X175990522Y-247486789D01*
X176143262Y-247390816D01*
X176270816Y-247263262D01*
X176283172Y-247243597D01*
X184486951Y-247243597D01*
X184486951Y-247243602D01*
X184505885Y-247411656D01*
X184561745Y-247571294D01*
X184561747Y-247571297D01*
X184651718Y-247714484D01*
X184651723Y-247714490D01*
X184771309Y-247834076D01*
X184771315Y-247834081D01*
X184914502Y-247924052D01*
X184914505Y-247924054D01*
X184914509Y-247924055D01*
X184914510Y-247924056D01*
X184981695Y-247947565D01*
X185074143Y-247979914D01*
X185242197Y-247998849D01*
X185242200Y-247998849D01*
X185242203Y-247998849D01*
X185410256Y-247979914D01*
X185410259Y-247979913D01*
X185569890Y-247924056D01*
X185569892Y-247924054D01*
X185569894Y-247924054D01*
X185569897Y-247924052D01*
X185713084Y-247834081D01*
X185713085Y-247834080D01*
X185713090Y-247834077D01*
X185832677Y-247714490D01*
X185844713Y-247695335D01*
X185922652Y-247571297D01*
X185922654Y-247571294D01*
X185922654Y-247571292D01*
X185922656Y-247571290D01*
X185978513Y-247411659D01*
X185978513Y-247411658D01*
X185978514Y-247411656D01*
X185997449Y-247243602D01*
X185997449Y-247243597D01*
X187280951Y-247243597D01*
X187280951Y-247243602D01*
X187299885Y-247411656D01*
X187355745Y-247571294D01*
X187355747Y-247571297D01*
X187445718Y-247714484D01*
X187445723Y-247714490D01*
X187565309Y-247834076D01*
X187565315Y-247834081D01*
X187708502Y-247924052D01*
X187708505Y-247924054D01*
X187708509Y-247924055D01*
X187708510Y-247924056D01*
X187775695Y-247947565D01*
X187868143Y-247979914D01*
X188036197Y-247998849D01*
X188036200Y-247998849D01*
X188036203Y-247998849D01*
X188204256Y-247979914D01*
X188204259Y-247979913D01*
X188363890Y-247924056D01*
X188363892Y-247924054D01*
X188363894Y-247924054D01*
X188363897Y-247924052D01*
X188507084Y-247834081D01*
X188507085Y-247834080D01*
X188507090Y-247834077D01*
X188626677Y-247714490D01*
X188638713Y-247695335D01*
X188716652Y-247571297D01*
X188716654Y-247571294D01*
X188716654Y-247571292D01*
X188716656Y-247571290D01*
X188772513Y-247411659D01*
X188772513Y-247411658D01*
X188772514Y-247411656D01*
X188791449Y-247243602D01*
X188791449Y-247243597D01*
X188772514Y-247075543D01*
X188733044Y-246962745D01*
X188716656Y-246915910D01*
X188716655Y-246915909D01*
X188716654Y-246915905D01*
X188716652Y-246915902D01*
X188626681Y-246772715D01*
X188626676Y-246772709D01*
X188611360Y-246757393D01*
X188577875Y-246696070D01*
X188582859Y-246626378D01*
X188624731Y-246570445D01*
X188633072Y-246564717D01*
X188633485Y-246564456D01*
X188634090Y-246564077D01*
X188753677Y-246444490D01*
X188808882Y-246356632D01*
X188843652Y-246301297D01*
X188843654Y-246301294D01*
X188843654Y-246301292D01*
X188843656Y-246301290D01*
X188899513Y-246141659D01*
X188899513Y-246141658D01*
X188899514Y-246141656D01*
X188901278Y-246125996D01*
X190278635Y-246125996D01*
X190278635Y-246126003D01*
X190298830Y-246305249D01*
X190298831Y-246305254D01*
X190358411Y-246475523D01*
X190430858Y-246590821D01*
X190454384Y-246628262D01*
X190581938Y-246755816D01*
X190734678Y-246851789D01*
X190904945Y-246911368D01*
X190904950Y-246911369D01*
X191084196Y-246931565D01*
X191084200Y-246931565D01*
X191084204Y-246931565D01*
X191263449Y-246911369D01*
X191263452Y-246911368D01*
X191263455Y-246911368D01*
X191433722Y-246851789D01*
X191586462Y-246755816D01*
X191714016Y-246628262D01*
X191809989Y-246475522D01*
X191869568Y-246305255D01*
X191870014Y-246301297D01*
X191889765Y-246126003D01*
X191889765Y-246125996D01*
X191869569Y-245946750D01*
X191869568Y-245946745D01*
X191820159Y-245805543D01*
X191809989Y-245776478D01*
X191714016Y-245623738D01*
X191586462Y-245496184D01*
X191433723Y-245400211D01*
X191263454Y-245340631D01*
X191263449Y-245340630D01*
X191084204Y-245320435D01*
X191084196Y-245320435D01*
X190904950Y-245340630D01*
X190904945Y-245340631D01*
X190734676Y-245400211D01*
X190581937Y-245496184D01*
X190454384Y-245623737D01*
X190358411Y-245776476D01*
X190298831Y-245946745D01*
X190298830Y-245946750D01*
X190278635Y-246125996D01*
X188901278Y-246125996D01*
X188918449Y-245973602D01*
X188918449Y-245973597D01*
X188899514Y-245805543D01*
X188861062Y-245695655D01*
X188843656Y-245645910D01*
X188843655Y-245645909D01*
X188843654Y-245645905D01*
X188843652Y-245645902D01*
X188753681Y-245502715D01*
X188753676Y-245502709D01*
X188634090Y-245383123D01*
X188634084Y-245383118D01*
X188490897Y-245293147D01*
X188490894Y-245293145D01*
X188331256Y-245237285D01*
X188163203Y-245218351D01*
X188163197Y-245218351D01*
X187995143Y-245237285D01*
X187835505Y-245293145D01*
X187835502Y-245293147D01*
X187692315Y-245383118D01*
X187692309Y-245383123D01*
X187572723Y-245502709D01*
X187572718Y-245502715D01*
X187482747Y-245645902D01*
X187482745Y-245645905D01*
X187426885Y-245805543D01*
X187407951Y-245973597D01*
X187407951Y-245973602D01*
X187426885Y-246141656D01*
X187482745Y-246301294D01*
X187482747Y-246301297D01*
X187572718Y-246444484D01*
X187572723Y-246444490D01*
X187588039Y-246459806D01*
X187621524Y-246521129D01*
X187616540Y-246590821D01*
X187574668Y-246646754D01*
X187566338Y-246652476D01*
X187565314Y-246653119D01*
X187565311Y-246653121D01*
X187445723Y-246772709D01*
X187445718Y-246772715D01*
X187355747Y-246915902D01*
X187355745Y-246915905D01*
X187299885Y-247075543D01*
X187280951Y-247243597D01*
X185997449Y-247243597D01*
X185978514Y-247075543D01*
X185939044Y-246962745D01*
X185922656Y-246915910D01*
X185922655Y-246915909D01*
X185922654Y-246915905D01*
X185922652Y-246915902D01*
X185832681Y-246772715D01*
X185832676Y-246772709D01*
X185713090Y-246653123D01*
X185713084Y-246653118D01*
X185569897Y-246563147D01*
X185569894Y-246563145D01*
X185410256Y-246507285D01*
X185242203Y-246488351D01*
X185242197Y-246488351D01*
X185074143Y-246507285D01*
X184914505Y-246563145D01*
X184914502Y-246563147D01*
X184771315Y-246653118D01*
X184771309Y-246653123D01*
X184651723Y-246772709D01*
X184651718Y-246772715D01*
X184561747Y-246915902D01*
X184561745Y-246915905D01*
X184505885Y-247075543D01*
X184486951Y-247243597D01*
X176283172Y-247243597D01*
X176366789Y-247110522D01*
X176426368Y-246940255D01*
X176436336Y-246851788D01*
X176446565Y-246761003D01*
X176446565Y-246760996D01*
X176426369Y-246581750D01*
X176426368Y-246581745D01*
X176419859Y-246563144D01*
X176366789Y-246411478D01*
X176270816Y-246258738D01*
X176213058Y-246200980D01*
X176179574Y-246139656D01*
X176184559Y-246069965D01*
X176213058Y-246025619D01*
X176245416Y-245993262D01*
X176341389Y-245840522D01*
X176400968Y-245670255D01*
X176406209Y-245623738D01*
X176421165Y-245491003D01*
X176421165Y-245490996D01*
X176400969Y-245311750D01*
X176400968Y-245311745D01*
X176341388Y-245141476D01*
X176245415Y-244988737D01*
X176117862Y-244861184D01*
X175965123Y-244765211D01*
X175794854Y-244705631D01*
X175794849Y-244705630D01*
X175615604Y-244685435D01*
X175615596Y-244685435D01*
X175436350Y-244705630D01*
X175436345Y-244705631D01*
X175266076Y-244765211D01*
X175113337Y-244861184D01*
X174985784Y-244988737D01*
X174889811Y-245141476D01*
X174830231Y-245311745D01*
X174830230Y-245311750D01*
X174810035Y-245490996D01*
X171259572Y-245490996D01*
X171258548Y-243687597D01*
X187280951Y-243687597D01*
X187280951Y-243687602D01*
X187299885Y-243855656D01*
X187355745Y-244015294D01*
X187355747Y-244015297D01*
X187445718Y-244158484D01*
X187445723Y-244158490D01*
X187565309Y-244278076D01*
X187565315Y-244278081D01*
X187708502Y-244368052D01*
X187708505Y-244368054D01*
X187708509Y-244368055D01*
X187708510Y-244368056D01*
X187781113Y-244393460D01*
X187868143Y-244423914D01*
X188036197Y-244442849D01*
X188036200Y-244442849D01*
X188036203Y-244442849D01*
X188204256Y-244423914D01*
X188204259Y-244423913D01*
X188363890Y-244368056D01*
X188363892Y-244368054D01*
X188363894Y-244368054D01*
X188363897Y-244368052D01*
X188507084Y-244278081D01*
X188507085Y-244278080D01*
X188507090Y-244278077D01*
X188626677Y-244158490D01*
X188716652Y-244015297D01*
X188716654Y-244015294D01*
X188716654Y-244015292D01*
X188716656Y-244015290D01*
X188772513Y-243855659D01*
X188772513Y-243855658D01*
X188772514Y-243855656D01*
X188791449Y-243687602D01*
X188791449Y-243687597D01*
X188772514Y-243519543D01*
X188716654Y-243359905D01*
X188716652Y-243359902D01*
X188626681Y-243216715D01*
X188626676Y-243216709D01*
X188507090Y-243097123D01*
X188507084Y-243097118D01*
X188363897Y-243007147D01*
X188363894Y-243007145D01*
X188204256Y-242951285D01*
X188036203Y-242932351D01*
X188036197Y-242932351D01*
X187868143Y-242951285D01*
X187708505Y-243007145D01*
X187708502Y-243007147D01*
X187565315Y-243097118D01*
X187565309Y-243097123D01*
X187445723Y-243216709D01*
X187445718Y-243216715D01*
X187355747Y-243359902D01*
X187355745Y-243359905D01*
X187299885Y-243519543D01*
X187280951Y-243687597D01*
X171258548Y-243687597D01*
X171257770Y-242315997D01*
X174834951Y-242315997D01*
X174834951Y-242316002D01*
X174853885Y-242484056D01*
X174909745Y-242643694D01*
X174909747Y-242643697D01*
X174999718Y-242786884D01*
X174999723Y-242786890D01*
X175119309Y-242906476D01*
X175119315Y-242906481D01*
X175262502Y-242996452D01*
X175262505Y-242996454D01*
X175262509Y-242996455D01*
X175262510Y-242996456D01*
X175335088Y-243021852D01*
X175422143Y-243052314D01*
X175590197Y-243071249D01*
X175590200Y-243071249D01*
X175590203Y-243071249D01*
X175758256Y-243052314D01*
X175758259Y-243052313D01*
X175917890Y-242996456D01*
X175917892Y-242996454D01*
X175917894Y-242996454D01*
X175917897Y-242996452D01*
X176061084Y-242906481D01*
X176061085Y-242906480D01*
X176061090Y-242906477D01*
X176180677Y-242786890D01*
X176270652Y-242643697D01*
X176270654Y-242643694D01*
X176270654Y-242643692D01*
X176270656Y-242643690D01*
X176326513Y-242484059D01*
X176326513Y-242484058D01*
X176326514Y-242484056D01*
X176342588Y-242341397D01*
X183674151Y-242341397D01*
X183674151Y-242341402D01*
X183693085Y-242509456D01*
X183748945Y-242669094D01*
X183748947Y-242669097D01*
X183838918Y-242812284D01*
X183838923Y-242812290D01*
X183958509Y-242931876D01*
X183958515Y-242931881D01*
X184101702Y-243021852D01*
X184101705Y-243021854D01*
X184101709Y-243021855D01*
X184101710Y-243021856D01*
X184174313Y-243047260D01*
X184261343Y-243077714D01*
X184429397Y-243096649D01*
X184429400Y-243096649D01*
X184429403Y-243096649D01*
X184597456Y-243077714D01*
X184615932Y-243071249D01*
X184757090Y-243021856D01*
X184757092Y-243021854D01*
X184757094Y-243021854D01*
X184757097Y-243021852D01*
X184900284Y-242931881D01*
X184900285Y-242931880D01*
X184900290Y-242931877D01*
X185008171Y-242823996D01*
X190253235Y-242823996D01*
X190253235Y-242824003D01*
X190273430Y-243003249D01*
X190273431Y-243003254D01*
X190333011Y-243173523D01*
X190428984Y-243326262D01*
X190556538Y-243453816D01*
X190709278Y-243549789D01*
X190854270Y-243600524D01*
X190879545Y-243609368D01*
X190879550Y-243609369D01*
X191058796Y-243629565D01*
X191058800Y-243629565D01*
X191058804Y-243629565D01*
X191238049Y-243609369D01*
X191238052Y-243609368D01*
X191238055Y-243609368D01*
X191408322Y-243549789D01*
X191561062Y-243453816D01*
X191688616Y-243326262D01*
X191784589Y-243173522D01*
X191844168Y-243003255D01*
X191844934Y-242996456D01*
X191864365Y-242824003D01*
X191864365Y-242823996D01*
X191844169Y-242644750D01*
X191844168Y-242644745D01*
X191796828Y-242509456D01*
X191784589Y-242474478D01*
X191688616Y-242321738D01*
X191561062Y-242194184D01*
X191487467Y-242147941D01*
X191408323Y-242098211D01*
X191238054Y-242038631D01*
X191238049Y-242038630D01*
X191058804Y-242018435D01*
X191058796Y-242018435D01*
X190879550Y-242038630D01*
X190879545Y-242038631D01*
X190709276Y-242098211D01*
X190556537Y-242194184D01*
X190428984Y-242321737D01*
X190333011Y-242474476D01*
X190273431Y-242644745D01*
X190273430Y-242644750D01*
X190253235Y-242823996D01*
X185008171Y-242823996D01*
X185019877Y-242812290D01*
X185109852Y-242669097D01*
X185109854Y-242669094D01*
X185109854Y-242669092D01*
X185109856Y-242669090D01*
X185165713Y-242509459D01*
X185165713Y-242509458D01*
X185165714Y-242509456D01*
X185184649Y-242341402D01*
X185184649Y-242341397D01*
X185165714Y-242173343D01*
X185124222Y-242054765D01*
X185109856Y-242013710D01*
X185109855Y-242013709D01*
X185109854Y-242013705D01*
X185109852Y-242013702D01*
X185019881Y-241870515D01*
X185019876Y-241870509D01*
X184900290Y-241750923D01*
X184900284Y-241750918D01*
X184757097Y-241660947D01*
X184757094Y-241660945D01*
X184597456Y-241605085D01*
X184429403Y-241586151D01*
X184429397Y-241586151D01*
X184261343Y-241605085D01*
X184101705Y-241660945D01*
X184101702Y-241660947D01*
X183958515Y-241750918D01*
X183958509Y-241750923D01*
X183838923Y-241870509D01*
X183838918Y-241870515D01*
X183748947Y-242013702D01*
X183748945Y-242013705D01*
X183693085Y-242173343D01*
X183674151Y-242341397D01*
X176342588Y-242341397D01*
X176345449Y-242316002D01*
X176345449Y-242315997D01*
X176326514Y-242147943D01*
X176279541Y-242013702D01*
X176270656Y-241988310D01*
X176270655Y-241988309D01*
X176270654Y-241988305D01*
X176270652Y-241988302D01*
X176180681Y-241845115D01*
X176180676Y-241845109D01*
X176061090Y-241725523D01*
X176061084Y-241725518D01*
X175917897Y-241635547D01*
X175917894Y-241635545D01*
X175758256Y-241579685D01*
X175590203Y-241560751D01*
X175590197Y-241560751D01*
X175422143Y-241579685D01*
X175262505Y-241635545D01*
X175262502Y-241635547D01*
X175119315Y-241725518D01*
X175119309Y-241725523D01*
X174999723Y-241845109D01*
X174999718Y-241845115D01*
X174909747Y-241988302D01*
X174909745Y-241988305D01*
X174853885Y-242147943D01*
X174834951Y-242315997D01*
X171257770Y-242315997D01*
X171256300Y-239725197D01*
X183826551Y-239725197D01*
X183826551Y-239725202D01*
X183845485Y-239893256D01*
X183901345Y-240052894D01*
X183901347Y-240052897D01*
X183991318Y-240196084D01*
X183991323Y-240196090D01*
X184110909Y-240315676D01*
X184110915Y-240315681D01*
X184254102Y-240405652D01*
X184254105Y-240405654D01*
X184254109Y-240405655D01*
X184254110Y-240405656D01*
X184326713Y-240431060D01*
X184413743Y-240461514D01*
X184581797Y-240480449D01*
X184581800Y-240480449D01*
X184581803Y-240480449D01*
X184749856Y-240461514D01*
X184749859Y-240461513D01*
X184909490Y-240405656D01*
X184909492Y-240405654D01*
X184909494Y-240405654D01*
X184909497Y-240405652D01*
X185052684Y-240315681D01*
X185052685Y-240315680D01*
X185052690Y-240315677D01*
X185172277Y-240196090D01*
X185219592Y-240120789D01*
X185262252Y-240052897D01*
X185262254Y-240052894D01*
X185262254Y-240052892D01*
X185262256Y-240052890D01*
X185318113Y-239893259D01*
X185318113Y-239893258D01*
X185318114Y-239893256D01*
X185337049Y-239725202D01*
X185337049Y-239725197D01*
X185318114Y-239557143D01*
X185262254Y-239397505D01*
X185262252Y-239397502D01*
X185172281Y-239254315D01*
X185172276Y-239254309D01*
X185052690Y-239134723D01*
X185052684Y-239134718D01*
X184909497Y-239044747D01*
X184909494Y-239044745D01*
X184749856Y-238988885D01*
X184581803Y-238969951D01*
X184581797Y-238969951D01*
X184413743Y-238988885D01*
X184254105Y-239044745D01*
X184254102Y-239044747D01*
X184110915Y-239134718D01*
X184110909Y-239134723D01*
X183991323Y-239254309D01*
X183991318Y-239254315D01*
X183901347Y-239397502D01*
X183901345Y-239397505D01*
X183845485Y-239557143D01*
X183826551Y-239725197D01*
X171256300Y-239725197D01*
X171255631Y-238547114D01*
X190268953Y-238547114D01*
X190268953Y-238547121D01*
X190289148Y-238726367D01*
X190289149Y-238726372D01*
X190348729Y-238896641D01*
X190441789Y-239044744D01*
X190444702Y-239049380D01*
X190572256Y-239176934D01*
X190724996Y-239272907D01*
X190895263Y-239332486D01*
X190895268Y-239332487D01*
X191074514Y-239352683D01*
X191074518Y-239352683D01*
X191074522Y-239352683D01*
X191253767Y-239332487D01*
X191253770Y-239332486D01*
X191253773Y-239332486D01*
X191424040Y-239272907D01*
X191576780Y-239176934D01*
X191704334Y-239049380D01*
X191800307Y-238896640D01*
X191859886Y-238726373D01*
X191859887Y-238726367D01*
X191880083Y-238547121D01*
X191880083Y-238547114D01*
X191859887Y-238367868D01*
X191859886Y-238367863D01*
X191848260Y-238334637D01*
X191800307Y-238197596D01*
X191704334Y-238044856D01*
X191576780Y-237917302D01*
X191493959Y-237865262D01*
X191424041Y-237821329D01*
X191253772Y-237761749D01*
X191253767Y-237761748D01*
X191074522Y-237741553D01*
X191074514Y-237741553D01*
X190895268Y-237761748D01*
X190895263Y-237761749D01*
X190724994Y-237821329D01*
X190572255Y-237917302D01*
X190444702Y-238044855D01*
X190348729Y-238197594D01*
X190289149Y-238367863D01*
X190289148Y-238367868D01*
X190268953Y-238547114D01*
X171255631Y-238547114D01*
X171254527Y-236600996D01*
X183674635Y-236600996D01*
X183674635Y-236601003D01*
X183694830Y-236780249D01*
X183694831Y-236780254D01*
X183754411Y-236950523D01*
X183781214Y-236993179D01*
X183850384Y-237103262D01*
X183977938Y-237230816D01*
X184130678Y-237326789D01*
X184234163Y-237363000D01*
X184300945Y-237386368D01*
X184300950Y-237386369D01*
X184480196Y-237406565D01*
X184480200Y-237406565D01*
X184480204Y-237406565D01*
X184659449Y-237386369D01*
X184659452Y-237386368D01*
X184659455Y-237386368D01*
X184829722Y-237326789D01*
X184982462Y-237230816D01*
X185110016Y-237103262D01*
X185160990Y-237022136D01*
X185213323Y-236975846D01*
X185282376Y-236965197D01*
X185346225Y-236993572D01*
X185384597Y-237051962D01*
X185389203Y-237074224D01*
X185394886Y-237124656D01*
X185450745Y-237284294D01*
X185450747Y-237284297D01*
X185540718Y-237427484D01*
X185540723Y-237427490D01*
X185660309Y-237547076D01*
X185660315Y-237547081D01*
X185803502Y-237637052D01*
X185803505Y-237637054D01*
X185803509Y-237637055D01*
X185803510Y-237637056D01*
X185860664Y-237657055D01*
X185963143Y-237692914D01*
X186131197Y-237711849D01*
X186131200Y-237711849D01*
X186131203Y-237711849D01*
X186299256Y-237692914D01*
X186315809Y-237687122D01*
X186458890Y-237637056D01*
X186458892Y-237637054D01*
X186458894Y-237637054D01*
X186458897Y-237637052D01*
X186602084Y-237547081D01*
X186602085Y-237547080D01*
X186602090Y-237547077D01*
X186721677Y-237427490D01*
X186811652Y-237284297D01*
X186811654Y-237284294D01*
X186811654Y-237284292D01*
X186811656Y-237284290D01*
X186867513Y-237124659D01*
X186867513Y-237124658D01*
X186867514Y-237124656D01*
X186886449Y-236956602D01*
X186886449Y-236956597D01*
X186867514Y-236788543D01*
X186822232Y-236659136D01*
X186811656Y-236628910D01*
X186811655Y-236628909D01*
X186811654Y-236628905D01*
X186811652Y-236628902D01*
X186721681Y-236485715D01*
X186721676Y-236485709D01*
X186602090Y-236366123D01*
X186602084Y-236366118D01*
X186458897Y-236276147D01*
X186458894Y-236276145D01*
X186299256Y-236220285D01*
X186131203Y-236201351D01*
X186131197Y-236201351D01*
X185963143Y-236220285D01*
X185803505Y-236276145D01*
X185803502Y-236276147D01*
X185660315Y-236366118D01*
X185660309Y-236366123D01*
X185540723Y-236485709D01*
X185540721Y-236485712D01*
X185502053Y-236547251D01*
X185449718Y-236593542D01*
X185380664Y-236604189D01*
X185316816Y-236575813D01*
X185278445Y-236517423D01*
X185273840Y-236495161D01*
X185265569Y-236421749D01*
X185265568Y-236421745D01*
X185228641Y-236316215D01*
X185205989Y-236251478D01*
X185186390Y-236220287D01*
X185110015Y-236098737D01*
X184982462Y-235971184D01*
X184829723Y-235875211D01*
X184659454Y-235815631D01*
X184659449Y-235815630D01*
X184480204Y-235795435D01*
X184480196Y-235795435D01*
X184300950Y-235815630D01*
X184300945Y-235815631D01*
X184130676Y-235875211D01*
X183977937Y-235971184D01*
X183850384Y-236098737D01*
X183754411Y-236251476D01*
X183694831Y-236421745D01*
X183694830Y-236421750D01*
X183674635Y-236600996D01*
X171254527Y-236600996D01*
X171253503Y-234797597D01*
X174885751Y-234797597D01*
X174885751Y-234797602D01*
X174904685Y-234965656D01*
X174960545Y-235125294D01*
X174960547Y-235125297D01*
X175050518Y-235268484D01*
X175050523Y-235268490D01*
X175170109Y-235388076D01*
X175170115Y-235388081D01*
X175313302Y-235478052D01*
X175313305Y-235478054D01*
X175313309Y-235478055D01*
X175313310Y-235478056D01*
X175385913Y-235503460D01*
X175472943Y-235533914D01*
X175640997Y-235552849D01*
X175641000Y-235552849D01*
X175641003Y-235552849D01*
X175809056Y-235533914D01*
X175809059Y-235533913D01*
X175968690Y-235478056D01*
X175968692Y-235478054D01*
X175968694Y-235478054D01*
X175968697Y-235478052D01*
X176111884Y-235388081D01*
X176111885Y-235388080D01*
X176111890Y-235388077D01*
X176231477Y-235268490D01*
X176271999Y-235204000D01*
X176272002Y-235203996D01*
X190253235Y-235203996D01*
X190253235Y-235204003D01*
X190273430Y-235383249D01*
X190273431Y-235383254D01*
X190333011Y-235553523D01*
X190428984Y-235706262D01*
X190556538Y-235833816D01*
X190709278Y-235929789D01*
X190827578Y-235971184D01*
X190879545Y-235989368D01*
X190879550Y-235989369D01*
X191058796Y-236009565D01*
X191058800Y-236009565D01*
X191058804Y-236009565D01*
X191238049Y-235989369D01*
X191238052Y-235989368D01*
X191238055Y-235989368D01*
X191408322Y-235929789D01*
X191561062Y-235833816D01*
X191688616Y-235706262D01*
X191784589Y-235553522D01*
X191844168Y-235383255D01*
X191844169Y-235383249D01*
X191864365Y-235204003D01*
X191864365Y-235203996D01*
X191844169Y-235024750D01*
X191844168Y-235024745D01*
X191784588Y-234854476D01*
X191688615Y-234701737D01*
X191561062Y-234574184D01*
X191408323Y-234478211D01*
X191238054Y-234418631D01*
X191238049Y-234418630D01*
X191058804Y-234398435D01*
X191058796Y-234398435D01*
X190879550Y-234418630D01*
X190879545Y-234418631D01*
X190709276Y-234478211D01*
X190556537Y-234574184D01*
X190428984Y-234701737D01*
X190333011Y-234854476D01*
X190273431Y-235024745D01*
X190273430Y-235024750D01*
X190253235Y-235203996D01*
X176272002Y-235203996D01*
X176321452Y-235125297D01*
X176321454Y-235125294D01*
X176321454Y-235125292D01*
X176321456Y-235125290D01*
X176377313Y-234965659D01*
X176377313Y-234965658D01*
X176377314Y-234965656D01*
X176396249Y-234797602D01*
X176396249Y-234797597D01*
X176377314Y-234629543D01*
X176343458Y-234532789D01*
X176321456Y-234469910D01*
X176321455Y-234469909D01*
X176321454Y-234469905D01*
X176321452Y-234469902D01*
X176231481Y-234326715D01*
X176231476Y-234326709D01*
X176111890Y-234207123D01*
X176111884Y-234207118D01*
X175968697Y-234117147D01*
X175968694Y-234117145D01*
X175809056Y-234061285D01*
X175641003Y-234042351D01*
X175640997Y-234042351D01*
X175472943Y-234061285D01*
X175313305Y-234117145D01*
X175313302Y-234117147D01*
X175170115Y-234207118D01*
X175170109Y-234207123D01*
X175050523Y-234326709D01*
X175050518Y-234326715D01*
X174960547Y-234469902D01*
X174960545Y-234469905D01*
X174904685Y-234629543D01*
X174885751Y-234797597D01*
X171253503Y-234797597D01*
X171251139Y-230631997D01*
X175419151Y-230631997D01*
X175419151Y-230632002D01*
X175438085Y-230800056D01*
X175493945Y-230959694D01*
X175493947Y-230959697D01*
X175583918Y-231102884D01*
X175583923Y-231102890D01*
X175660352Y-231179319D01*
X175693837Y-231240642D01*
X175688853Y-231310334D01*
X175660352Y-231354681D01*
X175583923Y-231431109D01*
X175583918Y-231431115D01*
X175493947Y-231574302D01*
X175493945Y-231574305D01*
X175438085Y-231733943D01*
X175419151Y-231901997D01*
X175419151Y-231902002D01*
X175438085Y-232070056D01*
X175493945Y-232229694D01*
X175493947Y-232229697D01*
X175583918Y-232372884D01*
X175583923Y-232372890D01*
X175703509Y-232492476D01*
X175703515Y-232492481D01*
X175846702Y-232582452D01*
X175846705Y-232582454D01*
X175846709Y-232582455D01*
X175846710Y-232582456D01*
X175919313Y-232607860D01*
X176006343Y-232638314D01*
X176174397Y-232657249D01*
X176174400Y-232657249D01*
X176174403Y-232657249D01*
X176342456Y-232638314D01*
X176342459Y-232638313D01*
X176502090Y-232582456D01*
X176502092Y-232582454D01*
X176502094Y-232582454D01*
X176502097Y-232582452D01*
X176645284Y-232492481D01*
X176645285Y-232492480D01*
X176645290Y-232492477D01*
X176764877Y-232372890D01*
X176854852Y-232229697D01*
X176854854Y-232229694D01*
X176854854Y-232229692D01*
X176854856Y-232229690D01*
X176910713Y-232070059D01*
X176910713Y-232070058D01*
X176910714Y-232070056D01*
X176915340Y-232028996D01*
X187278435Y-232028996D01*
X187278435Y-232029003D01*
X187298630Y-232208249D01*
X187298631Y-232208254D01*
X187358211Y-232378523D01*
X187429813Y-232492476D01*
X187454184Y-232531262D01*
X187581738Y-232658816D01*
X187734478Y-232754789D01*
X187852778Y-232796184D01*
X187904745Y-232814368D01*
X187904750Y-232814369D01*
X188083996Y-232834565D01*
X188084000Y-232834565D01*
X188084004Y-232834565D01*
X188263249Y-232814369D01*
X188263252Y-232814368D01*
X188263255Y-232814368D01*
X188433522Y-232754789D01*
X188586262Y-232658816D01*
X188713816Y-232531262D01*
X188809789Y-232378522D01*
X188869368Y-232208255D01*
X188879336Y-232119788D01*
X188889565Y-232029003D01*
X188889565Y-232028996D01*
X188869369Y-231849750D01*
X188869368Y-231849745D01*
X188809788Y-231679476D01*
X188743702Y-231574302D01*
X188713816Y-231526738D01*
X188586262Y-231399184D01*
X188578005Y-231393996D01*
X191447035Y-231393996D01*
X191447035Y-231394003D01*
X191467230Y-231573249D01*
X191467231Y-231573254D01*
X191526811Y-231743523D01*
X191622784Y-231896262D01*
X191750338Y-232023816D01*
X191903078Y-232119789D01*
X192073345Y-232179368D01*
X192073350Y-232179369D01*
X192252596Y-232199565D01*
X192252600Y-232199565D01*
X192252604Y-232199565D01*
X192431849Y-232179369D01*
X192431852Y-232179368D01*
X192431855Y-232179368D01*
X192602122Y-232119789D01*
X192754862Y-232023816D01*
X192882416Y-231896262D01*
X192978389Y-231743522D01*
X193037968Y-231573255D01*
X193043209Y-231526738D01*
X193058165Y-231394003D01*
X193058165Y-231393996D01*
X193037969Y-231214750D01*
X193037968Y-231214745D01*
X192978388Y-231044476D01*
X192938831Y-230981522D01*
X192882416Y-230891738D01*
X192754862Y-230764184D01*
X192602123Y-230668211D01*
X192431854Y-230608631D01*
X192431849Y-230608630D01*
X192252604Y-230588435D01*
X192252596Y-230588435D01*
X192073350Y-230608630D01*
X192073345Y-230608631D01*
X191903076Y-230668211D01*
X191750337Y-230764184D01*
X191622784Y-230891737D01*
X191526811Y-231044476D01*
X191467231Y-231214745D01*
X191467230Y-231214750D01*
X191447035Y-231393996D01*
X188578005Y-231393996D01*
X188433523Y-231303211D01*
X188263254Y-231243631D01*
X188263249Y-231243630D01*
X188084004Y-231223435D01*
X188083996Y-231223435D01*
X187904750Y-231243630D01*
X187904745Y-231243631D01*
X187734476Y-231303211D01*
X187581737Y-231399184D01*
X187454184Y-231526737D01*
X187358211Y-231679476D01*
X187298631Y-231849745D01*
X187298630Y-231849750D01*
X187278435Y-232028996D01*
X176915340Y-232028996D01*
X176929649Y-231902002D01*
X176929649Y-231901997D01*
X176910714Y-231733943D01*
X176854854Y-231574305D01*
X176854852Y-231574302D01*
X176764881Y-231431115D01*
X176764876Y-231431109D01*
X176688448Y-231354681D01*
X176654963Y-231293358D01*
X176659947Y-231223666D01*
X176688448Y-231179319D01*
X176764877Y-231102890D01*
X176854852Y-230959697D01*
X176854854Y-230959694D01*
X176854854Y-230959692D01*
X176854856Y-230959690D01*
X176910713Y-230800059D01*
X176910713Y-230800058D01*
X176910714Y-230800056D01*
X176929649Y-230632002D01*
X176929649Y-230631997D01*
X176910714Y-230463943D01*
X176854854Y-230304305D01*
X176854852Y-230304302D01*
X176764881Y-230161115D01*
X176764876Y-230161109D01*
X176645290Y-230041523D01*
X176645284Y-230041518D01*
X176502097Y-229951547D01*
X176502094Y-229951545D01*
X176342456Y-229895685D01*
X176174403Y-229876751D01*
X176174397Y-229876751D01*
X176006343Y-229895685D01*
X175846705Y-229951545D01*
X175846702Y-229951547D01*
X175703515Y-230041518D01*
X175703509Y-230041523D01*
X175583923Y-230161109D01*
X175583918Y-230161115D01*
X175493947Y-230304302D01*
X175493945Y-230304305D01*
X175438085Y-230463943D01*
X175419151Y-230631997D01*
X171251139Y-230631997D01*
X171249395Y-227558597D01*
X174885751Y-227558597D01*
X174885751Y-227558602D01*
X174904685Y-227726656D01*
X174960545Y-227886294D01*
X174960547Y-227886297D01*
X175050518Y-228029484D01*
X175050523Y-228029490D01*
X175170109Y-228149076D01*
X175170115Y-228149081D01*
X175313302Y-228239052D01*
X175313305Y-228239054D01*
X175313309Y-228239055D01*
X175313310Y-228239056D01*
X175385913Y-228264460D01*
X175472943Y-228294914D01*
X175640997Y-228313849D01*
X175641000Y-228313849D01*
X175641003Y-228313849D01*
X175809056Y-228294914D01*
X175839135Y-228284389D01*
X175968690Y-228239056D01*
X175968692Y-228239054D01*
X175968694Y-228239054D01*
X175968697Y-228239052D01*
X176111884Y-228149081D01*
X176111885Y-228149080D01*
X176111890Y-228149077D01*
X176231477Y-228029490D01*
X176252220Y-227996478D01*
X176321452Y-227886297D01*
X176321454Y-227886294D01*
X176321454Y-227886292D01*
X176321456Y-227886290D01*
X176377313Y-227726659D01*
X176377313Y-227726658D01*
X176377314Y-227726656D01*
X176396249Y-227558602D01*
X176396249Y-227558597D01*
X176377314Y-227390543D01*
X176321454Y-227230905D01*
X176321452Y-227230902D01*
X176231481Y-227087715D01*
X176231476Y-227087709D01*
X176111890Y-226968123D01*
X176111884Y-226968118D01*
X175968697Y-226878147D01*
X175968694Y-226878145D01*
X175809056Y-226822285D01*
X175641003Y-226803351D01*
X175640997Y-226803351D01*
X175472943Y-226822285D01*
X175313305Y-226878145D01*
X175313302Y-226878147D01*
X175170115Y-226968118D01*
X175170109Y-226968123D01*
X175050523Y-227087709D01*
X175050518Y-227087715D01*
X174960547Y-227230902D01*
X174960545Y-227230905D01*
X174904685Y-227390543D01*
X174885751Y-227558597D01*
X171249395Y-227558597D01*
X171248170Y-225400558D01*
X171267816Y-225333512D01*
X171320594Y-225287727D01*
X171331199Y-225283456D01*
X171393122Y-225261789D01*
X171545862Y-225165816D01*
X171673416Y-225038262D01*
X171769389Y-224885522D01*
X171828968Y-224715255D01*
X171849165Y-224536000D01*
X171828968Y-224356745D01*
X171769389Y-224186478D01*
X171769388Y-224186475D01*
X171687324Y-224055873D01*
X171668323Y-223988636D01*
X171687324Y-223923927D01*
X171769388Y-223793324D01*
X171828968Y-223623054D01*
X171828969Y-223623049D01*
X171849165Y-223443803D01*
X171849165Y-223443796D01*
X171828969Y-223264550D01*
X171828968Y-223264545D01*
X171769388Y-223094276D01*
X171673415Y-222941537D01*
X171545862Y-222813984D01*
X171393123Y-222718011D01*
X171222854Y-222658431D01*
X171222849Y-222658430D01*
X171043604Y-222638235D01*
X171043596Y-222638235D01*
X170864350Y-222658430D01*
X170864345Y-222658431D01*
X170694076Y-222718011D01*
X170541337Y-222813984D01*
X170408860Y-222946462D01*
X170407578Y-222945180D01*
X170357883Y-222980056D01*
X170318133Y-222986600D01*
X158572200Y-222986600D01*
X158572200Y-226266200D01*
X158552515Y-226333239D01*
X158499711Y-226378994D01*
X158448200Y-226390200D01*
X153046700Y-226390200D01*
X152979661Y-226370515D01*
X152933906Y-226317711D01*
X152922700Y-226266200D01*
X152922700Y-218970349D01*
X152922926Y-218962862D01*
X152926686Y-218900707D01*
X152930037Y-218845311D01*
X153571700Y-218845311D01*
X153571700Y-219087888D01*
X153603361Y-219328385D01*
X153666147Y-219562704D01*
X153756205Y-219780122D01*
X153758976Y-219786812D01*
X153880264Y-219996889D01*
X153880266Y-219996892D01*
X153880267Y-219996893D01*
X154027933Y-220189336D01*
X154027939Y-220189343D01*
X154199456Y-220360860D01*
X154199462Y-220360865D01*
X154391911Y-220508536D01*
X154601988Y-220629824D01*
X154826100Y-220722654D01*
X155060411Y-220785438D01*
X155240786Y-220809184D01*
X155300911Y-220817100D01*
X155300912Y-220817100D01*
X155543489Y-220817100D01*
X155591588Y-220810767D01*
X155783989Y-220785438D01*
X156018300Y-220722654D01*
X156242412Y-220629824D01*
X156452489Y-220508536D01*
X156644938Y-220360865D01*
X156816465Y-220189338D01*
X156964136Y-219996889D01*
X157085424Y-219786812D01*
X157178254Y-219562700D01*
X157241038Y-219328389D01*
X157272700Y-219087888D01*
X157272700Y-218845312D01*
X157249435Y-218668596D01*
X166313435Y-218668596D01*
X166313435Y-218668603D01*
X166333630Y-218847849D01*
X166333631Y-218847854D01*
X166393211Y-219018123D01*
X166432769Y-219081078D01*
X166489184Y-219170862D01*
X166616738Y-219298416D01*
X166664440Y-219328389D01*
X166769480Y-219394390D01*
X166901421Y-219440559D01*
X166958197Y-219481280D01*
X166983944Y-219546233D01*
X166970488Y-219614795D01*
X166922100Y-219665197D01*
X166901421Y-219674641D01*
X166769480Y-219720809D01*
X166616737Y-219816784D01*
X166489184Y-219944337D01*
X166393211Y-220097076D01*
X166333631Y-220267345D01*
X166333630Y-220267350D01*
X166313435Y-220446596D01*
X166313435Y-220446603D01*
X166333630Y-220625849D01*
X166333631Y-220625854D01*
X166393211Y-220796123D01*
X166441091Y-220872323D01*
X166489184Y-220948862D01*
X166616738Y-221076416D01*
X166769478Y-221172389D01*
X166939745Y-221231968D01*
X166939750Y-221231969D01*
X167118996Y-221252165D01*
X167119000Y-221252165D01*
X167119004Y-221252165D01*
X167298249Y-221231969D01*
X167298252Y-221231968D01*
X167298255Y-221231968D01*
X167468522Y-221172389D01*
X167621262Y-221076416D01*
X167748816Y-220948862D01*
X167844789Y-220796122D01*
X167904368Y-220625855D01*
X167915979Y-220522803D01*
X167924565Y-220446603D01*
X167924565Y-220446596D01*
X167904369Y-220267350D01*
X167904368Y-220267345D01*
X167877071Y-220189336D01*
X167844789Y-220097078D01*
X167748816Y-219944338D01*
X167621262Y-219816784D01*
X167562918Y-219780124D01*
X167468521Y-219720810D01*
X167336579Y-219674642D01*
X167279802Y-219633920D01*
X167254055Y-219568967D01*
X167267511Y-219500406D01*
X167315898Y-219450003D01*
X167336579Y-219440558D01*
X167375716Y-219426862D01*
X167468522Y-219394389D01*
X167621262Y-219298416D01*
X167748816Y-219170862D01*
X167844789Y-219018122D01*
X167904368Y-218847855D01*
X167904655Y-218845311D01*
X167924565Y-218668603D01*
X167924565Y-218668596D01*
X167904369Y-218489350D01*
X167904368Y-218489345D01*
X167851549Y-218338396D01*
X175419635Y-218338396D01*
X175419635Y-218338403D01*
X175439830Y-218517649D01*
X175439831Y-218517654D01*
X175499411Y-218687923D01*
X175581476Y-218818528D01*
X175600476Y-218885765D01*
X175581476Y-218950472D01*
X175499411Y-219081076D01*
X175439831Y-219251345D01*
X175439830Y-219251350D01*
X175419635Y-219430596D01*
X175419635Y-219430603D01*
X175439830Y-219609849D01*
X175439831Y-219609854D01*
X175499411Y-219780123D01*
X175581476Y-219910728D01*
X175600476Y-219977965D01*
X175581476Y-220042672D01*
X175499411Y-220173276D01*
X175439831Y-220343545D01*
X175439830Y-220343550D01*
X175419635Y-220522796D01*
X175419635Y-220522803D01*
X175439830Y-220702049D01*
X175439831Y-220702054D01*
X175499411Y-220872323D01*
X175581476Y-221002928D01*
X175600476Y-221070165D01*
X175581476Y-221134872D01*
X175499411Y-221265476D01*
X175439831Y-221435745D01*
X175439830Y-221435750D01*
X175419635Y-221614996D01*
X175419635Y-221615003D01*
X175439830Y-221794249D01*
X175439831Y-221794254D01*
X175499411Y-221964523D01*
X175595384Y-222117262D01*
X175722938Y-222244816D01*
X175875678Y-222340789D01*
X176045945Y-222400368D01*
X176045950Y-222400369D01*
X176225196Y-222420565D01*
X176225200Y-222420565D01*
X176225204Y-222420565D01*
X176404449Y-222400369D01*
X176404452Y-222400368D01*
X176404455Y-222400368D01*
X176574722Y-222340789D01*
X176727462Y-222244816D01*
X176855016Y-222117262D01*
X176950989Y-221964522D01*
X177010568Y-221794255D01*
X177030765Y-221615000D01*
X177010568Y-221435745D01*
X176950989Y-221265478D01*
X176950988Y-221265476D01*
X176950988Y-221265475D01*
X176868924Y-221134873D01*
X176849923Y-221067636D01*
X176868924Y-221002927D01*
X176950988Y-220872324D01*
X176977652Y-220796123D01*
X177010568Y-220702055D01*
X177010569Y-220702049D01*
X177030765Y-220522803D01*
X177030765Y-220522796D01*
X177010569Y-220343550D01*
X177010568Y-220343545D01*
X176950988Y-220173275D01*
X176868924Y-220042673D01*
X176849923Y-219975436D01*
X176868924Y-219910727D01*
X176950988Y-219780124D01*
X176950989Y-219780122D01*
X177010568Y-219609855D01*
X177015881Y-219562700D01*
X177030765Y-219430603D01*
X177030765Y-219430596D01*
X177010569Y-219251350D01*
X177010568Y-219251345D01*
X176950988Y-219081075D01*
X176881413Y-218970349D01*
X176868923Y-218950471D01*
X176849923Y-218883236D01*
X176861059Y-218845311D01*
X197571700Y-218845311D01*
X197571700Y-219087888D01*
X197603361Y-219328385D01*
X197666147Y-219562704D01*
X197756205Y-219780122D01*
X197758976Y-219786812D01*
X197880264Y-219996889D01*
X197880266Y-219996892D01*
X197880267Y-219996893D01*
X198027933Y-220189336D01*
X198027939Y-220189343D01*
X198199456Y-220360860D01*
X198199462Y-220360865D01*
X198391911Y-220508536D01*
X198601988Y-220629824D01*
X198826100Y-220722654D01*
X199060411Y-220785438D01*
X199240786Y-220809184D01*
X199300911Y-220817100D01*
X199300912Y-220817100D01*
X199543489Y-220817100D01*
X199591588Y-220810767D01*
X199783989Y-220785438D01*
X200018300Y-220722654D01*
X200242412Y-220629824D01*
X200452489Y-220508536D01*
X200644938Y-220360865D01*
X200816465Y-220189338D01*
X200964136Y-219996889D01*
X201085424Y-219786812D01*
X201178254Y-219562700D01*
X201241038Y-219328389D01*
X201272700Y-219087888D01*
X201272700Y-218845312D01*
X201241038Y-218604811D01*
X201178254Y-218370500D01*
X201085424Y-218146388D01*
X200964136Y-217936311D01*
X200816465Y-217743862D01*
X200816460Y-217743856D01*
X200644943Y-217572339D01*
X200644936Y-217572333D01*
X200452493Y-217424667D01*
X200452492Y-217424666D01*
X200452489Y-217424664D01*
X200280861Y-217325574D01*
X200242414Y-217303377D01*
X200242405Y-217303373D01*
X200018304Y-217210547D01*
X199783985Y-217147761D01*
X199543489Y-217116100D01*
X199543488Y-217116100D01*
X199300912Y-217116100D01*
X199300911Y-217116100D01*
X199060414Y-217147761D01*
X198826095Y-217210547D01*
X198601994Y-217303373D01*
X198601985Y-217303377D01*
X198391906Y-217424667D01*
X198199463Y-217572333D01*
X198199456Y-217572339D01*
X198027939Y-217743856D01*
X198027933Y-217743863D01*
X197880267Y-217936306D01*
X197758977Y-218146385D01*
X197758973Y-218146394D01*
X197666147Y-218370495D01*
X197603361Y-218604814D01*
X197571700Y-218845311D01*
X176861059Y-218845311D01*
X176868924Y-218818527D01*
X176950988Y-218687924D01*
X176958898Y-218665318D01*
X177010568Y-218517655D01*
X177010569Y-218517649D01*
X177030765Y-218338403D01*
X177030765Y-218338396D01*
X177010569Y-218159150D01*
X177010568Y-218159145D01*
X176950988Y-217988876D01*
X176884607Y-217883232D01*
X176855016Y-217836138D01*
X176727462Y-217708584D01*
X176574723Y-217612611D01*
X176404454Y-217553031D01*
X176404449Y-217553030D01*
X176225204Y-217532835D01*
X176225196Y-217532835D01*
X176045950Y-217553030D01*
X176045945Y-217553031D01*
X175875676Y-217612611D01*
X175722937Y-217708584D01*
X175595384Y-217836137D01*
X175499411Y-217988876D01*
X175439831Y-218159145D01*
X175439830Y-218159150D01*
X175419635Y-218338396D01*
X167851549Y-218338396D01*
X167844789Y-218319078D01*
X167748816Y-218166338D01*
X167621262Y-218038784D01*
X167468523Y-217942811D01*
X167298254Y-217883231D01*
X167298249Y-217883230D01*
X167119004Y-217863035D01*
X167118996Y-217863035D01*
X166939750Y-217883230D01*
X166939745Y-217883231D01*
X166769476Y-217942811D01*
X166616737Y-218038784D01*
X166489184Y-218166337D01*
X166393211Y-218319076D01*
X166333631Y-218489345D01*
X166333630Y-218489350D01*
X166313435Y-218668596D01*
X157249435Y-218668596D01*
X157241038Y-218604811D01*
X157178254Y-218370500D01*
X157085424Y-218146388D01*
X156964136Y-217936311D01*
X156816465Y-217743862D01*
X156816460Y-217743856D01*
X156644943Y-217572339D01*
X156644936Y-217572333D01*
X156452493Y-217424667D01*
X156452492Y-217424666D01*
X156452489Y-217424664D01*
X156280861Y-217325574D01*
X156242414Y-217303377D01*
X156242405Y-217303373D01*
X156018304Y-217210547D01*
X155783985Y-217147761D01*
X155543489Y-217116100D01*
X155543488Y-217116100D01*
X155300912Y-217116100D01*
X155300911Y-217116100D01*
X155060414Y-217147761D01*
X154826095Y-217210547D01*
X154601994Y-217303373D01*
X154601985Y-217303377D01*
X154391906Y-217424667D01*
X154199463Y-217572333D01*
X154199456Y-217572339D01*
X154027939Y-217743856D01*
X154027933Y-217743863D01*
X153880267Y-217936306D01*
X153758977Y-218146385D01*
X153758973Y-218146394D01*
X153666147Y-218370495D01*
X153603361Y-218604814D01*
X153571700Y-218845311D01*
X152930037Y-218845311D01*
X152940471Y-218672800D01*
X152942276Y-218657939D01*
X152967985Y-218517654D01*
X152993980Y-218375797D01*
X152997564Y-218361263D01*
X153082899Y-218087411D01*
X153088197Y-218073441D01*
X153205927Y-217811857D01*
X153212880Y-217798610D01*
X153361280Y-217553126D01*
X153369767Y-217540830D01*
X153546681Y-217315017D01*
X153556596Y-217303826D01*
X153759426Y-217100995D01*
X153770617Y-217091080D01*
X153996430Y-216914167D01*
X154008734Y-216905675D01*
X154187581Y-216797559D01*
X154254212Y-216757280D01*
X154267458Y-216750327D01*
X154529042Y-216632597D01*
X154543012Y-216627299D01*
X154816868Y-216541962D01*
X154831398Y-216538380D01*
X155113544Y-216486675D01*
X155128401Y-216484871D01*
X155418487Y-216467324D01*
X155425960Y-216467099D01*
X155488092Y-216467099D01*
X199356308Y-216467099D01*
X199418449Y-216467099D01*
X199425936Y-216467325D01*
G37*
G04 #@! TD.AperFunction*
M02*
