G04 #@! TF.GenerationSoftware,KiCad,Pcbnew,8.0.8*
G04 #@! TF.CreationDate,2025-01-21T11:13:05-05:00*
G04 #@! TF.ProjectId,_HW_ESP32-IsoLink,5f48575f-4553-4503-9332-2d49736f4c69,rev?*
G04 #@! TF.SameCoordinates,Original*
G04 #@! TF.FileFunction,Soldermask,Top*
G04 #@! TF.FilePolarity,Negative*
%FSLAX46Y46*%
G04 Gerber Fmt 4.6, Leading zero omitted, Abs format (unit mm)*
G04 Created by KiCad (PCBNEW 8.0.8) date 2025-01-21 11:13:05*
%MOMM*%
%LPD*%
G01*
G04 APERTURE LIST*
G04 Aperture macros list*
%AMRoundRect*
0 Rectangle with rounded corners*
0 $1 Rounding radius*
0 $2 $3 $4 $5 $6 $7 $8 $9 X,Y pos of 4 corners*
0 Add a 4 corners polygon primitive as box body*
4,1,4,$2,$3,$4,$5,$6,$7,$8,$9,$2,$3,0*
0 Add four circle primitives for the rounded corners*
1,1,$1+$1,$2,$3*
1,1,$1+$1,$4,$5*
1,1,$1+$1,$6,$7*
1,1,$1+$1,$8,$9*
0 Add four rect primitives between the rounded corners*
20,1,$1+$1,$2,$3,$4,$5,0*
20,1,$1+$1,$4,$5,$6,$7,0*
20,1,$1+$1,$6,$7,$8,$9,0*
20,1,$1+$1,$8,$9,$2,$3,0*%
G04 Aperture macros list end*
%ADD10C,0.904000*%
%ADD11RoundRect,0.200000X-0.200000X-0.275000X0.200000X-0.275000X0.200000X0.275000X-0.200000X0.275000X0*%
%ADD12RoundRect,0.150000X-0.825000X-0.150000X0.825000X-0.150000X0.825000X0.150000X-0.825000X0.150000X0*%
%ADD13RoundRect,0.218750X-0.218750X-0.256250X0.218750X-0.256250X0.218750X0.256250X-0.218750X0.256250X0*%
%ADD14RoundRect,0.225000X0.225000X0.250000X-0.225000X0.250000X-0.225000X-0.250000X0.225000X-0.250000X0*%
%ADD15RoundRect,0.150000X0.150000X-0.512500X0.150000X0.512500X-0.150000X0.512500X-0.150000X-0.512500X0*%
%ADD16RoundRect,0.225000X-0.225000X-0.250000X0.225000X-0.250000X0.225000X0.250000X-0.225000X0.250000X0*%
%ADD17RoundRect,0.250000X-0.300000X-0.300000X0.300000X-0.300000X0.300000X0.300000X-0.300000X0.300000X0*%
%ADD18RoundRect,0.100000X-0.225000X-0.100000X0.225000X-0.100000X0.225000X0.100000X-0.225000X0.100000X0*%
%ADD19RoundRect,0.100000X0.225000X0.100000X-0.225000X0.100000X-0.225000X-0.100000X0.225000X-0.100000X0*%
%ADD20RoundRect,0.102000X0.800000X-1.600000X0.800000X1.600000X-0.800000X1.600000X-0.800000X-1.600000X0*%
%ADD21R,2.000000X2.000000*%
%ADD22C,2.000000*%
%ADD23RoundRect,0.200000X0.200000X0.275000X-0.200000X0.275000X-0.200000X-0.275000X0.200000X-0.275000X0*%
%ADD24R,1.250000X1.000000*%
%ADD25RoundRect,0.102000X-1.050000X-0.500000X1.050000X-0.500000X1.050000X0.500000X-1.050000X0.500000X0*%
%ADD26RoundRect,0.150000X-0.150000X0.512500X-0.150000X-0.512500X0.150000X-0.512500X0.150000X0.512500X0*%
%ADD27C,3.200000*%
%ADD28RoundRect,0.100000X-0.575000X0.100000X-0.575000X-0.100000X0.575000X-0.100000X0.575000X0.100000X0*%
%ADD29O,1.550000X0.890000*%
%ADD30RoundRect,0.250000X-0.525000X0.475000X-0.525000X-0.475000X0.525000X-0.475000X0.525000X0.475000X0*%
%ADD31O,0.950000X1.250000*%
%ADD32RoundRect,0.250000X-0.525000X0.500000X-0.525000X-0.500000X0.525000X-0.500000X0.525000X0.500000X0*%
%ADD33RoundRect,0.112500X0.112500X0.237500X-0.112500X0.237500X-0.112500X-0.237500X0.112500X-0.237500X0*%
%ADD34C,1.300000*%
%ADD35RoundRect,0.102000X-1.900000X0.550000X-1.900000X-0.550000X1.900000X-0.550000X1.900000X0.550000X0*%
%ADD36RoundRect,0.102000X-2.650000X1.150000X-2.650000X-1.150000X2.650000X-1.150000X2.650000X1.150000X0*%
%ADD37RoundRect,0.102000X0.750000X0.450000X-0.750000X0.450000X-0.750000X-0.450000X0.750000X-0.450000X0*%
%ADD38RoundRect,0.102000X0.450000X0.750000X-0.450000X0.750000X-0.450000X-0.750000X0.450000X-0.750000X0*%
%ADD39RoundRect,0.102000X0.450000X0.450000X-0.450000X0.450000X-0.450000X-0.450000X0.450000X-0.450000X0*%
%ADD40RoundRect,0.062500X-0.062500X0.337500X-0.062500X-0.337500X0.062500X-0.337500X0.062500X0.337500X0*%
%ADD41RoundRect,0.062500X-0.337500X0.062500X-0.337500X-0.062500X0.337500X-0.062500X0.337500X0.062500X0*%
%ADD42R,2.750000X2.750000*%
%ADD43RoundRect,0.375000X-0.375000X0.625000X-0.375000X-0.625000X0.375000X-0.625000X0.375000X0.625000X0*%
%ADD44RoundRect,0.500000X-1.400000X0.500000X-1.400000X-0.500000X1.400000X-0.500000X1.400000X0.500000X0*%
%ADD45R,1.000000X0.599999*%
%ADD46RoundRect,0.100000X0.100000X-0.225000X0.100000X0.225000X-0.100000X0.225000X-0.100000X-0.225000X0*%
%ADD47R,0.599999X1.000000*%
%ADD48RoundRect,0.218750X0.218750X0.256250X-0.218750X0.256250X-0.218750X-0.256250X0.218750X-0.256250X0*%
%ADD49R,1.550000X4.699000*%
G04 APERTURE END LIST*
D10*
X156027000Y-253699000D02*
G75*
G02*
X155123000Y-253699000I-452000J0D01*
G01*
X155123000Y-253699000D02*
G75*
G02*
X156027000Y-253699000I452000J0D01*
G01*
X156027000Y-258699000D02*
G75*
G02*
X155123000Y-258699000I-452000J0D01*
G01*
X155123000Y-258699000D02*
G75*
G02*
X156027000Y-258699000I452000J0D01*
G01*
D11*
X185611000Y-238226600D03*
X187261000Y-238226600D03*
D12*
X168975000Y-236601000D03*
X168975000Y-237871000D03*
X168975000Y-239141000D03*
X168975000Y-240411000D03*
X173925000Y-240411000D03*
X173925000Y-239141000D03*
X173925000Y-237871000D03*
X173925000Y-236601000D03*
D13*
X193268500Y-229616000D03*
X194843500Y-229616000D03*
X159587999Y-289712400D03*
X161162999Y-289712400D03*
D14*
X183528000Y-224282000D03*
X181978000Y-224282000D03*
D15*
X182565000Y-221228500D03*
X183515000Y-221228500D03*
X184465000Y-221228500D03*
X184465000Y-218953500D03*
X183515000Y-218953500D03*
X182565000Y-218953500D03*
D11*
X193228600Y-260858000D03*
X194878600Y-260858000D03*
D16*
X189979000Y-288036000D03*
X191529000Y-288036000D03*
D17*
X188084000Y-232029000D03*
X190884000Y-232029000D03*
D11*
X193231000Y-272034000D03*
X194881000Y-272034000D03*
D18*
X189169000Y-258430000D03*
X189169000Y-259080000D03*
X189169000Y-259730000D03*
X191069000Y-259730000D03*
X191069000Y-258430000D03*
D13*
X159587999Y-288036000D03*
X161162999Y-288036000D03*
D11*
X193231000Y-231394000D03*
X194881000Y-231394000D03*
D13*
X193268500Y-247904000D03*
X194843500Y-247904000D03*
D19*
X166050000Y-276494000D03*
X166050000Y-275844000D03*
X166050000Y-275194000D03*
X164150000Y-275194000D03*
X164150000Y-275844000D03*
X164150000Y-276494000D03*
D20*
X192659000Y-223988000D03*
X192659000Y-218988000D03*
D21*
X200764000Y-254767000D03*
D22*
X200764000Y-252227000D03*
D14*
X166002000Y-238506000D03*
X164452000Y-238506000D03*
D21*
X200764000Y-272034000D03*
D22*
X200764000Y-269494000D03*
X200764000Y-266954000D03*
D12*
X193740000Y-277495000D03*
X193740000Y-278765000D03*
X193740000Y-280035000D03*
X193740000Y-281305000D03*
X198690000Y-281305000D03*
X198690000Y-280035000D03*
X198690000Y-278765000D03*
X198690000Y-277495000D03*
D16*
X193281000Y-275590000D03*
X194831000Y-275590000D03*
X181851000Y-249809000D03*
X183401000Y-249809000D03*
D13*
X193268500Y-236728000D03*
X194843500Y-236728000D03*
D23*
X161200499Y-272237200D03*
X159550499Y-272237200D03*
D16*
X189979000Y-286512000D03*
X191529000Y-286512000D03*
D14*
X169939000Y-249809000D03*
X168389000Y-249809000D03*
D11*
X164402000Y-257175000D03*
X166052000Y-257175000D03*
D16*
X185661000Y-255778000D03*
X187211000Y-255778000D03*
D11*
X164402000Y-255143000D03*
X166052000Y-255143000D03*
D18*
X189169000Y-262036800D03*
X189169000Y-262686800D03*
X189169000Y-263336800D03*
X191069000Y-263336800D03*
X191069000Y-262036800D03*
D23*
X187997600Y-218719400D03*
X186347600Y-218719400D03*
D21*
X200764000Y-262133000D03*
D22*
X200764000Y-259593000D03*
D14*
X187922200Y-220167200D03*
X186372200Y-220167200D03*
D24*
X161609000Y-268732000D03*
X153859000Y-268732000D03*
D25*
X154843000Y-225806000D03*
X154843000Y-228346000D03*
X154843000Y-233426000D03*
X164943000Y-233426000D03*
X164943000Y-225806000D03*
D14*
X183350200Y-242341400D03*
X181800200Y-242341400D03*
D11*
X193231000Y-253492000D03*
X194881000Y-253492000D03*
X175832000Y-224282000D03*
X177482000Y-224282000D03*
D14*
X165986799Y-271170400D03*
X164436799Y-271170400D03*
D26*
X187132000Y-246004500D03*
X185232000Y-246004500D03*
X186182000Y-248279500D03*
D16*
X164325000Y-278765000D03*
X165875000Y-278765000D03*
D27*
X199422200Y-287966600D03*
D21*
X200764000Y-231780000D03*
D22*
X200764000Y-229240000D03*
D28*
X156594000Y-278100000D03*
X156594000Y-278750000D03*
X156594000Y-279400000D03*
X156594000Y-280050000D03*
X156594000Y-280700000D03*
D29*
X153894000Y-275900000D03*
D30*
X153894000Y-276375000D03*
D31*
X156594000Y-276900000D03*
D32*
X153894000Y-278400000D03*
X153894000Y-280400000D03*
D31*
X156594000Y-281900000D03*
D30*
X153894000Y-282425000D03*
D29*
X153894000Y-282900000D03*
D11*
X193231000Y-246126000D03*
X194881000Y-246126000D03*
D15*
X193360000Y-285617500D03*
X195260000Y-285617500D03*
X194310000Y-283342500D03*
D14*
X166002000Y-220472000D03*
X164452000Y-220472000D03*
D33*
X187213000Y-251984000D03*
X185913000Y-251984000D03*
X186563000Y-253984000D03*
D14*
X174511000Y-249809000D03*
X172961000Y-249809000D03*
D23*
X191579000Y-281178000D03*
X189929000Y-281178000D03*
D13*
X193268500Y-262685999D03*
X194843500Y-262685999D03*
D27*
X155422200Y-287966600D03*
D14*
X174511000Y-227573154D03*
X172961000Y-227573154D03*
X194803350Y-288036000D03*
X193253350Y-288036000D03*
D24*
X153859000Y-243459000D03*
X161609000Y-243459000D03*
D16*
X189979000Y-289712400D03*
X191529000Y-289712400D03*
D12*
X177865000Y-236601000D03*
X177865000Y-237871000D03*
X177865000Y-239141000D03*
X177865000Y-240411000D03*
X182815000Y-240411000D03*
X182815000Y-239141000D03*
X182815000Y-237871000D03*
X182815000Y-236601000D03*
D11*
X159550499Y-281813000D03*
X161200499Y-281813000D03*
X159576000Y-238506000D03*
X161226000Y-238506000D03*
D27*
X199422200Y-218966600D03*
D11*
X193231000Y-289712400D03*
X194881000Y-289712400D03*
X154115000Y-240284000D03*
X155765000Y-240284000D03*
D13*
X193268500Y-251714000D03*
X194843500Y-251714000D03*
D23*
X186626000Y-224282000D03*
X184976000Y-224282000D03*
D22*
X200914000Y-283718000D03*
D14*
X166002000Y-247142000D03*
X164452000Y-247142000D03*
D12*
X177865000Y-258953000D03*
X177865000Y-260223000D03*
X177865000Y-261493000D03*
X177865000Y-262763000D03*
X182815000Y-262763000D03*
X182815000Y-261493000D03*
X182815000Y-260223000D03*
X182815000Y-258953000D03*
D23*
X191579000Y-277368000D03*
X189929000Y-277368000D03*
D18*
X189174518Y-239671500D03*
X189174518Y-240321500D03*
X189174518Y-240971500D03*
X191074518Y-240971500D03*
X191074518Y-239671500D03*
D27*
X155422200Y-218966600D03*
D11*
X159550499Y-277241000D03*
X161200499Y-277241000D03*
X185611000Y-240538000D03*
X187261000Y-240538000D03*
D33*
X187213000Y-259858000D03*
X185913000Y-259858000D03*
X186563000Y-261858000D03*
D21*
X200764000Y-239781000D03*
D22*
X200764000Y-237241000D03*
D34*
X155575000Y-253699000D03*
X155575000Y-258699000D03*
D35*
X159275000Y-252699000D03*
X159275000Y-255199000D03*
X159275000Y-257199000D03*
X159275000Y-259699000D03*
D36*
X156875000Y-248799000D03*
X156875000Y-263599000D03*
D17*
X188084000Y-229616000D03*
X190884000Y-229616000D03*
D23*
X187261000Y-267970000D03*
X185611000Y-267970000D03*
D12*
X168975000Y-258953000D03*
X168975000Y-260223000D03*
X168975000Y-261493000D03*
X168975000Y-262763000D03*
X173925000Y-262763000D03*
X173925000Y-261493000D03*
X173925000Y-260223000D03*
X173925000Y-258953000D03*
D37*
X187059600Y-289507600D03*
X187059600Y-288237600D03*
X187059600Y-286967600D03*
X187059600Y-285697600D03*
X187059600Y-284427600D03*
X187059600Y-283157600D03*
X187059600Y-281887600D03*
X187059600Y-280617600D03*
X187059600Y-279347600D03*
X187059600Y-278077600D03*
X187059600Y-276807600D03*
X187059600Y-275537600D03*
X187059600Y-274267600D03*
X187059600Y-272997600D03*
D38*
X185294600Y-271747600D03*
X184024600Y-271747600D03*
X182754600Y-271747600D03*
X181484600Y-271747600D03*
X180214600Y-271747600D03*
X178944600Y-271747600D03*
X177674600Y-271747600D03*
X176404600Y-271747600D03*
X175134600Y-271747600D03*
X173864600Y-271747600D03*
X172594600Y-271747600D03*
X171324600Y-271747600D03*
D37*
X169559600Y-272997600D03*
X169559600Y-274267600D03*
X169559600Y-275537600D03*
X169559600Y-276807600D03*
X169559600Y-278077600D03*
X169559600Y-279347600D03*
X169559600Y-280617600D03*
X169559600Y-281887600D03*
X169559600Y-283157600D03*
X169559600Y-284427600D03*
X169559600Y-285697600D03*
X169559600Y-286967600D03*
X169559600Y-288237600D03*
X169559600Y-289507600D03*
D39*
X181209600Y-283187600D03*
X181209600Y-281787600D03*
X181209600Y-280387600D03*
X179809600Y-283187600D03*
X179809600Y-281787600D03*
X179809600Y-280387600D03*
X178409600Y-283187600D03*
X178409600Y-281787600D03*
X178409600Y-280387600D03*
D11*
X178880000Y-224282000D03*
X180530000Y-224282000D03*
D18*
X189169000Y-247254000D03*
X189169000Y-247904000D03*
X189169000Y-248554000D03*
X191069000Y-248554000D03*
X191069000Y-247254000D03*
D11*
X193231000Y-270357600D03*
X194881000Y-270357600D03*
D13*
X164439500Y-288036000D03*
X166014500Y-288036000D03*
D11*
X177279800Y-257175000D03*
X178929800Y-257175000D03*
D40*
X166223000Y-282251000D03*
X165723000Y-282251000D03*
X165223000Y-282251000D03*
X164723000Y-282251000D03*
X164223000Y-282251000D03*
X163723000Y-282251000D03*
D41*
X162998000Y-282976000D03*
X162998000Y-283476000D03*
X162998000Y-283976000D03*
X162998000Y-284476000D03*
X162998000Y-284976000D03*
X162998000Y-285476000D03*
D40*
X163723000Y-286201000D03*
X164223000Y-286201000D03*
X164723000Y-286201000D03*
X165223000Y-286201000D03*
X165723000Y-286201000D03*
X166223000Y-286201000D03*
D41*
X166948000Y-285476000D03*
X166948000Y-284976000D03*
X166948000Y-284476000D03*
X166948000Y-283976000D03*
X166948000Y-283476000D03*
X166948000Y-282976000D03*
D42*
X164973000Y-284226000D03*
D14*
X174511000Y-257175176D03*
X172961000Y-257175176D03*
D16*
X168389000Y-227561650D03*
X169939000Y-227561650D03*
D43*
X182767000Y-228117000D03*
X180467000Y-228117000D03*
D44*
X180467000Y-234417000D03*
D43*
X178167000Y-228117000D03*
D11*
X185611000Y-258318000D03*
X187261000Y-258318000D03*
D14*
X161150499Y-278765000D03*
X159600499Y-278765000D03*
D13*
X159587999Y-274193000D03*
X161162999Y-274193000D03*
D23*
X161200499Y-283337000D03*
X159550499Y-283337000D03*
X178929800Y-264871200D03*
X177279800Y-264871200D03*
D18*
X189169000Y-251064000D03*
X189169000Y-251714000D03*
X189169000Y-252364000D03*
X191069000Y-252364000D03*
X191069000Y-251064000D03*
D13*
X193268500Y-244348000D03*
X194843500Y-244348000D03*
D11*
X189929000Y-284988000D03*
X191579000Y-284988000D03*
D13*
X193268500Y-259080000D03*
X194843500Y-259080000D03*
D11*
X159550499Y-275717000D03*
X161200499Y-275717000D03*
D18*
X189169000Y-254620000D03*
X189169000Y-255270000D03*
X189169000Y-255920000D03*
X191069000Y-255920000D03*
X191069000Y-254620000D03*
D11*
X159550499Y-286385000D03*
X161200499Y-286385000D03*
D14*
X161150499Y-280289000D03*
X159600499Y-280289000D03*
X161176000Y-240284000D03*
X159626000Y-240284000D03*
D13*
X193268500Y-255270000D03*
X194843500Y-255270000D03*
D11*
X159550499Y-284861000D03*
X161200499Y-284861000D03*
D14*
X199403000Y-275590000D03*
X197853000Y-275590000D03*
D16*
X168389000Y-257175000D03*
X169939000Y-257175000D03*
D14*
X187211000Y-263398000D03*
X185661000Y-263398000D03*
D20*
X171069000Y-223988000D03*
X171069000Y-218988000D03*
D17*
X154175000Y-273177000D03*
X156975000Y-273177000D03*
D11*
X164402000Y-289712400D03*
X166052000Y-289712400D03*
D14*
X169939000Y-234823000D03*
X168389000Y-234823000D03*
D45*
X189480599Y-266054799D03*
X189480599Y-267004800D03*
X189480599Y-267954798D03*
X192230599Y-267954798D03*
X192230599Y-266054799D03*
D14*
X166002000Y-218694000D03*
X164452000Y-218694000D03*
D46*
X164577000Y-261808000D03*
X165227000Y-261808000D03*
X165877000Y-261808000D03*
X165877000Y-259908000D03*
X165227000Y-259908000D03*
X164577000Y-259908000D03*
D12*
X177865000Y-244221000D03*
X177865000Y-245491000D03*
X177865000Y-246761000D03*
X177865000Y-248031000D03*
X182815000Y-248031000D03*
X182815000Y-246761000D03*
X182815000Y-245491000D03*
X182815000Y-244221000D03*
X177865000Y-251587000D03*
X177865000Y-252857000D03*
X177865000Y-254127000D03*
X177865000Y-255397000D03*
X182815000Y-255397000D03*
X182815000Y-254127000D03*
X182815000Y-252857000D03*
X182815000Y-251587000D03*
D13*
X154152500Y-238506000D03*
X155727500Y-238506000D03*
D12*
X168975000Y-244221000D03*
X168975000Y-245491000D03*
X168975000Y-246761000D03*
X168975000Y-248031000D03*
X173925000Y-248031000D03*
X173925000Y-246761000D03*
X173925000Y-245491000D03*
X173925000Y-244221000D03*
D22*
X160147000Y-217932000D03*
D14*
X169939000Y-242316000D03*
X168389000Y-242316000D03*
D12*
X168975000Y-251587000D03*
X168975000Y-252857000D03*
X168975000Y-254127000D03*
X168975000Y-255397000D03*
X173925000Y-255397000D03*
X173925000Y-254127000D03*
X173925000Y-252857000D03*
X173925000Y-251587000D03*
D14*
X174511000Y-234823000D03*
X172961000Y-234823000D03*
D15*
X164337999Y-268980500D03*
X166237999Y-268980500D03*
X165287999Y-266705500D03*
D16*
X181851000Y-257175176D03*
X183401000Y-257175176D03*
D14*
X166002000Y-240284000D03*
X164452000Y-240284000D03*
X174511000Y-242317668D03*
X172961000Y-242317668D03*
D47*
X165923001Y-242083999D03*
X164973000Y-242083999D03*
X164023002Y-242083999D03*
X164023002Y-244833999D03*
X165923001Y-244833999D03*
D12*
X168975000Y-229362000D03*
X168975000Y-230632000D03*
X168975000Y-231902000D03*
X168975000Y-233172000D03*
X173925000Y-233172000D03*
X173925000Y-231902000D03*
X173925000Y-230632000D03*
X173925000Y-229362000D03*
D18*
X189169000Y-236078000D03*
X189169000Y-236728000D03*
X189169000Y-237378000D03*
X191069000Y-237378000D03*
X191069000Y-236078000D03*
D11*
X164386799Y-272948400D03*
X166036799Y-272948400D03*
D48*
X166014500Y-252730000D03*
X164439500Y-252730000D03*
D49*
X179879000Y-220091000D03*
X176229000Y-220091000D03*
D23*
X178918205Y-249802327D03*
X177268205Y-249802327D03*
D13*
X193268500Y-240284000D03*
X194843500Y-240284000D03*
D14*
X187211000Y-265938000D03*
X185661000Y-265938000D03*
D21*
X200764000Y-247401000D03*
D22*
X200764000Y-244861000D03*
D18*
X189169000Y-243698000D03*
X189169000Y-244348000D03*
X189169000Y-244998000D03*
X191069000Y-244998000D03*
X191069000Y-243698000D03*
D23*
X183425600Y-264845800D03*
X181775600Y-264845800D03*
D11*
X193231000Y-238506000D03*
X194881000Y-238506000D03*
M02*
