%TF.GenerationSoftware,KiCad,Pcbnew,8.0.8*%
%TF.CreationDate,2025-01-21T11:13:42-05:00*%
%TF.ProjectId,_HW_ESP32-IsoLink,5f48575f-4553-4503-9332-2d49736f4c69,rev?*%
%TF.SameCoordinates,Original*%
%TF.FileFunction,Drillmap*%
%TF.FilePolarity,Positive*%
%FSLAX45Y45*%
G04 Gerber Fmt 4.5, Leading zero omitted, Abs format (unit mm)*
G04 Created by KiCad (PCBNEW 8.0.8) date 2025-01-21 11:13:42*
%MOMM*%
%LPD*%
G01*
G04 APERTURE LIST*
%ADD10C,0.050000*%
%ADD11C,0.200000*%
%ADD12C,0.130000*%
%ADD13C,0.320000*%
G04 APERTURE END LIST*
D10*
X20242220Y-28796660D02*
G75*
G02*
X19942220Y-29096660I-300000J0D01*
G01*
X15542220Y-29096660D02*
G75*
G02*
X15242220Y-28796660I0J300000D01*
G01*
X15542220Y-21596660D02*
X19942220Y-21596660D01*
X15242220Y-28796660D02*
X15242220Y-21896660D01*
X19942220Y-21596660D02*
G75*
G02*
X20242220Y-21896660I0J-300000D01*
G01*
X20242220Y-21896660D02*
X20242220Y-28796660D01*
X15242220Y-21896660D02*
G75*
G02*
X15542220Y-21596660I300000J0D01*
G01*
X19942220Y-29096660D02*
X15542220Y-29096660D01*
D11*
D12*
X15492500Y-25304900D02*
X15622500Y-25434900D01*
X15622500Y-25304900D02*
X15492500Y-25434900D01*
X15492500Y-25804900D02*
X15622500Y-25934900D01*
X15622500Y-25804900D02*
X15492500Y-25934900D01*
D13*
X15702220Y-21896660D02*
G75*
G02*
X15382220Y-21896660I-160000J0D01*
G01*
X15382220Y-21896660D02*
G75*
G02*
X15702220Y-21896660I160000J0D01*
G01*
X15702220Y-28796660D02*
G75*
G02*
X15382220Y-28796660I-160000J0D01*
G01*
X15382220Y-28796660D02*
G75*
G02*
X15702220Y-28796660I160000J0D01*
G01*
X20102220Y-21896660D02*
G75*
G02*
X19782220Y-21896660I-160000J0D01*
G01*
X19782220Y-21896660D02*
G75*
G02*
X20102220Y-21896660I160000J0D01*
G01*
X20102220Y-28796660D02*
G75*
G02*
X19782220Y-28796660I-160000J0D01*
G01*
X19782220Y-28796660D02*
G75*
G02*
X20102220Y-28796660I160000J0D01*
G01*
D11*
X15500497Y-29410644D02*
X15500497Y-29210644D01*
X15500497Y-29210644D02*
X15548116Y-29210644D01*
X15548116Y-29210644D02*
X15576687Y-29220168D01*
X15576687Y-29220168D02*
X15595735Y-29239215D01*
X15595735Y-29239215D02*
X15605259Y-29258263D01*
X15605259Y-29258263D02*
X15614782Y-29296358D01*
X15614782Y-29296358D02*
X15614782Y-29324929D01*
X15614782Y-29324929D02*
X15605259Y-29363025D01*
X15605259Y-29363025D02*
X15595735Y-29382072D01*
X15595735Y-29382072D02*
X15576687Y-29401120D01*
X15576687Y-29401120D02*
X15548116Y-29410644D01*
X15548116Y-29410644D02*
X15500497Y-29410644D01*
X15700497Y-29410644D02*
X15700497Y-29277310D01*
X15700497Y-29315406D02*
X15710021Y-29296358D01*
X15710021Y-29296358D02*
X15719544Y-29286834D01*
X15719544Y-29286834D02*
X15738592Y-29277310D01*
X15738592Y-29277310D02*
X15757640Y-29277310D01*
X15824306Y-29410644D02*
X15824306Y-29277310D01*
X15824306Y-29210644D02*
X15814782Y-29220168D01*
X15814782Y-29220168D02*
X15824306Y-29229691D01*
X15824306Y-29229691D02*
X15833830Y-29220168D01*
X15833830Y-29220168D02*
X15824306Y-29210644D01*
X15824306Y-29210644D02*
X15824306Y-29229691D01*
X15948116Y-29410644D02*
X15929068Y-29401120D01*
X15929068Y-29401120D02*
X15919544Y-29382072D01*
X15919544Y-29382072D02*
X15919544Y-29210644D01*
X16052878Y-29410644D02*
X16033830Y-29401120D01*
X16033830Y-29401120D02*
X16024306Y-29382072D01*
X16024306Y-29382072D02*
X16024306Y-29210644D01*
X16281449Y-29410644D02*
X16281449Y-29210644D01*
X16281449Y-29210644D02*
X16348116Y-29353501D01*
X16348116Y-29353501D02*
X16414782Y-29210644D01*
X16414782Y-29210644D02*
X16414782Y-29410644D01*
X16595735Y-29410644D02*
X16595735Y-29305882D01*
X16595735Y-29305882D02*
X16586211Y-29286834D01*
X16586211Y-29286834D02*
X16567163Y-29277310D01*
X16567163Y-29277310D02*
X16529068Y-29277310D01*
X16529068Y-29277310D02*
X16510021Y-29286834D01*
X16595735Y-29401120D02*
X16576687Y-29410644D01*
X16576687Y-29410644D02*
X16529068Y-29410644D01*
X16529068Y-29410644D02*
X16510021Y-29401120D01*
X16510021Y-29401120D02*
X16500497Y-29382072D01*
X16500497Y-29382072D02*
X16500497Y-29363025D01*
X16500497Y-29363025D02*
X16510021Y-29343977D01*
X16510021Y-29343977D02*
X16529068Y-29334453D01*
X16529068Y-29334453D02*
X16576687Y-29334453D01*
X16576687Y-29334453D02*
X16595735Y-29324929D01*
X16690973Y-29277310D02*
X16690973Y-29477310D01*
X16690973Y-29286834D02*
X16710021Y-29277310D01*
X16710021Y-29277310D02*
X16748116Y-29277310D01*
X16748116Y-29277310D02*
X16767163Y-29286834D01*
X16767163Y-29286834D02*
X16776687Y-29296358D01*
X16776687Y-29296358D02*
X16786211Y-29315406D01*
X16786211Y-29315406D02*
X16786211Y-29372548D01*
X16786211Y-29372548D02*
X16776687Y-29391596D01*
X16776687Y-29391596D02*
X16767163Y-29401120D01*
X16767163Y-29401120D02*
X16748116Y-29410644D01*
X16748116Y-29410644D02*
X16710021Y-29410644D01*
X16710021Y-29410644D02*
X16690973Y-29401120D01*
X16871925Y-29391596D02*
X16881449Y-29401120D01*
X16881449Y-29401120D02*
X16871925Y-29410644D01*
X16871925Y-29410644D02*
X16862402Y-29401120D01*
X16862402Y-29401120D02*
X16871925Y-29391596D01*
X16871925Y-29391596D02*
X16871925Y-29410644D01*
X16871925Y-29286834D02*
X16881449Y-29296358D01*
X16881449Y-29296358D02*
X16871925Y-29305882D01*
X16871925Y-29305882D02*
X16862402Y-29296358D01*
X16862402Y-29296358D02*
X16871925Y-29286834D01*
X16871925Y-29286834D02*
X16871925Y-29305882D01*
D12*
X15109720Y-29674160D02*
X15239720Y-29804160D01*
X15239720Y-29674160D02*
X15109720Y-29804160D01*
D11*
X15605259Y-29830644D02*
X15490973Y-29830644D01*
X15548116Y-29830644D02*
X15548116Y-29630644D01*
X15548116Y-29630644D02*
X15529068Y-29659215D01*
X15529068Y-29659215D02*
X15510021Y-29678263D01*
X15510021Y-29678263D02*
X15490973Y-29687787D01*
X15690973Y-29811596D02*
X15700497Y-29821120D01*
X15700497Y-29821120D02*
X15690973Y-29830644D01*
X15690973Y-29830644D02*
X15681449Y-29821120D01*
X15681449Y-29821120D02*
X15690973Y-29811596D01*
X15690973Y-29811596D02*
X15690973Y-29830644D01*
X15767163Y-29630644D02*
X15890973Y-29630644D01*
X15890973Y-29630644D02*
X15824306Y-29706834D01*
X15824306Y-29706834D02*
X15852878Y-29706834D01*
X15852878Y-29706834D02*
X15871925Y-29716358D01*
X15871925Y-29716358D02*
X15881449Y-29725882D01*
X15881449Y-29725882D02*
X15890973Y-29744929D01*
X15890973Y-29744929D02*
X15890973Y-29792548D01*
X15890973Y-29792548D02*
X15881449Y-29811596D01*
X15881449Y-29811596D02*
X15871925Y-29821120D01*
X15871925Y-29821120D02*
X15852878Y-29830644D01*
X15852878Y-29830644D02*
X15795735Y-29830644D01*
X15795735Y-29830644D02*
X15776687Y-29821120D01*
X15776687Y-29821120D02*
X15767163Y-29811596D01*
X16014782Y-29630644D02*
X16033830Y-29630644D01*
X16033830Y-29630644D02*
X16052878Y-29640168D01*
X16052878Y-29640168D02*
X16062402Y-29649691D01*
X16062402Y-29649691D02*
X16071925Y-29668739D01*
X16071925Y-29668739D02*
X16081449Y-29706834D01*
X16081449Y-29706834D02*
X16081449Y-29754453D01*
X16081449Y-29754453D02*
X16071925Y-29792548D01*
X16071925Y-29792548D02*
X16062402Y-29811596D01*
X16062402Y-29811596D02*
X16052878Y-29821120D01*
X16052878Y-29821120D02*
X16033830Y-29830644D01*
X16033830Y-29830644D02*
X16014782Y-29830644D01*
X16014782Y-29830644D02*
X15995735Y-29821120D01*
X15995735Y-29821120D02*
X15986211Y-29811596D01*
X15986211Y-29811596D02*
X15976687Y-29792548D01*
X15976687Y-29792548D02*
X15967163Y-29754453D01*
X15967163Y-29754453D02*
X15967163Y-29706834D01*
X15967163Y-29706834D02*
X15976687Y-29668739D01*
X15976687Y-29668739D02*
X15986211Y-29649691D01*
X15986211Y-29649691D02*
X15995735Y-29640168D01*
X15995735Y-29640168D02*
X16014782Y-29630644D01*
X16205259Y-29630644D02*
X16224306Y-29630644D01*
X16224306Y-29630644D02*
X16243354Y-29640168D01*
X16243354Y-29640168D02*
X16252878Y-29649691D01*
X16252878Y-29649691D02*
X16262402Y-29668739D01*
X16262402Y-29668739D02*
X16271925Y-29706834D01*
X16271925Y-29706834D02*
X16271925Y-29754453D01*
X16271925Y-29754453D02*
X16262402Y-29792548D01*
X16262402Y-29792548D02*
X16252878Y-29811596D01*
X16252878Y-29811596D02*
X16243354Y-29821120D01*
X16243354Y-29821120D02*
X16224306Y-29830644D01*
X16224306Y-29830644D02*
X16205259Y-29830644D01*
X16205259Y-29830644D02*
X16186211Y-29821120D01*
X16186211Y-29821120D02*
X16176687Y-29811596D01*
X16176687Y-29811596D02*
X16167163Y-29792548D01*
X16167163Y-29792548D02*
X16157640Y-29754453D01*
X16157640Y-29754453D02*
X16157640Y-29706834D01*
X16157640Y-29706834D02*
X16167163Y-29668739D01*
X16167163Y-29668739D02*
X16176687Y-29649691D01*
X16176687Y-29649691D02*
X16186211Y-29640168D01*
X16186211Y-29640168D02*
X16205259Y-29630644D01*
X16357640Y-29830644D02*
X16357640Y-29697310D01*
X16357640Y-29716358D02*
X16367163Y-29706834D01*
X16367163Y-29706834D02*
X16386211Y-29697310D01*
X16386211Y-29697310D02*
X16414783Y-29697310D01*
X16414783Y-29697310D02*
X16433830Y-29706834D01*
X16433830Y-29706834D02*
X16443354Y-29725882D01*
X16443354Y-29725882D02*
X16443354Y-29830644D01*
X16443354Y-29725882D02*
X16452878Y-29706834D01*
X16452878Y-29706834D02*
X16471925Y-29697310D01*
X16471925Y-29697310D02*
X16500497Y-29697310D01*
X16500497Y-29697310D02*
X16519544Y-29706834D01*
X16519544Y-29706834D02*
X16529068Y-29725882D01*
X16529068Y-29725882D02*
X16529068Y-29830644D01*
X16624306Y-29830644D02*
X16624306Y-29697310D01*
X16624306Y-29716358D02*
X16633830Y-29706834D01*
X16633830Y-29706834D02*
X16652878Y-29697310D01*
X16652878Y-29697310D02*
X16681449Y-29697310D01*
X16681449Y-29697310D02*
X16700497Y-29706834D01*
X16700497Y-29706834D02*
X16710021Y-29725882D01*
X16710021Y-29725882D02*
X16710021Y-29830644D01*
X16710021Y-29725882D02*
X16719544Y-29706834D01*
X16719544Y-29706834D02*
X16738592Y-29697310D01*
X16738592Y-29697310D02*
X16767163Y-29697310D01*
X16767163Y-29697310D02*
X16786211Y-29706834D01*
X16786211Y-29706834D02*
X16795735Y-29725882D01*
X16795735Y-29725882D02*
X16795735Y-29830644D01*
X17186211Y-29621120D02*
X17014783Y-29878263D01*
X17443354Y-29630644D02*
X17462402Y-29630644D01*
X17462402Y-29630644D02*
X17481449Y-29640168D01*
X17481449Y-29640168D02*
X17490973Y-29649691D01*
X17490973Y-29649691D02*
X17500497Y-29668739D01*
X17500497Y-29668739D02*
X17510021Y-29706834D01*
X17510021Y-29706834D02*
X17510021Y-29754453D01*
X17510021Y-29754453D02*
X17500497Y-29792548D01*
X17500497Y-29792548D02*
X17490973Y-29811596D01*
X17490973Y-29811596D02*
X17481449Y-29821120D01*
X17481449Y-29821120D02*
X17462402Y-29830644D01*
X17462402Y-29830644D02*
X17443354Y-29830644D01*
X17443354Y-29830644D02*
X17424307Y-29821120D01*
X17424307Y-29821120D02*
X17414783Y-29811596D01*
X17414783Y-29811596D02*
X17405259Y-29792548D01*
X17405259Y-29792548D02*
X17395735Y-29754453D01*
X17395735Y-29754453D02*
X17395735Y-29706834D01*
X17395735Y-29706834D02*
X17405259Y-29668739D01*
X17405259Y-29668739D02*
X17414783Y-29649691D01*
X17414783Y-29649691D02*
X17424307Y-29640168D01*
X17424307Y-29640168D02*
X17443354Y-29630644D01*
X17595735Y-29811596D02*
X17605259Y-29821120D01*
X17605259Y-29821120D02*
X17595735Y-29830644D01*
X17595735Y-29830644D02*
X17586211Y-29821120D01*
X17586211Y-29821120D02*
X17595735Y-29811596D01*
X17595735Y-29811596D02*
X17595735Y-29830644D01*
X17729068Y-29630644D02*
X17748116Y-29630644D01*
X17748116Y-29630644D02*
X17767164Y-29640168D01*
X17767164Y-29640168D02*
X17776688Y-29649691D01*
X17776688Y-29649691D02*
X17786211Y-29668739D01*
X17786211Y-29668739D02*
X17795735Y-29706834D01*
X17795735Y-29706834D02*
X17795735Y-29754453D01*
X17795735Y-29754453D02*
X17786211Y-29792548D01*
X17786211Y-29792548D02*
X17776688Y-29811596D01*
X17776688Y-29811596D02*
X17767164Y-29821120D01*
X17767164Y-29821120D02*
X17748116Y-29830644D01*
X17748116Y-29830644D02*
X17729068Y-29830644D01*
X17729068Y-29830644D02*
X17710021Y-29821120D01*
X17710021Y-29821120D02*
X17700497Y-29811596D01*
X17700497Y-29811596D02*
X17690973Y-29792548D01*
X17690973Y-29792548D02*
X17681449Y-29754453D01*
X17681449Y-29754453D02*
X17681449Y-29706834D01*
X17681449Y-29706834D02*
X17690973Y-29668739D01*
X17690973Y-29668739D02*
X17700497Y-29649691D01*
X17700497Y-29649691D02*
X17710021Y-29640168D01*
X17710021Y-29640168D02*
X17729068Y-29630644D01*
X17976688Y-29630644D02*
X17881449Y-29630644D01*
X17881449Y-29630644D02*
X17871926Y-29725882D01*
X17871926Y-29725882D02*
X17881449Y-29716358D01*
X17881449Y-29716358D02*
X17900497Y-29706834D01*
X17900497Y-29706834D02*
X17948116Y-29706834D01*
X17948116Y-29706834D02*
X17967164Y-29716358D01*
X17967164Y-29716358D02*
X17976688Y-29725882D01*
X17976688Y-29725882D02*
X17986211Y-29744929D01*
X17986211Y-29744929D02*
X17986211Y-29792548D01*
X17986211Y-29792548D02*
X17976688Y-29811596D01*
X17976688Y-29811596D02*
X17967164Y-29821120D01*
X17967164Y-29821120D02*
X17948116Y-29830644D01*
X17948116Y-29830644D02*
X17900497Y-29830644D01*
X17900497Y-29830644D02*
X17881449Y-29821120D01*
X17881449Y-29821120D02*
X17871926Y-29811596D01*
X18176688Y-29830644D02*
X18062402Y-29830644D01*
X18119545Y-29830644D02*
X18119545Y-29630644D01*
X18119545Y-29630644D02*
X18100497Y-29659215D01*
X18100497Y-29659215D02*
X18081449Y-29678263D01*
X18081449Y-29678263D02*
X18062402Y-29687787D01*
X18252878Y-29649691D02*
X18262402Y-29640168D01*
X18262402Y-29640168D02*
X18281449Y-29630644D01*
X18281449Y-29630644D02*
X18329069Y-29630644D01*
X18329069Y-29630644D02*
X18348116Y-29640168D01*
X18348116Y-29640168D02*
X18357640Y-29649691D01*
X18357640Y-29649691D02*
X18367164Y-29668739D01*
X18367164Y-29668739D02*
X18367164Y-29687787D01*
X18367164Y-29687787D02*
X18357640Y-29716358D01*
X18357640Y-29716358D02*
X18243354Y-29830644D01*
X18243354Y-29830644D02*
X18367164Y-29830644D01*
X18443354Y-29630644D02*
X18443354Y-29668739D01*
X18519545Y-29630644D02*
X18519545Y-29668739D01*
X18814783Y-29906834D02*
X18805259Y-29897310D01*
X18805259Y-29897310D02*
X18786211Y-29868739D01*
X18786211Y-29868739D02*
X18776688Y-29849691D01*
X18776688Y-29849691D02*
X18767164Y-29821120D01*
X18767164Y-29821120D02*
X18757640Y-29773501D01*
X18757640Y-29773501D02*
X18757640Y-29735406D01*
X18757640Y-29735406D02*
X18767164Y-29687787D01*
X18767164Y-29687787D02*
X18776688Y-29659215D01*
X18776688Y-29659215D02*
X18786211Y-29640168D01*
X18786211Y-29640168D02*
X18805259Y-29611596D01*
X18805259Y-29611596D02*
X18814783Y-29602072D01*
X18881450Y-29649691D02*
X18890973Y-29640168D01*
X18890973Y-29640168D02*
X18910021Y-29630644D01*
X18910021Y-29630644D02*
X18957640Y-29630644D01*
X18957640Y-29630644D02*
X18976688Y-29640168D01*
X18976688Y-29640168D02*
X18986211Y-29649691D01*
X18986211Y-29649691D02*
X18995735Y-29668739D01*
X18995735Y-29668739D02*
X18995735Y-29687787D01*
X18995735Y-29687787D02*
X18986211Y-29716358D01*
X18986211Y-29716358D02*
X18871926Y-29830644D01*
X18871926Y-29830644D02*
X18995735Y-29830644D01*
X19233831Y-29830644D02*
X19233831Y-29630644D01*
X19319545Y-29830644D02*
X19319545Y-29725882D01*
X19319545Y-29725882D02*
X19310021Y-29706834D01*
X19310021Y-29706834D02*
X19290973Y-29697310D01*
X19290973Y-29697310D02*
X19262402Y-29697310D01*
X19262402Y-29697310D02*
X19243354Y-29706834D01*
X19243354Y-29706834D02*
X19233831Y-29716358D01*
X19443354Y-29830644D02*
X19424307Y-29821120D01*
X19424307Y-29821120D02*
X19414783Y-29811596D01*
X19414783Y-29811596D02*
X19405259Y-29792548D01*
X19405259Y-29792548D02*
X19405259Y-29735406D01*
X19405259Y-29735406D02*
X19414783Y-29716358D01*
X19414783Y-29716358D02*
X19424307Y-29706834D01*
X19424307Y-29706834D02*
X19443354Y-29697310D01*
X19443354Y-29697310D02*
X19471926Y-29697310D01*
X19471926Y-29697310D02*
X19490973Y-29706834D01*
X19490973Y-29706834D02*
X19500497Y-29716358D01*
X19500497Y-29716358D02*
X19510021Y-29735406D01*
X19510021Y-29735406D02*
X19510021Y-29792548D01*
X19510021Y-29792548D02*
X19500497Y-29811596D01*
X19500497Y-29811596D02*
X19490973Y-29821120D01*
X19490973Y-29821120D02*
X19471926Y-29830644D01*
X19471926Y-29830644D02*
X19443354Y-29830644D01*
X19624307Y-29830644D02*
X19605259Y-29821120D01*
X19605259Y-29821120D02*
X19595735Y-29802072D01*
X19595735Y-29802072D02*
X19595735Y-29630644D01*
X19776688Y-29821120D02*
X19757640Y-29830644D01*
X19757640Y-29830644D02*
X19719545Y-29830644D01*
X19719545Y-29830644D02*
X19700497Y-29821120D01*
X19700497Y-29821120D02*
X19690973Y-29802072D01*
X19690973Y-29802072D02*
X19690973Y-29725882D01*
X19690973Y-29725882D02*
X19700497Y-29706834D01*
X19700497Y-29706834D02*
X19719545Y-29697310D01*
X19719545Y-29697310D02*
X19757640Y-29697310D01*
X19757640Y-29697310D02*
X19776688Y-29706834D01*
X19776688Y-29706834D02*
X19786212Y-29725882D01*
X19786212Y-29725882D02*
X19786212Y-29744929D01*
X19786212Y-29744929D02*
X19690973Y-29763977D01*
X19862402Y-29821120D02*
X19881450Y-29830644D01*
X19881450Y-29830644D02*
X19919545Y-29830644D01*
X19919545Y-29830644D02*
X19938593Y-29821120D01*
X19938593Y-29821120D02*
X19948116Y-29802072D01*
X19948116Y-29802072D02*
X19948116Y-29792548D01*
X19948116Y-29792548D02*
X19938593Y-29773501D01*
X19938593Y-29773501D02*
X19919545Y-29763977D01*
X19919545Y-29763977D02*
X19890973Y-29763977D01*
X19890973Y-29763977D02*
X19871926Y-29754453D01*
X19871926Y-29754453D02*
X19862402Y-29735406D01*
X19862402Y-29735406D02*
X19862402Y-29725882D01*
X19862402Y-29725882D02*
X19871926Y-29706834D01*
X19871926Y-29706834D02*
X19890973Y-29697310D01*
X19890973Y-29697310D02*
X19919545Y-29697310D01*
X19919545Y-29697310D02*
X19938593Y-29706834D01*
X20014783Y-29906834D02*
X20024307Y-29897310D01*
X20024307Y-29897310D02*
X20043354Y-29868739D01*
X20043354Y-29868739D02*
X20052878Y-29849691D01*
X20052878Y-29849691D02*
X20062402Y-29821120D01*
X20062402Y-29821120D02*
X20071926Y-29773501D01*
X20071926Y-29773501D02*
X20071926Y-29735406D01*
X20071926Y-29735406D02*
X20062402Y-29687787D01*
X20062402Y-29687787D02*
X20052878Y-29659215D01*
X20052878Y-29659215D02*
X20043354Y-29640168D01*
X20043354Y-29640168D02*
X20024307Y-29611596D01*
X20024307Y-29611596D02*
X20014783Y-29602072D01*
X20376688Y-29906834D02*
X20367164Y-29897310D01*
X20367164Y-29897310D02*
X20348116Y-29868739D01*
X20348116Y-29868739D02*
X20338593Y-29849691D01*
X20338593Y-29849691D02*
X20329069Y-29821120D01*
X20329069Y-29821120D02*
X20319545Y-29773501D01*
X20319545Y-29773501D02*
X20319545Y-29735406D01*
X20319545Y-29735406D02*
X20329069Y-29687787D01*
X20329069Y-29687787D02*
X20338593Y-29659215D01*
X20338593Y-29659215D02*
X20348116Y-29640168D01*
X20348116Y-29640168D02*
X20367164Y-29611596D01*
X20367164Y-29611596D02*
X20376688Y-29602072D01*
X20452878Y-29697310D02*
X20452878Y-29830644D01*
X20452878Y-29716358D02*
X20462402Y-29706834D01*
X20462402Y-29706834D02*
X20481450Y-29697310D01*
X20481450Y-29697310D02*
X20510021Y-29697310D01*
X20510021Y-29697310D02*
X20529069Y-29706834D01*
X20529069Y-29706834D02*
X20538593Y-29725882D01*
X20538593Y-29725882D02*
X20538593Y-29830644D01*
X20662402Y-29830644D02*
X20643354Y-29821120D01*
X20643354Y-29821120D02*
X20633831Y-29811596D01*
X20633831Y-29811596D02*
X20624307Y-29792548D01*
X20624307Y-29792548D02*
X20624307Y-29735406D01*
X20624307Y-29735406D02*
X20633831Y-29716358D01*
X20633831Y-29716358D02*
X20643354Y-29706834D01*
X20643354Y-29706834D02*
X20662402Y-29697310D01*
X20662402Y-29697310D02*
X20690974Y-29697310D01*
X20690974Y-29697310D02*
X20710021Y-29706834D01*
X20710021Y-29706834D02*
X20719545Y-29716358D01*
X20719545Y-29716358D02*
X20729069Y-29735406D01*
X20729069Y-29735406D02*
X20729069Y-29792548D01*
X20729069Y-29792548D02*
X20719545Y-29811596D01*
X20719545Y-29811596D02*
X20710021Y-29821120D01*
X20710021Y-29821120D02*
X20690974Y-29830644D01*
X20690974Y-29830644D02*
X20662402Y-29830644D01*
X20786212Y-29697310D02*
X20862402Y-29697310D01*
X20814783Y-29630644D02*
X20814783Y-29802072D01*
X20814783Y-29802072D02*
X20824307Y-29821120D01*
X20824307Y-29821120D02*
X20843354Y-29830644D01*
X20843354Y-29830644D02*
X20862402Y-29830644D01*
X21081450Y-29697310D02*
X21081450Y-29897310D01*
X21081450Y-29706834D02*
X21100497Y-29697310D01*
X21100497Y-29697310D02*
X21138593Y-29697310D01*
X21138593Y-29697310D02*
X21157640Y-29706834D01*
X21157640Y-29706834D02*
X21167164Y-29716358D01*
X21167164Y-29716358D02*
X21176688Y-29735406D01*
X21176688Y-29735406D02*
X21176688Y-29792548D01*
X21176688Y-29792548D02*
X21167164Y-29811596D01*
X21167164Y-29811596D02*
X21157640Y-29821120D01*
X21157640Y-29821120D02*
X21138593Y-29830644D01*
X21138593Y-29830644D02*
X21100497Y-29830644D01*
X21100497Y-29830644D02*
X21081450Y-29821120D01*
X21290974Y-29830644D02*
X21271926Y-29821120D01*
X21271926Y-29821120D02*
X21262402Y-29802072D01*
X21262402Y-29802072D02*
X21262402Y-29630644D01*
X21452878Y-29830644D02*
X21452878Y-29725882D01*
X21452878Y-29725882D02*
X21443355Y-29706834D01*
X21443355Y-29706834D02*
X21424307Y-29697310D01*
X21424307Y-29697310D02*
X21386212Y-29697310D01*
X21386212Y-29697310D02*
X21367164Y-29706834D01*
X21452878Y-29821120D02*
X21433831Y-29830644D01*
X21433831Y-29830644D02*
X21386212Y-29830644D01*
X21386212Y-29830644D02*
X21367164Y-29821120D01*
X21367164Y-29821120D02*
X21357640Y-29802072D01*
X21357640Y-29802072D02*
X21357640Y-29783025D01*
X21357640Y-29783025D02*
X21367164Y-29763977D01*
X21367164Y-29763977D02*
X21386212Y-29754453D01*
X21386212Y-29754453D02*
X21433831Y-29754453D01*
X21433831Y-29754453D02*
X21452878Y-29744929D01*
X21519545Y-29697310D02*
X21595735Y-29697310D01*
X21548116Y-29630644D02*
X21548116Y-29802072D01*
X21548116Y-29802072D02*
X21557640Y-29821120D01*
X21557640Y-29821120D02*
X21576688Y-29830644D01*
X21576688Y-29830644D02*
X21595735Y-29830644D01*
X21738593Y-29821120D02*
X21719545Y-29830644D01*
X21719545Y-29830644D02*
X21681450Y-29830644D01*
X21681450Y-29830644D02*
X21662402Y-29821120D01*
X21662402Y-29821120D02*
X21652878Y-29802072D01*
X21652878Y-29802072D02*
X21652878Y-29725882D01*
X21652878Y-29725882D02*
X21662402Y-29706834D01*
X21662402Y-29706834D02*
X21681450Y-29697310D01*
X21681450Y-29697310D02*
X21719545Y-29697310D01*
X21719545Y-29697310D02*
X21738593Y-29706834D01*
X21738593Y-29706834D02*
X21748116Y-29725882D01*
X21748116Y-29725882D02*
X21748116Y-29744929D01*
X21748116Y-29744929D02*
X21652878Y-29763977D01*
X21919545Y-29830644D02*
X21919545Y-29630644D01*
X21919545Y-29821120D02*
X21900497Y-29830644D01*
X21900497Y-29830644D02*
X21862402Y-29830644D01*
X21862402Y-29830644D02*
X21843355Y-29821120D01*
X21843355Y-29821120D02*
X21833831Y-29811596D01*
X21833831Y-29811596D02*
X21824307Y-29792548D01*
X21824307Y-29792548D02*
X21824307Y-29735406D01*
X21824307Y-29735406D02*
X21833831Y-29716358D01*
X21833831Y-29716358D02*
X21843355Y-29706834D01*
X21843355Y-29706834D02*
X21862402Y-29697310D01*
X21862402Y-29697310D02*
X21900497Y-29697310D01*
X21900497Y-29697310D02*
X21919545Y-29706834D01*
X21995736Y-29906834D02*
X22005259Y-29897310D01*
X22005259Y-29897310D02*
X22024307Y-29868739D01*
X22024307Y-29868739D02*
X22033831Y-29849691D01*
X22033831Y-29849691D02*
X22043355Y-29821120D01*
X22043355Y-29821120D02*
X22052878Y-29773501D01*
X22052878Y-29773501D02*
X22052878Y-29735406D01*
X22052878Y-29735406D02*
X22043355Y-29687787D01*
X22043355Y-29687787D02*
X22033831Y-29659215D01*
X22033831Y-29659215D02*
X22024307Y-29640168D01*
X22024307Y-29640168D02*
X22005259Y-29611596D01*
X22005259Y-29611596D02*
X21995736Y-29602072D01*
X15239720Y-30003160D02*
G75*
G02*
X15039720Y-30003160I-100000J0D01*
G01*
X15039720Y-30003160D02*
G75*
G02*
X15239720Y-30003160I100000J0D01*
G01*
X15481449Y-29894644D02*
X15605259Y-29894644D01*
X15605259Y-29894644D02*
X15538592Y-29970834D01*
X15538592Y-29970834D02*
X15567163Y-29970834D01*
X15567163Y-29970834D02*
X15586211Y-29980358D01*
X15586211Y-29980358D02*
X15595735Y-29989882D01*
X15595735Y-29989882D02*
X15605259Y-30008929D01*
X15605259Y-30008929D02*
X15605259Y-30056548D01*
X15605259Y-30056548D02*
X15595735Y-30075596D01*
X15595735Y-30075596D02*
X15586211Y-30085120D01*
X15586211Y-30085120D02*
X15567163Y-30094644D01*
X15567163Y-30094644D02*
X15510021Y-30094644D01*
X15510021Y-30094644D02*
X15490973Y-30085120D01*
X15490973Y-30085120D02*
X15481449Y-30075596D01*
X15690973Y-30075596D02*
X15700497Y-30085120D01*
X15700497Y-30085120D02*
X15690973Y-30094644D01*
X15690973Y-30094644D02*
X15681449Y-30085120D01*
X15681449Y-30085120D02*
X15690973Y-30075596D01*
X15690973Y-30075596D02*
X15690973Y-30094644D01*
X15776687Y-29913691D02*
X15786211Y-29904168D01*
X15786211Y-29904168D02*
X15805259Y-29894644D01*
X15805259Y-29894644D02*
X15852878Y-29894644D01*
X15852878Y-29894644D02*
X15871925Y-29904168D01*
X15871925Y-29904168D02*
X15881449Y-29913691D01*
X15881449Y-29913691D02*
X15890973Y-29932739D01*
X15890973Y-29932739D02*
X15890973Y-29951787D01*
X15890973Y-29951787D02*
X15881449Y-29980358D01*
X15881449Y-29980358D02*
X15767163Y-30094644D01*
X15767163Y-30094644D02*
X15890973Y-30094644D01*
X16014782Y-29894644D02*
X16033830Y-29894644D01*
X16033830Y-29894644D02*
X16052878Y-29904168D01*
X16052878Y-29904168D02*
X16062402Y-29913691D01*
X16062402Y-29913691D02*
X16071925Y-29932739D01*
X16071925Y-29932739D02*
X16081449Y-29970834D01*
X16081449Y-29970834D02*
X16081449Y-30018453D01*
X16081449Y-30018453D02*
X16071925Y-30056548D01*
X16071925Y-30056548D02*
X16062402Y-30075596D01*
X16062402Y-30075596D02*
X16052878Y-30085120D01*
X16052878Y-30085120D02*
X16033830Y-30094644D01*
X16033830Y-30094644D02*
X16014782Y-30094644D01*
X16014782Y-30094644D02*
X15995735Y-30085120D01*
X15995735Y-30085120D02*
X15986211Y-30075596D01*
X15986211Y-30075596D02*
X15976687Y-30056548D01*
X15976687Y-30056548D02*
X15967163Y-30018453D01*
X15967163Y-30018453D02*
X15967163Y-29970834D01*
X15967163Y-29970834D02*
X15976687Y-29932739D01*
X15976687Y-29932739D02*
X15986211Y-29913691D01*
X15986211Y-29913691D02*
X15995735Y-29904168D01*
X15995735Y-29904168D02*
X16014782Y-29894644D01*
X16205259Y-29894644D02*
X16224306Y-29894644D01*
X16224306Y-29894644D02*
X16243354Y-29904168D01*
X16243354Y-29904168D02*
X16252878Y-29913691D01*
X16252878Y-29913691D02*
X16262402Y-29932739D01*
X16262402Y-29932739D02*
X16271925Y-29970834D01*
X16271925Y-29970834D02*
X16271925Y-30018453D01*
X16271925Y-30018453D02*
X16262402Y-30056548D01*
X16262402Y-30056548D02*
X16252878Y-30075596D01*
X16252878Y-30075596D02*
X16243354Y-30085120D01*
X16243354Y-30085120D02*
X16224306Y-30094644D01*
X16224306Y-30094644D02*
X16205259Y-30094644D01*
X16205259Y-30094644D02*
X16186211Y-30085120D01*
X16186211Y-30085120D02*
X16176687Y-30075596D01*
X16176687Y-30075596D02*
X16167163Y-30056548D01*
X16167163Y-30056548D02*
X16157640Y-30018453D01*
X16157640Y-30018453D02*
X16157640Y-29970834D01*
X16157640Y-29970834D02*
X16167163Y-29932739D01*
X16167163Y-29932739D02*
X16176687Y-29913691D01*
X16176687Y-29913691D02*
X16186211Y-29904168D01*
X16186211Y-29904168D02*
X16205259Y-29894644D01*
X16357640Y-30094644D02*
X16357640Y-29961310D01*
X16357640Y-29980358D02*
X16367163Y-29970834D01*
X16367163Y-29970834D02*
X16386211Y-29961310D01*
X16386211Y-29961310D02*
X16414783Y-29961310D01*
X16414783Y-29961310D02*
X16433830Y-29970834D01*
X16433830Y-29970834D02*
X16443354Y-29989882D01*
X16443354Y-29989882D02*
X16443354Y-30094644D01*
X16443354Y-29989882D02*
X16452878Y-29970834D01*
X16452878Y-29970834D02*
X16471925Y-29961310D01*
X16471925Y-29961310D02*
X16500497Y-29961310D01*
X16500497Y-29961310D02*
X16519544Y-29970834D01*
X16519544Y-29970834D02*
X16529068Y-29989882D01*
X16529068Y-29989882D02*
X16529068Y-30094644D01*
X16624306Y-30094644D02*
X16624306Y-29961310D01*
X16624306Y-29980358D02*
X16633830Y-29970834D01*
X16633830Y-29970834D02*
X16652878Y-29961310D01*
X16652878Y-29961310D02*
X16681449Y-29961310D01*
X16681449Y-29961310D02*
X16700497Y-29970834D01*
X16700497Y-29970834D02*
X16710021Y-29989882D01*
X16710021Y-29989882D02*
X16710021Y-30094644D01*
X16710021Y-29989882D02*
X16719544Y-29970834D01*
X16719544Y-29970834D02*
X16738592Y-29961310D01*
X16738592Y-29961310D02*
X16767163Y-29961310D01*
X16767163Y-29961310D02*
X16786211Y-29970834D01*
X16786211Y-29970834D02*
X16795735Y-29989882D01*
X16795735Y-29989882D02*
X16795735Y-30094644D01*
X17186211Y-29885120D02*
X17014783Y-30142263D01*
X17443354Y-29894644D02*
X17462402Y-29894644D01*
X17462402Y-29894644D02*
X17481449Y-29904168D01*
X17481449Y-29904168D02*
X17490973Y-29913691D01*
X17490973Y-29913691D02*
X17500497Y-29932739D01*
X17500497Y-29932739D02*
X17510021Y-29970834D01*
X17510021Y-29970834D02*
X17510021Y-30018453D01*
X17510021Y-30018453D02*
X17500497Y-30056548D01*
X17500497Y-30056548D02*
X17490973Y-30075596D01*
X17490973Y-30075596D02*
X17481449Y-30085120D01*
X17481449Y-30085120D02*
X17462402Y-30094644D01*
X17462402Y-30094644D02*
X17443354Y-30094644D01*
X17443354Y-30094644D02*
X17424307Y-30085120D01*
X17424307Y-30085120D02*
X17414783Y-30075596D01*
X17414783Y-30075596D02*
X17405259Y-30056548D01*
X17405259Y-30056548D02*
X17395735Y-30018453D01*
X17395735Y-30018453D02*
X17395735Y-29970834D01*
X17395735Y-29970834D02*
X17405259Y-29932739D01*
X17405259Y-29932739D02*
X17414783Y-29913691D01*
X17414783Y-29913691D02*
X17424307Y-29904168D01*
X17424307Y-29904168D02*
X17443354Y-29894644D01*
X17595735Y-30075596D02*
X17605259Y-30085120D01*
X17605259Y-30085120D02*
X17595735Y-30094644D01*
X17595735Y-30094644D02*
X17586211Y-30085120D01*
X17586211Y-30085120D02*
X17595735Y-30075596D01*
X17595735Y-30075596D02*
X17595735Y-30094644D01*
X17795735Y-30094644D02*
X17681449Y-30094644D01*
X17738592Y-30094644D02*
X17738592Y-29894644D01*
X17738592Y-29894644D02*
X17719545Y-29923215D01*
X17719545Y-29923215D02*
X17700497Y-29942263D01*
X17700497Y-29942263D02*
X17681449Y-29951787D01*
X17871926Y-29913691D02*
X17881449Y-29904168D01*
X17881449Y-29904168D02*
X17900497Y-29894644D01*
X17900497Y-29894644D02*
X17948116Y-29894644D01*
X17948116Y-29894644D02*
X17967164Y-29904168D01*
X17967164Y-29904168D02*
X17976688Y-29913691D01*
X17976688Y-29913691D02*
X17986211Y-29932739D01*
X17986211Y-29932739D02*
X17986211Y-29951787D01*
X17986211Y-29951787D02*
X17976688Y-29980358D01*
X17976688Y-29980358D02*
X17862402Y-30094644D01*
X17862402Y-30094644D02*
X17986211Y-30094644D01*
X18157640Y-29894644D02*
X18119545Y-29894644D01*
X18119545Y-29894644D02*
X18100497Y-29904168D01*
X18100497Y-29904168D02*
X18090973Y-29913691D01*
X18090973Y-29913691D02*
X18071926Y-29942263D01*
X18071926Y-29942263D02*
X18062402Y-29980358D01*
X18062402Y-29980358D02*
X18062402Y-30056548D01*
X18062402Y-30056548D02*
X18071926Y-30075596D01*
X18071926Y-30075596D02*
X18081449Y-30085120D01*
X18081449Y-30085120D02*
X18100497Y-30094644D01*
X18100497Y-30094644D02*
X18138592Y-30094644D01*
X18138592Y-30094644D02*
X18157640Y-30085120D01*
X18157640Y-30085120D02*
X18167164Y-30075596D01*
X18167164Y-30075596D02*
X18176688Y-30056548D01*
X18176688Y-30056548D02*
X18176688Y-30008929D01*
X18176688Y-30008929D02*
X18167164Y-29989882D01*
X18167164Y-29989882D02*
X18157640Y-29980358D01*
X18157640Y-29980358D02*
X18138592Y-29970834D01*
X18138592Y-29970834D02*
X18100497Y-29970834D01*
X18100497Y-29970834D02*
X18081449Y-29980358D01*
X18081449Y-29980358D02*
X18071926Y-29989882D01*
X18071926Y-29989882D02*
X18062402Y-30008929D01*
X18300497Y-29894644D02*
X18319545Y-29894644D01*
X18319545Y-29894644D02*
X18338592Y-29904168D01*
X18338592Y-29904168D02*
X18348116Y-29913691D01*
X18348116Y-29913691D02*
X18357640Y-29932739D01*
X18357640Y-29932739D02*
X18367164Y-29970834D01*
X18367164Y-29970834D02*
X18367164Y-30018453D01*
X18367164Y-30018453D02*
X18357640Y-30056548D01*
X18357640Y-30056548D02*
X18348116Y-30075596D01*
X18348116Y-30075596D02*
X18338592Y-30085120D01*
X18338592Y-30085120D02*
X18319545Y-30094644D01*
X18319545Y-30094644D02*
X18300497Y-30094644D01*
X18300497Y-30094644D02*
X18281449Y-30085120D01*
X18281449Y-30085120D02*
X18271926Y-30075596D01*
X18271926Y-30075596D02*
X18262402Y-30056548D01*
X18262402Y-30056548D02*
X18252878Y-30018453D01*
X18252878Y-30018453D02*
X18252878Y-29970834D01*
X18252878Y-29970834D02*
X18262402Y-29932739D01*
X18262402Y-29932739D02*
X18271926Y-29913691D01*
X18271926Y-29913691D02*
X18281449Y-29904168D01*
X18281449Y-29904168D02*
X18300497Y-29894644D01*
X18443354Y-29894644D02*
X18443354Y-29932739D01*
X18519545Y-29894644D02*
X18519545Y-29932739D01*
X18814783Y-30170834D02*
X18805259Y-30161310D01*
X18805259Y-30161310D02*
X18786211Y-30132739D01*
X18786211Y-30132739D02*
X18776688Y-30113691D01*
X18776688Y-30113691D02*
X18767164Y-30085120D01*
X18767164Y-30085120D02*
X18757640Y-30037501D01*
X18757640Y-30037501D02*
X18757640Y-29999406D01*
X18757640Y-29999406D02*
X18767164Y-29951787D01*
X18767164Y-29951787D02*
X18776688Y-29923215D01*
X18776688Y-29923215D02*
X18786211Y-29904168D01*
X18786211Y-29904168D02*
X18805259Y-29875596D01*
X18805259Y-29875596D02*
X18814783Y-29866072D01*
X18976688Y-29961310D02*
X18976688Y-30094644D01*
X18929069Y-29885120D02*
X18881450Y-30027977D01*
X18881450Y-30027977D02*
X19005259Y-30027977D01*
X19233831Y-30094644D02*
X19233831Y-29894644D01*
X19319545Y-30094644D02*
X19319545Y-29989882D01*
X19319545Y-29989882D02*
X19310021Y-29970834D01*
X19310021Y-29970834D02*
X19290973Y-29961310D01*
X19290973Y-29961310D02*
X19262402Y-29961310D01*
X19262402Y-29961310D02*
X19243354Y-29970834D01*
X19243354Y-29970834D02*
X19233831Y-29980358D01*
X19443354Y-30094644D02*
X19424307Y-30085120D01*
X19424307Y-30085120D02*
X19414783Y-30075596D01*
X19414783Y-30075596D02*
X19405259Y-30056548D01*
X19405259Y-30056548D02*
X19405259Y-29999406D01*
X19405259Y-29999406D02*
X19414783Y-29980358D01*
X19414783Y-29980358D02*
X19424307Y-29970834D01*
X19424307Y-29970834D02*
X19443354Y-29961310D01*
X19443354Y-29961310D02*
X19471926Y-29961310D01*
X19471926Y-29961310D02*
X19490973Y-29970834D01*
X19490973Y-29970834D02*
X19500497Y-29980358D01*
X19500497Y-29980358D02*
X19510021Y-29999406D01*
X19510021Y-29999406D02*
X19510021Y-30056548D01*
X19510021Y-30056548D02*
X19500497Y-30075596D01*
X19500497Y-30075596D02*
X19490973Y-30085120D01*
X19490973Y-30085120D02*
X19471926Y-30094644D01*
X19471926Y-30094644D02*
X19443354Y-30094644D01*
X19624307Y-30094644D02*
X19605259Y-30085120D01*
X19605259Y-30085120D02*
X19595735Y-30066072D01*
X19595735Y-30066072D02*
X19595735Y-29894644D01*
X19776688Y-30085120D02*
X19757640Y-30094644D01*
X19757640Y-30094644D02*
X19719545Y-30094644D01*
X19719545Y-30094644D02*
X19700497Y-30085120D01*
X19700497Y-30085120D02*
X19690973Y-30066072D01*
X19690973Y-30066072D02*
X19690973Y-29989882D01*
X19690973Y-29989882D02*
X19700497Y-29970834D01*
X19700497Y-29970834D02*
X19719545Y-29961310D01*
X19719545Y-29961310D02*
X19757640Y-29961310D01*
X19757640Y-29961310D02*
X19776688Y-29970834D01*
X19776688Y-29970834D02*
X19786212Y-29989882D01*
X19786212Y-29989882D02*
X19786212Y-30008929D01*
X19786212Y-30008929D02*
X19690973Y-30027977D01*
X19862402Y-30085120D02*
X19881450Y-30094644D01*
X19881450Y-30094644D02*
X19919545Y-30094644D01*
X19919545Y-30094644D02*
X19938593Y-30085120D01*
X19938593Y-30085120D02*
X19948116Y-30066072D01*
X19948116Y-30066072D02*
X19948116Y-30056548D01*
X19948116Y-30056548D02*
X19938593Y-30037501D01*
X19938593Y-30037501D02*
X19919545Y-30027977D01*
X19919545Y-30027977D02*
X19890973Y-30027977D01*
X19890973Y-30027977D02*
X19871926Y-30018453D01*
X19871926Y-30018453D02*
X19862402Y-29999406D01*
X19862402Y-29999406D02*
X19862402Y-29989882D01*
X19862402Y-29989882D02*
X19871926Y-29970834D01*
X19871926Y-29970834D02*
X19890973Y-29961310D01*
X19890973Y-29961310D02*
X19919545Y-29961310D01*
X19919545Y-29961310D02*
X19938593Y-29970834D01*
X20014783Y-30170834D02*
X20024307Y-30161310D01*
X20024307Y-30161310D02*
X20043354Y-30132739D01*
X20043354Y-30132739D02*
X20052878Y-30113691D01*
X20052878Y-30113691D02*
X20062402Y-30085120D01*
X20062402Y-30085120D02*
X20071926Y-30037501D01*
X20071926Y-30037501D02*
X20071926Y-29999406D01*
X20071926Y-29999406D02*
X20062402Y-29951787D01*
X20062402Y-29951787D02*
X20052878Y-29923215D01*
X20052878Y-29923215D02*
X20043354Y-29904168D01*
X20043354Y-29904168D02*
X20024307Y-29875596D01*
X20024307Y-29875596D02*
X20014783Y-29866072D01*
X20376688Y-30170834D02*
X20367164Y-30161310D01*
X20367164Y-30161310D02*
X20348116Y-30132739D01*
X20348116Y-30132739D02*
X20338593Y-30113691D01*
X20338593Y-30113691D02*
X20329069Y-30085120D01*
X20329069Y-30085120D02*
X20319545Y-30037501D01*
X20319545Y-30037501D02*
X20319545Y-29999406D01*
X20319545Y-29999406D02*
X20329069Y-29951787D01*
X20329069Y-29951787D02*
X20338593Y-29923215D01*
X20338593Y-29923215D02*
X20348116Y-29904168D01*
X20348116Y-29904168D02*
X20367164Y-29875596D01*
X20367164Y-29875596D02*
X20376688Y-29866072D01*
X20452878Y-29961310D02*
X20452878Y-30094644D01*
X20452878Y-29980358D02*
X20462402Y-29970834D01*
X20462402Y-29970834D02*
X20481450Y-29961310D01*
X20481450Y-29961310D02*
X20510021Y-29961310D01*
X20510021Y-29961310D02*
X20529069Y-29970834D01*
X20529069Y-29970834D02*
X20538593Y-29989882D01*
X20538593Y-29989882D02*
X20538593Y-30094644D01*
X20662402Y-30094644D02*
X20643354Y-30085120D01*
X20643354Y-30085120D02*
X20633831Y-30075596D01*
X20633831Y-30075596D02*
X20624307Y-30056548D01*
X20624307Y-30056548D02*
X20624307Y-29999406D01*
X20624307Y-29999406D02*
X20633831Y-29980358D01*
X20633831Y-29980358D02*
X20643354Y-29970834D01*
X20643354Y-29970834D02*
X20662402Y-29961310D01*
X20662402Y-29961310D02*
X20690974Y-29961310D01*
X20690974Y-29961310D02*
X20710021Y-29970834D01*
X20710021Y-29970834D02*
X20719545Y-29980358D01*
X20719545Y-29980358D02*
X20729069Y-29999406D01*
X20729069Y-29999406D02*
X20729069Y-30056548D01*
X20729069Y-30056548D02*
X20719545Y-30075596D01*
X20719545Y-30075596D02*
X20710021Y-30085120D01*
X20710021Y-30085120D02*
X20690974Y-30094644D01*
X20690974Y-30094644D02*
X20662402Y-30094644D01*
X20786212Y-29961310D02*
X20862402Y-29961310D01*
X20814783Y-29894644D02*
X20814783Y-30066072D01*
X20814783Y-30066072D02*
X20824307Y-30085120D01*
X20824307Y-30085120D02*
X20843354Y-30094644D01*
X20843354Y-30094644D02*
X20862402Y-30094644D01*
X21081450Y-29961310D02*
X21081450Y-30161310D01*
X21081450Y-29970834D02*
X21100497Y-29961310D01*
X21100497Y-29961310D02*
X21138593Y-29961310D01*
X21138593Y-29961310D02*
X21157640Y-29970834D01*
X21157640Y-29970834D02*
X21167164Y-29980358D01*
X21167164Y-29980358D02*
X21176688Y-29999406D01*
X21176688Y-29999406D02*
X21176688Y-30056548D01*
X21176688Y-30056548D02*
X21167164Y-30075596D01*
X21167164Y-30075596D02*
X21157640Y-30085120D01*
X21157640Y-30085120D02*
X21138593Y-30094644D01*
X21138593Y-30094644D02*
X21100497Y-30094644D01*
X21100497Y-30094644D02*
X21081450Y-30085120D01*
X21290974Y-30094644D02*
X21271926Y-30085120D01*
X21271926Y-30085120D02*
X21262402Y-30066072D01*
X21262402Y-30066072D02*
X21262402Y-29894644D01*
X21452878Y-30094644D02*
X21452878Y-29989882D01*
X21452878Y-29989882D02*
X21443355Y-29970834D01*
X21443355Y-29970834D02*
X21424307Y-29961310D01*
X21424307Y-29961310D02*
X21386212Y-29961310D01*
X21386212Y-29961310D02*
X21367164Y-29970834D01*
X21452878Y-30085120D02*
X21433831Y-30094644D01*
X21433831Y-30094644D02*
X21386212Y-30094644D01*
X21386212Y-30094644D02*
X21367164Y-30085120D01*
X21367164Y-30085120D02*
X21357640Y-30066072D01*
X21357640Y-30066072D02*
X21357640Y-30047025D01*
X21357640Y-30047025D02*
X21367164Y-30027977D01*
X21367164Y-30027977D02*
X21386212Y-30018453D01*
X21386212Y-30018453D02*
X21433831Y-30018453D01*
X21433831Y-30018453D02*
X21452878Y-30008929D01*
X21519545Y-29961310D02*
X21595735Y-29961310D01*
X21548116Y-29894644D02*
X21548116Y-30066072D01*
X21548116Y-30066072D02*
X21557640Y-30085120D01*
X21557640Y-30085120D02*
X21576688Y-30094644D01*
X21576688Y-30094644D02*
X21595735Y-30094644D01*
X21738593Y-30085120D02*
X21719545Y-30094644D01*
X21719545Y-30094644D02*
X21681450Y-30094644D01*
X21681450Y-30094644D02*
X21662402Y-30085120D01*
X21662402Y-30085120D02*
X21652878Y-30066072D01*
X21652878Y-30066072D02*
X21652878Y-29989882D01*
X21652878Y-29989882D02*
X21662402Y-29970834D01*
X21662402Y-29970834D02*
X21681450Y-29961310D01*
X21681450Y-29961310D02*
X21719545Y-29961310D01*
X21719545Y-29961310D02*
X21738593Y-29970834D01*
X21738593Y-29970834D02*
X21748116Y-29989882D01*
X21748116Y-29989882D02*
X21748116Y-30008929D01*
X21748116Y-30008929D02*
X21652878Y-30027977D01*
X21919545Y-30094644D02*
X21919545Y-29894644D01*
X21919545Y-30085120D02*
X21900497Y-30094644D01*
X21900497Y-30094644D02*
X21862402Y-30094644D01*
X21862402Y-30094644D02*
X21843355Y-30085120D01*
X21843355Y-30085120D02*
X21833831Y-30075596D01*
X21833831Y-30075596D02*
X21824307Y-30056548D01*
X21824307Y-30056548D02*
X21824307Y-29999406D01*
X21824307Y-29999406D02*
X21833831Y-29980358D01*
X21833831Y-29980358D02*
X21843355Y-29970834D01*
X21843355Y-29970834D02*
X21862402Y-29961310D01*
X21862402Y-29961310D02*
X21900497Y-29961310D01*
X21900497Y-29961310D02*
X21919545Y-29970834D01*
X21995736Y-30170834D02*
X22005259Y-30161310D01*
X22005259Y-30161310D02*
X22024307Y-30132739D01*
X22024307Y-30132739D02*
X22033831Y-30113691D01*
X22033831Y-30113691D02*
X22043355Y-30085120D01*
X22043355Y-30085120D02*
X22052878Y-30037501D01*
X22052878Y-30037501D02*
X22052878Y-29999406D01*
X22052878Y-29999406D02*
X22043355Y-29951787D01*
X22043355Y-29951787D02*
X22033831Y-29923215D01*
X22033831Y-29923215D02*
X22024307Y-29904168D01*
X22024307Y-29904168D02*
X22005259Y-29875596D01*
X22005259Y-29875596D02*
X21995736Y-29866072D01*
M02*
